<mxfile host="app.diagrams.net" agent="Mozilla/5.0 (Windows NT 10.0; Win64; x64) AppleWebKit/537.36 (KHTML, like Gecko) Chrome/133.0.0.0 Safari/537.36" version="26.0.16" pages="2">
  <diagram name="Page-1" id="Ts-oBJ8DjFBFVcd1W_8Z">
    <mxGraphModel dx="700" dy="417" grid="1" gridSize="10" guides="1" tooltips="1" connect="1" arrows="1" fold="1" page="1" pageScale="1" pageWidth="850" pageHeight="1100" math="0" shadow="0">
      <root>
        <mxCell id="0" />
        <mxCell id="1" parent="0" />
        <mxCell id="A7jKajFBfQxQjQhxYCSo-3" value="" style="rounded=0;whiteSpace=wrap;html=1;movable=0;resizable=0;rotatable=0;deletable=0;editable=0;locked=1;connectable=0;" vertex="1" parent="1">
          <mxGeometry x="160" y="160" width="600" height="320" as="geometry" />
        </mxCell>
        <mxCell id="A7jKajFBfQxQjQhxYCSo-1" value="&lt;font face=&quot;Quicksand&quot;&gt;Physical Object&amp;nbsp;&lt;/font&gt;&lt;div&gt;&lt;font face=&quot;Quicksand&quot;&gt;(E-mule vehicle)&lt;/font&gt;&lt;/div&gt;" style="rounded=1;whiteSpace=wrap;html=1;fillColor=#f8cecc;strokeColor=#b85450;fontSize=15;fontStyle=1" vertex="1" parent="1">
          <mxGeometry x="210" y="270" width="200" height="80" as="geometry" />
        </mxCell>
        <mxCell id="A7jKajFBfQxQjQhxYCSo-2" value="&lt;font data-font-src=&quot;https://fonts.googleapis.com/css?family=Quicksand&quot; face=&quot;Quicksand&quot;&gt;Virtual Representation&lt;/font&gt;&lt;div&gt;&lt;font data-font-src=&quot;https://fonts.googleapis.com/css?family=Quicksand&quot; face=&quot;Quicksand&quot;&gt;(Virtual E-mule vehicle)&lt;/font&gt;&lt;/div&gt;" style="rounded=1;whiteSpace=wrap;html=1;fillColor=#d5e8d4;strokeColor=#82b366;fontSize=15;fontStyle=1" vertex="1" parent="1">
          <mxGeometry x="500" y="270" width="200" height="80" as="geometry" />
        </mxCell>
        <mxCell id="A7jKajFBfQxQjQhxYCSo-11" value="" style="shape=image;verticalLabelPosition=bottom;labelBackgroundColor=default;verticalAlign=top;aspect=fixed;imageAspect=0;image=data:image/png,iVBORw0KGgoAAAANSUhEUgAAAgAAAAIACAYAAAD0eNT6AAAAAXNSR0IArs4c6QAAIABJREFUeAHtnQm4XVV99t+EBGQSFARa6+dY5loRtS1aRWIREa0TRavijFS02NYWpRajX1txqBb1qdKqKChq/LBAJLl77ZtcBASBiDKFIQkBAiGBhAQJGW5usj/Wufckd98zn7OHtdf6nefJk7vPsPda73r/7/uudfbZW+IBAiDgPgKJpinSARrW4Yp0jIxOVKy/VqSPyOhsGX1Bsc6X0XdlNEex5ipSLKPrZLRo4t9iGS3r8M++p/7+6yb2cXltn3bf48f4Qu2Y9ti2DbYttk3jbTvAfTBpIQiAAAiAAAi4gIA19iG9WEZvVKyP1czc6EJFmq9IN8topYy2yiipyD/bVtvm30704fsTAcX2zfbxKM3TM1yAnjaAAAiAAAiAQH4IzNNuinSoIp2kWB+X0Tdqxmh0l4w2VcTU8wgftu93TWDxdRmdqViv13wdojnaNb8BYc8gAAIgAAIgkCUCkfZUpKMV61QZnSujyxVpqYy2BWzy/QaHsQnsLlOkzz/5tcW7a9jO1R5ZDhn7AgEQAAEQAIHeEBjRQYr0uonv33868b36dow+968ptk0EgzmK9KnaGNix4AECIAACIAACmSMwon0V67UyOkdGV0x8v93vzJbP5XMugz3n4Oe1MbJjZceMBwiAAAiAAAh0jcD42fZHyuh0GX1PRnc8aSrM7PMx7TzDkB0z+4uGC2T0YQ3pCNmx5QECIAACIAACNQTmaJeaOUQ6beKnbo+wjJ/7Mn6ext9u349N/KzxLMV6hRZpJlUAAiAAAiAQEgL2LPNYH5XRZTJaj+F7a/jtwoB9bZ0iXSqjMzSsg0MqAfoKAiAAAmEgMKz9FOntivUdGd2H4Qdr+J0Cwb0y+h/F+isN6elhFAe9BAEQAAHfEBjW82q/Kx+/Gt4opo/p98iBsdoVESPNrv380Lf6oD8gAAIg4A0CI5oho1kyOm/iJ3mdZnu8Xr0T+8obs/HrOfynIh0ne94IDxAAARAAgRIRsEJsT+YaN/1VPc7wyjMTjLfq2K/V+KWa38AVC0usfw4NAiAQGAL2srqx/lKRfsgJfCzrOxD61snoIkUiDAQmRXQXBECgCARma/qkmf7DDoh+1WewtD+fVZhHJ60M8DVBEdrAMUAABDxFINYfKdKXZLQC02e2XzEO3F+7A6K9ABEPEAABEACBLhCwl3AdvyjPNRUTfGbV+cyqfcD19ifv+niWRrR/FxXAW0AABEAgIATsEv+wTlCsH8toM8bPbN9TDtjbH18so+NlOc8DBEAABIJFINIBtZmR0T2eCr4Ps1f6kM/KxgMav8bAAcHWPx0HARAIEIFIRyvW+TLaiPEz2w+cA1tq96AY1mu4WVGAWkiXQSAIBK7V7or1IRndGrjgM6POZ0ZdfVwj3Syj93JtgSAUkU6CQAAIjOig2lKnEXfZw/iqb9LFjOGqWs3Ye1jwAAEQAIHKITCsl8roRzLiOvzFmAbm6h/OjyvS12Tva8EDBEAABJxHwF6aN9Zclvn5bh8OZMaBbbWainSM8/VPA0EABAJDwP6kyV4K1eh6RD8z0WdG79+MPosxXaRYp3JDosA0lu6CgHMILNLMiRP7lmH8GD8cKJQDdyvS+2VrkAcIgAAIFIbAuPGfKqMliH6hop/FDJJ9+LWycK+MzpS9SRYPEAABEMgNgTnatbb8OH5vdIzELyNhPKs9nvfVgsCInpJb/bNjEACBABEY0YzacqORFRmMAgzggLscWK5I7+EcgQB1mi6DQOYI2CuUjV+gBNF3V/QZG8ZmKgfukNHJXF0wc0VkhyAQAALW+I1uZMbPigccqDQH7C9zZgWgWHQRBEBgYARiHSajnyP6lRb9qbNBtkNfIYgUa1gvHFgf2AEIgICHCNh7lRudJ6MxzB/zhwNecmCbjC6UvTw3DxAAARDQXO0xcUvexxB9L0Wf2X/os//G/m+Q0bka0V4oIAiAQKgIjF+9z/6OGJMAAzgQHgceqP2sN1T9o98gECQC83WIjIYwfoIPHIADirVQkY4MUgvpNAgEg8CI9q0t/RltQfgRfjgAByZxYGvtHKBY+wSjh3QUBIJBINIpMlo1qeBZ8g1vyZcxZ8w7cWClIr0tGF2koyDgNQJD+j0ZXYLxM9uDA3Cgaw7YW3pHepbX2kjnQMBbBBJNU6TTZMTZ/cz6Os36eB2ONOPA+tr9BeztvnmAAAhUBIEhvaB2Yg+i1kzUeA5ewIHeOHCN7AXCeIAACDiMgL1Nr9FZMtrc9VJfb0KAcIIXHAiTA6O1E4jtHUF5gAAIOIZArKMU69cYP9/zwgE4kCMHblGkP3FM/WgOCASKQKQ9ZfSfMrKX+WR2BgZwAA7kzYExRfpq7Sqigcou3QaB8hEweomM7sL4CT5wAA4UzoFYdyrS0eULIS0AgZAQsGf4G50pLuiT90yH/TObhgPtObBVkWZrjnYJSYLpKwiUg4D9ba7RlYWn/fYigEiCDxwImQP2csLz9AfliCJHBYEQELBX6DJai/mz3AsH4ICDHFivWH8dghTTRxAoDoHLtLdine9gwTPrC3nWR9/hf3MOXCirWTxAAAQGRMD+5MZoCebPjA8OwIEKcWC5jF4+oPrxcRAIFIERzZDRZ2Vk79LFTAMM4AAcqBoHrHb9CycIBuphdLtPBEa0v4yGMX6CDxyAAx5w4EoN68A+1ZCPgUBACNjf1Rrd60HRV222QnuZYcOB/DiwgisIBuRjdLUPBMbv3rcF82fWBwfggIcc2KxYH+pDGfkICHiMwDztJqP/8bDgmVHlN6MCW7CtKgcu1LXa3WNFp2sg0CUC4xf2uR7zZ8YHB+BAMBywNy6br+d0qZK8DQQ8RCDWsTJaHUzRM2Or6oyNdsPdPDjwiCL9hYfKTpdAoA0C49fyP0tGY5g/sz44AAcC5oDVwLNkNZEHCHiPwPjtey8JuODzmEmwT2aocKDaHJjD7YW9d7/AOziig2R0I+bPjM9FDhxw5QHJdDMdI622kVZ5/K7negGBe6S33R/SEfy+H+N30fhtm5511bOSDWMbksUbFhMCCABlhoh7FOswb32AjgWIgNEsGa1zVfxpV9jBpG7+ycSDEBA2HxzQg0c1pFcH6BR02TsEjN4ro1EHiqrMVM+xHZ1VTjV/QgDm74hWbVGsU73zAzoUCAL2rNZIsx0pJgzYUQMukx+tzJ8QQAgok5eTjr29pqH8QiAQ0/Slm3O0q4wumkRkDBgDdooDncyfEEAIcEi/vierqTxAwHkEfq6nyWjEoeJxynjApXxj6db8CQHljxX1smMMFmhE+zqv/zQwYAQW6NkyuoOi3VG0hA/HVj56NX9CAFx2SM9ul710Og8QcA6BSM+V0T0OFQvm65j5ls2Nfs2fEEAIKJu7k45/n4z+0Dn9p0EBI2B/t2r04CSSYr6Yr1McGNT8CQGEAGf0LdJDivVHATsOXXcGgSG9WEaPOFMcGK9TxusCL7Iyf0IAIcAFPk+0Ya2G9DJnfICGBIhArFfIaL1DRYH5EYBSHMja/AkBhACH9G69Ih0ToPPQ5dIRsLfyjfU7h4ohJfy0C6HOy/wJAXDLIX3ZwC2FS3fDwBoQ6/VP3sJyk0NFgPkz809xIG/zJwQQAhzSv82K9KbAXIjuloJArL/i0r6In0PilzJ+266izJ8QQB04VAdbZHRyKZ7AQQNBINI7ZbTVIdI3iD9tC1uUizZ/QkDYfHNMb8YU632BuBHdLBSB8Zv6bHOM8AQAlv53cKAs8ycEEAIc0sVt3ESoUGcM4GCx3sLMH5FzSOR2mH69TWWbPyGA+qhz0YH/xxTplACciS7mjkCs18poswOkbhB92oToWg64Yv6EAPjokCaNKtJJufsDB/AYAaNZnO2PqDkkag0h0DXzJwRQLw7Vy0YN6dUeOxRdyw2BYf2ZjB53iMwN4k/bwhZbV82fEBA2Lx3TpSc0pD/PzSfYsYcIGL1IRo86RmQCACf87eCA6+ZPCCAEOKSf9oqBR3voVHQpcwQiHSmjNQ6Rd4fo0yZE1XKgKuZPCICvDmnWIxrSEZn7BTv0CIEhvUBGKx0iLebPrD/FgaqZPyGAEOCQnq7SfB3ikWPRlcwQWKBny+h+h8iaEn7ahZBW1fwJAXDXIf1arkjPysw32JEHCMTaR0a3OkRSzJ+Zf4oDVTd/QgAhwCF9vV0/19M8cC66MDACizRTRsMOkTMl/LQL4fTF/AkBcNkhPbtS87TbwP7BDiqMQKJpMrrQIVJi/sz8UxzwzfwJAYQAh/T2YlkP4BEoAkafc4iMKeGnXQilr+ZPCIDbDunbOYG6X+DdtneNYrZJ6HCUA76bPyGAEOCI/m7n5kGhZYFYx8rI3j8aAwQD5zgQivkTAtAfRzR4VPay7zwCQGBYh8tonSPEc858wKVcUQ7N/AkB5fKNet+Bv71a4JEBOGDAXRzRQTK6F9LvID0BxKEVkFDNnxBAPTqiycs1rAMDdkiPu36tdpfRrxwhGsbrkPG6wInQzZ8QQAhwoQ5ldKMi7emxEwbYtfGf+/3MEYJh/ph/igOYf93+x/9fvGFxMt1MT2FE7RIQCuTAHH4e6FNOMDq7QPIgXBh81xzA/NPmX98iBGD4pWp2rE/4ZIHh9sWe3Wk0ViqZMMSuDTGkccL863bf/H9CACGgRD2wnnF8uMbpQ89j/R8ZPVIiiTA+wk9TDmD+zU1/6rOEAEJAifq9RvP1HB+sMLw+jOgptRM6MKCmBlRiUQXfHsx/qs233yYEEAJK1KvruWdAFeNDrO+USJrgTQ7sm4s25t/e7Fu9SghozifqrABcYp1fRQsMt82x/obCKKAwWF3pKehh/q3svbvnCQHUdGm6HukD4RpqlXoe6U9ktLk0omCKPZliKOOE+Xdn8p3eRQggBJSkGZs0rJdWyQrDa2ukA2S0oiSCYHyEn6YcwPw72XpvrxMCCAElafx9mqdnhGesVejxiGbIaKQkYjQVftqCUGH+vZl7t+8mBFBbJemr0RztUgVLDKuNRp8tiRCYPzP/phzA/Lu18/7eRwggBJSi+bH+OSxzdb23kY7hYj+IQSli0CL8YP79mXqvnyIEUPcl1P1WxfpT120xjPaNaC8Z3V0CCZrO+mgHgoT592rjg72fEEDNFa67kZbqMu0dhsm63EujCwsf/BazPtqBEGH+g5l5v58mBFB7Jejvt122Rv/bFultJQw6M38CUFMOYP792nc2nyMEEAIK94NIp/hvtC72cJ7+QEZrCx9wzK+p+YU+Dvsu3De5+Xc3Z+Nk7KVvBL5x/zeSaWYaHEWniuLAOtl7zvAoEIHZmq5YC0M3Hfrvxoxnn4X7JNevv75v0+KD2SJw/orzCQEEgKICgD3OL/hpYIH+L6OzMT83zC/0ccD8szXvrPZGCEAfCtWmSP9YpAWGe6xIR8toS6GDS5ouMk1X5liYf1Z2nc9+CAGEgAJ9YpRLBecdSyLtKaO7ChzUypgRmBQrdph/Pqad9V4JAcXWReA6tFhztUfeNhju/o3OC5xgBBIHVmMw/6xtOt/9EQIIAYX5RqQvhWvQefZ8SC/jan8UcmGF3CJoYP75mnVeeycEoB0FaceYjF6SpxWGt+/xG/38pqABZJbdwvxCxx/zz8uei9kvIYAQUIiGRbpZizQzPKPOq8dG5xQycBgf4acFBzD/Ykw676MQAggBhXhJpE/lZYdh7Xe+DpHRpkIGrYX4c+ywRQPzz9uWi90/ISDsei5Izzcr1mFhmXXWvbUX/DG6uqABY/ZLAGrgAOZfrDkXdTRCACGgAF+5UommZW2L4ezP6IwCBqlB9Dkm4mA5gPkXZcflHIcQQJ3nrvWxPhSOYWfZU6Pfl9G63AeIWS8BqAkHMP9yTLnooxICCAE5e8x6LdAzs7TGMPYV6dKcBwbja2J8YM7Mv2gTLvt4hABCQK66F+n/hWHaWfUy0ttzHRCMj/DTggPM/Mu243KOTwggBOTsOW/Oyh793s+I9pXRqpwHAwNsYYAh4475l2O+rhyVEEAIyFH/HtRl2ttv886id0b/meMgYPwYf1MOYP6u2HC57SAEEAJy9J8vZGGR/u5jSEc8eavf0RwHoKn4c7ywix7zL9d0XTs6ISBsPcjRD7Yo0qH+GvigPYu1MEfwMX9m/w0cwPxds1832kMIIATk4kWR4kFt0s/Pc+JfgznlQkBCwA6cMX83zNbVVhACCAE5aTAnBKZSTKQ9ZbQiJ7B3CD77p6DrHMD8XbVdt9pFCEAz6pqR4f/LNaKnpDww6I1Yn8kQXAyfWX5bDmD+bpms660hBBACMvenWJ8M2vN3dH5YByrW7zIHGBNsa4Kh4o35u263braPEEAIyFQzreeN6KAdPhjsH7G+kymwGD/G34IDmL+b5lqVVhECCAEZe9U3g/X9WseH9UIZjWUMKgbYwgBDxhnzr4rNut1OQgAhIEMdHVOkI8MNAUZRhmBi/Bh/Uw5g/m6batVaRwggBGToW1eEGQCMjs8QxKbCz/4pVMy/avZajfYSAtCWzPxlSK8OKwQkmiajX2UGIDNfAlATDmD+1TDTqraSEEAIyMjDrpf1xGAeRidnBBzG18T4wJZb+lbVVKvWbkIAISATvY30hjD8f452kdHiTEDD/AhATTjAzL9qNlrt9hICCAEZ+Nmtmq3p/oeASB/IACyMr4nxgSsz/2pbaXVbTwggBAysv5He6XcAmKfdZHTfwEBhfgSgJhxg5l9dA/Wh5YQAQsBA3hZpqRZppr8hINbfDARQE9FnfxSd5QDm74OFVr8PhAD0aCBPivR+PwOATTZGywcChwDAzL8JBzD/6hunTz0gBBACBvC5ZRrRDP9CgNGHBwAF42tifODJzN8n4/SpL4QAQsAA+vxevwLA+Oz/ngEAIQAQABo4wMzfJ8v0ry+EAEJAX55nzwXwahUg1of6AgLTazA9cBwXFczfP8P0sUeEAEJAX5od6T1+rAKM/+5/WV8gEAAIAE04gPn7aJX+9okQQAjow//u8uO6AEbv6KPzGF8T4wNHvvP31yb97hkhgBDQs37Hemv1VwFi/brnjmN+BKAmHGDm77dJ+t47QgAhoEcvvKHaAWBYJ/TYYYyvifGBITN/380xlP4RAggBPel5pOOqGwKMRnrqLOZHAGrCAWb+odhjGP0kBBACevDFqJoBYEgv66GTGF8T4wM/Zv5hWGJ4vSQEEAK61vdYR1UvBBj9qOsOYn4EoCYcYOYfnjGG1GNCACGgS4+8sFoBYIGeKaPRLjuH+TUxv9Cxw/xDssJw+0oIIAR0ofWjsp5amUekz3fRKYwf42/KAcw/XEMMseeEAEJAF375uWr4/7XaXUZruuhQU/Hnc2EXA+YfogXSZ0JA2LrXhe89LOutzj8indZFZzB/Zv8NHMD8McKQESAEEALaemekDzjv/zK6tW0nML4G4wMvzvYP2fjo+04ECAGEgJZ+EOlmtwNApFe2bDzGj/G34AAz/50GwF8gQAggBLT00UjHuBsC+OkfJt/C5FsRGvPH8ECgEQFCACGghWY6+pPAeXqGjDa3aDTG2KMxhoAj5t8o/DwDAnUECAGEgCY+sFnWa517RPpUk8Zi/Bh/Uw5g/nWZ538QaI0AIYAQ0OCrsT7hlv/P1nQZ3dPQUMyvqfmFjhPm31rweQUEpiJACCAEpDwj0lJZz3XmwV3/MPouwx7mP1Xe2QaBzggQAggBqRBgNMsZ/5fRT6Y0DkPs0hBDwg3z7yz0vAMEWiFACCAETPKLi9wIAEN6uow2TWoY5o/5N3AA828l6zwPAt0jQAggBEx47UaNaN/yQ4DRGZg/pGzHAcy/e4HnnSDQCQFCAHpb01t71d3SH0aL2ok/r4VNVsy/k5zzOgj0jgAhIGxdnfDV68r1/0hHYvAQsRUHMP/ehZ1PgEC3CBAC0F4N6/DyQkCkL7USf54Pm5yYf7cyzvtAoH8ECAFh66yM/r2cADD+2/8VGH3wBOSEv/71m0+CwMAIEAKC1uD7lGha8SFgSK/G/IMmXoPxWz4w8x9Yz9kBCPSMACEgaC1+efEBINJ/EwCCJl1DAMD8e9ZtPgACmSFACAhWj79RbACYo11ltIYAECzhMP/MZJsdgUB2CBACgtTkh7VIM4sLAbH+EvMPkmgNxs+yf3bizZ5AIAsECAFBavOJxQUAo4sJAEGSrCEAsOyfhWSzDxDIFgFCQHD6fEExAWCedpPRYwSA4AiG+Wer0ewNBHJFgBAQlEavk/1qPvdHpJMw/6CI1WD8LPvnqtvsHAQyQ4AQEJRWH5+7/8vouwSAoEjVEABY9s9Mn9kRCOSOACEgEL2OdX6+AWBEM2T0CAEgEEI1uash5p+7XnMAEMgcAUJAEJr9iKxH5/YwmoX5B0Gkhlk/y/6ZazI7BIFCESAEBKDdsY7Nzf8V6WsEgABIxMy/UGHmYCBQFAKEAM/1O9ZX8gwASwkAnhMI8y9KizkOCJSCACHAYw2PtDSfAMCtf5sui/seiPjOvxSN5qAgkCsChACPQ8B8HZJ9CIj1Sd/Njv6liwLzz1WD2TkIlIoAISCtdx7p/z9kHwCMrvEIoCBn872MH+ZfqjZzcBAoBAFCgIchINbCbAPAsPaT0VgvBsJ7q0sszL8Q7eUgIOAEAoSA6mp1C58d1Yj2zS4ERHp7iwMxk25y0lyVscL8ndBkGgEChSJACPAsBMR6S3YBINZ3qmxqtL07cmP+hWouBwMBpxAgBHSnkxXxk29mFwCM7qtIp1mR6HNFAvN3SotpDAiUggAhwJsQsDybABDpUMzfG1I0DUiYfylay0FBwEkECAGe6P2wnjd4CIj1MQKAJ4RosjqA+ZevwVc9elX5jXCoBduSbcniDYsdalF4TSEEeKH5pw8eAIwuJwB4QYaG2T/mX76w/3TVT5MTbzqx/IY41IJt27clB115ECGg5DEhBFRe9y8ZLADM0S4yWk8AqDwRMP+SxbTZ4a35z4xnJsf/+vhmLwf7nA0AVnMIAeVTgBBQae1fq9ma3n8IiHQ05l9pAjQYvx1PZv7lC2vd/O14EADS41EPAISANC5lbRECKuwBw3rhIAHg7wgAFR58vvMvSzPbHney+RMAGqGaHAAIAY34lPEMIaCiPhDro/0HgFj/SwCo6MBj/mXoZMdjTjV/AkAjZFMDACGgEaMyniEEVNIL5vQXABJNk9EjBIBKDnrD0j/L/mVIZvqYzcyfAJDGyG41CwCEgEacyniGEFA5P1gt6+U9P2L9EeZfucFuMH47hph/GVKZPmYr8ycApHGyW60CACGgEasyniEEVMwX7LV8en4YnU4AqNhAs+xfhh52PGY78ycANMLXLgAQAhrxKuMZQkClvOGDPfu/In2fAFCpQW6Y/TPzL0Ma08fsZP4EgDRedqtTACAENGJWxjOEgMr4w7d7DwCx7iQAVGaAMf8yFLDDMbsxfwJAI4jdBABCQCNuZTxDCKiER9zWWwCw9xI22k4AqMTgYv5lKF+HY3Zr/gSARiC7DQCEgEbsyniGEOC8T2yX9fSuH8M6AfN3flAbjN+OGcv+ZUhg+pi9mD8BII2d3eolABACGvEr4xlCgON+MazXdO3/ijSbAOD4gHLCXxk61/GYvZo/AaAR0l4DACGgEcMyniEEOOwZkT7dfQAwuoIA4PBgYv5l6FvHY/Zj/gSARlj7CQCEgEYcy3iGEOCob8Sa230AiPQQAcDRgcT8y9C1jsfs1/wJAI3Q9hsACAGNWJbxDCHASe94oLsAMKTfw/ydHEC+8y9Dzbo45iDmTwBoBHiQAEAIaMSzjGcIAQ56yLAO7BwCjE4kADg4eMz8y9Cxjscc1PwJAI0QDxoACAGNmJbxDCHAOR85vnMAsCcLNDEbnnNrMDnbvwxJSx8zC/MnAKQxtVtZBABCQCOuZTxDCHDKN87qHACMLsHsnRq0hqV/zL8MKUsfMyvzJwCkcbVbWQUAQkAjtmU8QwhwxE9i/bhzAIi0lADgyIA1WYnB/MuQsPQxszR/AkAaW7uVZQAgBDTiW8YzhAAHPMVe3bftY672kNE2AoADg4X5l6FTHY+ZtfkTABohzzoAEAIaMS7jGUJA6b4ypmu1e+sMYPQSzL/0QWpY8rdjwsy/DMlKHzMP8ycApDG2W3kEAEJAI85lPEMIKNlfhvTHrQNArFMJACUPEDP/MnSp4zHzMn8CQCP0eQUAQkAj1mU8Qwgo1WPe0ToAGJ1LACh1cBpm/8z8y5Co9DHzNH8CQBpru5VnACAENOJdxjOEgJJ8Jtb/bRcALicAlDQwzPzL0KGOx8zb/AkAjUOQdwAgBDRiXsYzhIBSvOaSdgFgGQGglEFh5l+GAnU4ZhHmTwBoHIQiAgAhoBH3Mp4hBBTsNy1/CTBPu8lojABQ8IAw8y9DdzoesyjzJwA0DkVRAYAQ0Ih9Gc8QAgr1nK1apJmNqwCxDsP8Cx2Ihlm/xd9+53/DYzeUUYcccwKBOavmJDPiGU3HJ48aOf7Xx4P9JASKDAB2PP/gqj9IljyxZFIL+LNoBM6777zC6i2PGq7UPof0gsYAEOkNlepEk5lz1du/6/CuiVljiq49jjcJgSJn/nW+EgAmDUABJwHWcZ/8/0FXHpQs3rA43RC2CkXgnKXnEAKK8LVhndAYAGJ9fHJB8HexqwHT4+mJnXnyKA+BMszf1hkBID3mRa8A1LWOEJAehzK2PnrHRwkB+YeAMxoDgNHX64XA/8Wav8X7i8u/WEa9ccwJBIpe9p9cYwSANA3LCgB2TPg6ID0WRW+NbR9LZi2aRQjIMwTE+kpjAIg0f7Io8XdxIeCEX5+QbE+2F11rHG8CgbJm/vUaIwCkqVhmALBjwkpAejyK3lq1ZVVtDOr1wf+Ze9HljQHA6G6Azhzojkn2wCsPTB7a8lDRNcbxJhAo2/xtzREA0nQsOwDYMSEEpMek6K35a+Yn08y0jvqJZ/XlWYvTASDRNBn/+ugEAAAgAElEQVRtAsy+wByIpD9b/bOia4vjTSDggvkTABrp6EIAIAQ0jkvRz7z/9vcPpK34WUs/25AOAJEOAKyWYOVGQvtdF49yEHDF/AkAjePvSgAgBDSOTZHPrN6yOtl34b656W/Qnjekp+8MAZGODhqMPE+4aLHvmfFMfnZUpJpMOlaZJ/w1qzO+Apg0OCX9DLDZuNSf48TA9PgUufXV+75KAGjhIXV+9vV/6q6Akd7U107yaFgg+3zfbe8rso441gQCLs386zVHAEjT06UVgPoYcU5AeoyK2hrdPpo866pnEQKy9sVIJ+1cAYj1sTrR+T//rwLsyS23PX5bUTXEcSYQcNH8bb0RANIUdTEA2HEiBKTHqagt+xNpfCljX4r0kZ0BwOgLAJwxwG0S20m/Oamo2uE4Ewi4tuw/ud4IAGmauhoA7JjxdUB6rIrYemzrY5wL0MZPJmtJ139H+vzkAHBR1x/MuiEB7m/uw3OLqBuOMYGAqzP/es0RANJUdTkA2DFjJSA9XkVsnb74dFYBsvXK700OAKYuRvyf70rA00aelmzZtqWImuEYSZK4bv623ggAaaq6HgAIAenxKmLrykevJABkGwDm7QwAkW7G+PM1/jq+H1784SLqhWNUxPwJAI1UrUIAIAQ0jluez1hOPPMXzyQEZBUCYv16cgB4qG5Q/J9vEGD5P0+Z2Llvl7/zn1pjrADsHDf7V1UCgB1HzglIj12eW6ctPo0AkFUAMHpgPADM1nQZbZ0qSmxnHwTsHf/Wjq7Ns0bYd4Vm/vUaIwCkaVulAGDHkHMC0uOX19YPVv6AAJBdABiVvQKw5ukZdSHi/+xNfzKmL7ruRXnVBvudQKAK3/lP5oT9mwCQpm/VAoAdQ0JAegzz2FqxaQUBILsAkKh2NcBhHT5VkNjOJwjYJSwe+SFQpWX/yTVGAEhzoooBwI4nXwekxzGPLc4DyNCb5usQyejlk8WIvzMEeEpa+/K9X86jJthnBZf9J9cZASBN4aoGADumrASkxzLrrWNvPJZVgCm+MllLevo70p9IsV7f04eyOniA+7ns4cuyrgf2V3Hzt7VHAEjTuMoBwI4nISA9nllufej2DxEAsvLOYZ0gRXonASC/Wf9kbG95/JYsa4F9JUlS1WX/ybwgAKSpXPUAYMeWrwPSY5rV1rnLzyUAZBUAIr3drgB8dLIY8Xd+YeD+TfdnVQfsx4OZf73WCABpOvsQAOzYshKQHtcstr654psEgKwCgNHpdgXg03Uh4v/8zN9i++joo1nUAPvwyPwtLwgAaUr7EgDs2BIC0mM76NZFKy8iAGQVAGJ90q4AfBHjz9f46/hyCeBBy3/88z4s+9c5Yf8nAKR54VMAsOPL1wHp8R1k69KHLyUAZBUAjM61KwD/NVmM+Du/MPDE2BODcJ/Pejbzr9caASBNbd8CgB1nVgLSY9zvlr3OR71u+H9gr/q6/Rng9wByYCC7IuXqLav75T2f89T8be0RANL09jEA2HEmBKTHuZ+tCx68oCutxdO68LRY37EB4CeA1QVYGSy7LNu4rB/O8xmPzZ8A0EhvXwMAIaBxrHt95mv3f40AkIEXTXj+xfYcgLkEgGICwHXrr+uV77zfk5/6tasxVgDSNPc5AFgecE5Aerx72fr00k8TALIKAJEutSsAC9qJE69lFw7sGaw8ekOgitf277VmCABpTvgeACw/+DogPebdbp1yyykEgKwCgJGxJwFe26tg8f7+QsE5S8/plue8z/Nl/8k1RABI0z2EAEAISI95t1sv/tWLCQDZBYCr7QrATZPFiL/7M/ducHvrb9/aLc+Df59vP/Vrxw8CQJruoQQAywm+DkiPfbutrdu3Jnst2IsAkF0AWGQDwC3txInXsgsEB155YLI92d6O47wW0My/XlsEgDTtQwoAlgN8HZAe/1ZbNzx2A+afnflbLH9rA8DiuhDxf3Zm3wrLOzfc2YrfPB+g+VueEADS1A8tAFgOEALSHGi29aV7v0QAyDYA3GoDwF2tzIrnsw8E9lrWPJojENKy/+TaIgCk+RBiALB84OuANA+mbr3+ptcTALINAHfYkwCXThYj/s7e9Cdjetyi46bymu1AZ/51XhAA0iUQagCwfGAlIM2F+ta6reuS3YZ3IwBkGwDutisAy+tCxP/5mr/Fd3o8PXlg8wN1XvN/4OZvOUEASJdByAHA8oEQkOaD3fr2A9/G/LM1f4vnPTYA3I/x52/8kzH+yr1faWR4oM+Euuw/mQ8EgDT5Qw8Alht8HZDmxGsWvYYAkH0AuI8AkD2oHYn63Kufm9iftIT+COEiP5ONvtXfBIB0JRAAxickrASM8+KWx29JpplpHXW1VX3xfMsJbi0A8BVACSHgRw/9KK16gW1h/juLkgCQJj8BYCc3CAFJ8s5b34n55+NR93ASYD7AdiTsUdcdFew1AVj23ynwdnZCACAAtJulhvx1wPKNy5OZ8cyOetoOP15L680kPGonAfIzwJJCwPce/F5a+QLYYubfWIwEgDTxWQFo5EioKwEn33wy5p+fP91hzwHgQkD5AdyWvPbKgOu3rk+rn8dbmH+jsNs0TgBIk54A0JwnoYWAqx69iu/+8/Wm2oWAuBRwviC3DQFn3nlmWv083WLZv7moEwAaCU8AaM2VUL4O2Lxtc3LktUe21c5JS9m8rz8Pq10KmJsB9QdeJqSzZ7fOfXhuowp69Awz/9aCTgBoJDoBoD1fQggBH7/z45noKyGhLZcWcTvgEs2/Ts4DrjwgWbl5ZaMSevAM5t+2AGsix1cAaaITADpzxucQMO+ReSz9F+NLtdsBD9eNiP87F15eGB1747HJlm1b0kpY8S2W/bvjEwEgTXQCQHe88TEELHliSbL/yP7M/osJAJEUa25epsZ+uyvkOk6n3HJKYsXPhwcz/+7HngCQZjwBoHvu+BQCHt7ycHLwNQdj/sWYf6JIl9pfAfykbkD8333h5YXV3975t2k1rOAWM//eeEQASJOcANAbf3wIAY+PPZ4c/aujMf+izH/8OBfbAPC9vMyM/fZWyHW8zrjjjMquBFzw4AXJjHgGhdxDIRMACAD12u/3f/sTwZt+d1MayIpsrR1dm7z8hpejGT1oRr88SX0u1nfsSYD/lXqy6EZwvKbEf/Nv35xs2rapIiU83sxzl5/btC/wq30QJACkac4KQHu+tKqnvRbslURrojSYjm/ZK/0d8stD0I1yfPDr9hyAL7YiFM/3V4hZ4fbnN/55JW4dvGFsQ3LqradSxH0WMQEg7VIEgP51Z7fh3ZJvrfhWGlBHt0YeHand+jgrvWQ/PfPmXPsVwNkA1zNwhZndfiP7JZc/fLmjJZwktz1+Gxfs6NP463VHAEjTmwAwuB7ZFcRHRx9NA+vI1tj2sWT2stnJLvEuhelovdb4P8Wts+xXAB8BlBQozpHSXizotMWnJWtG1zhSwklir9T1b/f8W/KU4ac4h1fV+EwASNOaAJCNHj3n6uc4d5Gx3/7ut3zfP+CEIUN9+7D9CuCvM9whZpDj4D5t5GnJefedl9gEXeYjXhsnh/3yMMY6o7EmAKTZTADIJgDUdX3WolnJ7RtuT4Nc8JZdjbCXPecE4WzHtj7Gff0f6RT7FcCJfX04I/Hj2L0T4nlXP68WBDZu21hYGW9PttdmE5yt2/t4deI4ASBNYwJA9hyzt9S1d9a78bEb02DnvLV6y+racr+dvHSqA17Pftw7YHq8/QrgmA5vYuAcDTv2pz+fWfqZ5M4Nd+ZWxvYSxXbV4fBfHg4PcuIBASBNXwJAfkZgv0488aYTE3uhrrwmEHb8Fq5dmLz/9vcn9qRE/CW/8RwI2yG9zH4FcNhAO8lJFGlTb6Q56rqjat/JX7PumoEuKWyL135PZ03/uEXHcaJOAfwmABAAytC7vRfunbzr1nclP1j5g2TFphXpQehxyy7x25OV7YXMfv8Xv4/pF6AbA3NmWAdLI9p/4B1VobMBtXGPBXskr7rxVcnpi09Pvnzvl5PLHr4suW79dcnNj9+cLNu4LLG/vbXfCd7w2A3JFY9ckXzj/m/Uvp874dcnJCzV9Ra8sqgdAkDabVgBKJ6DlsfPvfq5ta8Jzl5ydvLdB7+bLFi7IFn02KLk7ifurmmG1Q67fdWjVyU/euhHyeeWfS55963vTl547QuT6fF0TL9qHjOifaVE0578KeBoFkLGPsopXHCvNu4EAAIANVztGq7g+G2ueb/sw2hlBTtA4qxa4qS9TTlLACAAoL8EgII5cH/N+ycCwG8KPnhTIaQNFEGIHCAAEABC5D19LlXvF00OAEMMRqmDQSAKeHWAAEAAQH/R34I5cMXOABDp+wUfHMML2PDgWlrsCAAEAGoiXRPgkTse390ZAIzOBfDcASf0EHqacoAAQABAf9Hfgjnw7zsDQKyPFnzwpkJIGyiCEDlAACAAhMh7+lyq3p++MwAYvZHBKHUwCEQBrw4QAAgA6C/6WygHYr1+ZwCIdVShBw9Y7MGZQp/KAQIAAWAqJ9hGJ3LlQKw/2hkAuBogM3BCWWkcIAAQAHIVe2q7tNp2dlxrVwHcGQHsxYCecLaxEBgCe8wBAgABAO1lxl8gBx6fbP3jfxvdVWADMDSPDQ0e9SZmBAACADXTW82A10B43d4YACLNB9SBQCXUEGr64gABgACA9qK9BXLg8sYAYPT1AhvQl1DSPorERw4QAAgAPvKaPjmq17G+0hgAYn2cAXN0wJhZex0YCQAEALQX7S2QA2c0BoBIJxXYAK8FHRwp5l44QAAgAPTCF96LvgzEgVivbRYADh1op8xSCTVwoC8OEAAIAGgvpl4YBxbo+Y0BYI52ldFYYY3ALPoyC8bHP6EgABAAqGv/6trRMR3ViGY0BgD7TKSljjYasyQwecsBAgABAN0lABTEgTuam7991ujyghrhrZiDH4XcKwcIAASAXjnD+9GZPjlwSesAEOnzfe4UQ2eGDgf65AABgACA7mLoBXHgc60DQKxTC2oEZtGnWTA+/gkFAYAAQF37V9eOjuk7WgeASEc72mgCA4HBWw4QAAgA6C4BoBAODOuFrQPAXO0ho22FNARD89bQ4E9vYkYAIABQM73VDHj1hdeYRvSU1gHAvmK0BHD7AhdDJ9T1xQECAAEAzUVzC+BAm18A1GOB0U8LaEhfQkm7KBIfOUAAIAD4yGv65JxeX1y3+db/G53NwDk3cAQmj1cXCAAEADQXzc2dA5H+sbXx11+J9LrcG+KxmIMdhdwrBwgABIBeOcP70ZmeORDpL+o23/r/SAf0vGMMnRk6HOibAwQAAgCai6HnzoF5ekZr45/8itHK3BuDYfRtGIyNX2JBACAAUNN+1bSD47lissW3/9vo5w52AMMkNHnJAQIAAQC9JQDkzIHL25v+5FeNzsm5MV4KOZhRxP1wgABAAOiHN3wGvemaA7H+ebLFt//b6Piud8yslDADBwbiAAGAAIDeYuY5c2BWe9Of/OqI9uWKgBAyZ0IOZJo+tY0AQADwic/0xTnv2KZ5eupki+/8t9FiBtK5gcQ0PVxtIAAQANBatDZHDtzS2fCnvsPouzk2CCPz0MjgS38iRgAgAFA7/dUOuHWBW6T/nmrvnbeNPgy4XYCLkRPmBuQAAYAAgNaitblxINIHOhv+1HcM6YjcGjSgYNIuisUnDhAACAA+8Zm+OKbPwzp4qr133k40TUarGUzHBpPw5N2KAwGAAIDOorO5cCDSQ53NvtU7jH6WS6MwMe9MDJ70L2AEAAIA9dN//YBdW+x+0sreOz8f6+OA2xZcjJwwNzAHCAAEAHQWnc2JA2d0NvpW74h1VE6NGlg0aRcF4wsHCAAEAF+4TD8c0+VIR7ay987Pz9EuMlrHoDo2qMy6vQqQBAACABqLxubAgTWaremdjb7dOyJdmkPDvBJw8KF4B+EAAYAAMAh/+Cz604IDP21n7d29ZnRGi51j4szE4UAGHCAAEADQWEw8cw5EOq07k2/3LvsbwgxEjn1AcDjQnAMEAAIAtdG8NsBlAFyG9bx21t79a0bLGYgBBoIAxUpBGw4QAAgA6Cv6mjEHlnRv8J3eafTtjBuHIbQxBLAOSwwIAAQAaj6sms99vCP9Vydb7/71SKfk3mAMkVAUKAcIAAQA9JUAkDEH3ty9wXd655CeLqOtGTcQwwvU8OBRWuwIAAQAaiJdE+AxEB6jirVPJ1vv7XWjXzAoAw0KgYfA05QDBAACANqKtmbGgUhxb+bezbsj/WNmDcQImhoB+IYpAgQAAgC1H2bt5zLu9hL+mT9iHZZLYwkDhIHAOUAAIACgrQSADDnwh5n7f22HRksybCTGF7jxwaVx0SMAEACoBQJARhy4Ix/zt3s1+s+MGon5Y/5wYIIDBAACALpKAMiIA1/OLwAM6dUZNRLxJwDAAQJA2vkntrZt3wY30Ac40A8HIr0yvwAwfnfA1YQA0iocyI4DrACkcwABIDtuUadBYblK1qNzfRj9D6QKilQk8X6SeA+fIQAQANBUNHVgDmR69b9WKSLS6wZuaA/iyLEoDN85QAAgAPjOcfpXiI7PamXb2T2/SDNl9CgDWsiAMvsOICwSAAgA6Cl6OiAH1mhEM7Iz+nZ7MrpowMZibAEYGxzpTtQIAAQAaqW7WgGnljh9u51lZ/tapDcwEC0HgnBDuOmJAwQAAgB6ip4OxIFYr83W5NvtbfxrgDUDNRiT6MkkwNpfgSAAEACob3/ru4CxXV3c8n89GBh9q4COYZIEJe85QAAgAKClBIABOHBe3ZaL+9/oVQM02HtRBxsKulsOEAAIAN1yhfehKw0ciPWnxRl//UiJpsloeUNjmLESbuBATxwgABAA0FGMvU8OLJP14lIeRl/os9E9CSTHoDh85gABgADgM7/pW476HelfS/H+2kGHdASDm+PgMpMOIigSAAgA6Cg62hcHYh1WXgCwRza6sa+GY25BmBvc6CxsBAACAHXSuU7AqAGjX5Zr/vbokT7CwDQMDOZOwOuaAwQAAgAaiob2wYEPlh8AYu0jo419NL5rgWTfFIfPHCAAEAB85jd9y0W/N2pE+5YfAGwLjH7EIOcyyISkAFYSCAAEAPQT/eyJA5G+74b5jweA43tqfACiDh4UdLccIAAQALrlCu9DV2ocGNKr3QkA49cEWAI5IScc6J0DBAACAHXTe90EjNmS8n773yp2GJ0V8ICwVM+qTt8cIAAQANBOAkAPHPj7VjZc3vMj2l9Gm3roRN+CyTEoFp84QAAgAPjEZ/qSqz5v0rD2K8/o2x050g8Z/FwHn9Dk4UoDAYAAgG6im11xwKmT/6aGgViv6KoTHoo4/aaA++UAAYAA0C93+FxgujOsP5tqu25tR7oZUgZGSgLdQCszBAACAJqJZnbBgd+4ZfbNWmP03i46MpBgsn+KxScOEAAIAD7xmb7kps/vbma5bj23SDNltAIS5EYCwpNnKw4EAAIAeoleduDAA5qjXd0y+1atifSpDp3BxDwzMca7fwEjABAAqJ/+6ycQ7P6pld269/zP9TQZPR7IwBBmCDMDcYAAQABAKwkALTkQ63fuXPe/27hhdF7LDmEYAxkGuPolFgQAAgA17VdNZzye/9Gt7brzvvl6joy2ZgwExkl48o4DBAACADpJAGjBga1aoGe7Y+y9tMRoTotOeSfi9JMC7pcDBAACQL/c4XOe6469uF5lH8N6KQT1nKCsSAwcZgkABAB0Ep1syoEhvayy/l9ruNHVTTuGcQxsHODqh2gQAAgA1LIftZzpOMZaWG3zt62P9KZMQSE4EBw84wABgACARhIAGjgQ6/XVDwCzNV1Gdzd0zjMRp38UcL8cIAAQAPrlDp/zVncWK9G06geA8VWAD0BUb4nKisSAYZYAQABAH9HHKRyowGV/u40n45cHXjalgxjHgMYBnn6IBgGAAEAt+1HLGY3jEo1oRrf2Wo33GX0wI3AIDgQHrzhAACAAoI0EgB0ciHVqNUy9l1aOrwLcs6OTmJhXJsa49i9gBAACAPXTf/14hV2kpf7N/utBIdJpXg0WIYYQkwEHCAAEAHSRAFDjQKT31O3Sv//t7QyNlkN2yA4HdnKAAEAAoB521kPAWNzt7+y/Hmdswslg1sQ+KBhfOEAAIAD4wmX6MYAuR3p73Sb9/X+OdpHRbRBlAKIQoLz66oEAQABAD4PXw1tkr5kTxMPozRA+eMJ7ZeKD8JkAQAAYhD981gstPTEI79/RyUjXQlwviIuRD7giQwAgAKCFQWvhNTt8MZg/jGZB+qBJT3CYCA4EAAIAWhiwFkZ6ZTC+n+popPkQP2DiDzhz9oU7BAACgC9cph896/llKU8MaiPWYTLaCml6Jg2zZ4/CAwGAAIAGBqmBWzWsw4Py/IbOxjof8gdJfkIMXwGknX9ia9v2bXDDo4CLvrfQ90hfa/DD4J6IdICMHoMkLUiCEHhvBqwApHMAAQAtCMAP1mlE+wfn9007HOufAxhw742MMexPuAkABABqp7/aqSxusT7R1AuDfPJa7S6jeys7mMzSCTcDcIAAQABA+wIKAPaGP/O0W5Be37LTkd5GEQRUBAMYpm88IQAQAHzjNP1po+WR3tDSB4N+wWgI4rQhDqbp5UoDAYAAgO4Fo3tR0B7ftvPjPwscpRiCKQYvDb1X/hIACAC9cob3V1Ijt2i+DmnrgcG/aPQfkLuS5MbM+1yhIQAQANC8IDTv34P3944AzNNTZbSSggiiIAgNRgkBgACA3nmvdys0or06+h9vkGR0MgXhfUFg/hMrBgQAAgB657neRXoT3t4LArH+l6LwvCj6XDL3jRcEAAKAb5ymPynt/kkv1sd7LQJD+j0ZrYNIKSIxa/YwNBAACADonLc6t15Gv4+p94OA0ekUhreFQZjhK4C0809scSlgat4b3Y/0/n6sj89YBBJNk9ECb8jg4eyVsRlcrFkBSOcAAsDgnKIuncBwpOZhuPkACAzrYBltgtBOEJpZew4hjgBAAEDfvNO3jRrSCwZwPj66A4FIn6ZAvCsQwgRfAaSdn68AqIkcAnZJ3vFPO/yLPwZEYEQzZHRTSQNJUfpTlE6OJSsA6RzAVwCE/Ypr/W+1SDMHdD0+nkJgWC+V0VjFieGkAYFpuYJLACAAUIPl1mCG+G9VpKNT3sVGRghE+mqGA4UZM7N3ggMEAAIAuuZNAPhCRm7HbhoQmKs9FOtOisWbYnHCgMvmEwGAAFA2Bzl+Jpp6u67V7g2+xRMZIjCkF8toC4TNhLAYsAOrIAQAAgB6Vnk92yyjF2XodOyqJQKxPknBVL5gCB8T4YMAQABAzyqvZ3/f0q94IWMEZms6FwiqfMEQAAgAaeef2OJXANR2xQKRkfUkHgUisEDPlNHaihEF03Ngyd01zrACkM4BBAACgGs12qY9jyrSswp0Pg61A4FYb2kzMJgtZlsJDhAACADoWGVDz8k7/Ig/SkDA6AKKp7LFUwmDzptfBAACQN4cY/+5aOS3SnA8DplCINKeMroLgudCcAy6gFUUAgABAP2qnH4t0Yj2SnkRGyUhYPQSGY1SRJUrIgKGUUIAIACgXZXSrlEN6WUluR2HbYqA0TkUUaWKCPPnVwBp55/Y4iRA6thxLT+rqQfxZIkIzNEuihQ7ThxMr4Al9apxgBWAdA4gABAAHK7hefzkr0Sfb3voIT1dRvc4TB4CAAGggQMEAAIAmlWJ0HOvRrR/Ww/ixZIRsJdjNNpIQVWioBrMMMRxIwAQAELkfcX6vIm7/JXs7V0f3ujdFSMXRhjwygABgACAXjk+YYn1vq79hzc6gECs8ykqx4sqYNOfzE0CAAFgMh/42znd+roDjkYTekJgkWbK6BqKybliYrVjSvAhABAA0Clndeo6zdGuPXkPb3YEAXuNZqPVFJezxUUY4DoAafdPkoRfAVCvjmj2Ktl7zvCoMAJDerWMtjpCKAxvyuyXceFCQFMTAAGAAOCALljPeFWFnY+m70Ag0j86QCjMH/NvygG+AkhHAAIAAcABvT5zh3/wR8URSDRNRnMcIFVTA6BdYQseAYAAgAY4pQEXV9zxaH4DAtdqd0W6lkJzqtAIREbJsTcem3bAwLc2btsIL1gtK4sDN2iu9mjwD57wAAF7FSejJYQAQoBLHDj6V0cHbvnp7q/esros8ee4YQePexTpAA+cji60RCDSoTJ61CUDoC1hB5KDrzk47YCBby15YglGHLYRlzH+azVfh7T0DV7wCIFIr5TRZow3bON1ZfyfceUzArf8dPdvfOzGMgyAY4YbOrbI/lqMR0AIRHq7jLa7YgK0I+wwsm7rurQLBrx18UMXY8bhmnHRY2894F0BOR9d3YFArM9gvGEbryvjf/366wO2/HTXP7P0M0WbAMcLNXBE+tQOP+CPwBAY/3ngBa6YAO0IN4x8f+X30y4Y8NYpt5yCIYdqyEX2O9Z3AnM8utuAgL1nQKQY8w3XfF0Y+79Z/DcBW36668++6tkEgCKNMMRjxVrINf4b3DDQJ+bpqTK6xQUjoA1hBpFDf3lo2gUD3eIXAGHyv2Ddu00j2jdQt6PbTREYv3HQ8oKJyEwnxNlHiz4/sPmBQG1/Z7e/teJb1EQLfqBNmYSjZdzgp6kD8qQW6PkyepBCy6TQEPIehfybK7650wkD/euk35wEb3rkDXrVtV49oEjPxelAoDUCwzpYRqsoqq6LCsHOSLCPueGYQG1/vNv2CoAz45nwKSM+oWEpDXtYsQ5rLfy8AgJ1BIb0xzJaSwGlCghhLkCY79xwZ7Ah4Kv3fRWOFcCxAHVtvYb04rq88z8IdEYg1p8q1u8CLBZEuEQR/oe7/iHIAGBvAXzEtUfAvRK556nWbVCsV3QWfN4BAlMRiHScjDZ6WhiIrYNiu+eCPZNHRh8JLgRcsvoS+OggHyuufRsV69ipss42CHSPgNHx3DeArwKKFMJzlum+nt0AAAwYSURBVJ4TXAB4ya9eQgAgAGTJgS2K9fruhZ53gkArBIzeLKOtRZoAxwo3dOyzcJ/koS0PBRMCfrrqp1kKP/siSIwp1l+1knOeB4HeEYh1qoy2YczhGnORY//uW98dRAB4YuyJhCv/UVMZ1pbVaG7u07vD8YmOCMT6a1YCEKsMxartbHXB2gXeh4BP3PWJthgUhTXH8aKux2T03o46zhtAoG8EjN7IOQFeiIXzxvP8q5+frN+63tsQcN366/jdP8v1WdWh/c7/rX3rOh8Ega4RiPQ6fh1ACChi1vi2m9/mZQBYO7qWpX/MPyvzf0LDOqFr/eaNIDAwApFeyXUCCAFFhIDz7jvPqxAwtn0sed1Nr8tK/NlP2EFig4xmDazn7AAEekbA6CUyWlOECXCMcMPGLvEuiT1T3pfHx+74GKYdtmlnNf7rNKw/61m3+QAIZIZArKNk9DAGHa5BFzH2uw7vmpg1pvIZwF7joAi8OIb39bha9pLtPECgdAQiHSqjBxAd70WnVPN66sKnJlX+ZcBnl322VPyoT2/qc6WGdETpuk8DQGAHAvP1HEVaish4IzJOmpVdCfjxQz+u1ErA9mR78nd3/Z2TeFKvlavX5bXbtu8QXv4AAVcQiPQsGd2GqFROVCplTtPj6cm5y89NrLG6/li3dV3yxt+8sVL4Ur+O1m+km7VAz3RF7mkHCDQicJn2ltE8RMRREfHo5KtZi2Ylq7ascjYDLHpsUWKvZUAtUAsDcyBSrFj7NAouz4CAawiMaIaMvjUw6T0yK7DIxwSe+YtnJj9b/TOnQsCmbZsS+32//bqCcc9n3APD9btapJmuyTztAYH2CBidKaPtgRUrol9CcDtu0XHJnRvuLD0ILFy7MDnsl4fBgRI44KHObFek2e1FlldBwGUEjE6W0SYPixORd0zk7Yz71FtPTe564q7Cg8A1665J3vCbN8AJxzhRYd3ZrEjvdFnaaRsIdIdApGNk9EiFixFhr5Cwz4hnJO+89Z3JyKMjybbt23ILA/ZOfhetvCg55oZj4EeF+FEBHVoro1d1J668CwSqgMCQXiCjuytQfIi5R2Jub7V79pKzk6vXXZ2Mbh8dOAzYs/ovffjS5D23vSfZe+HecMUjrjiiTctkr6vCAwS8Q2BY+8noGkcKDfEOTLz3WrBX7Rr8/7L0X5IfPvTDxJ6l/8joI01DgQ0LKzevrK0inL/i/Nrv+F/6q5cm9rLE8JcT+3LiwK8U6QDvdJ8OgcAOBOZqDxnNyamAEOfATD0rHtlwcNCVByX7jeyX7Da8GzyCR0Vz4GJdq9136CR/gIDXCEQ6TUajWQk4+2FWBgfgQAU5sPXJk6TP8lrr6RwINEXA3lI40kMVLNqiZwccjxkpHPCPA/YmatzKt6k58GQYCNhLWxpdRwhg9gYH4EBAHLhRsf5PGCJPL0GgHQLztJuMzguo+JnN+TebY0wZ0+44EOt8zdGu7SSR10AgPASM3iWjJwgCzAThABzwkAObFOn94Qk7PQaBbhGIdZSM7vGw+LubHTCLAic44CMH7tOwXtqtDPI+EAgXgfHrBUSEAGaBcAAOeMCBeRrS08MVdHoOAr0iMEe7PPkzwbP5qSAG4IEB+DijpU+dV2q21H7iN1vTe5U/3g8CIGARsMtmRndhAgQBOAAHKsOBWHcq0tGIOAiAwKAI2Ctk8SsBZlydZ1xgBEYucOBCjWivQWWPz4MACExGINZbZLSmMrMAxNgFMaYN8LAoDqxTpFMmSxZ/gwAIZInAiA6S0TxCAMvBcAAOOMSBYdmLmvEAARDIGYFE02R0pow2OyQARc0yOA4zWjjgDgdGFWm2ONEvZ9Fn9yAwFYFIR8roFkIAM0E4AAdK4MBi2euW8AABECgJgfHbC/+HjMZKEABmYu7MxBgLxqIoDmxVrC9y+96SNJ/DgkADAkYvktGNhABmgnAADuTGgUg3c0W/BvXlCRBwAIERzZg4N2BDbgLALKuoWRbHgWsucWBj7bt+buLjgNDTBBBoh8ACPV9Gw4QAZoJwAA4MzIFYV2m+DmknObwGAiDgEgL2lwKxTuW6ARjAwAbATNylmXiRbbG/6z9NVkt4gAAIVBCB8esGXIgJEATgABzomgOx5vK7/grqPU0GgaYIGL1ZRg92LQDM+oqcaXEs+OYKB1bI6I1NNYQnQQAEKoxApD1rJ/JwASFXxJZ2YPyucGC0dr+Ry7R3hRWOpoMACHREwOgPZXQFqwEsCcMBOFA7YXhYh3fUDd4AAiDgEQKR3iCjezABTAAOBMiBSEtldLJHikZXQAAEekLA/q53/L4C6zGBAE2AJXhXluCLbMfjta8CR/SUnrSCN4MACHiKwLD2q30HaLSVIEAQgANecsBewvd8RTrAUxWjWyAAAgMhYC/4YTQHA/DSAIqcZXIsl1ZXIsWyNw/jAQIgAAIdEYh0jIx+QRAgCMCBSnPgOg3p1R3rnTeAAAiAQAMCw3rNk78LvgkTqLQJMBt3aTZeTFtu4wS/BjXjCRAAgZ4RmK3pMnqXjJYRBAgCcMBpDtwto3fI1iwPEAABEMgMgUWaOXF/ASsyzCrBAA64w4Hltev22zuC8gABEACB3BAYXxE4+cmZxl0EAYIQHCiVA/dg/LkpHTsGARBoiYCdbUR6D0GgVANgFu7OLLzIsVj85Fdy79Yc7dKyPnkBBEAABHJHwK4IjF9V8Dpmg4QBOJArB66pndyH8ecuaxwABECgVwRivUL2VqJG2zGCXI2gyNkmxyp3lWFbraZi/Wmv5cj7QQAEQKB4BGIdJaMLZbSFIEAQgAN9cCDW7xTrK1qgZxdfwBwRBEAABAZFYFgHyugsGT2ICfRhAuXOPJn5l4P/qtq1+of09EHLj8+DAAiAQPkI2BuPRPqAIt1MECAIwIGmHPhN7We29gZdPEAABEDASwQiHV27KYnRExhBUyNg5l3OzLsM3DfX7r1hr7jJAwRAAASCQWBE+9Z+w2xkL1tahvhyTHAviwP2YlpnaUT7B1PvdBQEQAAEGhBINE1Gs2R0kYw2EgYIQ55ywK54XVi7OY/lPA8QAAEQAIFJCMzTU2vfg9rbl/JTwrJmpxw325WRRTI6U5zUN6nQ+RMEQAAE2iEwrMMV6fMyutfTGSFGm63RuoTnPTL6N0U6tB3FeQ0EQAAEQKATAvbEQaPzZLSKMMBXBI5yYG1tid+e0McSf6eK5nUQAAEQ6BEBe/8BoxNldIGMrOC6NOujLeGNxxrF+o5ivVbcia/HYubtIAACINAvAvZ66PbSw+MrAysJA4ShgjiwpjbTt/e/sLfI5gECIAACIFAiAuNh4NjapVON7E+smI2DQZYcsLe+/g9FeiV34Cuxzjk0CIAACHREYFjPq11jYPzGRNyPgDDQaxgYk5G9895Zsiej8gABEAABEKggAvaCQ7HeKqNvPXkP9WWsDrA60pQDkZYq0n/J6M2KtU8FmU6TQQAEQAAE2iKwQM9/8tcEp8voEk4kDDoM2O/yfyqjD8uuGPEAARAAARAIDIH61wXjty++v+nskCX0XpfQXXz/ao1/JXSW7M9KZ2t6YEynuyAAAiAAAm0RiHWYjD5Y+3nX+H0KthEKKrdSYMfsVhl9u3YXyvk6pO2Y8yIIgAAIgAAINCBgL09sL+4S6dMTM8gHCATOBYIVMrq8Nkb2vhJ2zHiAAAiAAAiAQOYIRDpARsfXzhKP9WMZ2Z+J2TPHXVz69qlNY4p1p4x+VMM+0l9onp6R+fiyQxAAARAAARDoGoERPUVGL3oyDLyjdh348ZMMbTDYSjDoORiNThj9JYr0r4r0dg3pjzVPu3U9HrwRBEAABEAABEpFwF4tbkgv0LBOkNEZivTVia8SbpfRhoDDge27xeDyiQs4nVG7pK79lQaX1S2VshwcBEAABECgCATsbWKH9UJFOkmRPjJxB8TvyegKxfr1kyck2nMOqnQxI9vWBybafoWMbF/+faJvJ9X6+nM9rQhoOQYIgAAIgAAIVB8BGxTs2eyR/qQ2U450Su16BrE+KaNzZfRNRfpvGc1RrP9VpHjianb2fvT2328nLoRkL4bU6p99T/3919T2Yfdl92n3PX6hHHuss2q/n7dtsDfCsW2ybcPYq88zehAMAv8fLrcQd7Xh3oQAAAAASUVORK5CYII=;rotation=-90;" vertex="1" parent="1">
          <mxGeometry x="425" y="218" width="52" height="52" as="geometry" />
        </mxCell>
        <mxCell id="A7jKajFBfQxQjQhxYCSo-14" value="" style="shape=image;verticalLabelPosition=bottom;labelBackgroundColor=default;verticalAlign=top;aspect=fixed;imageAspect=0;image=data:image/png,iVBORw0KGgoAAAANSUhEUgAAAgAAAAIACAYAAAD0eNT6AAAAAXNSR0IArs4c6QAAIABJREFUeAHtnQmYZVV5tYtBQEVlUBE1MSTGee4MD6G7/L59u6stoVWUcvhFFBAwooBKxBiHYhBBzYAaW4j5Da1gxEQQ8EcFFERACQKKDEpsUFEbGZoGuqHH72ffqksPNZw7nGEPL8/Dc7vuPfecvdde31pr73uGoSH+AwEQCBoBmzPnUbZgwVNN5CXm3Iipvt5UDzWRY0zk4yay2FTPNNVvmOqFJnKFqV5tqreY6q2mes8W/68xVdvif//eltstndzH1ZP7vHDyGP5YnzPVE031/e22ODdmrdYCU33xZFu3DRpUGgcCIAACIAACTSJg8+Y9yYaHX2qqrzLn3mXOnWSqXzbV75nqDab6hy2MekvjDvlv3/aftfvi3JfafZvo46J2mBF5YpPYc2wQAAEQAAEQqAwBGxvbxoaH92jPjp17hzn3KXPubFO9/uHZ86qIzb2s4LHKnPtpGxORT5rIYSYy30T+xMbHt65sYNgxCIAACIAACJSFwOTStzevI031VFP9gak+gMlP+bmh2/CwenIV5Cxzbtz8zwyqz/ehqqwxYz8gAAIgAAIg0DUC7d/kvRGpHmCqp0wa/UqMvm+j7zYQdLbz5yv4n0eWtMOWyFxbtOgxXQ8gG4IACIAACIBAEQKTS/gvNJG3m+oX2svVqmsx+9rMvmP6Ra9+TH5izv2biRxsIi/gJ4QidvM5CIAACIDAIwjY6OjjTfWVpvoxE/muqd6H2Qdn9kVhoPP5ClO9yJw7wZwbtb32etwjA80/QAAEQAAE8kbAm0L7pLOJs+/9b/bTXSLXMRRep14+GBMm6yZ/Oji1fT4BVyHkXfz0HgRAIC8EbM89Hz15vfonTPVaU93ADD/aGf6g4WO9OXeNqZ48eeXBDnlVA70FARAAgcQRaN+cZuKGNf5GNg9i+NkaflFg8JdlftucO9qGh1+YeFnQPRAAARBIDwET2aE9o5s4Q/9XGD6G3ycHbmtfzumcv3ERqwPpSQU9AgEQSAEBa7V2NdWDTPUcrr3H8Ps0/NlWCB4wka+byNts4cJdUqgZ+gACIAAC0SJgIk9sX4vv3HmcvIfpV2D6MwUCfzLhD9r3IJg3b/doC4iGgwAIgEBMCFirtZs5925TvcxU19co+jOZAe/HfWXAoOPnw8ClJnK4f65DTLVEW0EABEAgeATaZ+7728Ay0x/UrPh+tWFlYmXAP6mRew4Erys0EARAIFAETGRbE9nHVL/KQ3NY3o9wpWelOfcVU92bZxcEKjI0CwRAICwETPXZ7Qe/qHL2frWzVVYD6sP3d+1nRrRaLwqr2mgNCIAACDSMQPtufM4dYiJXRDjTw0jrM9IUsPYnD/pnFezYcNlxeBAAARBoDgETeY5N3IL3HoyfZf7MOOCfMeEfGf3i5iqQI4MACIBAjQjY2Nh2k89193flS2FGRx8Yx0E5cLX5Ewf33PPRNZYihwIBEACBehCwBQue2n4qm+ofMH6CDxyYlgN3mMjxxr0F6hEljgICIFAtAubcyyaXOrkHPzPlQWfKuXx/tameZa3WntVWJ3sHARAAgZIRsPHxrU1kP1O9nJnetDO9XIyMfg4e+vwNr17ra6rkMmV3IAACIFAeAu3f91UPMNWbMH6MHw6UyoFftm89zEOJyhMs9gQCIDA4Au3L+ESONNXbEf1SRZ8Z9OAz6NQwXNa+T4bIToNXLnsAARAAgT4R8E9Fa5+0pHovxo/xw4FaObDcVI+1uXN37rN8+RoIgAAI9I5A+9G7zo2bqheh1GZY9IcxjYkD97fvpcEjinsXMr4BAiDQPQLtx+9OGD8zfkwyJpPMoa33T95ueLfuK5otQQAEQKAAAX/bUhM5xljqz8FI6GPc4W5iRWD+/CcUlDUfgwAIgMDMCEye1X+oqS5jqZ+fOuBAVBy4qx3auWpgZoHjExAAgakItB/F6x/Oo/obRD8q0Wf2HvfsvYrx80/VPIhHEk/VOd4BARDYAgETmW/O/RTjx/jhQFIcuMmcG92i3PkTBEAABIaGrNV6nql+E9FPSvSrmFGyz5hXGZw7z5z7MzQPBEAABIbMuaeZc1801fWYP+YPB7LgwEOmerKNjj4eCQQBEMgQAZsz51HtW4uq+ueSM6sDAziQHwf8iYJHcn5AhgZAl/NFwFRbpnoDxk/wgQNwwJy7xpwbzlcR6TkIZICA/+2v/ZjR/GY6zG4ZczhQxAF/fsDw8B4ZSCFdBIF8EGgv96t+0FQfZMbHjA8OwIFZOLDKVN/vLwXORyHpKQgkioCJvMRUr56l4JkZFc2M+ByO5MeBn1ir9ZeJyiLdAoG0EbA993x0+yEhquswf2Z8cAAO9MGBte3nC4yMPDZttaR3IJAQAv6EHlP9eR8Fz0wvv5keY86YF3Hgl/4GYQlJJF0BgfQQMJGdTPVUU92A+TPjgwNwoGQOnOUfBZ6ectIjEIgcAXNukaneXnLBF80M+JzZIxzIiwP+wWAHRC6XNB8E0kBg8k5+52H8zPbgAByokQPn2Lx5u6ehovQCBCJEwJzb11TvqrHome3lNdtjvBnv2Tiw3ETeGKF00mQQiBeB9hn+qqdg/Mz44AAcCIADS0xkx3gVlZaDQCQImMhfcIY/oh+A6M82M+Sz/FYOllqrtWckMkozQSAuBGxoaKvJh/esRvwJAHAADgTIgbXm3DgPF4rLW2ht4AjY/Pl/bKqXBFjwzPTym+kx5oz57BwQuYJnCgRuKjQvDgRMZD9TvRvzZ8YHB+BARBy410TeHIfK0koQCAwBGx19vKkuiajgZ58VMGsCHziQHwec+yInCAZmLjQnbARM9dmmegPmz4wPDsCBBDjgb0v+/LBVl9aBQAAImOqrTPXeBIo+v9kOM1zGHA7MxIH7/M+ZAUgsTQCB8BDwZ85OPr2P+/gjojOJKO/DjZg54LXtFBPZNjwFpkUg0BACJvJEE/kOs36We+EAHMiAA5dYq7VbQ3LLYUEgHATMuZeZ6q0ZFH3MMxfazswbDpTLgd+Y6l+Ho8S0BARqRsA/VctUV2H+zPrgABzIkAMPmXOH1Cy7HA4EmkXARke3N9XTMix4ZlHlzqLAEzxT4MAS/3yTZlWZo4NADQjYggVPNZGrMH9mfHAADsCBRzjwQxN5Sg0SzCFAoBkETOQFpvoriv6Rok9h9kIfmIXDgXI4cLuJvKQZdeaoIFAhAiYyn+v7MX7CHxyAA7Ny4D5zbrRCKWbXIFAvAubcgaa6hsKftfCZRZUziwJHcIydA2tN5LB6VZqjgUDJCLQf4esfj4kgxS5ItB8Ow4H6OXCK19CSZZndgUD1CEye6f9lzJ9ZPxyAA3Cgbw6cZSI7VK/YHAEESkLAFi7cxVQvoej7LnpmW/XPtsAczEPlwOX+bqklyTO7AYHqELBW609N9SbMH/OHA3AADpTGgVtsePjPq1Nu9gwCAyJgzv2Vqf6Boi+t6EOdkdAuZstwoH4OLDPVOQPKNF8HgfIRMBEx1RWYP+YPB+AAHKiMA/dbq6XlKzh7BIE+ETDnFpnqgxR9ZUXPbKv+2RaYg3moHFhpzo30Kdd8DQTKQ8BE9jfVtZg/5g8H4AAcqI0Dq825fctTcvYEAj0i8PCS/3tMdQNFX1vRhzojoV3MluFA/RxYYyJv6FG22RwEBkfAVP8O48f44QAcgAONcmCdiRw8uKKzBxDoEgETOYaib7TomW3VP9sCczAPlQMbzLmjupRvNgOB/hEwbu0bqgjQLgwKDuTMAZGP9q/sfBMEChAwkeOZ+TPzhwNwAA4EygHnTiqQcT4Ggd4RMNWPUfSBFn3Osx76zqwfDmzJgeN6V3i+AQIzIMDMH+Mn/MEBOBARB5z7wAxyztsg0D0CD1/m9xEKP6LCZza05WyIv+FErhx4b/dKz5YgsAUCJvI+zB/zhwNwAA5EyQF/dcAhW8g6f4JAMQL+shKKPsqiz3W2Q7+Z6cOBqRzw9wngZkHFlscWHQTMubdwhz/MnwAIB+BAEhxY45/X0tF3XkFgRgRM9dXc2z+Jomc2NHU2BCZgkisH/LMDRmcUfj4AAXPO8VQ/zJ9ZHxyAA0lywD9FcBinA4EpCJhzf2Wq91P4SRZ+rrMe+s2MHw5szoF7TXXOFAPgjXwRsOHhPUz1Dswf84cDcAAOJM+BO03kmfk6Hj1/BAFbuHAXU72Zok++6JkJbT4TAg/wyJkDN9ncuTs/YgT8Iz8EbGxsO1O9GPPH/OEAHIAD2XHgUhsd3T4/56PHQzY0tJWpLqHosyv6nGc99J1ZPxzYlAPOfcV7AZaYGQI83AfjJ/zBATgAB/wj3jOzv7y7a6oHUfgUPhyAA3AADrRv+iby1rxdMZPem4iY6moKn8LPigMLFpgdeKDZBz9o9pnPmJ155ub/n3aa2Uc+YnbQQWYjIywTb7pMzL9z4MMaE5mfiQ3m2U1rtZ5nqsuzEn7EKwfxmr6P++9vdsopZldcYbZqlXX937p1Ztdea7Z4sdlb3zr9vuEVuKTHgRU2PPzCPN0x8V7bvHm7m+qvMH9m/klzwDmzY44xu/pqsw0buvb8WTdcutTsX/7F7BWvwPTSMz3GdPMxvdVEnpK4HebVPRPZwUSuSlr4NycxRZ0jHv/wD2a/+tWsXj7Qh3fdNbGi4H9OyBFf+pzLuF/J5YEJZQRT/QKCxcw/WQ6MjZlddtlA3t7Tl3/5S7N3vjMXM6CfeQafzydkgfl2xVQPTVb48yxMBHnTcT/uOLOVK3vy71I2Xr/e7AtfMPM/OWzaHv4NHqlwQOTgfJ0zgZ5PPuDnIQSK2X+SHPi3fyvvd/5+U8Hll3NuQCqGRz+2DG8PmshfJGCF+XXBWq1dTfXWJIWfQt2yUPP6e/58s29+s1/LLv97119v9qpX5TUG1GAu4/0rE3lifg4acY9tbGwbU/025s/MPzkOePP/3vfKN/FB93jzzWb77JOLKdDPvALQRd5TIrbEvJpuIp9MTvjzKjgEdrrxbrXMLrpoUKuu7vu/+AUrAdONG++lUM8fy8tFI+2tibymfWtHii6FoqMPHR6Hbv6dWEEIgLMdzqb1usFE9ovUFvNotqk+21RXMPtn6T8pDsRi/oQAzD8t099yPO/zd5PNw00j66WNjj7eVG9OSvjTLqYti4u/pxvv2MyfEACPp+NxOu/dYCI7RmaP6TfXVJdg/sz8k+JArOZPCCAEpGP4043lF9J31Ih66H+bSUr40y6e6QqK97Yc89jNnxAAp7fkdEp/i7whIotMt6km8nRTvZsAwOw/GQ6kYv6EAEJASqa/eV+W2/z5f5yus0bQMxsf39pEvpuM8G9OMMQjRzxSM39CAHWcbh1fyv0BGgwKJvIPmD8z/2Q4kKr5EwIIAemGgPc3aIH5HtpU55jq6mTEP90CQfy6GdvUzZ8QQB10UwfxbbPGP3MmXyduoOc2MvJYLvlj5p9M+MvF/AkBhID4DL6bMbuFSwNrDAKm+oVkxD/NguimaNjGj31u5k8IgPcpap7I4hotMN9DmXP7Yv7M/pPgQK7mTwggBKQYAlRfna8z19Bzc+5ppnpXEuKfZgEgbN2Oa+7mTwigVrqtlXi2u9Pmzdu9BivM8xCmeg7mz+w/eg5g/h37n3jlAUKEgXhMvmiszs/TnSvutYm8MXrhT4fkRUXA5zONNea/ufl3/iIEUDMz1Ux87/+fiu0wr93bwoW7mOoyAgCz/6g5gPl37H76V0IAISA+s59uzO6yVmu3vFy6wt6a6n9ELfxpkHo6ovNet2OL+U9v+lu+SwigprqtqbC3O6dCS8xn19ZqqaluIAAw+4+WA5j/ljY/+9+EAEJA2Obe3fiI7JePU1fQU1u06DGm+r/RCn8KJKYP3RX7TDhh/rOb/UyfEgIG491MfOT9OnFdZnPn7lyBNeaxS1P9R8yfmX+0HMD8Z7L37t4nBNRpVhyrinDEDYL6CyvWav2lqa6LVvyrIBP7jEekMP/uTL5oK0JAPJxHn6Ybq/Xm3N/054KZfstEtjXnrsH8mf1HyQHMv8jWe/ucEDCdsfBePIHjepsz51GZ2nnv3TbVD0Yp/PEQEvGoaqww/97MvdutCQHUbFU1W8d+RY7p3Qkz/IY592em+iABgNl/dBxYsMDse9/r1tLYrlcEbrrJbJ99MMI6DItjlM2zlebcMzK09N66bCLnRif8FEvZxRLf/rz5X3ZZr5bG9r0iQAiIrzbQx4kxc+5rvblhZlubcyOYPzP/6DiA+fdq44Ntz88BhIB4Q8XCzGy9u+7a2Nh2pnpzdOIfLxERkTLGDvMfzMz7/TYhgPoto37r3odzN3JC4DSZwFT/HvNn9h8VBzD/fu27nO8RAggBdRt4Ocd77zQWmO9b5tzTTPX+qMS/HCJQwLHiiPmXY+KD7oUQgIbEpyEreFjQJnmHh/0w848q/GH+g9p2ud8nBBAC4gsBp25igfn+01RfbKrrozKA+MiGQJQ1Zph/ueZd1t4IAdR4WTVez37W2fDwC/N1/smem+qFmD8rAFFwAPMvy66r2Q8hgBBQj3mXhfPFWQcAE9knCuGPi1RlkZP9bDrumH81pl32XgkB1O2mdRv+v/O8LHDyfv83EgCY/QfPAcy/bJuudn+EAEJA+MbfGaPrbWxsm+xWAkz10OCFPx4SdcjEa9ljhvlXa9ZV7Z0QgBaUrQVV7U/kbVkFABPZwVR/TQBg9h80BzD/quy5nv0SAggBVZl2ufu9zUZHt88mBJhzRwct/OUOLkUYI56Yfz0mXfVRCAHoTxz6c0QWAcD22utxpnoHAYDZf7AcwPyrtuV6908IIASEHwL+4L0x+RBgIscHK/zhk4RCrnqMMP96zbmuoxEC0I6qtWPQ/Tv3oaQDgIk80VTvIwAw+w+SA5h/XXbczHEIAYSAQU262u/fa3Pn7pxsCDDnTgpS+KsdVIouBnwx/2ZMue6jEgLQo7D16NgkA4C1Wrsy+2fmH2QAxPzrtuFmj0cIIASEGwJWJLkKYKonBin+4RKBIq1jbDD/Zs24qaMTAtCXOvSln2M4N57UKoAtXLgLs39m/8EFQMy/KfsN47iEAEJAPwZd/XfSOhfAnDshOPGvfhAprpAxxvzDMOGmW0EIQKdC1CmRjyaxCmCjo4831eUEAFYAguEA5t+07YZ1fEIAISC8EHCPiewYfQgw5z4QjPCHN8gUXt1jgvmHZb6htIYQgBbVrUVFx3Pu3VEHAH9/44cf+vM7AgCz/yA4gPmHYrdhtoMQQAgoMuV6P1/qn5obbQgwkcOCEP56B40iChFvzD9M0w2tVYQA9Csk/XJuLMoA4J9xbM79ggDA7L9xDmD+odls2O0hBBACQgkBIlfFGQBE9mtc+EMZRNrRnKBg/mGbbaitIwQ0V7Po5ebYi8yNLgSYyBUEAGb/jXIA8w/VXuNoFyFgcyPCmJvBw7mzowoApjqnUeGHqM0QNSTcMf84TDb0VhIC0JLmdW2DDQ8/N5oQYKpnEACY/TfGAcw/dFuNq32EAEJA0yFAZHEUAcAWLHiqqa5uTPybHiiO36xYYP5xmWssrSUENFvX6OqD1mrtFnwIMNWPYf7M/hvhAOYfi53G2U5CACGgySAS+u2BJ2/884dGxL/JgeHYzQsD5h+nqcbWakJA87Wer97e4T022FUAE9kf82f2XzsHMP/YbDTu9hICCAFNhRDn3hRuAFC9vHbxb2ogOG4YIoD5x22msbaeEBBG/eenw5cGGQCs1XoR5s/sv1YOYP6x2mca7SYEEAKaCCAiLwguBJjI4lrFvwngOWY4BY/5p2GisfeCEBCOJuSjz6cEFQD8c4tNdQUBgBWAWjiA+cdum2m1nxBACKg3fNxrIyOPDSYEmHOH1CL89YIMqUPEG/NPyzxT6Q0hAL2sUy9F3hZOAFC9kgDA7L9yDmD+qdhlmv0gBBAC6gsBYZwMaKrPNtUNlYt/fcBC4hCxxvzTNM3UekUIQD/r0c8NJvLMxlcBTPUTmD+z/0o5gPmnZpNp94cQQAioIwQ4d0KjAcBEtjXV31Uq/nUAyTHCLVjMP22zTLV3hIBwNSUdvb/dxsa2aSwEmHOLMH9m/5VxAPNP1R7z6BchgBBQfdhY2FwAUD2rMvGvHjjIGTLGmH8eJpl6LwkB6Gy1OvvlRgKA7bXX40x1FQGAFYDSOYD5p26LefWPEEAIqC4EPODvw1N7CDCRt5Yu/NWBBAFjwRbzz8scc+ktIQANrkqDm3hAkKl+mwDA7L9UDmD+udhhnv0kBBACqggBIufWugJgIyNPNtW1pYp/FcCwz3gKDvPP0xRz6zUhIB5Nisc/1lirtWttIcBUj8D8mf2XxgHMPzcbzLu/hABCQNnhwrl31BkAflCa+JcNBPuLq7gw/7zNMNfeEwLi0qnwfeXiWgKAiTzFVNcTAFgBGJgDmH+u9ke/PQKEAEJAecFinf9pvvIQYKrvHFj4y+s0BIoVS8wfEwQBQkCs+hViu0XeXkcAuJgAwOx/IA5g/sXWt2ZN8TaxbLF2bSwtbaadN91kts8+TGZCNNW42nRBpQHAn2nI2f+YP+ZfsU/86EdmX/taxQepcfeXXmp2zjk1HjDCQ/FzAAFo8LCxxubO3bmyEGDOHTiQ+A/eQUgSM4bM/IudyZv/woVmZ5xRvG0sW1xyiZlzhICi8SIEoO+D6rtzb6kuAKh+gwDACkBfHMD8i+TfrGP+XgRSCwC+T4SAYg4QAggBg4QA575WSQCw0dHtTfX+vsR/kA7x3fgLAvMvFv5Nzd9zPsUA4PtFCCjmAiEgfs1rzrfu915deggw1Vdi/sz+e+YA5l8s+Fuaf8oBgBBQzAe/BSGAENBviBCZX0UA+FzP4t9vB/heGuTH/IvFfjrz9/xPdQWgU9usBBRzgxCQhg52OF/Xq8g/VxEAbiMAsALQNQcw/2KBv/JKs5GR6UUu9QDgxdCHgPPPL8Yp5y24RHD6+qjLTOM8zi9LDQDWar2oa+GPEzBIVua4Yf7FljWb+fuxyCEA+H4SAoq5cv31ZqOjaFSZGpX6vkSeU1oIMNX3EwCY/XfFAcy/WNBnWvbfVJRyCQCdEMB9AmbnzU9/arb33oSATWuEf8/MB+eOKjMAXNiV+DMgMw9IDthg/rOLuP+0G/P3XMkpAPj+ck5AMXcIAXnra28e8s1SAoCJ7PDwCsAqAgArALNyAPMvFvBuzT/HAEAIKOaP34IQQAjoLgg8UMrlgObcyKzC311jGLSUccL8i8W7F/P3XMltBaBTH6wEFHOJEICfdOpltlcRGXgVwEQ+SQBg9j8jBzD/YsHu1fxzDgC+74SAYk4RAggBs5n/xGcfGzwAqF43o/gXN4BBShkjzL9YqPsxf8+ZXFcAOvVCCCjmFiEAf+nUy3SvIlcNFABs4cJdTHU9AYAVgCkcwPyLBbpf8ycATAg7IaCYY4QAQsB05j/x3noT2anvEGAir5ki/DMfjIHIBRvMv1iYBzF/z6PcVwA6tUQIKOYaIQDv6dTL1Ne9+w8Aqv9EAGD2vxkHMP9iQR7U/AkAmws6IaCYc4SAzTkz1Qhz/fzkQQLAjzcTf0DNlUQT/cb8i4W4DPMnAEytM0JAMfcIAVN5g2f9sK8AYKOjjzfVdQQAVgDaHMD8iwW4LPMnAEwv5ISAYg4SAqbnTr5BYK3ttdfjeg4BPP4X438k/GH+xcJbpvkTAGYWcUJAMRcJATPzJ8cg0Got6CcAnPiIAeQIGn2eKCLMv1hwyzZ/AsDsAk4IKOYkIWB2DuWl78f1HgBEvksAyHwVAPMvFtoqzJ8AUCzehIBibhICinmURxD4dk8BwMbHtzbVFQSAjAMA5l8ssFWZPwGgO+EmBBRzlBDQHZfSDgL3ek/vOgRYq/UizB/zL1aXjLeo0vwJAN2LNiGguAgJAd3zKdUg0Go9r/sA4NwhBIBMAwAz/2JBrdr8CQC9CTYhoJizhIDeOJVeEDio+wCg+gUCQIYBAPMvFtI6zJ8A0LtYEwKKuUsI6J1X6QSBU7sPAM79lACQWQDA/IsFtC7zJwD0J9SEgGIOEwL641b8QeC6rgKAiexgqmsJABkFAMy/WDjrNH8CQP8iTQgo5jIhoH9+xRsE1nhvLwwB5txfYf6Yf7GKZLRF3eZPABhMoAkBxcVJCBiMYzEGAedeVhwARA4jAGQSAJj5FwtlE+ZPABhcnAkBxdwmBAzOs5iCgMjBxQFA9fMEgAwCAOZfLJBNmT8BoBxhJgQUc5wQUA7X4ggCny0OACJXEQASDwCYf7EwNmn+BIDyRJkQUMx1QkB5fAs7CFw+awCwsbFtTHUVASDhAID5Fwti0+ZPAChXkAkBxZwnBJTLuTCDwP2z3hHQWq1nYf4Jm3+rZXbppcVikPMWV15pNjLSvBiccUY6o3DJJc3j6UPA+eeng2kVPbnmmjC4H6Z5Ns/hMnAZHt5jxlUAc25fAkDCAeDrX69CNtLZZwgz/06REwDKF1xWAopr9bLLzPxEocNDXtPCQmSfmQOAyD8w8IkGgM99rrj4c94ilJl/R3AJANUILysBxVW+ZEk12He4zWuT+L5/5gCgegYBIMEAcNhhZmvXFhd+rluENPPviCMBoDqRZCVg9krfsMHsfe+rDv8Ox3ltAuP/mC0AXEsASCwA+JP+fv3r2Qs+509Dm/l3RJEAUK04shIwe9XfcYfZ6Gi1Y9DhOq/14Sxy1bQBwJ8dyBUAiZm/L6zTTpu90HP+NMSZf0cMCQDViyIrAbNX/5e+VP0YdPjOa11Y329DQ1tNCQE2PLwHs//EAsC++5qtWjV7kef6aagz/44QEgDqEURWAmZWgNWrzcbG6hmHDu95rR5vkadPDQCt1gICQGIB4PTTZy7unD8JeebfEUACQPVC2MGalYCZ1eA//7O+ceiMB6/VYi4iUwOAc39LAEgoALziFWYrVsxc2Ll+EvrMvyN+BIBqRbCDc+eVlYDpFeGBB8z23rveseiMCa+xGzjXAAAgAElEQVTV4C7y9ukCwKcIAAkFgOOOm76gc343hpl/R/QIANWIXwff6V5ZCZheHU48sf6xmG58eK+ccRD5+NQAoHoOASChAOBv6MF/GxHwePgrImIREQJAM2PFSsDGmun8y6+axVI3tLN4rJz72nQB4GcMciIBwBvdQw91ypfXWJb9NxUvAkCxkG2KV5n/ZiVgc81Ys8Zs4cLmxqPMsWVffhyv3SwA+MsCTHUlASCRAPDud29ewDn/FaP5e5EiADRrOISAzVXjiCOaHQ+Mu0z879s8AMyb9yTMPxHz94WyePHmxZvrX7Et+28qcgSAMgWvv33xc8BG5fj85/vDcFNO8+9wMJw7d+dHQoA59zICQEIBgKeemcU68++IJAEgDLFkJWAiBHhN6XCT1/ixaLVetDEAqL6awU0oAFx77cbknuO/Yp75d8SVABCOyLISYOY1pcNNXlPAYu+NAcC5dzG4CQWA227L0fYn+hz7zL8jrgSAsEQ295WAW28Nazw6dcJrf+Pi3N9uDACqJxMAEgoA/kEeOf6Xivl7USMA9CdsVRpCziFg2bLwxqPKsU5/3yduGgB4DHBKA37PPfnZfwrL/ptykAAQpuHk+nPA3XeHOR6b1gz/7n6MnPvSpgHge6wAJLQC8Pvf5xUAUpr5d0SMANC9mHUwq+s1x5WA228PdzzqGve0jnPRxgDg3I0EgIQCwNKl+QSA1Gb+HZEhAIRtOLmtBNxyS9jj0akbXrsdp+s3BgDVuwkACQUAf8/7HP5LcebfETACQLdC1tx2Oa0EXH55czh3aoLXMsfgjnYAsDlzHmWqGwgACQWAs89O3/5TNn8vdASAMsWuun3lEgLOOqs6DDH2JrBdbyLbDplzT8P8EzJ/X0z/9E9pB4BUl/03FUICQBOi2N8xc/g54BOf6A+bTTnNv8PCsNXabciGh19KAEgsABx0ULoBIPWZf0ckCQBhiWVnXGZ6TX0lYP/94xqPmcaJ9zeOo78boDk3QgBILAB4Mbr33vRCQA4z/45AEQA2ClUHk9BfU10JuOuu+MYidK6E0b7WkIm8gQCQWADw5DrvvLQCQC4z/44wEADiNJ0UVwL++7/jHItOLfE60/i9zgeAwwgACQaA97wnnQCQm/l7wSIAzCRa4b+fWgh417vCxxyT732MRN7ufwL4AAEgwQDgRSiFZwLkaP4EgN7FLDQDSCUE/PKXZr4voeFLewYfE+eO9isAH2dwEwwAvkA++cm4VwFyNX8/dqwADC5wTZtECiHgxBPjH4emeRDq8UWO9wFgMQEg0QAwMmL2u9/FGQJyOuFvOoEgAKRhPD4EnH9+nDX4m9+YLViQxjhMV2O899khUz2TAJBoAPAE/9CH4hOfnGf+HVEiAKRjPLGuBHzgA+mMQaeueN10TL/sVwDOJQAkHAA84a+4Ip4QkPvMvyNQBIBNhSr+f8e2EuDrsMNFXtPEwrmz/QrARQx04gFg333N/LW8of/HzH+j0BAANmKRigHFshJw551mr3lNevinwqPy+vFtHwAuJwAkHgA8YfxlgWvXhhsBmPlvLrgEgM3xKE/0mt1v6CsBa9aYHXFEsxilMtah90Pk+z4AXEsAyCAAeDIef7zZhg3hhQBm/lMFlwAwFZPQBbXb9oW6EuC1gbP+0+XdVH5e7QPAzwkAmQQAT4DPfCasEHDJJZxpPLUwuQxwOkxSei+0EODN/5//OSfzo6/O3egDwK8JABkFAC+iPuWH8HOAf2yxF8KUhL2svrACkAcvTjut+UDutcCvDpbFXfYTC5a3+gDwBwY+swDgC9SfE9DUiYH+d8ZPfzqWImmmnQSAZnBvwry8+a5c2cxPc8uWmR1+eD5YNzG+4R5zmQ8A9xAAMgwAnpT+6gD/+3ud//nbEx96KIJTJAoEgLw48uY3m91wQ52VaHbxxWaLFuWFc1Hd5fX5XT4A3EcAyDQAdMj+4Q9Xf8dAP8NZvJjf+zuYF70SAPIzJv9z2Eknmd19d7VBYOlSs/e+Nz98i2ouv8+X+wCwkgCQeQDwxPe3/Pz4x8t/gNADD5j5x4nutx+C04vAEADy5Yu/hbevRX8r3jL/u+WWif22Wvli20sNpr/t/T4APEQAIAA8wgE/C/GzA3//8hUr+pOf1avNfvCDiROLXvEKxKYfISEAwBtv1J1avOee/mrRh4gzzzQ75BDw7KcO0/7OKh8A1j4i/ml3lgLodXx9GDj4YLNTTjE791yzH/94Ylbi7xR2331mXpT8w4Z+9jOzCy4w82c0+5uI+BlMr8di+80xIwBsjgf8MDvgALOTT54w9EsvNbv+erNf/MLst781+/nPza67buJ3/dNPNzv2WFbd4ExRDa3xAWADYs0KABwIjAMEgCLx4nMMDg4MxoH1BIDBAISA4FcNBwgA1eAKX8EVDnQ40A4A/AQAITqE4DUULhAA4GIoXKQdqXKx/RMAJwFC8FQJHm+/CADxjh16wtjFwYH2SYBcBhjHYFFUOY0TAQC+58R3+toE39uXAXIjIMjXBPk45my8IwDAj9n4wWfwY3AOtG8ExK2ABwcSMoJhuRwgAJSLJ/wETziwJQfatwLmYUAQY0ti8HfTnCAAwMGmOcjxU+dg+2FAPA4YoqdO9Pj6RwCIb8zQEcYsLg60Hwf8c24CE9hNYOIiEUVfxXgRAOBVFbxin/CqwwHnbvQ3ArqWAEAAgAOBcYAAgFB3hJpXuFANB672AeByxD8w8a9msCmimHAlAMDXmPhKW+Pjq8j3fQC4iABAAIADgXGAABCfoGKCjFlcHPj2kImci/gHJv5xkYiir2K8CADwqgpesU941eGAc2f7FYAzCQAEADgQGAcIAAh1R6h5hQvVcODLPgB8DvEPTPyrGWyKKCZcCQDwNSa+0tYY+fppHwBOJAAQAOBAYBwgAMQoqLSZIBATB47zAeD9iH9g4k8RxVRE1bSVAFANrtQWuMKBCQ6IvM8HgEMJAAQAOBAYBwgAGBVGBQeq5cBBPgC8HvEPTPyrHXSKKgZ8CQDwNAae0saYefraIWu1FhAACABwIDAOEABiFlbaTjCIgQMtfx+AlyD+gYk/xRND8VTbRgJAtfhSY+CbOwdEXjBk8+btTgAgAMCBwDhAAMCgcjco+l9tDYyMPNmvAGxrqusxgMAMAPJXS/7Q8SUA5D3+ofOT9sXOz3U2NrbNkP/PVO8kABAA4EBAHCAAxC6wtJ+QEDIHlrXNfzIA3ID4ByT+FE7IhVNP2wgA9eBMrYFznhz4ycYAIPJdAgABAA4ExAECAMaUpzEx7vWM+4UbA4DqGYh/QOJfDwEotJBxJgDAz5D5Sdti5+eSjQHAuZMIAAQAOBAQBwgAsQss7SckhMsB507YGABEDkf8AxJ/CifcwqlrbAgAcKAurnGc/LgmctjGAKD6KgIAAQAOBMQBAkB+oowRM+b1ceCVGwPA8PBLEf+AxL8+ElBwoWJNAICboXKTdsXPTX8XwM5/1mrtSgAgAMCBgDhAAIhfZDFKxjBUDsyf/4SO/7dfTXUlBhCQAYRKHNpVj6gRAOrBGT6Dc34cWLGZ+fs/TPV6AgABAA4EwgECAMaUnzEx5nWMuXPXTA0Azp2N+Aci/nWQgGOELTYEgLDHh/phfOLlwFlTA4DIJwkABAA4EAgHCAAYTLwGw9iFPXYnTg0Azr0D8Q9E/MMmD8Vdx/gQAOBZHTzjGPnxTOTgqQGg1VpAACAAwIFAOEAAyE+YMWPGvA4OiMjUADA8vAfiH4j410ECjhG22BAAwh4f6ofxiZUDIk+fGgDGx7c21VWEAEIAHAiAAwQADCZWg6HdIXP3fhsa2mpKAPBvmHPXIP4BiD8FFHIB1dM2AkA9OFNr4JwXB340rfm3A4DqlwkABAA4EAAHCAAYU17GxHjXMd7OfXG2APBBxD8A8a+DCBwjbMEhAIQ9PtQP4xMnB/5u5gAg8hoCAAEADgTAAQIABhOnwTBuYY/b3jMHgFbrWYh/AOIfNoEo8DrGhwAAz+rgGcfIi2fDw3vMHADGxrbhoUAEAEJgABwgAOQlzBgx4109B+638fGtZwwA/gNT/SEGEIABVE8GCi5kjAkA8DNkftK2GPl52azm3w4AIosJAAQAONAwBwgAMQosbSYYhMyBTxcHANVDEf+GxZ8iCrmI6mkbAaAenKk1cM6HAwcVBwCRvyAAEADgQMMcIABgTPkYE2Ndx1gPD7+0OACMjm5vqmswgIYNoA5CcIxwhYcAEO7YUDeMTXwcWG2jo9sXBgC/gan+hABAAIADDXKAAIDJxGcyjFm4Y3ZtV+Y/GQBOQ/wbFP9wSUSB1zU2BAC4VhfXOE76XBNZ3H0AEDmYAEAAgAMNcoAAkL4oY7yMcV0cEHlbLwHgBYh/g+JfFyk4TrgCRAAId2yoG8YmNg6IPKf7ADA+vrWp3ksIIATAgYY4QADAZGIzGdobKmeXF94BcMt0YKoXIf4NiT+FFGoh1dcuAkB9WFNvYJ02By7Y0t8L/zbnTiAAEADgQEMcIABgSmmbEuNb1/g6N15o+FtuYM6NIv4NiX9dxOA44YoQASDcsaFuGJuYOCAyf0t/L/zb9trrcaa6lhBACIADDXCAAIDJxGQytDVUvq6xkZHHFhr+dBuY6v8g/g2IP8UUajHV1y4CQH1YU29gnSoHRK6Yztu7es9U/5EAQACAAw1wgACAKaVqSvSrPm47d1JXZj/dRqb6asS/AfGnQOorkFCxJgDAgVC5Sbti4uYrp/P2rt6zhQt3MdX1hABCAByomQMEgJhElrYSCkLkwDoT2akrs59pI3PuGsS/ZvGnmEIspnrbRACoF29qDrzT48CPZvL1rt831ZMJAAQAOFAzBwgAGFJ6hsSY1jmmzp3QtdHPtKGJzEf8axb/OknCscIUJQJAmONCvTAu8XDg5TP5etfvm8gOprqKEEAIgAM1coAAgNHEYzSMVXhj9YCNjm7ftdHPtqGJfAfxr1H8wyMTBV73mBAA4FzdnON46XDOufNm8/SePjPVvyMAEADgQI0cIACkI8YYK2NZPweO6MnkZ9vYRF6A+Nco/vWThQINDXMCAJwMjZO0JyZOPns2T+/5M1NdSgggBMCBmjhAAIhJbGkr4SAkDvxvzwZf9AUT+QziX5P4U0whFVMzbSEANIM7tQfu8XPgH4v8vOfPTeQVBAACAByoiQMEAIwofiNiDJsYQ+dczwZf9AV/SYGp3ocB1GQATRCHY4YjWASAcMaCumAs4uHAChsb267Iz/v63ES+TgAgAMCBGjhAAMB04jEdxiqcsfpqX+bezZdM5G2Ifw3iHw6ZKOymxoIAAPea4h7HjZd7Ivt34+V9beOfLGSqqwkBhAA4UDEHCADxijAGytg1w4HVNnfuzn2Ze7df4q6AFQt/M8ShYEPDnQAAJ0PjJO0JnZPnd+vjfW9nIocx+yMEwIGKOUAACF1saR+BICwOOHdg38be7Ret1drNVNdhABUbAMUVVnHVPR4EgLzHv26+cbzY+bbWRJ7YrY8PtJ2pXkoAIADAgQo5QACIXZBpP6GiPg6IfGcgU+/ly+bcuxD/CsWfwqmvcELFmgAAB0LlJu0KkZuH9uLhA21r8+Y9yVTXEgIIAXCgIg4QAEIUWdqE+YfIgdXWau06kKn3+mVTvQDxr0j8KbIQi6zeNhEA6sWbmgPveDlwTq/+PfD25txbCAAEADhQEQcIABhSvIbE2NU5diJvGNjQe92BjYw81lQfwAAqMoA6CcSxwhMsAkB4Y0KdMCbhceAB78W9+ncp25vqfxIACABwoAIOEAAwm/DMhjEJb0yWlGLm/ezEVPdG/CsQ//BIRuHXPSYEADhXN+c4Xnyca7UW9OPdpXzHxsa2MdXfEAIIAXCgZA4QAOITYwyUMauXA7/xHlyKmfe7E3PuJMS/ZPGvl0QUbYh4EwDgZYi8pE0h8fK4fn27tO9Zq/UsU91ACCAEwIESOUAACEloaQvGHxoHNphzf1aakQ+yI1O9HPEvUfwpttCKrf72EADqx5y6A/N4OPC9QTy71O+ayMEEAAIAHCiRAwQAzCgeM2Ks6h+rA0o18UF2ZiI7muoKDKBEA6ifUBRxSJgTAOBjSHykLSHxcbktWvSYQTy79O+a6r8SAAgAcKAkDhAAQhJc2kIACIcDzv1L6QY+6A6t1XoeJwOWJP4UWzjF1tRYEADgQFPc47ihc+/5g/p1Jd831cuYARIC4EAJHCAAhC7CtI+g0AQHwjn5b8sUYSJvRvxLEH8Kq4nCCuuYBICwxoOaZDxC4EATD/7Z0uhn+ttGR7c31T8QAggBcGBADhAAMJwQDIc2hMTDZTY2tt1M/hvE+6Z6HOI/oPhTdCEVXTNtIQA0gzu1B+6hckDko0GY/GyNsHnzdjfV1YQAQgAcGIADBACMKFQjol1NcPMhE3nKbN4bzGcP36LwS4j/AOJPgTVRYGEdkwAQ1nhQk4xHsxz4v8EYfFFDzLmXEQAIAHBgAA4QADCcZg0H/EPCX+QlRb4b1OdcEjiA+IdEPNrSjBASAJrBHb6De3gcuDgoc++mMab6WmaAhAA40CcHCAAYUXhGxJg0MSbOLerGc4PaxsbHtzbVGzCAPg2gCaJxzHAEjgAQzlhQF4xFUxxw7kbvpUGZe7eN4SmBmD8BsE8OEAAwnaZMh+OGxL1wnvrXrfF3trM5cx5lqr/GBPo0AQoxpEKsty0EgHrxptbAOzwO/Cb4G/90zH6mV3PuaAIAAQAO9MgBAgCGFJ4hMSZ1jonIkTP5ajTv2157Pc5U78EAejSAOonGscITNgJAeGNCnTAm9XHgbhPZMRqjn62hpnosAYAAAAd64AABALOpz2zAOjysPzybp0b1mc2f/wRTXY4B9GAA4RESkahzTAgA8K1OvnGskPh2r4nsFJXJFzXWRI4nABAA4ECXHCAAhCTItIWAUCcHPlLkp9F97hMNqwBdij/FVmexhXksAkCY40JtMi7VciC92X8nrZjqx5gBEgLgQBccIABgNNUaDfiGiG8Mj/ztGHqvr9Zq7WqqKzCALgwgRHLSpvpEkwBQH9bwGqzD4MA9yf32v2VIMJGPEgAIAHCggAMEAEwpDFNiHOobh7/f0i+T+9tf22iqyzCAAgOoj3QUeIhYEwDgZYi8pE1V8fIOf8+c5Ax/ug6Zc0cRAAgAcGAWDhAAqhJa9ouJh8cBkcOn88ok3/P3NzbVpRjALAZAkYZXpHWOCQEg7/Gvk2scq2mu3Wqjo9snafYzderhhwQdRAAgAMCBGThAAGhalDk+waAuDsT7xL+ZDL7ofRsb28ZUf4IBzGAAFF9dxRfmcQgAYY4Ldcm4lMuBa70XFvllkp9bq6UEAAIAHJiGAwQAjKZcowHPMPF8eZLm3m2nzLmzMYBpDCBMsiIidY0LAQCu1cU1jtMU177arU8mu521Wn9qqg8RAggBcGATDhAAmhJljksgqIMDD5rInyRr7L10zFRPRvw3EX8KsI4CDPsYBICwx4caZXwG4YDI8b14ZNLb+hsgmOrvCAGEADgwyQECAAYziMHw3ZD5c7u/IV7Spt5r50zkYMSfAAAHCABwAB1ImgMi+/fqj8lvb+PjW5vIVUkPPKk85FQeVttYAQhrPKhdxqMcDvzQhoa2St7Q++mgOfc3prqBEMAMIHsOEAAwnHIMBxzDwXGDicztxxuz+Y6pfjV78Q+HsIhHU2NBAIB7TXGP41bFvSXZGHm/HTXnnmGqqwgBrAJkzQECQFUizH4x+CY4cL8597R+fTGr75nIMVmLPwXaRIGGdUwCQFjjQU0yHoNwwLmjsjLxQTprItua6tWEAFYBsuUAAQDDGcRw+G44/PEnt+d6v/9+g4CpvthU12RrABRwOAXcxFgQAPIe/yY4xzGr4NxaGx5+ab8+mPX3uEMgKwDZBkACQBVizD4x+Xo5wB3/+s8wtueejzbVW7I1AYq13mINCW8CQL5jHxIPacsgPPy5iezQvwPyzSETEe4NwEpAdiGQADCI8PJdjLtpDmww5xwWXgICpvrv2RkABdx0ATd7fAJAs/hTf+A/CAdEFpdgfezCI2Dz5z/BVG8nBLASkA0HTj/dkvnvwgsxk0HMhO/Gxp/fmchOuHeJCJhzY9mIPwUfW8GX397Fi5Pxfzv33PLxoUbANFQOOLdvidbHrjoImHNnEwJYBciCA5/6VDoB4MwzMatQzYp2lctN577W8SteS0bA5s3b3VTvzMIAKMxyCzM2PN/3vnQCgA8zseFPexmz3jlwh7Vau5Vse+xuUwRM9dWICasAyXPg9a9PJwAccQRm0ruZgFlcmPmz/hdt6lX8uyIETPXU5A0gLvIjVmWPl3Nmy5fHHwLWrzfbZx/4UTY/2F9onPpsRXbHbrdEwBYteoyp3kQIYCUgaQ5897vxB4AbbwxNqGkP4aFcDjh3o/ekLX2KvytEwJx7mamuTtoAKNRyCzU2PFM4EfBLX8p7DGPjHO3tla8PmchLKrQ6dj0TAubcBwgArAIky4FXvcpszZq4VwEOOqhXQWV7TDgmDrx3Jn/i/YoRsPHxrU314mQNACGISQiqaesll8QbAG6+uRpMqAtwDYEDIt/xHlSxzbH72RAw555mqncTAlgJSJIDhx8ebwA44QSMKgSjog1V8PAeGx7+o9m8ic9qQsBUX5uk+FO4VRRufPu87rr4QsBvf2s2f358WFNzjFk3HHBurCZ74zDdIGDOfZEQwCpAkhx497vNNmyIKwQceyxG0o2RsE2MPDm1G09imxoRMJEdTfWGJA0AkYhRJMpt8wUXxBMArr663L7Df/AMhQPO/dRGRh5bo7VxqG4RsFbrWaZ6LyGAlYDkOPCa15jdeWf4IWDlSrM3vxnDCsWwaEeZXFxuIs/s1o/YrgEETPVVprohOQOgkMss5Dj3deSRZuvWhR0COPEvTm6hL0Xj5m/1y1P+GvD0ng9pqicSAFgFSJIDn/lMuAHgK18pElE+x2hj5cCxPRsRX2gGgcn7A1yQpAEgILEKSHntPuOM8ELAhRea+ecXwE8wSI0D/nr/sbFtmnEzjtoXArZw4S6muhRBYiUgOQ54oz3zzHBCwLe+xSV/qZke/ekEudtM5Il9mRBfahYBf49mU12VnAFQnJ3izPv1X//VzD9tr6n//KWJPogw88+bh+nq0YOmOqdZF+PoAyFgzr2FAMAqQLIcOOoos7vuqj8C+LP9udYf40/X/H2wPXAg8+HLYSBgqp9P1gBSLkD61p3B7Luvmf8Nvq6bBV1xhdmb3tRd2xhDcIqRAyKfCcO9aMXACNjo6Pam+kNCACsBSXPgPe8xu+mm6lYDli41+9CHMLQYDY0298Lby21sbLuBjYcdhIOAiTzFVG9L2gAo8l6KPN1tjz7a7Ic/LOf8AL+q4J9F8JGP8Fs/9ZVuzWwc26XWau0WjnPRktIQsOHh55rqPYQAVgKy4MDrXmf22c+aXXmlmf/Nvtv/HnrI7Mc/NjvtNJb6NxpDDuaXex/vNZEXlGY47Cg8BEz15ab6UBYGgHjlLmgb+++fzHfggRMz+cWLJ87eP/tss298Y+Lf3uyPO87skEPMRkY2fg8OgUUeHFhjqq3wHIsWlY6AOfcmbhfMKgAhEA7AATgw6QUHlG407DBcBEz1WIqf4ocDcAAOZM+BD4frVLSsEgRsaGgrUz2d4s+++FnizWOJl3FmnKfjwJneCyoxGXYaNgI2Z86jTPUiQgAhAA7AATiQHQcu8ZeIh+1StK5SBGz+/CeY6vUUf3bFP91sgPeYJcKBPDhwg82du3Ol5sLO40DARP7EVJcRAggBcAAOwIHkOfB7c+4ZcbgTrawFAf/QB1O9l+JPvviZ4eUxw2OcGefpOLDcPySuFlPhIHEhYK3WnqZ6PyGAEAAH4AAcSI4DK63VmheXK9HaWhHwN4MwVf8YyOnSI++BCxyAA3AgPg6sslZLazUTDhYnAqa6kLsFEoAIgXAADiTBgTUmsk+cbkSrG0HAVF9rqmsRgCQEgBlbfDM2xowxK4MD60zkjY2YCAeNGwETeaupricEEALgAByAA9FxYIOJvD1uF6L1jSJgIodT+NEVfhkzB/bBDBQOxMuBDab6zkbNg4OngYA5dxQhgBAAB+AAHIiEAyLHpOE+9CIIBEzkeIo/kuKPd9bCjJOxgwODcsC58SBMg0akhYCJHEMIIATAATgABwLlgHMnpeU69CYoBEz1/RR/oMU/6MyB7zP7hAMxc4DH+gbllok2xpx7B1cHEAIIgnAADgTBAX+2/5GJ2g3dChEBE3kz9wkIovhjnrHQdmbccGAwDqwz5w4M0SNoU+IImOrrTXUNswCCAByAA3Cgdg6sNpH9ErcZuhcyAqa698PnBayi+GsvfmZOg82cwA/8YubAQ6b66pC9gbZlgoCpvtxU7yMEEALgAByAA5Vz4AETmZ+JvdDNGBCwVusvTfVuir/y4o951kLbmXXDgcE4sNyc+5sYPIE2ZoaAqc4x1WWEAEIAHIADcKB0Dvzehodfmpmt0N2YELDh4T3MuRsp/tKLn5nTYDMn8AO/mDnwM3PuGTF5AW3NFAGbO3dnE/kuIYAQAAfgABwYmAMXm8hOmdoJ3Y4RARsb285UT6f4By7+mGcttJ1ZNxwYhAPOfdFraYweQJszR8CGhrYy58ZN1T+aEiEAAzgAB+BAdxzY0NbOoaGtMrcRuh87AibyVlNdTQggBMEBOAAHCjmw2px7S+y6T/tB4BEEzDlnqssp/sLiZ4bU3QwJnMApRQ7cYyLyiHDyDxBIBQFrtZ5nqrcSAggBcAAOwIEpHFhqw8PPTUXv6QcITEHARJ5iqldS/FOKP8XZDH1ilg4HuuPA5TYy8uQpgskbIJAaAiayrTl3EiGAEAAH4AAc0FM50z81l6M/hQiYyP6muhIBwATgABzIkAMPmupBhULJBiCQKgIm8hJTXZph8RNEdxwAAAg+SURBVLM02t3SKDiBU4oc+JV/fkqquk6/QKBrBKzV2tVUv0UIYBYIB+BA8hwQ+X+2cOEuXQskG4JA6gi0bxokcoyprk9eAJjRpTijo0/wuogD/uY+J9n4+Nap6zn9A4G+EDCRfbhfALNAQiAcSIwDK8y5ffsSRb4EAjkhYMPDf26q1ycmAEWzAz5nBgkH0uTATVzfn5OD0deBETCRHU313wkBzAThAByImAOn2cjIYwcWRHYAAjkiYKqvNdW7IhYAZnVpzuoYV8Z1Ng4sN5E35qjZ9BkESkVg8u6BFxACmAnCATgQAQcuMueeVqoIsjMQyBmByasEjjTVhyIQgNlmBnzGzBEOpMmBNe1H+HKWf85WRd+rRMBEXmDO/ZQQwEwQDsCBYDjg3I02PPzSKrWPfYMACAwNDdmeez7aVE8x1Q3BCECaMxpmqowrHCjmwBJO9MOaQKBmBB5+quBCU/09IYCZIByAAw1w4A/m3KKaZY/DgQAIdBCwefN2N9VvNFD8zIyKZ0ZgBEapcuC/rNXaraNDvIIACDSIgDk3Zqp3EgSYCcIBOFAhB35vIvs1KHUcGgRAYDoEbGTkyaa6pMLiT3U2Q7+YqcOB2TngzzdawkN8plNe3gOBgBDwCZ1zA5gFEgThQEkcuNmcGw5I4mgKCIDAbAjY/PlPmLxSYF1JIsAMafYZEviAT2ocWNt+ep/IDrNpDZ+BAAgEioA59zJTvZoQwGwQDsCBrjng3DWmOidQWaNZIAAC3SJgc+Y8ykSOMdWVXQsAs7nUZnP0B053w4EHzLmjbGxsm271he1AAAQiQMDfn5uTBJkFEgLhwDQc8Cf5nWXOPSMCKaOJIAAC/SJgrZaa6vXTiEA3MwS2YSYJB9LiwP+Y6l796gnfAwEQiAwBE9nWRPzDhe4lCDAjhANZcuC3pnqo8fCeyNSb5oJASQj4u3mZ6qmmytUCac3qmKUznjNx4EFz7gTu31+SiLIbEIgdARN5Tvs3QERzJtHkfbgRPwecO8+Gh/eIXa9oPwiAQAUImMh8U72OJeEsl4TjNzhCyvRj6C/r42Y+FSgmuwSBxBDwlwCZcwea6m0EAYIAHIiaA0tN9QB+509MpOkOCFSNgI2Nbdc+SYhHDk8/q2K2CS7hcuDO9r0/uItf1TLJ/kEgbQT8yUKTNxJazmww6tkghh2uYZc1Nve1b987Ovr4tFWJ3oEACNSKgO211+MIAgQAQmCQHJgw/rlzd65VFDgYCIBAXghsEgTuwQyCNIOyZpPsJ/wVA4w/L/mltyAQBgImspOJfNRU7yYIEATgQK0cuMtUP+yf+hmGGtAKEACBLBEwkR3aZxqr3owJ1GoCzNDDn6GXPUa/N+fGMf4spZZOg0C4CPhLjcy5RaZ6OUGAIAAHSuXALe1bd4+Obh+uAtAyEAABEBgaGjKRuebc2Q8vU67HCEo1grJnlOwv5FUEke+2Q/XQ0FYICwiAAAhEhYC1Wn9qqqeY6kqCAEEADnTFgdWTt+X+66iKncaCAAiAwHQI2Lx5TzLVj5jqHZhAVybAzDzkmXk1bVvW/n2/1dptuhriPRAAARCIGoH23QWdG3v4+eMXPhwINhAGCANwQK9u33Fzzz0fHXVx03gQAAEQ6BYBU312+65lqv6SJma8YJATB+5tP4Z7ePiF3dYL24EACIBAcghM3mr4bSbyfVYFCEIJh0G/4nVJ+5LZRYsek1wh0yEQAAEQGAQBGx7+o8nbDfunmOU0I6Sv6Y737e2VLpFnDlIbfBcEQAAEskCgfU8B1YWm+mVTfYAwQBiKjAP3meoSa7UW8CjeLCSLToIACFSBQPtOgxM3GDrLVP0lUsyWwSBEDqybPLn1ABPZsYpaYJ8gAAIgkC0C1mrtaiKHmerFpuoFN0QjoE35jMvatuk7d4gtXLhLtoVJx0EABECgTgS84LZPqHLuPFYGCEI1hkEfPH/QvjUv1+zXWfIcCwRAAASmItB+MqFzbzHV/zJV//srs3AwKJMDK9p35xPZnwfxTK0/3gEBEACBIBCwsbFtJp9FcJI5dyNhgDDUJwd+2b5W359/Mja2XRDkphEgAAIgAALdI2AizzHnjjLVb3JFAWFgljBwv6meP7m0/6zuGcaWIAACIAACwSPQvhWxiJjqiab6P5xImHUgWGciV5lzJ5jqy5nlB1++NBAEQAAEykPAX65lIvPbD2GZeD4Blxmme+6AP3nP33f/FPPPo+Cs/fIKiT2BAAiAQOwItAOBcyOmepypfttU/T3byzyZjH3Vh+dyU/1WO9z5kDcy8tjY+Un7QQAEQAAEakKgfUfCVut55tyB7RPCVK8z1TWEguBCkR+Ta0318ybyNhsefq4NDW1VE004DAiAAAiAQA4I2Jw5jzLV57fvQeCXk/014ar+BDJm9/Vg4LH2S/lL2ifsicw1HqWbQ+nRRxAAARAIEwFbsOCp7fMJRI6cXC3wwYB7EvQfCh4y1Rva1987N97+3d4Hr/HxrcNkAK0CARAAARAAgUkE/DJ0+wmHrZaayNvbT4WbuFmRX64mHKj6G+xca859zUQ+3sbIX6Uh8nSW8CkjEAABEACBZBGwuXN3tuHhF5rIPubc35rqx9pL26oXmer1prrMVNdH+POCb7Nvu++D78uSdt+ce0e7rxN93inZgaVjIAACIAACIDAoApN3NnxKOyg450xkv8nVhKMnr2H/bPuxySJfn3wa3WWTv5HfZKr+bnZ3meo9m/y/appA4d/bdBv/Hf9dv4+rTeT77X1PHMM/ovmz7WM7d7SJHPyw0b/OfNsmjP0pLNMPOup8HwSqR+D/A3tlqXWQEp/5AAAAAElFTkSuQmCC;rotation=90;" vertex="1" parent="1">
          <mxGeometry x="425" y="350" width="52" height="52" as="geometry" />
        </mxCell>
        <mxCell id="A7jKajFBfQxQjQhxYCSo-15" value="&lt;font data-font-src=&quot;https://fonts.googleapis.com/css?family=Quicksand&quot; face=&quot;Quicksand&quot;&gt;&lt;b&gt;Real Time Transmission of Collected Data&lt;/b&gt;&lt;/font&gt;" style="text;html=1;align=center;verticalAlign=middle;whiteSpace=wrap;rounded=0;" vertex="1" parent="1">
          <mxGeometry x="326" y="402" width="250" height="30" as="geometry" />
        </mxCell>
        <mxCell id="A7jKajFBfQxQjQhxYCSo-16" value="&lt;font data-font-src=&quot;https://fonts.googleapis.com/css?family=Quicksand&quot; face=&quot;Quicksand&quot;&gt;&lt;b&gt;Sending Signals (Actions) to the Physical Object&lt;/b&gt;&lt;/font&gt;" style="text;html=1;align=center;verticalAlign=middle;whiteSpace=wrap;rounded=0;" vertex="1" parent="1">
          <mxGeometry x="309" y="180" width="284" height="30" as="geometry" />
        </mxCell>
      </root>
    </mxGraphModel>
  </diagram>
  <diagram id="Z8VgLHQp-NwxBsB-EEs3" name="Page-2">
    <mxGraphModel dx="1900" dy="1725" grid="1" gridSize="10" guides="1" tooltips="1" connect="1" arrows="1" fold="1" page="1" pageScale="1" pageWidth="850" pageHeight="1100" math="0" shadow="0">
      <root>
        <mxCell id="0" />
        <mxCell id="1" parent="0" />
        <mxCell id="sXrkbcoMHqB5MU0Kjqhi-1" value="" style="rounded=0;whiteSpace=wrap;html=1;movable=0;resizable=0;rotatable=0;deletable=0;editable=0;locked=1;connectable=0;" vertex="1" parent="1">
          <mxGeometry x="-520" y="-730" width="4780" height="2740" as="geometry" />
        </mxCell>
        <mxCell id="sXrkbcoMHqB5MU0Kjqhi-2" value="&lt;font face=&quot;Quicksand&quot;&gt;Analyze Historical Data&lt;/font&gt;" style="rounded=1;whiteSpace=wrap;html=1;fillColor=#f8cecc;strokeColor=#b85450;fontSize=15;fontStyle=1" vertex="1" parent="1">
          <mxGeometry x="2670" y="-10" width="270" height="80" as="geometry" />
        </mxCell>
        <mxCell id="sXrkbcoMHqB5MU0Kjqhi-3" value="&lt;font face=&quot;Quicksand&quot;&gt;Identify Patterns and Trends&lt;/font&gt;" style="rounded=1;whiteSpace=wrap;html=1;fillColor=#ffe6cc;strokeColor=#d79b00;fontSize=15;fontStyle=1" vertex="1" parent="1">
          <mxGeometry x="2670" y="120" width="270" height="80" as="geometry" />
        </mxCell>
        <mxCell id="sXrkbcoMHqB5MU0Kjqhi-8" value="&lt;font face=&quot;Quicksand&quot;&gt;Generate Predictions through ML&amp;nbsp;&lt;/font&gt;&lt;div&gt;&lt;font face=&quot;Quicksand&quot;&gt;and statistical techniques&lt;/font&gt;&lt;/div&gt;" style="rounded=1;whiteSpace=wrap;html=1;fillColor=#d5e8d4;strokeColor=#82b366;fontSize=15;fontStyle=1" vertex="1" parent="1">
          <mxGeometry x="2670" y="250" width="270" height="80" as="geometry" />
        </mxCell>
        <mxCell id="sXrkbcoMHqB5MU0Kjqhi-10" value="" style="shape=image;verticalLabelPosition=bottom;labelBackgroundColor=default;verticalAlign=top;aspect=fixed;imageAspect=0;image=data:image/png,iVBORw0KGgoAAAANSUhEUgAAAgAAAAIACAYAAAD0eNT6AAAAAXNSR0IArs4c6QAAIABJREFUeAHt3Xms7VdVB/DVYkFBMSEYTKki4FTBxJBoVUABwaEts8hUykypAwhCNGpMxBgBTQQsBVQEEUUEMRFF+AcTR2JQkzoBJkBrDJYEgiODlPq27aHvXe5999xz9j5nr9/6vOTlTffus/dn7X3W9/7uOb8X4QcBAgQIECBAgAABAgQIECBAgAABAgQIECBAgAABAgQIECBAgAABAgQIECBAgAABAgQIECBAgAABAgQIECBAgAABAgQIECBAgAABAgQIECBAgAABAgQIECBAgAABAgQIECBAgAABAgQIECBAgAABAgQIECBAgAABAgQIECBAgAABAgQIECBAgAABAgQIECBAgAABAgQIECBAgAABAgQIECBAgAABAgQIECBAgAABAgQIECBAgAABAgQIECBAgACBRAIXRMTlEfHiiPj9iHhXRPxDRPx9RLw7It4WES+JiKdGxFclWpepEiBAgAABAgcEvjQinh8RfxcRN57w5/sj4gURcfcDY/ojAQIECBAgMKnAnSPiqoj4+Amb/mEh4dMR8YaIuHDStZoWAQIECBAoL3CriHhWRPxHh8Z/MAx8KiJedOpbCLctrwyAAAECBAhMJHDHiHj7gMZ/MAj8U0R8/UTrNhUCBAgQIFBW4Gsi4rodNP9VGGhXGB5YVtvCCRAgQIDABAL3jIjrd9j8VyHgExHxkAnWbwoECBAgQKCcQHux37V7aP6rENBeZHjfcuoWTIAAAQIE9ihw65vfv79qxvv69cMRcf4eHTw0AQIECBAoJfDze/zK/2DYeGdEnFNK32IJECBAgMAeBL4hItr78w824n3++Ul7cPCQBAgQIECglMAfT9b8W/BoL0T8wlJVsFgCBAgQILBDgXtP2PxXVx6es0MHD0WAAAECBEoJvGniANDuRXBuqWpYLAECBAgQ2IHA7Tvd33/1FfuIX++/AwcPQYAAAQIESgk8YeKv/ldh4upSFbFYAgQIECCwA4FXJwgA/7gDBw9BgAABAgRKCbTmuvpKe9ZfPxMRdyhVFYslQIAAAQIDBdp/9fvJBAGgBZOLBjoYmgABAgQIlBL48iTNvwWAx5aqjMUSIECAAIGBAvdIFACuGOhgaAIECBAgUErgXokCgBsCldqaFkuAAAECIwW+KVEAeN5ICGMTIECAAIFKAgJApWpbKwECBAgQuFlAALAVCBAgQIBAQQEBoGDRLZkAAQIECAgA9gABAgQIECgoIAAULLolEyBAgAABAcAeIECAAAECBQUEgIJFt2QCBAgQIJApAPyIchEgQIAAAQJ9BNp/sDPr/wB4cF4CQJ+aG4UAAQIECPz//7B3sNHO+mcBwIYlQIAAAQKdBFwB6ARpGAIECBAgkElAAMhULXMlQIAAAQKdBASATpCGIUCAAAECmQQEgEzVMlcCBAgQINBJQADoBGkYAgQIECCQSUAAyFQtcyVAgAABAp0EvjnRfQCe22nNhiFAgAABAuUFBIDyWwAAAQIECFQUEAAqVt2aCRAgQKC8gABQfgsAIECAAIGKAgJAxapbMwECBAiUFxAAym8BAAQIECBQUUAAqFh1ayZAgACB8gICQPktAIAAAQIEKgoIABWrbs0ECBAgUF7gWxLdCOg55asFgAABAgQIdBIQADpBGoYAAQIECGQSEAAyVctcCRAgQIBAJwEBoBOkYQgQIECAQCYBASBTtcyVAAECBAh0EhAAOkEahgABAgQIZBIQADJVy1wJECBAgEAnAQGgE6RhCBAgQIBAJoFvTXQfgB/OBGuuBAgQIEBgZgEBYObqmBsBAgQIEBgkIAAMgjUsAQIECBCYWUAAmLk65kaAAAECBAYJCACDYA1LgAABAgRmFhAAZq6OuREgQIAAgUECAsAgWMMSIECAAIGZBQSAmatjbgQIECBAYJCAADAI1rAECBAgQGBmgXsnuhHQs2eGNDcCBAgQIJBJQADIVC1zJUCAAAECnQQEgE6QhiFAgAABApkEBIBM1TJXAgQIECDQSUAA6ARpGAIECBAgkElAAMhULXMlQIAAAQKdBASATpCGIUCAAAECmQQEgEzVMlcCBAgQINBJ4D7uA9BJ0jAECBAgQCCRQKYA8KxErqZKgAABAgSmFhAApi6PyREgQIAAgTECAsAYV6MSIECAAIGpBQSAqctjcgQIECBAYIyAADDG1agECBAgQGBqAQFg6vKYHAECBAgQGCMgAIxxNSoBAgQIEJhaQACYujwmR4AAAQIExgjcN9GNgH5oDIFRCRAgQIBAPQEBoF7NrZgAAQIECIQAYBMQIECAAIGCAgJAwaJbMgECBAgQEADsAQIECBAgUFBAAChYdEsmQIAAAQICgD1AgAABAgQKCggABYtuyQQIECBA4NvcB8AmIECAAAEC9QQyBYAfrFceKyZAgAABAmMEBIAxrkYlQIAAAQJTCwgAU5fH5AgQIECAwBgBAWCMq1EJECBAgMDUAgLA1OUxOQIECBAgMEZAABjjalQCBAgQIDC1gAAwdXlMjgABAgQIjBEQAMa4GpUAAQIECEwt8O2JbgTkPgBTbyWTI0CAAIFMApkCwA9kgjVXAgQIECAws4AAMHN1zI0AAQIECAwSEAAGwRqWAAECBAjMLCAAzFwdcyNAgAABAoMEBIBBsIYlQIAAAQIzCwgAM1fH3AgQIECAwCABAWAQrGEJECBAgMDMAvdLdB8AbwOceSeZGwECBAikEhAAUpXLZAkQIECAQB+BTAHg+/ss2SgECBAgQICAAGAPECBAgACBggICQMGiWzIBAgQIEBAA7AECBAgQIFBQQAAoWHRLJkCAAAECAoA9QIAAAQIECgoIAAWLbskECBAgQOD+iW4E5G2A9isBAgQIEOgkkCkAXNlpzYYhQIAAAQLlBQSA8lsAAAECBAhUFBAAKlbdmgkQIECgvIAAUH4LACBAgACBigICQMWqWzMBAgQIlBcQAMpvAQAECBAgUFFAAKhYdWsmQIAAgfICAkD5LQCAAAECBCoKPCDRjYDcB6DiDrVmAgQIEBgikCkAPHOIgEEJECBAgEBBAQGgYNEtmQABAgQICAD2AAECBAgQKCggABQsuiUTIECAAAEBwB4gQIAAAQIFBQSAgkW3ZAIECBAgIADYAwQIECBAoKDAdyS6D4C3ARbcoJZMgAABAmMEBIAxrkYlQIAAAQJTC2QKAFdMLWlyBAgQIEAgkYAAkKhYpkqAAAECBHoJCAC9JI1DgAABAgQSCQgAiYplqgQIECBAoJeAANBL0jgECBAgQCCRgACQqFimSoAAAQIEegkIAL0kjUOAAAECBBIJPDDRjYC8DTDRxjJVAgQIEJhbIFMAeMbclGZHgAABAgTyCAgAeWplpgQIECBAoJuAANCN0kAECBAgQCCPgACQp1ZmSoAAAQIEugkIAN0oDUSAAAECBPIICAB5amWmBAgQIECgm4AA0I3SQAQIECBAII/AgxLdB8DbAPPsKzMlQIAAgckFBIDJC2R6BAgQIEBghECmAPD0EQDGJECAAAECFQUEgIpVt2YCBAgQKC8gAJTfAgAIECBAoKKAAFCx6tZMgAABAuUFBIDyWwAAAQIECFQUEAAqVt2aCRAgQKC8gABQfgsAIECAAIGKAt+Z6EZA3gZYcYdaMwECBAgMERAAhrAalAABAgQIzC2QKQA8bW5KsyNAgAABAnkEBIA8tTJTAgQIECDQTUAA6EZpIAIECBAgkEdAAMhTKzMlQIAAAQLdBASAbpQGIkCAAAECeQQEgDy1MlMCBAgQINBN4LsS3QfAuwC6ld1ABAgQIFBdQACovgOsnwABAgRKCggAJctu0QQIECBQXSBTAHhq9WJZPwECBAgQ6CUgAPSSNA4BAgQIEEgkIAAkKpapEiBAgACBXgICQC9J4xAgQIAAgUQCAkCiYpkqAQIECBDoJSAA9JI0DgECBAgQSCTw3YluBORdAIk2lqkSIECAwNwCAsDc9TE7AgQIECAwRCBTAHjKEAGDEiBAgACBggICQMGiWzIBAgQIEBAA7AECBAgQIFBQQAAoWHRLJkCAAAECAoA9QIAAAQIECgoIAAWLbskECBAgQOB7Et0HwLsA7FcCBAgQINBJQADoBGkYAgQIECCQSUAAyFQtcyVAgAABAp0EMgWAJ3das2EIECBAgEB5AQGg/BYAQIAAAQIVBQSAilW3ZgIECBAoLyAAlN8CAAgQIECgooAAULHq1kyAAAEC5QUEgPJbAAABAgQIVBS4ONGNgLwLoOIOtWYCBAgQGCIgAAxhNSgBAgQIEJhbQACYuz5mR4AAAQIEhghkCgBPGiJgUAIECBAgUFBAAChYdEsmQIAAAQICgD1AgAABAgQKCggABYtuyQQIECBAQACwBwgQIECAQEGBSxLdB8CLAAtuUEsmQIAAgTECAsAYV6MSIECAAIGpBQSAqctjcgQIECBAYIxApgDwxDEERiVAgAABAvUEBIB6NbdiAgQIECAQAoBNQIAAAQIECgoIAAWLbskECBAgQEAAsAcIECBAgEBBAQGgYNEtmQABAgQIXJroRkDeBWC/EiBAgACBTgICQCdIwxAgQIAAgUwCAkCmapkrAQIECBDoJJApAFzeac2GIUCAAAEC5QUEgPJbAAABAgQIVBQQACpW3ZoJECBAoLyAAFB+CwAgQIAAgYoCAkDFqlszAQIECJQXeHCi+wB4EWD57QqAAAECBHoJCAC9JI1DgAABAgQSCQgAiYplqgQIECBAoJeAANBL0jgECBAgQCCRQKYA8IRErqZKgAABAgSmFhAApi6PyREgQIAAgTECAsAYV6MSIECAAIGpBQSAqctjcgQIECBAYIyAADDG1agECBAgQGBqgYckuhGQFwFOvZVMjgABAgQyCQgAmaplrgQIECBAoJOAANAJ0jAECBAgQCCTgACQqVrmSoAAAQIEOglkCgCXdVqzYQgQIECAQHkBAaD8FgBAgAABAhUFBICKVbdmAgQIECgvIACU3wIACBAgQKCiwEMT3QfAawAq7lBrJkCAAIEhAgLAEFaDEiBAgACBuQUEgLnrY3YECBAgQGCIgAAwhNWgBAgQIEBgboFMAeDxc1OaHQECBAgQyCMgAOSplZkSIECAAIFuAgJAN0oDESBAgACBPAICQJ5amSkBAgQIEOgmIAB0ozQQAQIECBDII/CwRDcC8iLAPPvKTAkQIEBgcgEBYPICmR4BAgQIEBghIACMUDUmAQIECBCYXEAAmLxApkeAAAECBEYIZAoAjxsBYEwCBAgQIFBRQACoWHVrJkCAAIHyAgJA+S0AgAABAgQqCggAFatuzQQIECBQXuDhie4D4DUA5bcrAAIECBDoJSAA9JI0DgECBAgQSCQgACQqlqkSIECAAIFeAgJAL0njECBAgACBRAICQKJimSoBAgQIEOglkCkAPLbXoo1DgAABAgSqCwgA1XeA9RMgQIBASQEBoGTZLZoAAQIEqgsIANV3gPUTIECAQEmBRyS6EZDXAJTcohZNgAABAiMEBIARqsYkQIAAAQKTCwgAkxfI9AgQIECAwAgBAWCEqjEJECBAgMDkAgLA5AUyPQIECBAgMEIgUwB4zAgAYxIgQIAAgYoCAkDFqlszAQIECJQXEADKbwEABAgQIFBR4JGJ7gPgWwAVd6g1EyBAgMAQAQFgCKtBCRAgQIDA3AICwNz1MTsCBAgQIDBEQAAYwmpQAgQIECAwt4AAMHd9zI4AAQIECAwRyBQAHj1EwKAECBAgQKCggABQsOiWTIAAAQIEBAB7gAABAgQIFBQQAAoW3ZIJECBAgMD3JroRkNcA2K8ECBAgQKCTgADQCdIwBAgQIEAgk4AAkKla5kqAAAECBDoJCACdIA1DgAABAgQyCQgAmaplrgQIECBAoJNApgDwfZ3WbBgCBAgQIFBeQAAovwUAECBAgEBFAQGgYtWtmQABAgTKCzwq0X0AfAug/HYFQIAAAQK9BASAXpLGIUCAAAECiQQEgETFMlUCBAgQINBLQADoJWkcAgQIECCQSEAASFQsUyVAgAABAr0EBIBeksYhQIAAAQKJBDIFgDZXPwgQIECAAIEOAgJAB0RDECBAgACBbAICQLaKmS8BAgQIEOgg0G6uc2OSn74F0KHghiBAgAABAk1AALAPCBAgQIBAQQEBoGDRLZkAAQIECAgA9gABAgQIECgoIAAULLolEyBAgACBTAGg/dfFfhAgQIAAAQIdBASADoiGIECAAAEC2QQEgGwVM18CBAgQINBB4NFJ7gHQ7lXgWwAdCm4IAgQIECDQBAQA+4AAAQIECBQUEAAKFt2SCRAgQICAAGAPECBAgACBggICQMGiWzIBAgQIEBAA7AECBAgQIFBQIFMAeGTB+lgyAQIECBAYIiAADGE1KAECBAgQmFtAAJi7PmZHgAABAgSGCDwm0Y2AfAtgyBYwKAECBAhUFBAAKlbdmgkQIECgvIAAUH4LACBAgACBigICQMWqWzMBAgQIlBcQAMpvAQAECBAgUFFAAKhYdWsmQIAAgfICmQLAI8pXCwABAgQIEOgkkCkAeBvg9kW/XUTcLyKeFhE/HREvvPnnj0XE5RFxr4g4b/uHMQIBAgQ2E/jaiHhGRLw+Iv48It4bER+LiM9ExEdPPVG9PyLeERG/GBEPj4g7bPYwPisiBIDlb4M7RcSzI+IvIuJ/17jvw8cj4g8j4ukRcfvl81ghAQL7FmhPUj8RER9c4wnqxgMf057U3hoR7SvEc/e9kGSPLwAkK9gJpnvXiHhVRHziwHk5eH7O9uf/jIirIuLOJ3hcH0qAAIG1BL4kIn41Ij65xZPU6U9g7WrBZacub56z1qP7oEwBwGsA1tuvtzl1teynIqJ9JX/62djm9/9z6lsDP3vq2wWfv94UfBQBAgSOFmgN+oqI+EjHJ6nTn+D+JCIuPPrh/cvNAgLAsrbCV0fENYPOVDtfLWB/47LIrIYAgV0KtBcivXngk9QqCPzXzVcDdrm2bI/12B3UYVWPbX91BeDsu+vBEfHvO6hn+5ZCe42OHwQIEDiRwAUR8Tc7eJI6vdm84EQzrPXBAsAy6v24NV/gd/q52Pb3P7MMOqsgQGAXAnc89arz9+y4+a+e5F7mdQGHllgAOJQl1V8+JSJu2NO5elEqKZMlQGAvAreNiL/c05PUKgS0VzN7ceCZ5RcAzvTI9qd9Nv/VuXpuNjTzJUBgtwKv2XPzXz1ZCQFn1l0AONMj059maP7tXH06Ih6QCc5cCRDYncClkzT/VQh4uSsBny2+APBZilS/maX5r87Uh9yQK9X+MVkCOxFodxL718kCQHvSEgJuKr8AsJNj0PVBZmv+qxDw2q6rNBgBAukFfnzC5r96wvpldw6M9urxlcfsv7bbPlf/MWvzb3un3ar7ouoFsn4CBG4SaO/3//DkDebq4t8OyHQFoHoAmLn5r8Jj+z86/CBAgEA8c/Lmv3rSekXhEOAKQI6DmqH5r64C3CMHqVkSIDBS4J1JAkB74qoaAgSAkSegz9hZmv8qULd7bvhBgEBhgfa/+7W3B62eFDL8+isFXxOQKQA8rOB5ytb82zlvL/p1v42Cm9WSCawEHp+s+a8CyiuLPXllCgDVXgOQsfmvztG9Vk8EfiVAoJ7Ai5MGgPYE1v574nOLlCxTUKt0BSBz829n6Moi58cyCRA4ROCPEgeA9gT2qiJXAlwBOGTz7vmvsjf/1fnZM6OHJ0BgXwL7+k9/2pNPr58VQoAAsK8TcvjjLqH5t/P3tsOX528JEKggcF3HRtyroW8yztJDQKYAsPRvASyl+bdz9u4KT3LWSIDA4QIfWUgAaE9mr17wawK8BuDw/bvrv11S829n5q93DejxCBCYR2D2OwCe9GrAUm8bLADs/8wsrfm3s/Wu/bOaAQEC+xL42wVdAViFhSVeCRAA9nVCbnrcJTb/dl7esl9Wj06AwD4F3rrAANCe2JZ2syABYH+nZKnNv52Tl+yP1SMTILBvgV9YaABYWggQAPZzUpbc/NsZaS8u9YMAgaIClyw4ALQnuKXcLEgA2P0BXXrzb+fjLrtn9YgECMwi8EUR8amFh4AlvCbgskQ1eugsm3uLeVRo/n+1hY9PJUBgIQJvT9Rc2lctm/zMHgJcAdjdYavQ/NsZes7uSD0SAQKzCly8YVPdpBHv83N+LfF9AlwB2M3pqdL8PxYRX7wbUo9CgMDMAu0/1HlvkRCQ9UqAADD+BFVp/i2Ev2A8p0cgQCCLQKZbzW57FSHjlQABYOxJqtT8r42I243lNDoBAtkE3lHkKkALENlCgAAw7jRVav5t7z94HKWRCRDIKnC3iPjvQiHgNYleEyAAjDlV1Zr/S8cwGpUAgSUIPCoibhACpiulANC/JNWa/59GxK37MxqRAIElCTyvUABol0TfEBG3mryAT0hUk4dMbtmmV635XxMRd0hQF1MkQGACgXapcNsX22X6/NdO/u0AVwD6HYpqzf89EXGnfnxGIkBg6QLnnPqK4WXFQsDMVwJcAehz4qo1//b23vP70BmFAIFKAi0E/FLBEPB5ExZZANi+KNWa//s0/+03jREIVBYQAuaovgCwXR0qNv87b0fmswkQIBAhBOx/FwgAm9dA89/czmcSIECgZAj47YiY5dsBmQLATDea0fw9eREgQKCDQMUrAbOEAAHg5BtY8z+5mc8gQIDAkQJCwJE0Q//h8kQvxpzhCoDmP3Q7GpwAgaoCLQRclagh9bgfwb6vBAgA6582zX99Kx9JgACBEwtUDAFv3ONrAgSA9bao5r+ek48iQIDAVgJCwFZ8J/pkAeB4Ls3/eCMfQYAAgW4CQkA3yrMOJACclafcvf3bTX68z//se8K/EiCwAwEhYDyyAHC0sa/8j7bxLwQIEBguIASMJRYADvfV/A938bcECBDYqYAQMI47UwC4dBzDGSNr/mdw+AMBAgT2K9BCwMuLvUVwF+8OeGIi010EgGrN/599z3+/T2wenQCB9QQqhoDfGfwWQQHglr1XsflfcMvy/Y4AAQJzCwgBfesjANzkWa35fyAivqLvVjIaAQIExgsIAf2MBYAo91Y/zb/f+TESAQJ7EBAC+qBXDwC+8u+zj4xCgACBnQpUDAFv6vyagMoBQPPf6XH1YAQIEOgrIARs51k1AFRr/h/0Pf/tDorPJkBgTgEhYPO6VAwAmv/m+8VnEiBAYDoBIWCzkmQKAJdstsQzPkvzP4PDHwgQILAMgaoh4LwtyvekRDcC2jYAaP5bbBSfSoAAgdkFWgi4OlFTu7HDXNsLAzcNAVUCgOY/+8k1PwIECHQQEALWR6wQADT/9feDjyRAgEB6gYoh4M0bXAlYegDQ/NMfZQsgQIDAyQWEgOPNlhwANP/j6+8jCBAgsFgBIeDspV1qAKjY/O969lL7VwIECNQTEAKOrvkSA4Dmf3S9/QsBAgTKCVQMAb+7xmsClhYANP9yR9uCCRAgcLxACwGv6PC2ux5v3dvVGMeFgCcn8rj4mBJr/scA+WcCBAhUFhACzqz+UgKA5n9mXf2JAAECBA4REAJuQVlCAKjW/K+NCC/4u2UP+x0BAgROJFAxBPxBRNzmgFL2AKD5HyioPxIgQIDA8QJCQETmAKD5H7/HfQQBAgQIHCFQPQRkDQCa/xEb2l8TIECAwPoCLQS8MtGr4Xu8g2D17YCMAUDzX39v+0gCBAgQOEagagh4ZqLg094GqPkfs5H9MwECBAicXODciHhNoobY40rA9YnW+8aIuCHRfLetzwdO7ce7nHwb+wwCBAgQ2ESg4pWAbRuVz4/obdDe6ne3TTawzyFAgACBzQWEgP4NrXeDXPJ4mv/mZ9dnEiBAYGuB9u2A1xa63LzkhpppbZr/1kfXAAQIENheQAhwJWCX4UHz3/7MGoEAAQLdBIQAIWAXIUDz73ZkDUSAAIF+AkKAEDAyBGj+/c6qkQgQINBdQAgQAkaEAM2/+1E1IAECBPoLCAFCQM8QoPn3P6NGJECAwDABIUAI6BECNP9hR9TABAgQGCcgBAgB24SA69zkZ9zhNDIBAgRGCwgBQsAmIaA1/7uP3pzGJ0CAAIGxAi0E/LqbBXW/De4mjTXD52j+Y8+j0QkQILBTgVsJAQLAGiFQ89/psfRgBAgQ2I2AEODbAWe7AqH57+YcehQCBAjsRUAIEAIOCwGa/16OowclQIDAbgWEACHg9BCg+e/2/Hk0AgQI7FVACBACWgjQ/Pd6DD04AQIE9iPQQsDr1nhh2OlfLfr9coKD5r+fc+dRCRAgMIWAELCchn6ScKb5T3H8TIIAAQL7FRACaoUAzX+/582jEyBAYCoBIaBGCND8pzp2JkOAAIE5BISAZYcAzX+Oc2YWBAgQmFJACFhmCPgX9/af8ryZFAECBKYSEAKWFQJa8//KqXaYyRAgQIDAtAItBPyGtwim//8DNP9pj5iJESBAYF4BISD3lQDNf96zZWYECBCYXkAIyBkCNP/pj5YJEiBAYH4BISBXCND85z9TZkiAAIE0AkJAjhCg+ac5UiZKgACBPAJCwNwhQPPPc5bMlAABAukEhIA5Q4Dmn+4omTABAgTyCQgBc4WAD0XEhfm2kRkTIECAQEYBIWCOEKD5Zzw95kyAAIHkAkLAfkOA5p/8AJk+AQIEMgu0EPB6dwzc+R0DNf/Mp8bcCRAgsBABIWC3VwI0/4UcHMsgQIDAEgSEgN2EAM1/CafFGggQILAwASFgbAjQ/Bd2YCyHAAECSxIQAsaEgH/zVr8lHRNrIUCAwDIFhIC+IaA1/69b5laxKgIECBBYmoAQ0CcEaP5LOxnWQ4AAgQICLQT8prcIbvwWQc2/wCGxRAIECCxVQAjY7EqA5r/UE2FdBAgQKCQgBJwsBGj+hQ6HpRIgQGDpAkLAeiFA81/6SbA+AgQIFBQQAs4eAjT/gofCkgkQIFBFQAg4PARo/lVOgHUSIECgsEDua3koAAAC2ElEQVQLAb/l3QGffXeA5l/4MFg6AQIEqgkIATddCdD8q+186yVAgACBqB4CNH+HgAABAgTKClQNAZp/2S1v4QQIECCwEqgWAjT/VeX9SoAAAQLlBaqEgNb871G+2gAIECBAgMBpAksPAZr/acX2WwIECBAgcLpACwFvWOBbBK/3lf/pZfZ7AgQIECDwuQJLCwGa/+fW2N8QIECAAIFDBZYSAjT/Q8vrLwkQIECAwNEC2UOA5n90bf0LAQIECBA4q0DWEKD5n7Ws/pEAAQIECBwvcF5EvCXRCwM1/+Nr6iMIECBAgMBaAllCgOa/Vjl9EAECBAgQWF9g9hCg+a9fSx9JgAABAgROJDBrCGjN/54nWokPJkCAAAECBE4kMFsI0PxPVD4fTIAAAQIENhdoIeD3JnhhoOa/eQ19JgECBAgQ2Ehg3yFA89+obD6JAAECBAhsL3DriHjjHq4EXHfqcS/cfvpGIECAAAECBDYVODciXrrDEHBNRFyw6WR9HgECBAgQINBX4BER8dHBQeB1EXG7vtM2GgECBAgQILCtwPkR0Zr0ZzoHgfdFxMXbTs7nEyBAgAABAmMFLrr5XQI3bBkE3hMRT4mI9loDPwgQIECAAIEkAl8WEc+PiD+LiE+uGQbaV/tXRcR9IuKcJOs0TQIECBAgQOAIgS+IiHZl4LKI+NGI+LmIeGFE/GREXBkRD4qI9i0EPwgQIECAAAECBAgQIECAAAECBAgQIECAAAECBAgQIECAAAECBAgQIECAAAECBAgQIECAAAECBAgQIECAAAECBAgQIECAAAECBAgQIECAAAECBAgQIECAAAECBAgQIECAAAECBAgQIECAAAECBAgQIECAAAECBAgQIECAAAECBAgQIECAAAECBAgQIECAAAECBAgQIECAAAECBAgQIECAAAECBAgQIECAAAECBAgQIECAAAECBAgQIECAAAECBAjkEfg/UCFJH+e5evIAAAAASUVORK5CYII=;" vertex="1" parent="1">
          <mxGeometry x="2790" y="80" width="30" height="30" as="geometry" />
        </mxCell>
        <mxCell id="sXrkbcoMHqB5MU0Kjqhi-11" value="" style="shape=image;verticalLabelPosition=bottom;labelBackgroundColor=default;verticalAlign=top;aspect=fixed;imageAspect=0;image=data:image/png,iVBORw0KGgoAAAANSUhEUgAAAgAAAAIACAYAAAD0eNT6AAAAAXNSR0IArs4c6QAAIABJREFUeAHt3Xms7VdVB/DVYkFBMSEYTKki4FTBxJBoVUABwaEts8hUykypAwhCNGpMxBgBTQQsBVQEEUUEMRFF+AcTR2JQkzoBJkBrDJYEgiODlPq27aHvXe5999xz9j5nr9/6vOTlTffus/dn7X3W9/7uOb8X4QcBAgQIECBAgAABAgQIECBAgAABAgQIECBAgAABAgQIECBAgAABAgQIECBAgAABAgQIECBAgAABAgQIECBAgAABAgQIECBAgAABAgQIECBAgAABAgQIECBAgAABAgQIECBAgAABAgQIECBAgAABAgQIECBAgAABAgQIECBAgAABAgQIECBAgAABAgQIECBAgAABAgQIECBAgAABAgQIECBAgAABAgQIECBAgAABAgQIECBAgAABAgQIECBAgACBRAIXRMTlEfHiiPj9iHhXRPxDRPx9RLw7It4WES+JiKdGxFclWpepEiBAgAABAgcEvjQinh8RfxcRN57w5/sj4gURcfcDY/ojAQIECBAgMKnAnSPiqoj4+Amb/mEh4dMR8YaIuHDStZoWAQIECBAoL3CriHhWRPxHh8Z/MAx8KiJedOpbCLctrwyAAAECBAhMJHDHiHj7gMZ/MAj8U0R8/UTrNhUCBAgQIFBW4Gsi4rodNP9VGGhXGB5YVtvCCRAgQIDABAL3jIjrd9j8VyHgExHxkAnWbwoECBAgQKCcQHux37V7aP6rENBeZHjfcuoWTIAAAQIE9ihw65vfv79qxvv69cMRcf4eHTw0AQIECBAoJfDze/zK/2DYeGdEnFNK32IJECBAgMAeBL4hItr78w824n3++Ul7cPCQBAgQIECglMAfT9b8W/BoL0T8wlJVsFgCBAgQILBDgXtP2PxXVx6es0MHD0WAAAECBEoJvGniANDuRXBuqWpYLAECBAgQ2IHA7Tvd33/1FfuIX++/AwcPQYAAAQIESgk8YeKv/ldh4upSFbFYAgQIECCwA4FXJwgA/7gDBw9BgAABAgRKCbTmuvpKe9ZfPxMRdyhVFYslQIAAAQIDBdp/9fvJBAGgBZOLBjoYmgABAgQIlBL48iTNvwWAx5aqjMUSIECAAIGBAvdIFACuGOhgaAIECBAgUErgXokCgBsCldqaFkuAAAECIwW+KVEAeN5ICGMTIECAAIFKAgJApWpbKwECBAgQuFlAALAVCBAgQIBAQQEBoGDRLZkAAQIECAgA9gABAgQIECgoIAAULLolEyBAgAABAcAeIECAAAECBQUEgIJFt2QCBAgQIJApAPyIchEgQIAAAQJ9BNp/sDPr/wB4cF4CQJ+aG4UAAQIECPz//7B3sNHO+mcBwIYlQIAAAQKdBFwB6ARpGAIECBAgkElAAMhULXMlQIAAAQKdBASATpCGIUCAAAECmQQEgEzVMlcCBAgQINBJQADoBGkYAgQIECCQSUAAyFQtcyVAgAABAp0EvjnRfQCe22nNhiFAgAABAuUFBIDyWwAAAQIECFQUEAAqVt2aCRAgQKC8gABQfgsAIECAAIGKAgJAxapbMwECBAiUFxAAym8BAAQIECBQUUAAqFh1ayZAgACB8gICQPktAIAAAQIEKgoIABWrbs0ECBAgUF7gWxLdCOg55asFgAABAgQIdBIQADpBGoYAAQIECGQSEAAyVctcCRAgQIBAJwEBoBOkYQgQIECAQCYBASBTtcyVAAECBAh0EhAAOkEahgABAgQIZBIQADJVy1wJECBAgEAnAQGgE6RhCBAgQIBAJoFvTXQfgB/OBGuuBAgQIEBgZgEBYObqmBsBAgQIEBgkIAAMgjUsAQIECBCYWUAAmLk65kaAAAECBAYJCACDYA1LgAABAgRmFhAAZq6OuREgQIAAgUECAsAgWMMSIECAAIGZBQSAmatjbgQIECBAYJCAADAI1rAECBAgQGBmgXsnuhHQs2eGNDcCBAgQIJBJQADIVC1zJUCAAAECnQQEgE6QhiFAgAABApkEBIBM1TJXAgQIECDQSUAA6ARpGAIECBAgkElAAMhULXMlQIAAAQKdBASATpCGIUCAAAECmQQEgEzVMlcCBAgQINBJ4D7uA9BJ0jAECBAgQCCRQKYA8KxErqZKgAABAgSmFhAApi6PyREgQIAAgTECAsAYV6MSIECAAIGpBQSAqctjcgQIECBAYIyAADDG1agECBAgQGBqAQFg6vKYHAECBAgQGCMgAIxxNSoBAgQIEJhaQACYujwmR4AAAQIExgjcN9GNgH5oDIFRCRAgQIBAPQEBoF7NrZgAAQIECIQAYBMQIECAAIGCAgJAwaJbMgECBAgQEADsAQIECBAgUFBAAChYdEsmQIAAAQICgD1AgAABAgQKCggABYtuyQQIECBA4NvcB8AmIECAAAEC9QQyBYAfrFceKyZAgAABAmMEBIAxrkYlQIAAAQJTCwgAU5fH5AgQIECAwBgBAWCMq1EJECBAgMDUAgLA1OUxOQIECBAgMEZAABjjalQCBAgQIDC1gAAwdXlMjgABAgQIjBEQAMa4GpUAAQIECEwt8O2JbgTkPgBTbyWTI0CAAIFMApkCwA9kgjVXAgQIECAws4AAMHN1zI0AAQIECAwSEAAGwRqWAAECBAjMLCAAzFwdcyNAgAABAoMEBIBBsIYlQIAAAQIzCwgAM1fH3AgQIECAwCABAWAQrGEJECBAgMDMAvdLdB8AbwOceSeZGwECBAikEhAAUpXLZAkQIECAQB+BTAHg+/ss2SgECBAgQICAAGAPECBAgACBggICQMGiWzIBAgQIEBAA7AECBAgQIFBQQAAoWHRLJkCAAAECAoA9QIAAAQIECgoIAAWLbskECBAgQOD+iW4E5G2A9isBAgQIEOgkkCkAXNlpzYYhQIAAAQLlBQSA8lsAAAECBAhUFBAAKlbdmgkQIECgvIAAUH4LACBAgACBigICQMWqWzMBAgQIlBcQAMpvAQAECBAgUFFAAKhYdWsmQIAAgfICAkD5LQCAAAECBCoKPCDRjYDcB6DiDrVmAgQIEBgikCkAPHOIgEEJECBAgEBBAQGgYNEtmQABAgQICAD2AAECBAgQKCggABQsuiUTIECAAAEBwB4gQIAAAQIFBQSAgkW3ZAIECBAgIADYAwQIECBAoKDAdyS6D4C3ARbcoJZMgAABAmMEBIAxrkYlQIAAAQJTC2QKAFdMLWlyBAgQIEAgkYAAkKhYpkqAAAECBHoJCAC9JI1DgAABAgQSCQgAiYplqgQIECBAoJeAANBL0jgECBAgQCCRgACQqFimSoAAAQIEegkIAL0kjUOAAAECBBIJPDDRjYC8DTDRxjJVAgQIEJhbIFMAeMbclGZHgAABAgTyCAgAeWplpgQIECBAoJuAANCN0kAECBAgQCCPgACQp1ZmSoAAAQIEugkIAN0oDUSAAAECBPIICAB5amWmBAgQIECgm4AA0I3SQAQIECBAII/AgxLdB8DbAPPsKzMlQIAAgckFBIDJC2R6BAgQIEBghECmAPD0EQDGJECAAAECFQUEgIpVt2YCBAgQKC8gAJTfAgAIECBAoKKAAFCx6tZMgAABAuUFBIDyWwAAAQIECFQUEAAqVt2aCRAgQKC8gABQfgsAIECAAIGKAt+Z6EZA3gZYcYdaMwECBAgMERAAhrAalAABAgQIzC2QKQA8bW5KsyNAgAABAnkEBIA8tTJTAgQIECDQTUAA6EZpIAIECBAgkEdAAMhTKzMlQIAAAQLdBASAbpQGIkCAAAECeQQEgDy1MlMCBAgQINBN4LsS3QfAuwC6ld1ABAgQIFBdQACovgOsnwABAgRKCggAJctu0QQIECBQXSBTAHhq9WJZPwECBAgQ6CUgAPSSNA4BAgQIEEgkIAAkKpapEiBAgACBXgICQC9J4xAgQIAAgUQCAkCiYpkqAQIECBDoJSAA9JI0DgECBAgQSCTw3YluBORdAIk2lqkSIECAwNwCAsDc9TE7AgQIECAwRCBTAHjKEAGDEiBAgACBggICQMGiWzIBAgQIEBAA7AECBAgQIFBQQAAoWHRLJkCAAAECAoA9QIAAAQIECgoIAAWLbskECBAgQOB7Et0HwLsA7FcCBAgQINBJQADoBGkYAgQIECCQSUAAyFQtcyVAgAABAp0EMgWAJ3das2EIECBAgEB5AQGg/BYAQIAAAQIVBQSAilW3ZgIECBAoLyAAlN8CAAgQIECgooAAULHq1kyAAAEC5QUEgPJbAAABAgQIVBS4ONGNgLwLoOIOtWYCBAgQGCIgAAxhNSgBAgQIEJhbQACYuz5mR4AAAQIEhghkCgBPGiJgUAIECBAgUFBAAChYdEsmQIAAAQICgD1AgAABAgQKCggABYtuyQQIECBAQACwBwgQIECAQEGBSxLdB8CLAAtuUEsmQIAAgTECAsAYV6MSIECAAIGpBQSAqctjcgQIECBAYIxApgDwxDEERiVAgAABAvUEBIB6NbdiAgQIECAQAoBNQIAAAQIECgoIAAWLbskECBAgQEAAsAcIECBAgEBBAQGgYNEtmQABAgQIXJroRkDeBWC/EiBAgACBTgICQCdIwxAgQIAAgUwCAkCmapkrAQIECBDoJJApAFzeac2GIUCAAAEC5QUEgPJbAAABAgQIVBQQACpW3ZoJECBAoLyAAFB+CwAgQIAAgYoCAkDFqlszAQIECJQXeHCi+wB4EWD57QqAAAECBHoJCAC9JI1DgAABAgQSCQgAiYplqgQIECBAoJeAANBL0jgECBAgQCCRQKYA8IRErqZKgAABAgSmFhAApi6PyREgQIAAgTECAsAYV6MSIECAAIGpBQSAqctjcgQIECBAYIyAADDG1agECBAgQGBqgYckuhGQFwFOvZVMjgABAgQyCQgAmaplrgQIECBAoJOAANAJ0jAECBAgQCCTgACQqVrmSoAAAQIEOglkCgCXdVqzYQgQIECAQHkBAaD8FgBAgAABAhUFBICKVbdmAgQIECgvIACU3wIACBAgQKCiwEMT3QfAawAq7lBrJkCAAIEhAgLAEFaDEiBAgACBuQUEgLnrY3YECBAgQGCIgAAwhNWgBAgQIEBgboFMAeDxc1OaHQECBAgQyCMgAOSplZkSIECAAIFuAgJAN0oDESBAgACBPAICQJ5amSkBAgQIEOgmIAB0ozQQAQIECBDII/CwRDcC8iLAPPvKTAkQIEBgcgEBYPICmR4BAgQIEBghIACMUDUmAQIECBCYXEAAmLxApkeAAAECBEYIZAoAjxsBYEwCBAgQIFBRQACoWHVrJkCAAIHyAgJA+S0AgAABAgQqCggAFatuzQQIECBQXuDhie4D4DUA5bcrAAIECBDoJSAA9JI0DgECBAgQSCQgACQqlqkSIECAAIFeAgJAL0njECBAgACBRAICQKJimSoBAgQIEOglkCkAPLbXoo1DgAABAgSqCwgA1XeA9RMgQIBASQEBoGTZLZoAAQIEqgsIANV3gPUTIECAQEmBRyS6EZDXAJTcohZNgAABAiMEBIARqsYkQIAAAQKTCwgAkxfI9AgQIECAwAgBAWCEqjEJECBAgMDkAgLA5AUyPQIECBAgMEIgUwB4zAgAYxIgQIAAgYoCAkDFqlszAQIECJQXEADKbwEABAgQIFBR4JGJ7gPgWwAVd6g1EyBAgMAQAQFgCKtBCRAgQIDA3AICwNz1MTsCBAgQIDBEQAAYwmpQAgQIECAwt4AAMHd9zI4AAQIECAwRyBQAHj1EwKAECBAgQKCggABQsOiWTIAAAQIEBAB7gAABAgQIFBQQAAoW3ZIJECBAgMD3JroRkNcA2K8ECBAgQKCTgADQCdIwBAgQIEAgk4AAkKla5kqAAAECBDoJCACdIA1DgAABAgQyCQgAmaplrgQIECBAoJNApgDwfZ3WbBgCBAgQIFBeQAAovwUAECBAgEBFAQGgYtWtmQABAgTKCzwq0X0AfAug/HYFQIAAAQK9BASAXpLGIUCAAAECiQQEgETFMlUCBAgQINBLQADoJWkcAgQIECCQSEAASFQsUyVAgAABAr0EBIBeksYhQIAAAQKJBDIFgDZXPwgQIECAAIEOAgJAB0RDECBAgACBbAICQLaKmS8BAgQIEOgg0G6uc2OSn74F0KHghiBAgAABAk1AALAPCBAgQIBAQQEBoGDRLZkAAQIECAgA9gABAgQIECgoIAAULLolEyBAgACBTAGg/dfFfhAgQIAAAQIdBASADoiGIECAAAEC2QQEgGwVM18CBAgQINBB4NFJ7gHQ7lXgWwAdCm4IAgQIECDQBAQA+4AAAQIECBQUEAAKFt2SCRAgQICAAGAPECBAgACBggICQMGiWzIBAgQIEBAA7AECBAgQIFBQIFMAeGTB+lgyAQIECBAYIiAADGE1KAECBAgQmFtAAJi7PmZHgAABAgSGCDwm0Y2AfAtgyBYwKAECBAhUFBAAKlbdmgkQIECgvIAAUH4LACBAgACBigICQMWqWzMBAgQIlBcQAMpvAQAECBAgUFFAAKhYdWsmQIAAgfICmQLAI8pXCwABAgQIEOgkkCkAeBvg9kW/XUTcLyKeFhE/HREvvPnnj0XE5RFxr4g4b/uHMQIBAgQ2E/jaiHhGRLw+Iv48It4bER+LiM9ExEdPPVG9PyLeERG/GBEPj4g7bPYwPisiBIDlb4M7RcSzI+IvIuJ/17jvw8cj4g8j4ukRcfvl81ghAQL7FmhPUj8RER9c4wnqxgMf057U3hoR7SvEc/e9kGSPLwAkK9gJpnvXiHhVRHziwHk5eH7O9uf/jIirIuLOJ3hcH0qAAIG1BL4kIn41Ij65xZPU6U9g7WrBZacub56z1qP7oEwBwGsA1tuvtzl1teynIqJ9JX/62djm9/9z6lsDP3vq2wWfv94UfBQBAgSOFmgN+oqI+EjHJ6nTn+D+JCIuPPrh/cvNAgLAsrbCV0fENYPOVDtfLWB/47LIrIYAgV0KtBcivXngk9QqCPzXzVcDdrm2bI/12B3UYVWPbX91BeDsu+vBEfHvO6hn+5ZCe42OHwQIEDiRwAUR8Tc7eJI6vdm84EQzrPXBAsAy6v24NV/gd/q52Pb3P7MMOqsgQGAXAnc89arz9+y4+a+e5F7mdQGHllgAOJQl1V8+JSJu2NO5elEqKZMlQGAvAreNiL/c05PUKgS0VzN7ceCZ5RcAzvTI9qd9Nv/VuXpuNjTzJUBgtwKv2XPzXz1ZCQFn1l0AONMj059maP7tXH06Ih6QCc5cCRDYncClkzT/VQh4uSsBny2+APBZilS/maX5r87Uh9yQK9X+MVkCOxFodxL718kCQHvSEgJuKr8AsJNj0PVBZmv+qxDw2q6rNBgBAukFfnzC5r96wvpldw6M9urxlcfsv7bbPlf/MWvzb3un3ar7ouoFsn4CBG4SaO/3//DkDebq4t8OyHQFoHoAmLn5r8Jj+z86/CBAgEA8c/Lmv3rSekXhEOAKQI6DmqH5r64C3CMHqVkSIDBS4J1JAkB74qoaAgSAkSegz9hZmv8qULd7bvhBgEBhgfa/+7W3B62eFDL8+isFXxOQKQA8rOB5ytb82zlvL/p1v42Cm9WSCawEHp+s+a8CyiuLPXllCgDVXgOQsfmvztG9Vk8EfiVAoJ7Ai5MGgPYE1v574nOLlCxTUKt0BSBz829n6Moi58cyCRA4ROCPEgeA9gT2qiJXAlwBOGTz7vmvsjf/1fnZM6OHJ0BgXwL7+k9/2pNPr58VQoAAsK8TcvjjLqH5t/P3tsOX528JEKggcF3HRtyroW8yztJDQKYAsPRvASyl+bdz9u4KT3LWSIDA4QIfWUgAaE9mr17wawK8BuDw/bvrv11S829n5q93DejxCBCYR2D2OwCe9GrAUm8bLADs/8wsrfm3s/Wu/bOaAQEC+xL42wVdAViFhSVeCRAA9nVCbnrcJTb/dl7esl9Wj06AwD4F3rrAANCe2JZ2syABYH+nZKnNv52Tl+yP1SMTILBvgV9YaABYWggQAPZzUpbc/NsZaS8u9YMAgaIClyw4ALQnuKXcLEgA2P0BXXrzb+fjLrtn9YgECMwi8EUR8amFh4AlvCbgskQ1eugsm3uLeVRo/n+1hY9PJUBgIQJvT9Rc2lctm/zMHgJcAdjdYavQ/NsZes7uSD0SAQKzCly8YVPdpBHv83N+LfF9AlwB2M3pqdL8PxYRX7wbUo9CgMDMAu0/1HlvkRCQ9UqAADD+BFVp/i2Ev2A8p0cgQCCLQKZbzW57FSHjlQABYOxJqtT8r42I243lNDoBAtkE3lHkKkALENlCgAAw7jRVav5t7z94HKWRCRDIKnC3iPjvQiHgNYleEyAAjDlV1Zr/S8cwGpUAgSUIPCoibhACpiulANC/JNWa/59GxK37MxqRAIElCTyvUABol0TfEBG3mryAT0hUk4dMbtmmV635XxMRd0hQF1MkQGACgXapcNsX22X6/NdO/u0AVwD6HYpqzf89EXGnfnxGIkBg6QLnnPqK4WXFQsDMVwJcAehz4qo1//b23vP70BmFAIFKAi0E/FLBEPB5ExZZANi+KNWa//s0/+03jREIVBYQAuaovgCwXR0qNv87b0fmswkQIBAhBOx/FwgAm9dA89/czmcSIECgZAj47YiY5dsBmQLATDea0fw9eREgQKCDQMUrAbOEAAHg5BtY8z+5mc8gQIDAkQJCwJE0Q//h8kQvxpzhCoDmP3Q7GpwAgaoCLQRclagh9bgfwb6vBAgA6582zX99Kx9JgACBEwtUDAFv3ONrAgSA9bao5r+ek48iQIDAVgJCwFZ8J/pkAeB4Ls3/eCMfQYAAgW4CQkA3yrMOJACclafcvf3bTX68z//se8K/EiCwAwEhYDyyAHC0sa/8j7bxLwQIEBguIASMJRYADvfV/A938bcECBDYqYAQMI47UwC4dBzDGSNr/mdw+AMBAgT2K9BCwMuLvUVwF+8OeGIi010EgGrN/599z3+/T2wenQCB9QQqhoDfGfwWQQHglr1XsflfcMvy/Y4AAQJzCwgBfesjANzkWa35fyAivqLvVjIaAQIExgsIAf2MBYAo91Y/zb/f+TESAQJ7EBAC+qBXDwC+8u+zj4xCgACBnQpUDAFv6vyagMoBQPPf6XH1YAQIEOgrIARs51k1AFRr/h/0Pf/tDorPJkBgTgEhYPO6VAwAmv/m+8VnEiBAYDoBIWCzkmQKAJdstsQzPkvzP4PDHwgQILAMgaoh4LwtyvekRDcC2jYAaP5bbBSfSoAAgdkFWgi4OlFTu7HDXNsLAzcNAVUCgOY/+8k1PwIECHQQEALWR6wQADT/9feDjyRAgEB6gYoh4M0bXAlYegDQ/NMfZQsgQIDAyQWEgOPNlhwANP/j6+8jCBAgsFgBIeDspV1qAKjY/O969lL7VwIECNQTEAKOrvkSA4Dmf3S9/QsBAgTKCVQMAb+7xmsClhYANP9yR9uCCRAgcLxACwGv6PC2ux5v3dvVGMeFgCcn8rj4mBJr/scA+WcCBAhUFhACzqz+UgKA5n9mXf2JAAECBA4REAJuQVlCAKjW/K+NCC/4u2UP+x0BAgROJFAxBPxBRNzmgFL2AKD5HyioPxIgQIDA8QJCQETmAKD5H7/HfQQBAgQIHCFQPQRkDQCa/xEb2l8TIECAwPoCLQS8MtGr4Xu8g2D17YCMAUDzX39v+0gCBAgQOEagagh4ZqLg094GqPkfs5H9MwECBAicXODciHhNoobY40rA9YnW+8aIuCHRfLetzwdO7ce7nHwb+wwCBAgQ2ESg4pWAbRuVz4/obdDe6ne3TTawzyFAgACBzQWEgP4NrXeDXPJ4mv/mZ9dnEiBAYGuB9u2A1xa63LzkhpppbZr/1kfXAAQIENheQAhwJWCX4UHz3/7MGoEAAQLdBIQAIWAXIUDz73ZkDUSAAIF+AkKAEDAyBGj+/c6qkQgQINBdQAgQAkaEAM2/+1E1IAECBPoLCAFCQM8QoPn3P6NGJECAwDABIUAI6BECNP9hR9TABAgQGCcgBAgB24SA69zkZ9zhNDIBAgRGCwgBQsAmIaA1/7uP3pzGJ0CAAIGxAi0E/LqbBXW/De4mjTXD52j+Y8+j0QkQILBTgVsJAQLAGiFQ89/psfRgBAgQ2I2AEODbAWe7AqH57+YcehQCBAjsRUAIEAIOCwGa/16OowclQIDAbgWEACHg9BCg+e/2/Hk0AgQI7FVACBACWgjQ/Pd6DD04AQIE9iPQQsDr1nhh2OlfLfr9coKD5r+fc+dRCRAgMIWAELCchn6ScKb5T3H8TIIAAQL7FRACaoUAzX+/582jEyBAYCoBIaBGCND8pzp2JkOAAIE5BISAZYcAzX+Oc2YWBAgQmFJACFhmCPgX9/af8ryZFAECBKYSEAKWFQJa8//KqXaYyRAgQIDAtAItBPyGtwim//8DNP9pj5iJESBAYF4BISD3lQDNf96zZWYECBCYXkAIyBkCNP/pj5YJEiBAYH4BISBXCND85z9TZkiAAIE0AkJAjhCg+ac5UiZKgACBPAJCwNwhQPPPc5bMlAABAukEhIA5Q4Dmn+4omTABAgTyCQgBc4WAD0XEhfm2kRkTIECAQEYBIWCOEKD5Zzw95kyAAIHkAkLAfkOA5p/8AJk+AQIEMgu0EPB6dwzc+R0DNf/Mp8bcCRAgsBABIWC3VwI0/4UcHMsgQIDAEgSEgN2EAM1/CafFGggQILAwASFgbAjQ/Bd2YCyHAAECSxIQAsaEgH/zVr8lHRNrIUCAwDIFhIC+IaA1/69b5laxKgIECBBYmoAQ0CcEaP5LOxnWQ4AAgQICLQT8prcIbvwWQc2/wCGxRAIECCxVQAjY7EqA5r/UE2FdBAgQKCQgBJwsBGj+hQ6HpRIgQGDpAkLAeiFA81/6SbA+AgQIFBQQAs4eAjT/gofCkgkQIFBFQAg4PARo/lVOgHUSIECgsEDua3koAAAC2ElEQVQLAb/l3QGffXeA5l/4MFg6AQIEqgkIATddCdD8q+186yVAgACBqB4CNH+HgAABAgTKClQNAZp/2S1v4QQIECCwEqgWAjT/VeX9SoAAAQLlBaqEgNb871G+2gAIECBAgMBpAksPAZr/acX2WwIECBAgcLpACwFvWOBbBK/3lf/pZfZ7AgQIECDwuQJLCwGa/+fW2N8QIECAAIFDBZYSAjT/Q8vrLwkQIECAwNEC2UOA5n90bf0LAQIECBA4q0DWEKD5n7Ws/pEAAQIECBwvcF5EvCXRCwM1/+Nr6iMIECBAgMBaAllCgOa/Vjl9EAECBAgQWF9g9hCg+a9fSx9JgAABAgROJDBrCGjN/54nWokPJkCAAAECBE4kMFsI0PxPVD4fTIAAAQIENhdoIeD3JnhhoOa/eQ19JgECBAgQ2Ehg3yFA89+obD6JAAECBAhsL3DriHjjHq4EXHfqcS/cfvpGIECAAAECBDYVODciXrrDEHBNRFyw6WR9HgECBAgQINBX4BER8dHBQeB1EXG7vtM2GgECBAgQILCtwPkR0Zr0ZzoHgfdFxMXbTs7nEyBAgAABAmMFLrr5XQI3bBkE3hMRT4mI9loDPwgQIECAAIEkAl8WEc+PiD+LiE+uGQbaV/tXRcR9IuKcJOs0TQIECBAgQOAIgS+IiHZl4LKI+NGI+LmIeGFE/GREXBkRD4qI9i0EPwgQIECAAAECBAgQIECAAAECBAgQIECAAAECBAgQIECAAAECBAgQIECAAAECBAgQIECAAAECBAgQIECAAAECBAgQIECAAAECBAgQIECAAAECBAgQIECAAAECBAgQIECAAAECBAgQIECAAAECBAgQIECAAAECBAgQIECAAAECBAgQIECAAAECBAgQIECAAAECBAgQIECAAAECBAgQIECAAAECBAgQIECAAAECBAgQIECAAAECBAgQIECAAAECBAjkEfg/UCFJH+e5evIAAAAASUVORK5CYII=;" vertex="1" parent="1">
          <mxGeometry x="2790" y="210" width="30" height="30" as="geometry" />
        </mxCell>
        <mxCell id="sXrkbcoMHqB5MU0Kjqhi-12" value="&lt;font style=&quot;font-size: 15px;&quot; data-font-src=&quot;https://fonts.googleapis.com/css?family=Quicksand&quot; face=&quot;Quicksand&quot;&gt;&lt;b&gt;&lt;u&gt;Data-Driven Approach :&amp;nbsp;&lt;/u&gt;&lt;/b&gt;&lt;/font&gt;&lt;div&gt;&lt;font face=&quot;Quicksand&quot;&gt;&lt;b style=&quot;&quot;&gt;&lt;u style=&quot;&quot;&gt;&lt;br&gt;&lt;/u&gt;&lt;/b&gt;&lt;/font&gt;&lt;div&gt;&lt;font style=&quot;font-size: 15px;&quot; data-font-src=&quot;https://fonts.googleapis.com/css?family=Quicksand&quot; face=&quot;Quicksand&quot;&gt;Learns from historical data to make predictions.&lt;/font&gt;&lt;/div&gt;&lt;/div&gt;" style="text;html=1;align=center;verticalAlign=middle;whiteSpace=wrap;rounded=0;" vertex="1" parent="1">
          <mxGeometry x="2670" y="-100" width="270" height="80" as="geometry" />
        </mxCell>
        <mxCell id="sXrkbcoMHqB5MU0Kjqhi-13" value="&lt;font style=&quot;font-size: 15px;&quot; data-font-src=&quot;https://fonts.googleapis.com/css?family=Quicksand&quot; face=&quot;Quicksand&quot;&gt;&lt;b&gt;&lt;u&gt;Model-Driven Approach :&amp;nbsp;&lt;/u&gt;&lt;/b&gt;&lt;/font&gt;&lt;div&gt;&lt;font face=&quot;Quicksand&quot;&gt;&lt;b&gt;&lt;u&gt;&lt;br&gt;&lt;/u&gt;&lt;/b&gt;&lt;/font&gt;&lt;div&gt;&lt;font style=&quot;font-size: 15px;&quot; data-font-src=&quot;https://fonts.googleapis.com/css?family=Quicksand&quot; face=&quot;Quicksand&quot;&gt;Relies on expert knowledge and predefined rules.&lt;/font&gt;&lt;/div&gt;&lt;/div&gt;" style="text;html=1;align=center;verticalAlign=middle;whiteSpace=wrap;rounded=0;" vertex="1" parent="1">
          <mxGeometry x="3030" y="-100" width="210" height="70" as="geometry" />
        </mxCell>
        <mxCell id="sXrkbcoMHqB5MU0Kjqhi-14" value="&lt;div&gt;&lt;font face=&quot;Quicksand&quot;&gt;&lt;br&gt;&lt;/font&gt;&lt;/div&gt;&lt;font face=&quot;Quicksand&quot;&gt;&lt;div&gt;Predefined Rules and Laws&lt;font face=&quot;Quicksand&quot;&gt;&lt;/font&gt;&lt;/div&gt;&lt;div&gt;or&lt;/div&gt;Expert Knowledge&amp;nbsp;&lt;/font&gt;&lt;div&gt;&lt;br&gt;&lt;/div&gt;" style="rounded=1;whiteSpace=wrap;html=1;fillColor=#f8cecc;strokeColor=#b85450;fontSize=15;fontStyle=1" vertex="1" parent="1">
          <mxGeometry x="3000" y="-10" width="270" height="80" as="geometry" />
        </mxCell>
        <mxCell id="sXrkbcoMHqB5MU0Kjqhi-15" value="&lt;font face=&quot;Quicksand&quot;&gt;Decision Making&lt;/font&gt;" style="rounded=1;whiteSpace=wrap;html=1;fillColor=#ffe6cc;strokeColor=#d79b00;fontSize=15;fontStyle=1" vertex="1" parent="1">
          <mxGeometry x="3000" y="120" width="270" height="80" as="geometry" />
        </mxCell>
        <mxCell id="sXrkbcoMHqB5MU0Kjqhi-17" value="" style="shape=image;verticalLabelPosition=bottom;labelBackgroundColor=default;verticalAlign=top;aspect=fixed;imageAspect=0;image=data:image/png,iVBORw0KGgoAAAANSUhEUgAAAgAAAAIACAYAAAD0eNT6AAAAAXNSR0IArs4c6QAAIABJREFUeAHt3Xms7VdVB/DVYkFBMSEYTKki4FTBxJBoVUABwaEts8hUykypAwhCNGpMxBgBTQQsBVQEEUUEMRFF+AcTR2JQkzoBJkBrDJYEgiODlPq27aHvXe5999xz9j5nr9/6vOTlTffus/dn7X3W9/7uOb8X4QcBAgQIECBAgAABAgQIECBAgAABAgQIECBAgAABAgQIECBAgAABAgQIECBAgAABAgQIECBAgAABAgQIECBAgAABAgQIECBAgAABAgQIECBAgAABAgQIECBAgAABAgQIECBAgAABAgQIECBAgAABAgQIECBAgAABAgQIECBAgAABAgQIECBAgAABAgQIECBAgAABAgQIECBAgAABAgQIECBAgAABAgQIECBAgAABAgQIECBAgAABAgQIECBAgACBRAIXRMTlEfHiiPj9iHhXRPxDRPx9RLw7It4WES+JiKdGxFclWpepEiBAgAABAgcEvjQinh8RfxcRN57w5/sj4gURcfcDY/ojAQIECBAgMKnAnSPiqoj4+Amb/mEh4dMR8YaIuHDStZoWAQIECBAoL3CriHhWRPxHh8Z/MAx8KiJedOpbCLctrwyAAAECBAhMJHDHiHj7gMZ/MAj8U0R8/UTrNhUCBAgQIFBW4Gsi4rodNP9VGGhXGB5YVtvCCRAgQIDABAL3jIjrd9j8VyHgExHxkAnWbwoECBAgQKCcQHux37V7aP6rENBeZHjfcuoWTIAAAQIE9ihw65vfv79qxvv69cMRcf4eHTw0AQIECBAoJfDze/zK/2DYeGdEnFNK32IJECBAgMAeBL4hItr78w824n3++Ul7cPCQBAgQIECglMAfT9b8W/BoL0T8wlJVsFgCBAgQILBDgXtP2PxXVx6es0MHD0WAAAECBEoJvGniANDuRXBuqWpYLAECBAgQ2IHA7Tvd33/1FfuIX++/AwcPQYAAAQIESgk8YeKv/ldh4upSFbFYAgQIECCwA4FXJwgA/7gDBw9BgAABAgRKCbTmuvpKe9ZfPxMRdyhVFYslQIAAAQIDBdp/9fvJBAGgBZOLBjoYmgABAgQIlBL48iTNvwWAx5aqjMUSIECAAIGBAvdIFACuGOhgaAIECBAgUErgXokCgBsCldqaFkuAAAECIwW+KVEAeN5ICGMTIECAAIFKAgJApWpbKwECBAgQuFlAALAVCBAgQIBAQQEBoGDRLZkAAQIECAgA9gABAgQIECgoIAAULLolEyBAgAABAcAeIECAAAECBQUEgIJFt2QCBAgQIJApAPyIchEgQIAAAQJ9BNp/sDPr/wB4cF4CQJ+aG4UAAQIECPz//7B3sNHO+mcBwIYlQIAAAQKdBFwB6ARpGAIECBAgkElAAMhULXMlQIAAAQKdBASATpCGIUCAAAECmQQEgEzVMlcCBAgQINBJQADoBGkYAgQIECCQSUAAyFQtcyVAgAABAp0EvjnRfQCe22nNhiFAgAABAuUFBIDyWwAAAQIECFQUEAAqVt2aCRAgQKC8gABQfgsAIECAAIGKAgJAxapbMwECBAiUFxAAym8BAAQIECBQUUAAqFh1ayZAgACB8gICQPktAIAAAQIEKgoIABWrbs0ECBAgUF7gWxLdCOg55asFgAABAgQIdBIQADpBGoYAAQIECGQSEAAyVctcCRAgQIBAJwEBoBOkYQgQIECAQCYBASBTtcyVAAECBAh0EhAAOkEahgABAgQIZBIQADJVy1wJECBAgEAnAQGgE6RhCBAgQIBAJoFvTXQfgB/OBGuuBAgQIEBgZgEBYObqmBsBAgQIEBgkIAAMgjUsAQIECBCYWUAAmLk65kaAAAECBAYJCACDYA1LgAABAgRmFhAAZq6OuREgQIAAgUECAsAgWMMSIECAAIGZBQSAmatjbgQIECBAYJCAADAI1rAECBAgQGBmgXsnuhHQs2eGNDcCBAgQIJBJQADIVC1zJUCAAAECnQQEgE6QhiFAgAABApkEBIBM1TJXAgQIECDQSUAA6ARpGAIECBAgkElAAMhULXMlQIAAAQKdBASATpCGIUCAAAECmQQEgEzVMlcCBAgQINBJ4D7uA9BJ0jAECBAgQCCRQKYA8KxErqZKgAABAgSmFhAApi6PyREgQIAAgTECAsAYV6MSIECAAIGpBQSAqctjcgQIECBAYIyAADDG1agECBAgQGBqAQFg6vKYHAECBAgQGCMgAIxxNSoBAgQIEJhaQACYujwmR4AAAQIExgjcN9GNgH5oDIFRCRAgQIBAPQEBoF7NrZgAAQIECIQAYBMQIECAAIGCAgJAwaJbMgECBAgQEADsAQIECBAgUFBAAChYdEsmQIAAAQICgD1AgAABAgQKCggABYtuyQQIECBA4NvcB8AmIECAAAEC9QQyBYAfrFceKyZAgAABAmMEBIAxrkYlQIAAAQJTCwgAU5fH5AgQIECAwBgBAWCMq1EJECBAgMDUAgLA1OUxOQIECBAgMEZAABjjalQCBAgQIDC1gAAwdXlMjgABAgQIjBEQAMa4GpUAAQIECEwt8O2JbgTkPgBTbyWTI0CAAIFMApkCwA9kgjVXAgQIECAws4AAMHN1zI0AAQIECAwSEAAGwRqWAAECBAjMLCAAzFwdcyNAgAABAoMEBIBBsIYlQIAAAQIzCwgAM1fH3AgQIECAwCABAWAQrGEJECBAgMDMAvdLdB8AbwOceSeZGwECBAikEhAAUpXLZAkQIECAQB+BTAHg+/ss2SgECBAgQICAAGAPECBAgACBggICQMGiWzIBAgQIEBAA7AECBAgQIFBQQAAoWHRLJkCAAAECAoA9QIAAAQIECgoIAAWLbskECBAgQOD+iW4E5G2A9isBAgQIEOgkkCkAXNlpzYYhQIAAAQLlBQSA8lsAAAECBAhUFBAAKlbdmgkQIECgvIAAUH4LACBAgACBigICQMWqWzMBAgQIlBcQAMpvAQAECBAgUFFAAKhYdWsmQIAAgfICAkD5LQCAAAECBCoKPCDRjYDcB6DiDrVmAgQIEBgikCkAPHOIgEEJECBAgEBBAQGgYNEtmQABAgQICAD2AAECBAgQKCggABQsuiUTIECAAAEBwB4gQIAAAQIFBQSAgkW3ZAIECBAgIADYAwQIECBAoKDAdyS6D4C3ARbcoJZMgAABAmMEBIAxrkYlQIAAAQJTC2QKAFdMLWlyBAgQIEAgkYAAkKhYpkqAAAECBHoJCAC9JI1DgAABAgQSCQgAiYplqgQIECBAoJeAANBL0jgECBAgQCCRgACQqFimSoAAAQIEegkIAL0kjUOAAAECBBIJPDDRjYC8DTDRxjJVAgQIEJhbIFMAeMbclGZHgAABAgTyCAgAeWplpgQIECBAoJuAANCN0kAECBAgQCCPgACQp1ZmSoAAAQIEugkIAN0oDUSAAAECBPIICAB5amWmBAgQIECgm4AA0I3SQAQIECBAII/AgxLdB8DbAPPsKzMlQIAAgckFBIDJC2R6BAgQIEBghECmAPD0EQDGJECAAAECFQUEgIpVt2YCBAgQKC8gAJTfAgAIECBAoKKAAFCx6tZMgAABAuUFBIDyWwAAAQIECFQUEAAqVt2aCRAgQKC8gABQfgsAIECAAIGKAt+Z6EZA3gZYcYdaMwECBAgMERAAhrAalAABAgQIzC2QKQA8bW5KsyNAgAABAnkEBIA8tTJTAgQIECDQTUAA6EZpIAIECBAgkEdAAMhTKzMlQIAAAQLdBASAbpQGIkCAAAECeQQEgDy1MlMCBAgQINBN4LsS3QfAuwC6ld1ABAgQIFBdQACovgOsnwABAgRKCggAJctu0QQIECBQXSBTAHhq9WJZPwECBAgQ6CUgAPSSNA4BAgQIEEgkIAAkKpapEiBAgACBXgICQC9J4xAgQIAAgUQCAkCiYpkqAQIECBDoJSAA9JI0DgECBAgQSCTw3YluBORdAIk2lqkSIECAwNwCAsDc9TE7AgQIECAwRCBTAHjKEAGDEiBAgACBggICQMGiWzIBAgQIEBAA7AECBAgQIFBQQAAoWHRLJkCAAAECAoA9QIAAAQIECgoIAAWLbskECBAgQOB7Et0HwLsA7FcCBAgQINBJQADoBGkYAgQIECCQSUAAyFQtcyVAgAABAp0EMgWAJ3das2EIECBAgEB5AQGg/BYAQIAAAQIVBQSAilW3ZgIECBAoLyAAlN8CAAgQIECgooAAULHq1kyAAAEC5QUEgPJbAAABAgQIVBS4ONGNgLwLoOIOtWYCBAgQGCIgAAxhNSgBAgQIEJhbQACYuz5mR4AAAQIEhghkCgBPGiJgUAIECBAgUFBAAChYdEsmQIAAAQICgD1AgAABAgQKCggABYtuyQQIECBAQACwBwgQIECAQEGBSxLdB8CLAAtuUEsmQIAAgTECAsAYV6MSIECAAIGpBQSAqctjcgQIECBAYIxApgDwxDEERiVAgAABAvUEBIB6NbdiAgQIECAQAoBNQIAAAQIECgoIAAWLbskECBAgQEAAsAcIECBAgEBBAQGgYNEtmQABAgQIXJroRkDeBWC/EiBAgACBTgICQCdIwxAgQIAAgUwCAkCmapkrAQIECBDoJJApAFzeac2GIUCAAAEC5QUEgPJbAAABAgQIVBQQACpW3ZoJECBAoLyAAFB+CwAgQIAAgYoCAkDFqlszAQIECJQXeHCi+wB4EWD57QqAAAECBHoJCAC9JI1DgAABAgQSCQgAiYplqgQIECBAoJeAANBL0jgECBAgQCCRQKYA8IRErqZKgAABAgSmFhAApi6PyREgQIAAgTECAsAYV6MSIECAAIGpBQSAqctjcgQIECBAYIyAADDG1agECBAgQGBqgYckuhGQFwFOvZVMjgABAgQyCQgAmaplrgQIECBAoJOAANAJ0jAECBAgQCCTgACQqVrmSoAAAQIEOglkCgCXdVqzYQgQIECAQHkBAaD8FgBAgAABAhUFBICKVbdmAgQIECgvIACU3wIACBAgQKCiwEMT3QfAawAq7lBrJkCAAIEhAgLAEFaDEiBAgACBuQUEgLnrY3YECBAgQGCIgAAwhNWgBAgQIEBgboFMAeDxc1OaHQECBAgQyCMgAOSplZkSIECAAIFuAgJAN0oDESBAgACBPAICQJ5amSkBAgQIEOgmIAB0ozQQAQIECBDII/CwRDcC8iLAPPvKTAkQIEBgcgEBYPICmR4BAgQIEBghIACMUDUmAQIECBCYXEAAmLxApkeAAAECBEYIZAoAjxsBYEwCBAgQIFBRQACoWHVrJkCAAIHyAgJA+S0AgAABAgQqCggAFatuzQQIECBQXuDhie4D4DUA5bcrAAIECBDoJSAA9JI0DgECBAgQSCQgACQqlqkSIECAAIFeAgJAL0njECBAgACBRAICQKJimSoBAgQIEOglkCkAPLbXoo1DgAABAgSqCwgA1XeA9RMgQIBASQEBoGTZLZoAAQIEqgsIANV3gPUTIECAQEmBRyS6EZDXAJTcohZNgAABAiMEBIARqsYkQIAAAQKTCwgAkxfI9AgQIECAwAgBAWCEqjEJECBAgMDkAgLA5AUyPQIECBAgMEIgUwB4zAgAYxIgQIAAgYoCAkDFqlszAQIECJQXEADKbwEABAgQIFBR4JGJ7gPgWwAVd6g1EyBAgMAQAQFgCKtBCRAgQIDA3AICwNz1MTsCBAgQIDBEQAAYwmpQAgQIECAwt4AAMHd9zI4AAQIECAwRyBQAHj1EwKAECBAgQKCggABQsOiWTIAAAQIEBAB7gAABAgQIFBQQAAoW3ZIJECBAgMD3JroRkNcA2K8ECBAgQKCTgADQCdIwBAgQIEAgk4AAkKla5kqAAAECBDoJCACdIA1DgAABAgQyCQgAmaplrgQIECBAoJNApgDwfZ3WbBgCBAgQIFBeQAAovwUAECBAgEBFAQGgYtWtmQABAgTKCzwq0X0AfAug/HYFQIAAAQK9BASAXpLGIUCAAAECiQQEgETFMlUCBAgQINBLQADoJWkcAgQIECCQSEAASFQsUyVAgAABAr0EBIBeksYhQIAAAQKJBDIFgDZXPwgQIECAAIEOAgJAB0RDECBAgACBbAICQLaKmS8BAgQIEOgg0G6uc2OSn74F0KHghiBAgAABAk1AALAPCBAgQIBAQQEBoGDRLZkAAQIECAgA9gABAgQIECgoIAAULLolEyBAgACBTAGg/dfFfhAgQIAAAQIdBASADoiGIECAAAEC2QQEgGwVM18CBAgQINBB4NFJ7gHQ7lXgWwAdCm4IAgQIECDQBAQA+4AAAQIECBQUEAAKFt2SCRAgQICAAGAPECBAgACBggICQMGiWzIBAgQIEBAA7AECBAgQIFBQIFMAeGTB+lgyAQIECBAYIiAADGE1KAECBAgQmFtAAJi7PmZHgAABAgSGCDwm0Y2AfAtgyBYwKAECBAhUFBAAKlbdmgkQIECgvIAAUH4LACBAgACBigICQMWqWzMBAgQIlBcQAMpvAQAECBAgUFFAAKhYdWsmQIAAgfICmQLAI8pXCwABAgQIEOgkkCkAeBvg9kW/XUTcLyKeFhE/HREvvPnnj0XE5RFxr4g4b/uHMQIBAgQ2E/jaiHhGRLw+Iv48It4bER+LiM9ExEdPPVG9PyLeERG/GBEPj4g7bPYwPisiBIDlb4M7RcSzI+IvIuJ/17jvw8cj4g8j4ukRcfvl81ghAQL7FmhPUj8RER9c4wnqxgMf057U3hoR7SvEc/e9kGSPLwAkK9gJpnvXiHhVRHziwHk5eH7O9uf/jIirIuLOJ3hcH0qAAIG1BL4kIn41Ij65xZPU6U9g7WrBZacub56z1qP7oEwBwGsA1tuvtzl1teynIqJ9JX/62djm9/9z6lsDP3vq2wWfv94UfBQBAgSOFmgN+oqI+EjHJ6nTn+D+JCIuPPrh/cvNAgLAsrbCV0fENYPOVDtfLWB/47LIrIYAgV0KtBcivXngk9QqCPzXzVcDdrm2bI/12B3UYVWPbX91BeDsu+vBEfHvO6hn+5ZCe42OHwQIEDiRwAUR8Tc7eJI6vdm84EQzrPXBAsAy6v24NV/gd/q52Pb3P7MMOqsgQGAXAnc89arz9+y4+a+e5F7mdQGHllgAOJQl1V8+JSJu2NO5elEqKZMlQGAvAreNiL/c05PUKgS0VzN7ceCZ5RcAzvTI9qd9Nv/VuXpuNjTzJUBgtwKv2XPzXz1ZCQFn1l0AONMj059maP7tXH06Ih6QCc5cCRDYncClkzT/VQh4uSsBny2+APBZilS/maX5r87Uh9yQK9X+MVkCOxFodxL718kCQHvSEgJuKr8AsJNj0PVBZmv+qxDw2q6rNBgBAukFfnzC5r96wvpldw6M9urxlcfsv7bbPlf/MWvzb3un3ar7ouoFsn4CBG4SaO/3//DkDebq4t8OyHQFoHoAmLn5r8Jj+z86/CBAgEA8c/Lmv3rSekXhEOAKQI6DmqH5r64C3CMHqVkSIDBS4J1JAkB74qoaAgSAkSegz9hZmv8qULd7bvhBgEBhgfa/+7W3B62eFDL8+isFXxOQKQA8rOB5ytb82zlvL/p1v42Cm9WSCawEHp+s+a8CyiuLPXllCgDVXgOQsfmvztG9Vk8EfiVAoJ7Ai5MGgPYE1v574nOLlCxTUKt0BSBz829n6Moi58cyCRA4ROCPEgeA9gT2qiJXAlwBOGTz7vmvsjf/1fnZM6OHJ0BgXwL7+k9/2pNPr58VQoAAsK8TcvjjLqH5t/P3tsOX528JEKggcF3HRtyroW8yztJDQKYAsPRvASyl+bdz9u4KT3LWSIDA4QIfWUgAaE9mr17wawK8BuDw/bvrv11S829n5q93DejxCBCYR2D2OwCe9GrAUm8bLADs/8wsrfm3s/Wu/bOaAQEC+xL42wVdAViFhSVeCRAA9nVCbnrcJTb/dl7esl9Wj06AwD4F3rrAANCe2JZ2syABYH+nZKnNv52Tl+yP1SMTILBvgV9YaABYWggQAPZzUpbc/NsZaS8u9YMAgaIClyw4ALQnuKXcLEgA2P0BXXrzb+fjLrtn9YgECMwi8EUR8amFh4AlvCbgskQ1eugsm3uLeVRo/n+1hY9PJUBgIQJvT9Rc2lctm/zMHgJcAdjdYavQ/NsZes7uSD0SAQKzCly8YVPdpBHv83N+LfF9AlwB2M3pqdL8PxYRX7wbUo9CgMDMAu0/1HlvkRCQ9UqAADD+BFVp/i2Ev2A8p0cgQCCLQKZbzW57FSHjlQABYOxJqtT8r42I243lNDoBAtkE3lHkKkALENlCgAAw7jRVav5t7z94HKWRCRDIKnC3iPjvQiHgNYleEyAAjDlV1Zr/S8cwGpUAgSUIPCoibhACpiulANC/JNWa/59GxK37MxqRAIElCTyvUABol0TfEBG3mryAT0hUk4dMbtmmV635XxMRd0hQF1MkQGACgXapcNsX22X6/NdO/u0AVwD6HYpqzf89EXGnfnxGIkBg6QLnnPqK4WXFQsDMVwJcAehz4qo1//b23vP70BmFAIFKAi0E/FLBEPB5ExZZANi+KNWa//s0/+03jREIVBYQAuaovgCwXR0qNv87b0fmswkQIBAhBOx/FwgAm9dA89/czmcSIECgZAj47YiY5dsBmQLATDea0fw9eREgQKCDQMUrAbOEAAHg5BtY8z+5mc8gQIDAkQJCwJE0Q//h8kQvxpzhCoDmP3Q7GpwAgaoCLQRclagh9bgfwb6vBAgA6582zX99Kx9JgACBEwtUDAFv3ONrAgSA9bao5r+ek48iQIDAVgJCwFZ8J/pkAeB4Ls3/eCMfQYAAgW4CQkA3yrMOJACclafcvf3bTX68z//se8K/EiCwAwEhYDyyAHC0sa/8j7bxLwQIEBguIASMJRYADvfV/A938bcECBDYqYAQMI47UwC4dBzDGSNr/mdw+AMBAgT2K9BCwMuLvUVwF+8OeGIi010EgGrN/599z3+/T2wenQCB9QQqhoDfGfwWQQHglr1XsflfcMvy/Y4AAQJzCwgBfesjANzkWa35fyAivqLvVjIaAQIExgsIAf2MBYAo91Y/zb/f+TESAQJ7EBAC+qBXDwC+8u+zj4xCgACBnQpUDAFv6vyagMoBQPPf6XH1YAQIEOgrIARs51k1AFRr/h/0Pf/tDorPJkBgTgEhYPO6VAwAmv/m+8VnEiBAYDoBIWCzkmQKAJdstsQzPkvzP4PDHwgQILAMgaoh4LwtyvekRDcC2jYAaP5bbBSfSoAAgdkFWgi4OlFTu7HDXNsLAzcNAVUCgOY/+8k1PwIECHQQEALWR6wQADT/9feDjyRAgEB6gYoh4M0bXAlYegDQ/NMfZQsgQIDAyQWEgOPNlhwANP/j6+8jCBAgsFgBIeDspV1qAKjY/O969lL7VwIECNQTEAKOrvkSA4Dmf3S9/QsBAgTKCVQMAb+7xmsClhYANP9yR9uCCRAgcLxACwGv6PC2ux5v3dvVGMeFgCcn8rj4mBJr/scA+WcCBAhUFhACzqz+UgKA5n9mXf2JAAECBA4REAJuQVlCAKjW/K+NCC/4u2UP+x0BAgROJFAxBPxBRNzmgFL2AKD5HyioPxIgQIDA8QJCQETmAKD5H7/HfQQBAgQIHCFQPQRkDQCa/xEb2l8TIECAwPoCLQS8MtGr4Xu8g2D17YCMAUDzX39v+0gCBAgQOEagagh4ZqLg094GqPkfs5H9MwECBAicXODciHhNoobY40rA9YnW+8aIuCHRfLetzwdO7ce7nHwb+wwCBAgQ2ESg4pWAbRuVz4/obdDe6ne3TTawzyFAgACBzQWEgP4NrXeDXPJ4mv/mZ9dnEiBAYGuB9u2A1xa63LzkhpppbZr/1kfXAAQIENheQAhwJWCX4UHz3/7MGoEAAQLdBIQAIWAXIUDz73ZkDUSAAIF+AkKAEDAyBGj+/c6qkQgQINBdQAgQAkaEAM2/+1E1IAECBPoLCAFCQM8QoPn3P6NGJECAwDABIUAI6BECNP9hR9TABAgQGCcgBAgB24SA69zkZ9zhNDIBAgRGCwgBQsAmIaA1/7uP3pzGJ0CAAIGxAi0E/LqbBXW/De4mjTXD52j+Y8+j0QkQILBTgVsJAQLAGiFQ89/psfRgBAgQ2I2AEODbAWe7AqH57+YcehQCBAjsRUAIEAIOCwGa/16OowclQIDAbgWEACHg9BCg+e/2/Hk0AgQI7FVACBACWgjQ/Pd6DD04AQIE9iPQQsDr1nhh2OlfLfr9coKD5r+fc+dRCRAgMIWAELCchn6ScKb5T3H8TIIAAQL7FRACaoUAzX+/582jEyBAYCoBIaBGCND8pzp2JkOAAIE5BISAZYcAzX+Oc2YWBAgQmFJACFhmCPgX9/af8ryZFAECBKYSEAKWFQJa8//KqXaYyRAgQIDAtAItBPyGtwim//8DNP9pj5iJESBAYF4BISD3lQDNf96zZWYECBCYXkAIyBkCNP/pj5YJEiBAYH4BISBXCND85z9TZkiAAIE0AkJAjhCg+ac5UiZKgACBPAJCwNwhQPPPc5bMlAABAukEhIA5Q4Dmn+4omTABAgTyCQgBc4WAD0XEhfm2kRkTIECAQEYBIWCOEKD5Zzw95kyAAIHkAkLAfkOA5p/8AJk+AQIEMgu0EPB6dwzc+R0DNf/Mp8bcCRAgsBABIWC3VwI0/4UcHMsgQIDAEgSEgN2EAM1/CafFGggQILAwASFgbAjQ/Bd2YCyHAAECSxIQAsaEgH/zVr8lHRNrIUCAwDIFhIC+IaA1/69b5laxKgIECBBYmoAQ0CcEaP5LOxnWQ4AAgQICLQT8prcIbvwWQc2/wCGxRAIECCxVQAjY7EqA5r/UE2FdBAgQKCQgBJwsBGj+hQ6HpRIgQGDpAkLAeiFA81/6SbA+AgQIFBQQAs4eAjT/gofCkgkQIFBFQAg4PARo/lVOgHUSIECgsEDua3koAAAC2ElEQVQLAb/l3QGffXeA5l/4MFg6AQIEqgkIATddCdD8q+186yVAgACBqB4CNH+HgAABAgTKClQNAZp/2S1v4QQIECCwEqgWAjT/VeX9SoAAAQLlBaqEgNb871G+2gAIECBAgMBpAksPAZr/acX2WwIECBAgcLpACwFvWOBbBK/3lf/pZfZ7AgQIECDwuQJLCwGa/+fW2N8QIECAAIFDBZYSAjT/Q8vrLwkQIECAwNEC2UOA5n90bf0LAQIECBA4q0DWEKD5n7Ws/pEAAQIECBwvcF5EvCXRCwM1/+Nr6iMIECBAgMBaAllCgOa/Vjl9EAECBAgQWF9g9hCg+a9fSx9JgAABAgROJDBrCGjN/54nWokPJkCAAAECBE4kMFsI0PxPVD4fTIAAAQIENhdoIeD3JnhhoOa/eQ19JgECBAgQ2Ehg3yFA89+obD6JAAECBAhsL3DriHjjHq4EXHfqcS/cfvpGIECAAAECBDYVODciXrrDEHBNRFyw6WR9HgECBAgQINBX4BER8dHBQeB1EXG7vtM2GgECBAgQILCtwPkR0Zr0ZzoHgfdFxMXbTs7nEyBAgAABAmMFLrr5XQI3bBkE3hMRT4mI9loDPwgQIECAAIEkAl8WEc+PiD+LiE+uGQbaV/tXRcR9IuKcJOs0TQIECBAgQOAIgS+IiHZl4LKI+NGI+LmIeGFE/GREXBkRD4qI9i0EPwgQIECAAAECBAgQIECAAAECBAgQIECAAAECBAgQIECAAAECBAgQIECAAAECBAgQIECAAAECBAgQIECAAAECBAgQIECAAAECBAgQIECAAAECBAgQIECAAAECBAgQIECAAAECBAgQIECAAAECBAgQIECAAAECBAgQIECAAAECBAgQIECAAAECBAgQIECAAAECBAgQIECAAAECBAgQIECAAAECBAgQIECAAAECBAgQIECAAAECBAgQIECAAAECBAjkEfg/UCFJH+e5evIAAAAASUVORK5CYII=;" vertex="1" parent="1">
          <mxGeometry x="3120" y="80" width="30" height="30" as="geometry" />
        </mxCell>
        <mxCell id="sXrkbcoMHqB5MU0Kjqhi-19" value="&lt;br&gt;&lt;div&gt;&lt;font face=&quot;Quicksand&quot;&gt;&lt;div&gt;Predefined Rules and Laws&lt;font face=&quot;Quicksand&quot;&gt;&lt;/font&gt;&lt;/div&gt;&lt;div&gt;or&lt;/div&gt;Expert Knowledge&amp;nbsp;&lt;/font&gt;&lt;div&gt;&lt;br&gt;&lt;/div&gt;&lt;/div&gt;" style="rounded=1;whiteSpace=wrap;html=1;fillColor=#f8cecc;strokeColor=#b85450;fontSize=15;fontStyle=1" vertex="1" parent="1">
          <mxGeometry x="3320" y="-10" width="270" height="80" as="geometry" />
        </mxCell>
        <mxCell id="sXrkbcoMHqB5MU0Kjqhi-20" value="&lt;font face=&quot;Quicksand&quot;&gt;Analyze Historical Data&lt;/font&gt;" style="rounded=1;whiteSpace=wrap;html=1;fillColor=#ffe6cc;strokeColor=#d79b00;fontSize=15;fontStyle=1" vertex="1" parent="1">
          <mxGeometry x="3320" y="120" width="270" height="80" as="geometry" />
        </mxCell>
        <mxCell id="sXrkbcoMHqB5MU0Kjqhi-21" value="&lt;font face=&quot;Quicksand&quot;&gt;Enhance Predictions Using ML &amp;amp; Statistical Techniques&lt;/font&gt;" style="rounded=1;whiteSpace=wrap;html=1;fillColor=#d5e8d4;strokeColor=#82b366;fontSize=15;fontStyle=1" vertex="1" parent="1">
          <mxGeometry x="3320" y="250" width="270" height="80" as="geometry" />
        </mxCell>
        <mxCell id="sXrkbcoMHqB5MU0Kjqhi-22" value="" style="shape=image;verticalLabelPosition=bottom;labelBackgroundColor=default;verticalAlign=top;aspect=fixed;imageAspect=0;image=data:image/png,iVBORw0KGgoAAAANSUhEUgAAAgAAAAIACAYAAAD0eNT6AAAAAXNSR0IArs4c6QAAIABJREFUeAHt3Xms7VdVB/DVYkFBMSEYTKki4FTBxJBoVUABwaEts8hUykypAwhCNGpMxBgBTQQsBVQEEUUEMRFF+AcTR2JQkzoBJkBrDJYEgiODlPq27aHvXe5999xz9j5nr9/6vOTlTffus/dn7X3W9/7uOb8X4QcBAgQIECBAgAABAgQIECBAgAABAgQIECBAgAABAgQIECBAgAABAgQIECBAgAABAgQIECBAgAABAgQIECBAgAABAgQIECBAgAABAgQIECBAgAABAgQIECBAgAABAgQIECBAgAABAgQIECBAgAABAgQIECBAgAABAgQIECBAgAABAgQIECBAgAABAgQIECBAgAABAgQIECBAgAABAgQIECBAgAABAgQIECBAgAABAgQIECBAgAABAgQIECBAgACBRAIXRMTlEfHiiPj9iHhXRPxDRPx9RLw7It4WES+JiKdGxFclWpepEiBAgAABAgcEvjQinh8RfxcRN57w5/sj4gURcfcDY/ojAQIECBAgMKnAnSPiqoj4+Amb/mEh4dMR8YaIuHDStZoWAQIECBAoL3CriHhWRPxHh8Z/MAx8KiJedOpbCLctrwyAAAECBAhMJHDHiHj7gMZ/MAj8U0R8/UTrNhUCBAgQIFBW4Gsi4rodNP9VGGhXGB5YVtvCCRAgQIDABAL3jIjrd9j8VyHgExHxkAnWbwoECBAgQKCcQHux37V7aP6rENBeZHjfcuoWTIAAAQIE9ihw65vfv79qxvv69cMRcf4eHTw0AQIECBAoJfDze/zK/2DYeGdEnFNK32IJECBAgMAeBL4hItr78w824n3++Ul7cPCQBAgQIECglMAfT9b8W/BoL0T8wlJVsFgCBAgQILBDgXtP2PxXVx6es0MHD0WAAAECBEoJvGniANDuRXBuqWpYLAECBAgQ2IHA7Tvd33/1FfuIX++/AwcPQYAAAQIESgk8YeKv/ldh4upSFbFYAgQIECCwA4FXJwgA/7gDBw9BgAABAgRKCbTmuvpKe9ZfPxMRdyhVFYslQIAAAQIDBdp/9fvJBAGgBZOLBjoYmgABAgQIlBL48iTNvwWAx5aqjMUSIECAAIGBAvdIFACuGOhgaAIECBAgUErgXokCgBsCldqaFkuAAAECIwW+KVEAeN5ICGMTIECAAIFKAgJApWpbKwECBAgQuFlAALAVCBAgQIBAQQEBoGDRLZkAAQIECAgA9gABAgQIECgoIAAULLolEyBAgAABAcAeIECAAAECBQUEgIJFt2QCBAgQIJApAPyIchEgQIAAAQJ9BNp/sDPr/wB4cF4CQJ+aG4UAAQIECPz//7B3sNHO+mcBwIYlQIAAAQKdBFwB6ARpGAIECBAgkElAAMhULXMlQIAAAQKdBASATpCGIUCAAAECmQQEgEzVMlcCBAgQINBJQADoBGkYAgQIECCQSUAAyFQtcyVAgAABAp0EvjnRfQCe22nNhiFAgAABAuUFBIDyWwAAAQIECFQUEAAqVt2aCRAgQKC8gABQfgsAIECAAIGKAgJAxapbMwECBAiUFxAAym8BAAQIECBQUUAAqFh1ayZAgACB8gICQPktAIAAAQIEKgoIABWrbs0ECBAgUF7gWxLdCOg55asFgAABAgQIdBIQADpBGoYAAQIECGQSEAAyVctcCRAgQIBAJwEBoBOkYQgQIECAQCYBASBTtcyVAAECBAh0EhAAOkEahgABAgQIZBIQADJVy1wJECBAgEAnAQGgE6RhCBAgQIBAJoFvTXQfgB/OBGuuBAgQIEBgZgEBYObqmBsBAgQIEBgkIAAMgjUsAQIECBCYWUAAmLk65kaAAAECBAYJCACDYA1LgAABAgRmFhAAZq6OuREgQIAAgUECAsAgWMMSIECAAIGZBQSAmatjbgQIECBAYJCAADAI1rAECBAgQGBmgXsnuhHQs2eGNDcCBAgQIJBJQADIVC1zJUCAAAECnQQEgE6QhiFAgAABApkEBIBM1TJXAgQIECDQSUAA6ARpGAIECBAgkElAAMhULXMlQIAAAQKdBASATpCGIUCAAAECmQQEgEzVMlcCBAgQINBJ4D7uA9BJ0jAECBAgQCCRQKYA8KxErqZKgAABAgSmFhAApi6PyREgQIAAgTECAsAYV6MSIECAAIGpBQSAqctjcgQIECBAYIyAADDG1agECBAgQGBqAQFg6vKYHAECBAgQGCMgAIxxNSoBAgQIEJhaQACYujwmR4AAAQIExgjcN9GNgH5oDIFRCRAgQIBAPQEBoF7NrZgAAQIECIQAYBMQIECAAIGCAgJAwaJbMgECBAgQEADsAQIECBAgUFBAAChYdEsmQIAAAQICgD1AgAABAgQKCggABYtuyQQIECBA4NvcB8AmIECAAAEC9QQyBYAfrFceKyZAgAABAmMEBIAxrkYlQIAAAQJTCwgAU5fH5AgQIECAwBgBAWCMq1EJECBAgMDUAgLA1OUxOQIECBAgMEZAABjjalQCBAgQIDC1gAAwdXlMjgABAgQIjBEQAMa4GpUAAQIECEwt8O2JbgTkPgBTbyWTI0CAAIFMApkCwA9kgjVXAgQIECAws4AAMHN1zI0AAQIECAwSEAAGwRqWAAECBAjMLCAAzFwdcyNAgAABAoMEBIBBsIYlQIAAAQIzCwgAM1fH3AgQIECAwCABAWAQrGEJECBAgMDMAvdLdB8AbwOceSeZGwECBAikEhAAUpXLZAkQIECAQB+BTAHg+/ss2SgECBAgQICAAGAPECBAgACBggICQMGiWzIBAgQIEBAA7AECBAgQIFBQQAAoWHRLJkCAAAECAoA9QIAAAQIECgoIAAWLbskECBAgQOD+iW4E5G2A9isBAgQIEOgkkCkAXNlpzYYhQIAAAQLlBQSA8lsAAAECBAhUFBAAKlbdmgkQIECgvIAAUH4LACBAgACBigICQMWqWzMBAgQIlBcQAMpvAQAECBAgUFFAAKhYdWsmQIAAgfICAkD5LQCAAAECBCoKPCDRjYDcB6DiDrVmAgQIEBgikCkAPHOIgEEJECBAgEBBAQGgYNEtmQABAgQICAD2AAECBAgQKCggABQsuiUTIECAAAEBwB4gQIAAAQIFBQSAgkW3ZAIECBAgIADYAwQIECBAoKDAdyS6D4C3ARbcoJZMgAABAmMEBIAxrkYlQIAAAQJTC2QKAFdMLWlyBAgQIEAgkYAAkKhYpkqAAAECBHoJCAC9JI1DgAABAgQSCQgAiYplqgQIECBAoJeAANBL0jgECBAgQCCRgACQqFimSoAAAQIEegkIAL0kjUOAAAECBBIJPDDRjYC8DTDRxjJVAgQIEJhbIFMAeMbclGZHgAABAgTyCAgAeWplpgQIECBAoJuAANCN0kAECBAgQCCPgACQp1ZmSoAAAQIEugkIAN0oDUSAAAECBPIICAB5amWmBAgQIECgm4AA0I3SQAQIECBAII/AgxLdB8DbAPPsKzMlQIAAgckFBIDJC2R6BAgQIEBghECmAPD0EQDGJECAAAECFQUEgIpVt2YCBAgQKC8gAJTfAgAIECBAoKKAAFCx6tZMgAABAuUFBIDyWwAAAQIECFQUEAAqVt2aCRAgQKC8gABQfgsAIECAAIGKAt+Z6EZA3gZYcYdaMwECBAgMERAAhrAalAABAgQIzC2QKQA8bW5KsyNAgAABAnkEBIA8tTJTAgQIECDQTUAA6EZpIAIECBAgkEdAAMhTKzMlQIAAAQLdBASAbpQGIkCAAAECeQQEgDy1MlMCBAgQINBN4LsS3QfAuwC6ld1ABAgQIFBdQACovgOsnwABAgRKCggAJctu0QQIECBQXSBTAHhq9WJZPwECBAgQ6CUgAPSSNA4BAgQIEEgkIAAkKpapEiBAgACBXgICQC9J4xAgQIAAgUQCAkCiYpkqAQIECBDoJSAA9JI0DgECBAgQSCTw3YluBORdAIk2lqkSIECAwNwCAsDc9TE7AgQIECAwRCBTAHjKEAGDEiBAgACBggICQMGiWzIBAgQIEBAA7AECBAgQIFBQQAAoWHRLJkCAAAECAoA9QIAAAQIECgoIAAWLbskECBAgQOB7Et0HwLsA7FcCBAgQINBJQADoBGkYAgQIECCQSUAAyFQtcyVAgAABAp0EMgWAJ3das2EIECBAgEB5AQGg/BYAQIAAAQIVBQSAilW3ZgIECBAoLyAAlN8CAAgQIECgooAAULHq1kyAAAEC5QUEgPJbAAABAgQIVBS4ONGNgLwLoOIOtWYCBAgQGCIgAAxhNSgBAgQIEJhbQACYuz5mR4AAAQIEhghkCgBPGiJgUAIECBAgUFBAAChYdEsmQIAAAQICgD1AgAABAgQKCggABYtuyQQIECBAQACwBwgQIECAQEGBSxLdB8CLAAtuUEsmQIAAgTECAsAYV6MSIECAAIGpBQSAqctjcgQIECBAYIxApgDwxDEERiVAgAABAvUEBIB6NbdiAgQIECAQAoBNQIAAAQIECgoIAAWLbskECBAgQEAAsAcIECBAgEBBAQGgYNEtmQABAgQIXJroRkDeBWC/EiBAgACBTgICQCdIwxAgQIAAgUwCAkCmapkrAQIECBDoJJApAFzeac2GIUCAAAEC5QUEgPJbAAABAgQIVBQQACpW3ZoJECBAoLyAAFB+CwAgQIAAgYoCAkDFqlszAQIECJQXeHCi+wB4EWD57QqAAAECBHoJCAC9JI1DgAABAgQSCQgAiYplqgQIECBAoJeAANBL0jgECBAgQCCRQKYA8IRErqZKgAABAgSmFhAApi6PyREgQIAAgTECAsAYV6MSIECAAIGpBQSAqctjcgQIECBAYIyAADDG1agECBAgQGBqgYckuhGQFwFOvZVMjgABAgQyCQgAmaplrgQIECBAoJOAANAJ0jAECBAgQCCTgACQqVrmSoAAAQIEOglkCgCXdVqzYQgQIECAQHkBAaD8FgBAgAABAhUFBICKVbdmAgQIECgvIACU3wIACBAgQKCiwEMT3QfAawAq7lBrJkCAAIEhAgLAEFaDEiBAgACBuQUEgLnrY3YECBAgQGCIgAAwhNWgBAgQIEBgboFMAeDxc1OaHQECBAgQyCMgAOSplZkSIECAAIFuAgJAN0oDESBAgACBPAICQJ5amSkBAgQIEOgmIAB0ozQQAQIECBDII/CwRDcC8iLAPPvKTAkQIEBgcgEBYPICmR4BAgQIEBghIACMUDUmAQIECBCYXEAAmLxApkeAAAECBEYIZAoAjxsBYEwCBAgQIFBRQACoWHVrJkCAAIHyAgJA+S0AgAABAgQqCggAFatuzQQIECBQXuDhie4D4DUA5bcrAAIECBDoJSAA9JI0DgECBAgQSCQgACQqlqkSIECAAIFeAgJAL0njECBAgACBRAICQKJimSoBAgQIEOglkCkAPLbXoo1DgAABAgSqCwgA1XeA9RMgQIBASQEBoGTZLZoAAQIEqgsIANV3gPUTIECAQEmBRyS6EZDXAJTcohZNgAABAiMEBIARqsYkQIAAAQKTCwgAkxfI9AgQIECAwAgBAWCEqjEJECBAgMDkAgLA5AUyPQIECBAgMEIgUwB4zAgAYxIgQIAAgYoCAkDFqlszAQIECJQXEADKbwEABAgQIFBR4JGJ7gPgWwAVd6g1EyBAgMAQAQFgCKtBCRAgQIDA3AICwNz1MTsCBAgQIDBEQAAYwmpQAgQIECAwt4AAMHd9zI4AAQIECAwRyBQAHj1EwKAECBAgQKCggABQsOiWTIAAAQIEBAB7gAABAgQIFBQQAAoW3ZIJECBAgMD3JroRkNcA2K8ECBAgQKCTgADQCdIwBAgQIEAgk4AAkKla5kqAAAECBDoJCACdIA1DgAABAgQyCQgAmaplrgQIECBAoJNApgDwfZ3WbBgCBAgQIFBeQAAovwUAECBAgEBFAQGgYtWtmQABAgTKCzwq0X0AfAug/HYFQIAAAQK9BASAXpLGIUCAAAECiQQEgETFMlUCBAgQINBLQADoJWkcAgQIECCQSEAASFQsUyVAgAABAr0EBIBeksYhQIAAAQKJBDIFgDZXPwgQIECAAIEOAgJAB0RDECBAgACBbAICQLaKmS8BAgQIEOgg0G6uc2OSn74F0KHghiBAgAABAk1AALAPCBAgQIBAQQEBoGDRLZkAAQIECAgA9gABAgQIECgoIAAULLolEyBAgACBTAGg/dfFfhAgQIAAAQIdBASADoiGIECAAAEC2QQEgGwVM18CBAgQINBB4NFJ7gHQ7lXgWwAdCm4IAgQIECDQBAQA+4AAAQIECBQUEAAKFt2SCRAgQICAAGAPECBAgACBggICQMGiWzIBAgQIEBAA7AECBAgQIFBQIFMAeGTB+lgyAQIECBAYIiAADGE1KAECBAgQmFtAAJi7PmZHgAABAgSGCDwm0Y2AfAtgyBYwKAECBAhUFBAAKlbdmgkQIECgvIAAUH4LACBAgACBigICQMWqWzMBAgQIlBcQAMpvAQAECBAgUFFAAKhYdWsmQIAAgfICmQLAI8pXCwABAgQIEOgkkCkAeBvg9kW/XUTcLyKeFhE/HREvvPnnj0XE5RFxr4g4b/uHMQIBAgQ2E/jaiHhGRLw+Iv48It4bER+LiM9ExEdPPVG9PyLeERG/GBEPj4g7bPYwPisiBIDlb4M7RcSzI+IvIuJ/17jvw8cj4g8j4ukRcfvl81ghAQL7FmhPUj8RER9c4wnqxgMf057U3hoR7SvEc/e9kGSPLwAkK9gJpnvXiHhVRHziwHk5eH7O9uf/jIirIuLOJ3hcH0qAAIG1BL4kIn41Ij65xZPU6U9g7WrBZacub56z1qP7oEwBwGsA1tuvtzl1teynIqJ9JX/62djm9/9z6lsDP3vq2wWfv94UfBQBAgSOFmgN+oqI+EjHJ6nTn+D+JCIuPPrh/cvNAgLAsrbCV0fENYPOVDtfLWB/47LIrIYAgV0KtBcivXngk9QqCPzXzVcDdrm2bI/12B3UYVWPbX91BeDsu+vBEfHvO6hn+5ZCe42OHwQIEDiRwAUR8Tc7eJI6vdm84EQzrPXBAsAy6v24NV/gd/q52Pb3P7MMOqsgQGAXAnc89arz9+y4+a+e5F7mdQGHllgAOJQl1V8+JSJu2NO5elEqKZMlQGAvAreNiL/c05PUKgS0VzN7ceCZ5RcAzvTI9qd9Nv/VuXpuNjTzJUBgtwKv2XPzXz1ZCQFn1l0AONMj059maP7tXH06Ih6QCc5cCRDYncClkzT/VQh4uSsBny2+APBZilS/maX5r87Uh9yQK9X+MVkCOxFodxL718kCQHvSEgJuKr8AsJNj0PVBZmv+qxDw2q6rNBgBAukFfnzC5r96wvpldw6M9urxlcfsv7bbPlf/MWvzb3un3ar7ouoFsn4CBG4SaO/3//DkDebq4t8OyHQFoHoAmLn5r8Jj+z86/CBAgEA8c/Lmv3rSekXhEOAKQI6DmqH5r64C3CMHqVkSIDBS4J1JAkB74qoaAgSAkSegz9hZmv8qULd7bvhBgEBhgfa/+7W3B62eFDL8+isFXxOQKQA8rOB5ytb82zlvL/p1v42Cm9WSCawEHp+s+a8CyiuLPXllCgDVXgOQsfmvztG9Vk8EfiVAoJ7Ai5MGgPYE1v574nOLlCxTUKt0BSBz829n6Moi58cyCRA4ROCPEgeA9gT2qiJXAlwBOGTz7vmvsjf/1fnZM6OHJ0BgXwL7+k9/2pNPr58VQoAAsK8TcvjjLqH5t/P3tsOX528JEKggcF3HRtyroW8yztJDQKYAsPRvASyl+bdz9u4KT3LWSIDA4QIfWUgAaE9mr17wawK8BuDw/bvrv11S829n5q93DejxCBCYR2D2OwCe9GrAUm8bLADs/8wsrfm3s/Wu/bOaAQEC+xL42wVdAViFhSVeCRAA9nVCbnrcJTb/dl7esl9Wj06AwD4F3rrAANCe2JZ2syABYH+nZKnNv52Tl+yP1SMTILBvgV9YaABYWggQAPZzUpbc/NsZaS8u9YMAgaIClyw4ALQnuKXcLEgA2P0BXXrzb+fjLrtn9YgECMwi8EUR8amFh4AlvCbgskQ1eugsm3uLeVRo/n+1hY9PJUBgIQJvT9Rc2lctm/zMHgJcAdjdYavQ/NsZes7uSD0SAQKzCly8YVPdpBHv83N+LfF9AlwB2M3pqdL8PxYRX7wbUo9CgMDMAu0/1HlvkRCQ9UqAADD+BFVp/i2Ev2A8p0cgQCCLQKZbzW57FSHjlQABYOxJqtT8r42I243lNDoBAtkE3lHkKkALENlCgAAw7jRVav5t7z94HKWRCRDIKnC3iPjvQiHgNYleEyAAjDlV1Zr/S8cwGpUAgSUIPCoibhACpiulANC/JNWa/59GxK37MxqRAIElCTyvUABol0TfEBG3mryAT0hUk4dMbtmmV635XxMRd0hQF1MkQGACgXapcNsX22X6/NdO/u0AVwD6HYpqzf89EXGnfnxGIkBg6QLnnPqK4WXFQsDMVwJcAehz4qo1//b23vP70BmFAIFKAi0E/FLBEPB5ExZZANi+KNWa//s0/+03jREIVBYQAuaovgCwXR0qNv87b0fmswkQIBAhBOx/FwgAm9dA89/czmcSIECgZAj47YiY5dsBmQLATDea0fw9eREgQKCDQMUrAbOEAAHg5BtY8z+5mc8gQIDAkQJCwJE0Q//h8kQvxpzhCoDmP3Q7GpwAgaoCLQRclagh9bgfwb6vBAgA6582zX99Kx9JgACBEwtUDAFv3ONrAgSA9bao5r+ek48iQIDAVgJCwFZ8J/pkAeB4Ls3/eCMfQYAAgW4CQkA3yrMOJACclafcvf3bTX68z//se8K/EiCwAwEhYDyyAHC0sa/8j7bxLwQIEBguIASMJRYADvfV/A938bcECBDYqYAQMI47UwC4dBzDGSNr/mdw+AMBAgT2K9BCwMuLvUVwF+8OeGIi010EgGrN/599z3+/T2wenQCB9QQqhoDfGfwWQQHglr1XsflfcMvy/Y4AAQJzCwgBfesjANzkWa35fyAivqLvVjIaAQIExgsIAf2MBYAo91Y/zb/f+TESAQJ7EBAC+qBXDwC+8u+zj4xCgACBnQpUDAFv6vyagMoBQPPf6XH1YAQIEOgrIARs51k1AFRr/h/0Pf/tDorPJkBgTgEhYPO6VAwAmv/m+8VnEiBAYDoBIWCzkmQKAJdstsQzPkvzP4PDHwgQILAMgaoh4LwtyvekRDcC2jYAaP5bbBSfSoAAgdkFWgi4OlFTu7HDXNsLAzcNAVUCgOY/+8k1PwIECHQQEALWR6wQADT/9feDjyRAgEB6gYoh4M0bXAlYegDQ/NMfZQsgQIDAyQWEgOPNlhwANP/j6+8jCBAgsFgBIeDspV1qAKjY/O969lL7VwIECNQTEAKOrvkSA4Dmf3S9/QsBAgTKCVQMAb+7xmsClhYANP9yR9uCCRAgcLxACwGv6PC2ux5v3dvVGMeFgCcn8rj4mBJr/scA+WcCBAhUFhACzqz+UgKA5n9mXf2JAAECBA4REAJuQVlCAKjW/K+NCC/4u2UP+x0BAgROJFAxBPxBRNzmgFL2AKD5HyioPxIgQIDA8QJCQETmAKD5H7/HfQQBAgQIHCFQPQRkDQCa/xEb2l8TIECAwPoCLQS8MtGr4Xu8g2D17YCMAUDzX39v+0gCBAgQOEagagh4ZqLg094GqPkfs5H9MwECBAicXODciHhNoobY40rA9YnW+8aIuCHRfLetzwdO7ce7nHwb+wwCBAgQ2ESg4pWAbRuVz4/obdDe6ne3TTawzyFAgACBzQWEgP4NrXeDXPJ4mv/mZ9dnEiBAYGuB9u2A1xa63LzkhpppbZr/1kfXAAQIENheQAhwJWCX4UHz3/7MGoEAAQLdBIQAIWAXIUDz73ZkDUSAAIF+AkKAEDAyBGj+/c6qkQgQINBdQAgQAkaEAM2/+1E1IAECBPoLCAFCQM8QoPn3P6NGJECAwDABIUAI6BECNP9hR9TABAgQGCcgBAgB24SA69zkZ9zhNDIBAgRGCwgBQsAmIaA1/7uP3pzGJ0CAAIGxAi0E/LqbBXW/De4mjTXD52j+Y8+j0QkQILBTgVsJAQLAGiFQ89/psfRgBAgQ2I2AEODbAWe7AqH57+YcehQCBAjsRUAIEAIOCwGa/16OowclQIDAbgWEACHg9BCg+e/2/Hk0AgQI7FVACBACWgjQ/Pd6DD04AQIE9iPQQsDr1nhh2OlfLfr9coKD5r+fc+dRCRAgMIWAELCchn6ScKb5T3H8TIIAAQL7FRACaoUAzX+/582jEyBAYCoBIaBGCND8pzp2JkOAAIE5BISAZYcAzX+Oc2YWBAgQmFJACFhmCPgX9/af8ryZFAECBKYSEAKWFQJa8//KqXaYyRAgQIDAtAItBPyGtwim//8DNP9pj5iJESBAYF4BISD3lQDNf96zZWYECBCYXkAIyBkCNP/pj5YJEiBAYH4BISBXCND85z9TZkiAAIE0AkJAjhCg+ac5UiZKgACBPAJCwNwhQPPPc5bMlAABAukEhIA5Q4Dmn+4omTABAgTyCQgBc4WAD0XEhfm2kRkTIECAQEYBIWCOEKD5Zzw95kyAAIHkAkLAfkOA5p/8AJk+AQIEMgu0EPB6dwzc+R0DNf/Mp8bcCRAgsBABIWC3VwI0/4UcHMsgQIDAEgSEgN2EAM1/CafFGggQILAwASFgbAjQ/Bd2YCyHAAECSxIQAsaEgH/zVr8lHRNrIUCAwDIFhIC+IaA1/69b5laxKgIECBBYmoAQ0CcEaP5LOxnWQ4AAgQICLQT8prcIbvwWQc2/wCGxRAIECCxVQAjY7EqA5r/UE2FdBAgQKCQgBJwsBGj+hQ6HpRIgQGDpAkLAeiFA81/6SbA+AgQIFBQQAs4eAjT/gofCkgkQIFBFQAg4PARo/lVOgHUSIECgsEDua3koAAAC2ElEQVQLAb/l3QGffXeA5l/4MFg6AQIEqgkIATddCdD8q+186yVAgACBqB4CNH+HgAABAgTKClQNAZp/2S1v4QQIECCwEqgWAjT/VeX9SoAAAQLlBaqEgNb871G+2gAIECBAgMBpAksPAZr/acX2WwIECBAgcLpACwFvWOBbBK/3lf/pZfZ7AgQIECDwuQJLCwGa/+fW2N8QIECAAIFDBZYSAjT/Q8vrLwkQIECAwNEC2UOA5n90bf0LAQIECBA4q0DWEKD5n7Ws/pEAAQIECBwvcF5EvCXRCwM1/+Nr6iMIECBAgMBaAllCgOa/Vjl9EAECBAgQWF9g9hCg+a9fSx9JgAABAgROJDBrCGjN/54nWokPJkCAAAECBE4kMFsI0PxPVD4fTIAAAQIENhdoIeD3JnhhoOa/eQ19JgECBAgQ2Ehg3yFA89+obD6JAAECBAhsL3DriHjjHq4EXHfqcS/cfvpGIECAAAECBDYVODciXrrDEHBNRFyw6WR9HgECBAgQINBX4BER8dHBQeB1EXG7vtM2GgECBAgQILCtwPkR0Zr0ZzoHgfdFxMXbTs7nEyBAgAABAmMFLrr5XQI3bBkE3hMRT4mI9loDPwgQIECAAIEkAl8WEc+PiD+LiE+uGQbaV/tXRcR9IuKcJOs0TQIECBAgQOAIgS+IiHZl4LKI+NGI+LmIeGFE/GREXBkRD4qI9i0EPwgQIECAAAECBAgQIECAAAECBAgQIECAAAECBAgQIECAAAECBAgQIECAAAECBAgQIECAAAECBAgQIECAAAECBAgQIECAAAECBAgQIECAAAECBAgQIECAAAECBAgQIECAAAECBAgQIECAAAECBAgQIECAAAECBAgQIECAAAECBAgQIECAAAECBAgQIECAAAECBAgQIECAAAECBAgQIECAAAECBAgQIECAAAECBAgQIECAAAECBAgQIECAAAECBAjkEfg/UCFJH+e5evIAAAAASUVORK5CYII=;" vertex="1" parent="1">
          <mxGeometry x="3440" y="80" width="30" height="30" as="geometry" />
        </mxCell>
        <mxCell id="sXrkbcoMHqB5MU0Kjqhi-23" value="" style="shape=image;verticalLabelPosition=bottom;labelBackgroundColor=default;verticalAlign=top;aspect=fixed;imageAspect=0;image=data:image/png,iVBORw0KGgoAAAANSUhEUgAAAgAAAAIACAYAAAD0eNT6AAAAAXNSR0IArs4c6QAAIABJREFUeAHt3Xms7VdVB/DVYkFBMSEYTKki4FTBxJBoVUABwaEts8hUykypAwhCNGpMxBgBTQQsBVQEEUUEMRFF+AcTR2JQkzoBJkBrDJYEgiODlPq27aHvXe5999xz9j5nr9/6vOTlTffus/dn7X3W9/7uOb8X4QcBAgQIECBAgAABAgQIECBAgAABAgQIECBAgAABAgQIECBAgAABAgQIECBAgAABAgQIECBAgAABAgQIECBAgAABAgQIECBAgAABAgQIECBAgAABAgQIECBAgAABAgQIECBAgAABAgQIECBAgAABAgQIECBAgAABAgQIECBAgAABAgQIECBAgAABAgQIECBAgAABAgQIECBAgAABAgQIECBAgAABAgQIECBAgAABAgQIECBAgAABAgQIECBAgACBRAIXRMTlEfHiiPj9iHhXRPxDRPx9RLw7It4WES+JiKdGxFclWpepEiBAgAABAgcEvjQinh8RfxcRN57w5/sj4gURcfcDY/ojAQIECBAgMKnAnSPiqoj4+Amb/mEh4dMR8YaIuHDStZoWAQIECBAoL3CriHhWRPxHh8Z/MAx8KiJedOpbCLctrwyAAAECBAhMJHDHiHj7gMZ/MAj8U0R8/UTrNhUCBAgQIFBW4Gsi4rodNP9VGGhXGB5YVtvCCRAgQIDABAL3jIjrd9j8VyHgExHxkAnWbwoECBAgQKCcQHux37V7aP6rENBeZHjfcuoWTIAAAQIE9ihw65vfv79qxvv69cMRcf4eHTw0AQIECBAoJfDze/zK/2DYeGdEnFNK32IJECBAgMAeBL4hItr78w824n3++Ul7cPCQBAgQIECglMAfT9b8W/BoL0T8wlJVsFgCBAgQILBDgXtP2PxXVx6es0MHD0WAAAECBEoJvGniANDuRXBuqWpYLAECBAgQ2IHA7Tvd33/1FfuIX++/AwcPQYAAAQIESgk8YeKv/ldh4upSFbFYAgQIECCwA4FXJwgA/7gDBw9BgAABAgRKCbTmuvpKe9ZfPxMRdyhVFYslQIAAAQIDBdp/9fvJBAGgBZOLBjoYmgABAgQIlBL48iTNvwWAx5aqjMUSIECAAIGBAvdIFACuGOhgaAIECBAgUErgXokCgBsCldqaFkuAAAECIwW+KVEAeN5ICGMTIECAAIFKAgJApWpbKwECBAgQuFlAALAVCBAgQIBAQQEBoGDRLZkAAQIECAgA9gABAgQIECgoIAAULLolEyBAgAABAcAeIECAAAECBQUEgIJFt2QCBAgQIJApAPyIchEgQIAAAQJ9BNp/sDPr/wB4cF4CQJ+aG4UAAQIECPz//7B3sNHO+mcBwIYlQIAAAQKdBFwB6ARpGAIECBAgkElAAMhULXMlQIAAAQKdBASATpCGIUCAAAECmQQEgEzVMlcCBAgQINBJQADoBGkYAgQIECCQSUAAyFQtcyVAgAABAp0EvjnRfQCe22nNhiFAgAABAuUFBIDyWwAAAQIECFQUEAAqVt2aCRAgQKC8gABQfgsAIECAAIGKAgJAxapbMwECBAiUFxAAym8BAAQIECBQUUAAqFh1ayZAgACB8gICQPktAIAAAQIEKgoIABWrbs0ECBAgUF7gWxLdCOg55asFgAABAgQIdBIQADpBGoYAAQIECGQSEAAyVctcCRAgQIBAJwEBoBOkYQgQIECAQCYBASBTtcyVAAECBAh0EhAAOkEahgABAgQIZBIQADJVy1wJECBAgEAnAQGgE6RhCBAgQIBAJoFvTXQfgB/OBGuuBAgQIEBgZgEBYObqmBsBAgQIEBgkIAAMgjUsAQIECBCYWUAAmLk65kaAAAECBAYJCACDYA1LgAABAgRmFhAAZq6OuREgQIAAgUECAsAgWMMSIECAAIGZBQSAmatjbgQIECBAYJCAADAI1rAECBAgQGBmgXsnuhHQs2eGNDcCBAgQIJBJQADIVC1zJUCAAAECnQQEgE6QhiFAgAABApkEBIBM1TJXAgQIECDQSUAA6ARpGAIECBAgkElAAMhULXMlQIAAAQKdBASATpCGIUCAAAECmQQEgEzVMlcCBAgQINBJ4D7uA9BJ0jAECBAgQCCRQKYA8KxErqZKgAABAgSmFhAApi6PyREgQIAAgTECAsAYV6MSIECAAIGpBQSAqctjcgQIECBAYIyAADDG1agECBAgQGBqAQFg6vKYHAECBAgQGCMgAIxxNSoBAgQIEJhaQACYujwmR4AAAQIExgjcN9GNgH5oDIFRCRAgQIBAPQEBoF7NrZgAAQIECIQAYBMQIECAAIGCAgJAwaJbMgECBAgQEADsAQIECBAgUFBAAChYdEsmQIAAAQICgD1AgAABAgQKCggABYtuyQQIECBA4NvcB8AmIECAAAEC9QQyBYAfrFceKyZAgAABAmMEBIAxrkYlQIAAAQJTCwgAU5fH5AgQIECAwBgBAWCMq1EJECBAgMDUAgLA1OUxOQIECBAgMEZAABjjalQCBAgQIDC1gAAwdXlMjgABAgQIjBEQAMa4GpUAAQIECEwt8O2JbgTkPgBTbyWTI0CAAIFMApkCwA9kgjVXAgQIECAws4AAMHN1zI0AAQIECAwSEAAGwRqWAAECBAjMLCAAzFwdcyNAgAABAoMEBIBBsIYlQIAAAQIzCwgAM1fH3AgQIECAwCABAWAQrGEJECBAgMDMAvdLdB8AbwOceSeZGwECBAikEhAAUpXLZAkQIECAQB+BTAHg+/ss2SgECBAgQICAAGAPECBAgACBggICQMGiWzIBAgQIEBAA7AECBAgQIFBQQAAoWHRLJkCAAAECAoA9QIAAAQIECgoIAAWLbskECBAgQOD+iW4E5G2A9isBAgQIEOgkkCkAXNlpzYYhQIAAAQLlBQSA8lsAAAECBAhUFBAAKlbdmgkQIECgvIAAUH4LACBAgACBigICQMWqWzMBAgQIlBcQAMpvAQAECBAgUFFAAKhYdWsmQIAAgfICAkD5LQCAAAECBCoKPCDRjYDcB6DiDrVmAgQIEBgikCkAPHOIgEEJECBAgEBBAQGgYNEtmQABAgQICAD2AAECBAgQKCggABQsuiUTIECAAAEBwB4gQIAAAQIFBQSAgkW3ZAIECBAgIADYAwQIECBAoKDAdyS6D4C3ARbcoJZMgAABAmMEBIAxrkYlQIAAAQJTC2QKAFdMLWlyBAgQIEAgkYAAkKhYpkqAAAECBHoJCAC9JI1DgAABAgQSCQgAiYplqgQIECBAoJeAANBL0jgECBAgQCCRgACQqFimSoAAAQIEegkIAL0kjUOAAAECBBIJPDDRjYC8DTDRxjJVAgQIEJhbIFMAeMbclGZHgAABAgTyCAgAeWplpgQIECBAoJuAANCN0kAECBAgQCCPgACQp1ZmSoAAAQIEugkIAN0oDUSAAAECBPIICAB5amWmBAgQIECgm4AA0I3SQAQIECBAII/AgxLdB8DbAPPsKzMlQIAAgckFBIDJC2R6BAgQIEBghECmAPD0EQDGJECAAAECFQUEgIpVt2YCBAgQKC8gAJTfAgAIECBAoKKAAFCx6tZMgAABAuUFBIDyWwAAAQIECFQUEAAqVt2aCRAgQKC8gABQfgsAIECAAIGKAt+Z6EZA3gZYcYdaMwECBAgMERAAhrAalAABAgQIzC2QKQA8bW5KsyNAgAABAnkEBIA8tTJTAgQIECDQTUAA6EZpIAIECBAgkEdAAMhTKzMlQIAAAQLdBASAbpQGIkCAAAECeQQEgDy1MlMCBAgQINBN4LsS3QfAuwC6ld1ABAgQIFBdQACovgOsnwABAgRKCggAJctu0QQIECBQXSBTAHhq9WJZPwECBAgQ6CUgAPSSNA4BAgQIEEgkIAAkKpapEiBAgACBXgICQC9J4xAgQIAAgUQCAkCiYpkqAQIECBDoJSAA9JI0DgECBAgQSCTw3YluBORdAIk2lqkSIECAwNwCAsDc9TE7AgQIECAwRCBTAHjKEAGDEiBAgACBggICQMGiWzIBAgQIEBAA7AECBAgQIFBQQAAoWHRLJkCAAAECAoA9QIAAAQIECgoIAAWLbskECBAgQOB7Et0HwLsA7FcCBAgQINBJQADoBGkYAgQIECCQSUAAyFQtcyVAgAABAp0EMgWAJ3das2EIECBAgEB5AQGg/BYAQIAAAQIVBQSAilW3ZgIECBAoLyAAlN8CAAgQIECgooAAULHq1kyAAAEC5QUEgPJbAAABAgQIVBS4ONGNgLwLoOIOtWYCBAgQGCIgAAxhNSgBAgQIEJhbQACYuz5mR4AAAQIEhghkCgBPGiJgUAIECBAgUFBAAChYdEsmQIAAAQICgD1AgAABAgQKCggABYtuyQQIECBAQACwBwgQIECAQEGBSxLdB8CLAAtuUEsmQIAAgTECAsAYV6MSIECAAIGpBQSAqctjcgQIECBAYIxApgDwxDEERiVAgAABAvUEBIB6NbdiAgQIECAQAoBNQIAAAQIECgoIAAWLbskECBAgQEAAsAcIECBAgEBBAQGgYNEtmQABAgQIXJroRkDeBWC/EiBAgACBTgICQCdIwxAgQIAAgUwCAkCmapkrAQIECBDoJJApAFzeac2GIUCAAAEC5QUEgPJbAAABAgQIVBQQACpW3ZoJECBAoLyAAFB+CwAgQIAAgYoCAkDFqlszAQIECJQXeHCi+wB4EWD57QqAAAECBHoJCAC9JI1DgAABAgQSCQgAiYplqgQIECBAoJeAANBL0jgECBAgQCCRQKYA8IRErqZKgAABAgSmFhAApi6PyREgQIAAgTECAsAYV6MSIECAAIGpBQSAqctjcgQIECBAYIyAADDG1agECBAgQGBqgYckuhGQFwFOvZVMjgABAgQyCQgAmaplrgQIECBAoJOAANAJ0jAECBAgQCCTgACQqVrmSoAAAQIEOglkCgCXdVqzYQgQIECAQHkBAaD8FgBAgAABAhUFBICKVbdmAgQIECgvIACU3wIACBAgQKCiwEMT3QfAawAq7lBrJkCAAIEhAgLAEFaDEiBAgACBuQUEgLnrY3YECBAgQGCIgAAwhNWgBAgQIEBgboFMAeDxc1OaHQECBAgQyCMgAOSplZkSIECAAIFuAgJAN0oDESBAgACBPAICQJ5amSkBAgQIEOgmIAB0ozQQAQIECBDII/CwRDcC8iLAPPvKTAkQIEBgcgEBYPICmR4BAgQIEBghIACMUDUmAQIECBCYXEAAmLxApkeAAAECBEYIZAoAjxsBYEwCBAgQIFBRQACoWHVrJkCAAIHyAgJA+S0AgAABAgQqCggAFatuzQQIECBQXuDhie4D4DUA5bcrAAIECBDoJSAA9JI0DgECBAgQSCQgACQqlqkSIECAAIFeAgJAL0njECBAgACBRAICQKJimSoBAgQIEOglkCkAPLbXoo1DgAABAgSqCwgA1XeA9RMgQIBASQEBoGTZLZoAAQIEqgsIANV3gPUTIECAQEmBRyS6EZDXAJTcohZNgAABAiMEBIARqsYkQIAAAQKTCwgAkxfI9AgQIECAwAgBAWCEqjEJECBAgMDkAgLA5AUyPQIECBAgMEIgUwB4zAgAYxIgQIAAgYoCAkDFqlszAQIECJQXEADKbwEABAgQIFBR4JGJ7gPgWwAVd6g1EyBAgMAQAQFgCKtBCRAgQIDA3AICwNz1MTsCBAgQIDBEQAAYwmpQAgQIECAwt4AAMHd9zI4AAQIECAwRyBQAHj1EwKAECBAgQKCggABQsOiWTIAAAQIEBAB7gAABAgQIFBQQAAoW3ZIJECBAgMD3JroRkNcA2K8ECBAgQKCTgADQCdIwBAgQIEAgk4AAkKla5kqAAAECBDoJCACdIA1DgAABAgQyCQgAmaplrgQIECBAoJNApgDwfZ3WbBgCBAgQIFBeQAAovwUAECBAgEBFAQGgYtWtmQABAgTKCzwq0X0AfAug/HYFQIAAAQK9BASAXpLGIUCAAAECiQQEgETFMlUCBAgQINBLQADoJWkcAgQIECCQSEAASFQsUyVAgAABAr0EBIBeksYhQIAAAQKJBDIFgDZXPwgQIECAAIEOAgJAB0RDECBAgACBbAICQLaKmS8BAgQIEOgg0G6uc2OSn74F0KHghiBAgAABAk1AALAPCBAgQIBAQQEBoGDRLZkAAQIECAgA9gABAgQIECgoIAAULLolEyBAgACBTAGg/dfFfhAgQIAAAQIdBASADoiGIECAAAEC2QQEgGwVM18CBAgQINBB4NFJ7gHQ7lXgWwAdCm4IAgQIECDQBAQA+4AAAQIECBQUEAAKFt2SCRAgQICAAGAPECBAgACBggICQMGiWzIBAgQIEBAA7AECBAgQIFBQIFMAeGTB+lgyAQIECBAYIiAADGE1KAECBAgQmFtAAJi7PmZHgAABAgSGCDwm0Y2AfAtgyBYwKAECBAhUFBAAKlbdmgkQIECgvIAAUH4LACBAgACBigICQMWqWzMBAgQIlBcQAMpvAQAECBAgUFFAAKhYdWsmQIAAgfICmQLAI8pXCwABAgQIEOgkkCkAeBvg9kW/XUTcLyKeFhE/HREvvPnnj0XE5RFxr4g4b/uHMQIBAgQ2E/jaiHhGRLw+Iv48It4bER+LiM9ExEdPPVG9PyLeERG/GBEPj4g7bPYwPisiBIDlb4M7RcSzI+IvIuJ/17jvw8cj4g8j4ukRcfvl81ghAQL7FmhPUj8RER9c4wnqxgMf057U3hoR7SvEc/e9kGSPLwAkK9gJpnvXiHhVRHziwHk5eH7O9uf/jIirIuLOJ3hcH0qAAIG1BL4kIn41Ij65xZPU6U9g7WrBZacub56z1qP7oEwBwGsA1tuvtzl1teynIqJ9JX/62djm9/9z6lsDP3vq2wWfv94UfBQBAgSOFmgN+oqI+EjHJ6nTn+D+JCIuPPrh/cvNAgLAsrbCV0fENYPOVDtfLWB/47LIrIYAgV0KtBcivXngk9QqCPzXzVcDdrm2bI/12B3UYVWPbX91BeDsu+vBEfHvO6hn+5ZCe42OHwQIEDiRwAUR8Tc7eJI6vdm84EQzrPXBAsAy6v24NV/gd/q52Pb3P7MMOqsgQGAXAnc89arz9+y4+a+e5F7mdQGHllgAOJQl1V8+JSJu2NO5elEqKZMlQGAvAreNiL/c05PUKgS0VzN7ceCZ5RcAzvTI9qd9Nv/VuXpuNjTzJUBgtwKv2XPzXz1ZCQFn1l0AONMj059maP7tXH06Ih6QCc5cCRDYncClkzT/VQh4uSsBny2+APBZilS/maX5r87Uh9yQK9X+MVkCOxFodxL718kCQHvSEgJuKr8AsJNj0PVBZmv+qxDw2q6rNBgBAukFfnzC5r96wvpldw6M9urxlcfsv7bbPlf/MWvzb3un3ar7ouoFsn4CBG4SaO/3//DkDebq4t8OyHQFoHoAmLn5r8Jj+z86/CBAgEA8c/Lmv3rSekXhEOAKQI6DmqH5r64C3CMHqVkSIDBS4J1JAkB74qoaAgSAkSegz9hZmv8qULd7bvhBgEBhgfa/+7W3B62eFDL8+isFXxOQKQA8rOB5ytb82zlvL/p1v42Cm9WSCawEHp+s+a8CyiuLPXllCgDVXgOQsfmvztG9Vk8EfiVAoJ7Ai5MGgPYE1v574nOLlCxTUKt0BSBz829n6Moi58cyCRA4ROCPEgeA9gT2qiJXAlwBOGTz7vmvsjf/1fnZM6OHJ0BgXwL7+k9/2pNPr58VQoAAsK8TcvjjLqH5t/P3tsOX528JEKggcF3HRtyroW8yztJDQKYAsPRvASyl+bdz9u4KT3LWSIDA4QIfWUgAaE9mr17wawK8BuDw/bvrv11S829n5q93DejxCBCYR2D2OwCe9GrAUm8bLADs/8wsrfm3s/Wu/bOaAQEC+xL42wVdAViFhSVeCRAA9nVCbnrcJTb/dl7esl9Wj06AwD4F3rrAANCe2JZ2syABYH+nZKnNv52Tl+yP1SMTILBvgV9YaABYWggQAPZzUpbc/NsZaS8u9YMAgaIClyw4ALQnuKXcLEgA2P0BXXrzb+fjLrtn9YgECMwi8EUR8amFh4AlvCbgskQ1eugsm3uLeVRo/n+1hY9PJUBgIQJvT9Rc2lctm/zMHgJcAdjdYavQ/NsZes7uSD0SAQKzCly8YVPdpBHv83N+LfF9AlwB2M3pqdL8PxYRX7wbUo9CgMDMAu0/1HlvkRCQ9UqAADD+BFVp/i2Ev2A8p0cgQCCLQKZbzW57FSHjlQABYOxJqtT8r42I243lNDoBAtkE3lHkKkALENlCgAAw7jRVav5t7z94HKWRCRDIKnC3iPjvQiHgNYleEyAAjDlV1Zr/S8cwGpUAgSUIPCoibhACpiulANC/JNWa/59GxK37MxqRAIElCTyvUABol0TfEBG3mryAT0hUk4dMbtmmV635XxMRd0hQF1MkQGACgXapcNsX22X6/NdO/u0AVwD6HYpqzf89EXGnfnxGIkBg6QLnnPqK4WXFQsDMVwJcAehz4qo1//b23vP70BmFAIFKAi0E/FLBEPB5ExZZANi+KNWa//s0/+03jREIVBYQAuaovgCwXR0qNv87b0fmswkQIBAhBOx/FwgAm9dA89/czmcSIECgZAj47YiY5dsBmQLATDea0fw9eREgQKCDQMUrAbOEAAHg5BtY8z+5mc8gQIDAkQJCwJE0Q//h8kQvxpzhCoDmP3Q7GpwAgaoCLQRclagh9bgfwb6vBAgA6582zX99Kx9JgACBEwtUDAFv3ONrAgSA9bao5r+ek48iQIDAVgJCwFZ8J/pkAeB4Ls3/eCMfQYAAgW4CQkA3yrMOJACclafcvf3bTX68z//se8K/EiCwAwEhYDyyAHC0sa/8j7bxLwQIEBguIASMJRYADvfV/A938bcECBDYqYAQMI47UwC4dBzDGSNr/mdw+AMBAgT2K9BCwMuLvUVwF+8OeGIi010EgGrN/599z3+/T2wenQCB9QQqhoDfGfwWQQHglr1XsflfcMvy/Y4AAQJzCwgBfesjANzkWa35fyAivqLvVjIaAQIExgsIAf2MBYAo91Y/zb/f+TESAQJ7EBAC+qBXDwC+8u+zj4xCgACBnQpUDAFv6vyagMoBQPPf6XH1YAQIEOgrIARs51k1AFRr/h/0Pf/tDorPJkBgTgEhYPO6VAwAmv/m+8VnEiBAYDoBIWCzkmQKAJdstsQzPkvzP4PDHwgQILAMgaoh4LwtyvekRDcC2jYAaP5bbBSfSoAAgdkFWgi4OlFTu7HDXNsLAzcNAVUCgOY/+8k1PwIECHQQEALWR6wQADT/9feDjyRAgEB6gYoh4M0bXAlYegDQ/NMfZQsgQIDAyQWEgOPNlhwANP/j6+8jCBAgsFgBIeDspV1qAKjY/O969lL7VwIECNQTEAKOrvkSA4Dmf3S9/QsBAgTKCVQMAb+7xmsClhYANP9yR9uCCRAgcLxACwGv6PC2ux5v3dvVGMeFgCcn8rj4mBJr/scA+WcCBAhUFhACzqz+UgKA5n9mXf2JAAECBA4REAJuQVlCAKjW/K+NCC/4u2UP+x0BAgROJFAxBPxBRNzmgFL2AKD5HyioPxIgQIDA8QJCQETmAKD5H7/HfQQBAgQIHCFQPQRkDQCa/xEb2l8TIECAwPoCLQS8MtGr4Xu8g2D17YCMAUDzX39v+0gCBAgQOEagagh4ZqLg094GqPkfs5H9MwECBAicXODciHhNoobY40rA9YnW+8aIuCHRfLetzwdO7ce7nHwb+wwCBAgQ2ESg4pWAbRuVz4/obdDe6ne3TTawzyFAgACBzQWEgP4NrXeDXPJ4mv/mZ9dnEiBAYGuB9u2A1xa63LzkhpppbZr/1kfXAAQIENheQAhwJWCX4UHz3/7MGoEAAQLdBIQAIWAXIUDz73ZkDUSAAIF+AkKAEDAyBGj+/c6qkQgQINBdQAgQAkaEAM2/+1E1IAECBPoLCAFCQM8QoPn3P6NGJECAwDABIUAI6BECNP9hR9TABAgQGCcgBAgB24SA69zkZ9zhNDIBAgRGCwgBQsAmIaA1/7uP3pzGJ0CAAIGxAi0E/LqbBXW/De4mjTXD52j+Y8+j0QkQILBTgVsJAQLAGiFQ89/psfRgBAgQ2I2AEODbAWe7AqH57+YcehQCBAjsRUAIEAIOCwGa/16OowclQIDAbgWEACHg9BCg+e/2/Hk0AgQI7FVACBACWgjQ/Pd6DD04AQIE9iPQQsDr1nhh2OlfLfr9coKD5r+fc+dRCRAgMIWAELCchn6ScKb5T3H8TIIAAQL7FRACaoUAzX+/582jEyBAYCoBIaBGCND8pzp2JkOAAIE5BISAZYcAzX+Oc2YWBAgQmFJACFhmCPgX9/af8ryZFAECBKYSEAKWFQJa8//KqXaYyRAgQIDAtAItBPyGtwim//8DNP9pj5iJESBAYF4BISD3lQDNf96zZWYECBCYXkAIyBkCNP/pj5YJEiBAYH4BISBXCND85z9TZkiAAIE0AkJAjhCg+ac5UiZKgACBPAJCwNwhQPPPc5bMlAABAukEhIA5Q4Dmn+4omTABAgTyCQgBc4WAD0XEhfm2kRkTIECAQEYBIWCOEKD5Zzw95kyAAIHkAkLAfkOA5p/8AJk+AQIEMgu0EPB6dwzc+R0DNf/Mp8bcCRAgsBABIWC3VwI0/4UcHMsgQIDAEgSEgN2EAM1/CafFGggQILAwASFgbAjQ/Bd2YCyHAAECSxIQAsaEgH/zVr8lHRNrIUCAwDIFhIC+IaA1/69b5laxKgIECBBYmoAQ0CcEaP5LOxnWQ4AAgQICLQT8prcIbvwWQc2/wCGxRAIECCxVQAjY7EqA5r/UE2FdBAgQKCQgBJwsBGj+hQ6HpRIgQGDpAkLAeiFA81/6SbA+AgQIFBQQAs4eAjT/gofCkgkQIFBFQAg4PARo/lVOgHUSIECgsEDua3koAAAC2ElEQVQLAb/l3QGffXeA5l/4MFg6AQIEqgkIATddCdD8q+186yVAgACBqB4CNH+HgAABAgTKClQNAZp/2S1v4QQIECCwEqgWAjT/VeX9SoAAAQLlBaqEgNb871G+2gAIECBAgMBpAksPAZr/acX2WwIECBAgcLpACwFvWOBbBK/3lf/pZfZ7AgQIECDwuQJLCwGa/+fW2N8QIECAAIFDBZYSAjT/Q8vrLwkQIECAwNEC2UOA5n90bf0LAQIECBA4q0DWEKD5n7Ws/pEAAQIECBwvcF5EvCXRCwM1/+Nr6iMIECBAgMBaAllCgOa/Vjl9EAECBAgQWF9g9hCg+a9fSx9JgAABAgROJDBrCGjN/54nWokPJkCAAAECBE4kMFsI0PxPVD4fTIAAAQIENhdoIeD3JnhhoOa/eQ19JgECBAgQ2Ehg3yFA89+obD6JAAECBAhsL3DriHjjHq4EXHfqcS/cfvpGIECAAAECBDYVODciXrrDEHBNRFyw6WR9HgECBAgQINBX4BER8dHBQeB1EXG7vtM2GgECBAgQILCtwPkR0Zr0ZzoHgfdFxMXbTs7nEyBAgAABAmMFLrr5XQI3bBkE3hMRT4mI9loDPwgQIECAAIEkAl8WEc+PiD+LiE+uGQbaV/tXRcR9IuKcJOs0TQIECBAgQOAIgS+IiHZl4LKI+NGI+LmIeGFE/GREXBkRD4qI9i0EPwgQIECAAAECBAgQIECAAAECBAgQIECAAAECBAgQIECAAAECBAgQIECAAAECBAgQIECAAAECBAgQIECAAAECBAgQIECAAAECBAgQIECAAAECBAgQIECAAAECBAgQIECAAAECBAgQIECAAAECBAgQIECAAAECBAgQIECAAAECBAgQIECAAAECBAgQIECAAAECBAgQIECAAAECBAgQIECAAAECBAgQIECAAAECBAgQIECAAAECBAgQIECAAAECBAjkEfg/UCFJH+e5evIAAAAASUVORK5CYII=;" vertex="1" parent="1">
          <mxGeometry x="3440" y="210" width="30" height="30" as="geometry" />
        </mxCell>
        <mxCell id="sXrkbcoMHqB5MU0Kjqhi-24" value="&lt;font style=&quot;font-size: 15px;&quot; data-font-src=&quot;https://fonts.googleapis.com/css?family=Quicksand&quot; face=&quot;Quicksand&quot;&gt;&lt;b&gt;&lt;u&gt;Hybrid-Driven Approach :&amp;nbsp;&lt;/u&gt;&lt;/b&gt;&lt;/font&gt;&lt;div&gt;&lt;font face=&quot;Quicksand&quot;&gt;&lt;b style=&quot;&quot;&gt;&lt;u style=&quot;&quot;&gt;&lt;br&gt;&lt;/u&gt;&lt;/b&gt;&lt;/font&gt;&lt;div&gt;&lt;font style=&quot;font-size: 15px;&quot; data-font-src=&quot;https://fonts.googleapis.com/css?family=Quicksand&quot; face=&quot;Quicksand&quot;&gt;Combines expert knowledge with data-driven insights for better decision-making&lt;/font&gt;&lt;/div&gt;&lt;/div&gt;" style="text;html=1;align=center;verticalAlign=middle;whiteSpace=wrap;rounded=0;" vertex="1" parent="1">
          <mxGeometry x="3320" y="-120" width="270" height="100" as="geometry" />
        </mxCell>
        <mxCell id="sXrkbcoMHqB5MU0Kjqhi-25" value="&lt;font face=&quot;Quicksand&quot;&gt;Decision Making&lt;/font&gt;" style="rounded=1;whiteSpace=wrap;html=1;fillColor=#dae8fc;strokeColor=#6c8ebf;fontSize=15;fontStyle=1" vertex="1" parent="1">
          <mxGeometry x="3320" y="380" width="270" height="80" as="geometry" />
        </mxCell>
        <mxCell id="sXrkbcoMHqB5MU0Kjqhi-26" value="" style="shape=image;verticalLabelPosition=bottom;labelBackgroundColor=default;verticalAlign=top;aspect=fixed;imageAspect=0;image=data:image/png,iVBORw0KGgoAAAANSUhEUgAAAgAAAAIACAYAAAD0eNT6AAAAAXNSR0IArs4c6QAAIABJREFUeAHt3Xms7VdVB/DVYkFBMSEYTKki4FTBxJBoVUABwaEts8hUykypAwhCNGpMxBgBTQQsBVQEEUUEMRFF+AcTR2JQkzoBJkBrDJYEgiODlPq27aHvXe5999xz9j5nr9/6vOTlTffus/dn7X3W9/7uOb8X4QcBAgQIECBAgAABAgQIECBAgAABAgQIECBAgAABAgQIECBAgAABAgQIECBAgAABAgQIECBAgAABAgQIECBAgAABAgQIECBAgAABAgQIECBAgAABAgQIECBAgAABAgQIECBAgAABAgQIECBAgAABAgQIECBAgAABAgQIECBAgAABAgQIECBAgAABAgQIECBAgAABAgQIECBAgAABAgQIECBAgAABAgQIECBAgAABAgQIECBAgAABAgQIECBAgACBRAIXRMTlEfHiiPj9iHhXRPxDRPx9RLw7It4WES+JiKdGxFclWpepEiBAgAABAgcEvjQinh8RfxcRN57w5/sj4gURcfcDY/ojAQIECBAgMKnAnSPiqoj4+Amb/mEh4dMR8YaIuHDStZoWAQIECBAoL3CriHhWRPxHh8Z/MAx8KiJedOpbCLctrwyAAAECBAhMJHDHiHj7gMZ/MAj8U0R8/UTrNhUCBAgQIFBW4Gsi4rodNP9VGGhXGB5YVtvCCRAgQIDABAL3jIjrd9j8VyHgExHxkAnWbwoECBAgQKCcQHux37V7aP6rENBeZHjfcuoWTIAAAQIE9ihw65vfv79qxvv69cMRcf4eHTw0AQIECBAoJfDze/zK/2DYeGdEnFNK32IJECBAgMAeBL4hItr78w824n3++Ul7cPCQBAgQIECglMAfT9b8W/BoL0T8wlJVsFgCBAgQILBDgXtP2PxXVx6es0MHD0WAAAECBEoJvGniANDuRXBuqWpYLAECBAgQ2IHA7Tvd33/1FfuIX++/AwcPQYAAAQIESgk8YeKv/ldh4upSFbFYAgQIECCwA4FXJwgA/7gDBw9BgAABAgRKCbTmuvpKe9ZfPxMRdyhVFYslQIAAAQIDBdp/9fvJBAGgBZOLBjoYmgABAgQIlBL48iTNvwWAx5aqjMUSIECAAIGBAvdIFACuGOhgaAIECBAgUErgXokCgBsCldqaFkuAAAECIwW+KVEAeN5ICGMTIECAAIFKAgJApWpbKwECBAgQuFlAALAVCBAgQIBAQQEBoGDRLZkAAQIECAgA9gABAgQIECgoIAAULLolEyBAgAABAcAeIECAAAECBQUEgIJFt2QCBAgQIJApAPyIchEgQIAAAQJ9BNp/sDPr/wB4cF4CQJ+aG4UAAQIECPz//7B3sNHO+mcBwIYlQIAAAQKdBFwB6ARpGAIECBAgkElAAMhULXMlQIAAAQKdBASATpCGIUCAAAECmQQEgEzVMlcCBAgQINBJQADoBGkYAgQIECCQSUAAyFQtcyVAgAABAp0EvjnRfQCe22nNhiFAgAABAuUFBIDyWwAAAQIECFQUEAAqVt2aCRAgQKC8gABQfgsAIECAAIGKAgJAxapbMwECBAiUFxAAym8BAAQIECBQUUAAqFh1ayZAgACB8gICQPktAIAAAQIEKgoIABWrbs0ECBAgUF7gWxLdCOg55asFgAABAgQIdBIQADpBGoYAAQIECGQSEAAyVctcCRAgQIBAJwEBoBOkYQgQIECAQCYBASBTtcyVAAECBAh0EhAAOkEahgABAgQIZBIQADJVy1wJECBAgEAnAQGgE6RhCBAgQIBAJoFvTXQfgB/OBGuuBAgQIEBgZgEBYObqmBsBAgQIEBgkIAAMgjUsAQIECBCYWUAAmLk65kaAAAECBAYJCACDYA1LgAABAgRmFhAAZq6OuREgQIAAgUECAsAgWMMSIECAAIGZBQSAmatjbgQIECBAYJCAADAI1rAECBAgQGBmgXsnuhHQs2eGNDcCBAgQIJBJQADIVC1zJUCAAAECnQQEgE6QhiFAgAABApkEBIBM1TJXAgQIECDQSUAA6ARpGAIECBAgkElAAMhULXMlQIAAAQKdBASATpCGIUCAAAECmQQEgEzVMlcCBAgQINBJ4D7uA9BJ0jAECBAgQCCRQKYA8KxErqZKgAABAgSmFhAApi6PyREgQIAAgTECAsAYV6MSIECAAIGpBQSAqctjcgQIECBAYIyAADDG1agECBAgQGBqAQFg6vKYHAECBAgQGCMgAIxxNSoBAgQIEJhaQACYujwmR4AAAQIExgjcN9GNgH5oDIFRCRAgQIBAPQEBoF7NrZgAAQIECIQAYBMQIECAAIGCAgJAwaJbMgECBAgQEADsAQIECBAgUFBAAChYdEsmQIAAAQICgD1AgAABAgQKCggABYtuyQQIECBA4NvcB8AmIECAAAEC9QQyBYAfrFceKyZAgAABAmMEBIAxrkYlQIAAAQJTCwgAU5fH5AgQIECAwBgBAWCMq1EJECBAgMDUAgLA1OUxOQIECBAgMEZAABjjalQCBAgQIDC1gAAwdXlMjgABAgQIjBEQAMa4GpUAAQIECEwt8O2JbgTkPgBTbyWTI0CAAIFMApkCwA9kgjVXAgQIECAws4AAMHN1zI0AAQIECAwSEAAGwRqWAAECBAjMLCAAzFwdcyNAgAABAoMEBIBBsIYlQIAAAQIzCwgAM1fH3AgQIECAwCABAWAQrGEJECBAgMDMAvdLdB8AbwOceSeZGwECBAikEhAAUpXLZAkQIECAQB+BTAHg+/ss2SgECBAgQICAAGAPECBAgACBggICQMGiWzIBAgQIEBAA7AECBAgQIFBQQAAoWHRLJkCAAAECAoA9QIAAAQIECgoIAAWLbskECBAgQOD+iW4E5G2A9isBAgQIEOgkkCkAXNlpzYYhQIAAAQLlBQSA8lsAAAECBAhUFBAAKlbdmgkQIECgvIAAUH4LACBAgACBigICQMWqWzMBAgQIlBcQAMpvAQAECBAgUFFAAKhYdWsmQIAAgfICAkD5LQCAAAECBCoKPCDRjYDcB6DiDrVmAgQIEBgikCkAPHOIgEEJECBAgEBBAQGgYNEtmQABAgQICAD2AAECBAgQKCggABQsuiUTIECAAAEBwB4gQIAAAQIFBQSAgkW3ZAIECBAgIADYAwQIECBAoKDAdyS6D4C3ARbcoJZMgAABAmMEBIAxrkYlQIAAAQJTC2QKAFdMLWlyBAgQIEAgkYAAkKhYpkqAAAECBHoJCAC9JI1DgAABAgQSCQgAiYplqgQIECBAoJeAANBL0jgECBAgQCCRgACQqFimSoAAAQIEegkIAL0kjUOAAAECBBIJPDDRjYC8DTDRxjJVAgQIEJhbIFMAeMbclGZHgAABAgTyCAgAeWplpgQIECBAoJuAANCN0kAECBAgQCCPgACQp1ZmSoAAAQIEugkIAN0oDUSAAAECBPIICAB5amWmBAgQIECgm4AA0I3SQAQIECBAII/AgxLdB8DbAPPsKzMlQIAAgckFBIDJC2R6BAgQIEBghECmAPD0EQDGJECAAAECFQUEgIpVt2YCBAgQKC8gAJTfAgAIECBAoKKAAFCx6tZMgAABAuUFBIDyWwAAAQIECFQUEAAqVt2aCRAgQKC8gABQfgsAIECAAIGKAt+Z6EZA3gZYcYdaMwECBAgMERAAhrAalAABAgQIzC2QKQA8bW5KsyNAgAABAnkEBIA8tTJTAgQIECDQTUAA6EZpIAIECBAgkEdAAMhTKzMlQIAAAQLdBASAbpQGIkCAAAECeQQEgDy1MlMCBAgQINBN4LsS3QfAuwC6ld1ABAgQIFBdQACovgOsnwABAgRKCggAJctu0QQIECBQXSBTAHhq9WJZPwECBAgQ6CUgAPSSNA4BAgQIEEgkIAAkKpapEiBAgACBXgICQC9J4xAgQIAAgUQCAkCiYpkqAQIECBDoJSAA9JI0DgECBAgQSCTw3YluBORdAIk2lqkSIECAwNwCAsDc9TE7AgQIECAwRCBTAHjKEAGDEiBAgACBggICQMGiWzIBAgQIEBAA7AECBAgQIFBQQAAoWHRLJkCAAAECAoA9QIAAAQIECgoIAAWLbskECBAgQOB7Et0HwLsA7FcCBAgQINBJQADoBGkYAgQIECCQSUAAyFQtcyVAgAABAp0EMgWAJ3das2EIECBAgEB5AQGg/BYAQIAAAQIVBQSAilW3ZgIECBAoLyAAlN8CAAgQIECgooAAULHq1kyAAAEC5QUEgPJbAAABAgQIVBS4ONGNgLwLoOIOtWYCBAgQGCIgAAxhNSgBAgQIEJhbQACYuz5mR4AAAQIEhghkCgBPGiJgUAIECBAgUFBAAChYdEsmQIAAAQICgD1AgAABAgQKCggABYtuyQQIECBAQACwBwgQIECAQEGBSxLdB8CLAAtuUEsmQIAAgTECAsAYV6MSIECAAIGpBQSAqctjcgQIECBAYIxApgDwxDEERiVAgAABAvUEBIB6NbdiAgQIECAQAoBNQIAAAQIECgoIAAWLbskECBAgQEAAsAcIECBAgEBBAQGgYNEtmQABAgQIXJroRkDeBWC/EiBAgACBTgICQCdIwxAgQIAAgUwCAkCmapkrAQIECBDoJJApAFzeac2GIUCAAAEC5QUEgPJbAAABAgQIVBQQACpW3ZoJECBAoLyAAFB+CwAgQIAAgYoCAkDFqlszAQIECJQXeHCi+wB4EWD57QqAAAECBHoJCAC9JI1DgAABAgQSCQgAiYplqgQIECBAoJeAANBL0jgECBAgQCCRQKYA8IRErqZKgAABAgSmFhAApi6PyREgQIAAgTECAsAYV6MSIECAAIGpBQSAqctjcgQIECBAYIyAADDG1agECBAgQGBqgYckuhGQFwFOvZVMjgABAgQyCQgAmaplrgQIECBAoJOAANAJ0jAECBAgQCCTgACQqVrmSoAAAQIEOglkCgCXdVqzYQgQIECAQHkBAaD8FgBAgAABAhUFBICKVbdmAgQIECgvIACU3wIACBAgQKCiwEMT3QfAawAq7lBrJkCAAIEhAgLAEFaDEiBAgACBuQUEgLnrY3YECBAgQGCIgAAwhNWgBAgQIEBgboFMAeDxc1OaHQECBAgQyCMgAOSplZkSIECAAIFuAgJAN0oDESBAgACBPAICQJ5amSkBAgQIEOgmIAB0ozQQAQIECBDII/CwRDcC8iLAPPvKTAkQIEBgcgEBYPICmR4BAgQIEBghIACMUDUmAQIECBCYXEAAmLxApkeAAAECBEYIZAoAjxsBYEwCBAgQIFBRQACoWHVrJkCAAIHyAgJA+S0AgAABAgQqCggAFatuzQQIECBQXuDhie4D4DUA5bcrAAIECBDoJSAA9JI0DgECBAgQSCQgACQqlqkSIECAAIFeAgJAL0njECBAgACBRAICQKJimSoBAgQIEOglkCkAPLbXoo1DgAABAgSqCwgA1XeA9RMgQIBASQEBoGTZLZoAAQIEqgsIANV3gPUTIECAQEmBRyS6EZDXAJTcohZNgAABAiMEBIARqsYkQIAAAQKTCwgAkxfI9AgQIECAwAgBAWCEqjEJECBAgMDkAgLA5AUyPQIECBAgMEIgUwB4zAgAYxIgQIAAgYoCAkDFqlszAQIECJQXEADKbwEABAgQIFBR4JGJ7gPgWwAVd6g1EyBAgMAQAQFgCKtBCRAgQIDA3AICwNz1MTsCBAgQIDBEQAAYwmpQAgQIECAwt4AAMHd9zI4AAQIECAwRyBQAHj1EwKAECBAgQKCggABQsOiWTIAAAQIEBAB7gAABAgQIFBQQAAoW3ZIJECBAgMD3JroRkNcA2K8ECBAgQKCTgADQCdIwBAgQIEAgk4AAkKla5kqAAAECBDoJCACdIA1DgAABAgQyCQgAmaplrgQIECBAoJNApgDwfZ3WbBgCBAgQIFBeQAAovwUAECBAgEBFAQGgYtWtmQABAgTKCzwq0X0AfAug/HYFQIAAAQK9BASAXpLGIUCAAAECiQQEgETFMlUCBAgQINBLQADoJWkcAgQIECCQSEAASFQsUyVAgAABAr0EBIBeksYhQIAAAQKJBDIFgDZXPwgQIECAAIEOAgJAB0RDECBAgACBbAICQLaKmS8BAgQIEOgg0G6uc2OSn74F0KHghiBAgAABAk1AALAPCBAgQIBAQQEBoGDRLZkAAQIECAgA9gABAgQIECgoIAAULLolEyBAgACBTAGg/dfFfhAgQIAAAQIdBASADoiGIECAAAEC2QQEgGwVM18CBAgQINBB4NFJ7gHQ7lXgWwAdCm4IAgQIECDQBAQA+4AAAQIECBQUEAAKFt2SCRAgQICAAGAPECBAgACBggICQMGiWzIBAgQIEBAA7AECBAgQIFBQIFMAeGTB+lgyAQIECBAYIiAADGE1KAECBAgQmFtAAJi7PmZHgAABAgSGCDwm0Y2AfAtgyBYwKAECBAhUFBAAKlbdmgkQIECgvIAAUH4LACBAgACBigICQMWqWzMBAgQIlBcQAMpvAQAECBAgUFFAAKhYdWsmQIAAgfICmQLAI8pXCwABAgQIEOgkkCkAeBvg9kW/XUTcLyKeFhE/HREvvPnnj0XE5RFxr4g4b/uHMQIBAgQ2E/jaiHhGRLw+Iv48It4bER+LiM9ExEdPPVG9PyLeERG/GBEPj4g7bPYwPisiBIDlb4M7RcSzI+IvIuJ/17jvw8cj4g8j4ukRcfvl81ghAQL7FmhPUj8RER9c4wnqxgMf057U3hoR7SvEc/e9kGSPLwAkK9gJpnvXiHhVRHziwHk5eH7O9uf/jIirIuLOJ3hcH0qAAIG1BL4kIn41Ij65xZPU6U9g7WrBZacub56z1qP7oEwBwGsA1tuvtzl1teynIqJ9JX/62djm9/9z6lsDP3vq2wWfv94UfBQBAgSOFmgN+oqI+EjHJ6nTn+D+JCIuPPrh/cvNAgLAsrbCV0fENYPOVDtfLWB/47LIrIYAgV0KtBcivXngk9QqCPzXzVcDdrm2bI/12B3UYVWPbX91BeDsu+vBEfHvO6hn+5ZCe42OHwQIEDiRwAUR8Tc7eJI6vdm84EQzrPXBAsAy6v24NV/gd/q52Pb3P7MMOqsgQGAXAnc89arz9+y4+a+e5F7mdQGHllgAOJQl1V8+JSJu2NO5elEqKZMlQGAvAreNiL/c05PUKgS0VzN7ceCZ5RcAzvTI9qd9Nv/VuXpuNjTzJUBgtwKv2XPzXz1ZCQFn1l0AONMj059maP7tXH06Ih6QCc5cCRDYncClkzT/VQh4uSsBny2+APBZilS/maX5r87Uh9yQK9X+MVkCOxFodxL718kCQHvSEgJuKr8AsJNj0PVBZmv+qxDw2q6rNBgBAukFfnzC5r96wvpldw6M9urxlcfsv7bbPlf/MWvzb3un3ar7ouoFsn4CBG4SaO/3//DkDebq4t8OyHQFoHoAmLn5r8Jj+z86/CBAgEA8c/Lmv3rSekXhEOAKQI6DmqH5r64C3CMHqVkSIDBS4J1JAkB74qoaAgSAkSegz9hZmv8qULd7bvhBgEBhgfa/+7W3B62eFDL8+isFXxOQKQA8rOB5ytb82zlvL/p1v42Cm9WSCawEHp+s+a8CyiuLPXllCgDVXgOQsfmvztG9Vk8EfiVAoJ7Ai5MGgPYE1v574nOLlCxTUKt0BSBz829n6Moi58cyCRA4ROCPEgeA9gT2qiJXAlwBOGTz7vmvsjf/1fnZM6OHJ0BgXwL7+k9/2pNPr58VQoAAsK8TcvjjLqH5t/P3tsOX528JEKggcF3HRtyroW8yztJDQKYAsPRvASyl+bdz9u4KT3LWSIDA4QIfWUgAaE9mr17wawK8BuDw/bvrv11S829n5q93DejxCBCYR2D2OwCe9GrAUm8bLADs/8wsrfm3s/Wu/bOaAQEC+xL42wVdAViFhSVeCRAA9nVCbnrcJTb/dl7esl9Wj06AwD4F3rrAANCe2JZ2syABYH+nZKnNv52Tl+yP1SMTILBvgV9YaABYWggQAPZzUpbc/NsZaS8u9YMAgaIClyw4ALQnuKXcLEgA2P0BXXrzb+fjLrtn9YgECMwi8EUR8amFh4AlvCbgskQ1eugsm3uLeVRo/n+1hY9PJUBgIQJvT9Rc2lctm/zMHgJcAdjdYavQ/NsZes7uSD0SAQKzCly8YVPdpBHv83N+LfF9AlwB2M3pqdL8PxYRX7wbUo9CgMDMAu0/1HlvkRCQ9UqAADD+BFVp/i2Ev2A8p0cgQCCLQKZbzW57FSHjlQABYOxJqtT8r42I243lNDoBAtkE3lHkKkALENlCgAAw7jRVav5t7z94HKWRCRDIKnC3iPjvQiHgNYleEyAAjDlV1Zr/S8cwGpUAgSUIPCoibhACpiulANC/JNWa/59GxK37MxqRAIElCTyvUABol0TfEBG3mryAT0hUk4dMbtmmV635XxMRd0hQF1MkQGACgXapcNsX22X6/NdO/u0AVwD6HYpqzf89EXGnfnxGIkBg6QLnnPqK4WXFQsDMVwJcAehz4qo1//b23vP70BmFAIFKAi0E/FLBEPB5ExZZANi+KNWa//s0/+03jREIVBYQAuaovgCwXR0qNv87b0fmswkQIBAhBOx/FwgAm9dA89/czmcSIECgZAj47YiY5dsBmQLATDea0fw9eREgQKCDQMUrAbOEAAHg5BtY8z+5mc8gQIDAkQJCwJE0Q//h8kQvxpzhCoDmP3Q7GpwAgaoCLQRclagh9bgfwb6vBAgA6582zX99Kx9JgACBEwtUDAFv3ONrAgSA9bao5r+ek48iQIDAVgJCwFZ8J/pkAeB4Ls3/eCMfQYAAgW4CQkA3yrMOJACclafcvf3bTX68z//se8K/EiCwAwEhYDyyAHC0sa/8j7bxLwQIEBguIASMJRYADvfV/A938bcECBDYqYAQMI47UwC4dBzDGSNr/mdw+AMBAgT2K9BCwMuLvUVwF+8OeGIi010EgGrN/599z3+/T2wenQCB9QQqhoDfGfwWQQHglr1XsflfcMvy/Y4AAQJzCwgBfesjANzkWa35fyAivqLvVjIaAQIExgsIAf2MBYAo91Y/zb/f+TESAQJ7EBAC+qBXDwC+8u+zj4xCgACBnQpUDAFv6vyagMoBQPPf6XH1YAQIEOgrIARs51k1AFRr/h/0Pf/tDorPJkBgTgEhYPO6VAwAmv/m+8VnEiBAYDoBIWCzkmQKAJdstsQzPkvzP4PDHwgQILAMgaoh4LwtyvekRDcC2jYAaP5bbBSfSoAAgdkFWgi4OlFTu7HDXNsLAzcNAVUCgOY/+8k1PwIECHQQEALWR6wQADT/9feDjyRAgEB6gYoh4M0bXAlYegDQ/NMfZQsgQIDAyQWEgOPNlhwANP/j6+8jCBAgsFgBIeDspV1qAKjY/O969lL7VwIECNQTEAKOrvkSA4Dmf3S9/QsBAgTKCVQMAb+7xmsClhYANP9yR9uCCRAgcLxACwGv6PC2ux5v3dvVGMeFgCcn8rj4mBJr/scA+WcCBAhUFhACzqz+UgKA5n9mXf2JAAECBA4REAJuQVlCAKjW/K+NCC/4u2UP+x0BAgROJFAxBPxBRNzmgFL2AKD5HyioPxIgQIDA8QJCQETmAKD5H7/HfQQBAgQIHCFQPQRkDQCa/xEb2l8TIECAwPoCLQS8MtGr4Xu8g2D17YCMAUDzX39v+0gCBAgQOEagagh4ZqLg094GqPkfs5H9MwECBAicXODciHhNoobY40rA9YnW+8aIuCHRfLetzwdO7ce7nHwb+wwCBAgQ2ESg4pWAbRuVz4/obdDe6ne3TTawzyFAgACBzQWEgP4NrXeDXPJ4mv/mZ9dnEiBAYGuB9u2A1xa63LzkhpppbZr/1kfXAAQIENheQAhwJWCX4UHz3/7MGoEAAQLdBIQAIWAXIUDz73ZkDUSAAIF+AkKAEDAyBGj+/c6qkQgQINBdQAgQAkaEAM2/+1E1IAECBPoLCAFCQM8QoPn3P6NGJECAwDABIUAI6BECNP9hR9TABAgQGCcgBAgB24SA69zkZ9zhNDIBAgRGCwgBQsAmIaA1/7uP3pzGJ0CAAIGxAi0E/LqbBXW/De4mjTXD52j+Y8+j0QkQILBTgVsJAQLAGiFQ89/psfRgBAgQ2I2AEODbAWe7AqH57+YcehQCBAjsRUAIEAIOCwGa/16OowclQIDAbgWEACHg9BCg+e/2/Hk0AgQI7FVACBACWgjQ/Pd6DD04AQIE9iPQQsDr1nhh2OlfLfr9coKD5r+fc+dRCRAgMIWAELCchn6ScKb5T3H8TIIAAQL7FRACaoUAzX+/582jEyBAYCoBIaBGCND8pzp2JkOAAIE5BISAZYcAzX+Oc2YWBAgQmFJACFhmCPgX9/af8ryZFAECBKYSEAKWFQJa8//KqXaYyRAgQIDAtAItBPyGtwim//8DNP9pj5iJESBAYF4BISD3lQDNf96zZWYECBCYXkAIyBkCNP/pj5YJEiBAYH4BISBXCND85z9TZkiAAIE0AkJAjhCg+ac5UiZKgACBPAJCwNwhQPPPc5bMlAABAukEhIA5Q4Dmn+4omTABAgTyCQgBc4WAD0XEhfm2kRkTIECAQEYBIWCOEKD5Zzw95kyAAIHkAkLAfkOA5p/8AJk+AQIEMgu0EPB6dwzc+R0DNf/Mp8bcCRAgsBABIWC3VwI0/4UcHMsgQIDAEgSEgN2EAM1/CafFGggQILAwASFgbAjQ/Bd2YCyHAAECSxIQAsaEgH/zVr8lHRNrIUCAwDIFhIC+IaA1/69b5laxKgIECBBYmoAQ0CcEaP5LOxnWQ4AAgQICLQT8prcIbvwWQc2/wCGxRAIECCxVQAjY7EqA5r/UE2FdBAgQKCQgBJwsBGj+hQ6HpRIgQGDpAkLAeiFA81/6SbA+AgQIFBQQAs4eAjT/gofCkgkQIFBFQAg4PARo/lVOgHUSIECgsEDua3koAAAC2ElEQVQLAb/l3QGffXeA5l/4MFg6AQIEqgkIATddCdD8q+186yVAgACBqB4CNH+HgAABAgTKClQNAZp/2S1v4QQIECCwEqgWAjT/VeX9SoAAAQLlBaqEgNb871G+2gAIECBAgMBpAksPAZr/acX2WwIECBAgcLpACwFvWOBbBK/3lf/pZfZ7AgQIECDwuQJLCwGa/+fW2N8QIECAAIFDBZYSAjT/Q8vrLwkQIECAwNEC2UOA5n90bf0LAQIECBA4q0DWEKD5n7Ws/pEAAQIECBwvcF5EvCXRCwM1/+Nr6iMIECBAgMBaAllCgOa/Vjl9EAECBAgQWF9g9hCg+a9fSx9JgAABAgROJDBrCGjN/54nWokPJkCAAAECBE4kMFsI0PxPVD4fTIAAAQIENhdoIeD3JnhhoOa/eQ19JgECBAgQ2Ehg3yFA89+obD6JAAECBAhsL3DriHjjHq4EXHfqcS/cfvpGIECAAAECBDYVODciXrrDEHBNRFyw6WR9HgECBAgQINBX4BER8dHBQeB1EXG7vtM2GgECBAgQILCtwPkR0Zr0ZzoHgfdFxMXbTs7nEyBAgAABAmMFLrr5XQI3bBkE3hMRT4mI9loDPwgQIECAAIEkAl8WEc+PiD+LiE+uGQbaV/tXRcR9IuKcJOs0TQIECBAgQOAIgS+IiHZl4LKI+NGI+LmIeGFE/GREXBkRD4qI9i0EPwgQIECAAAECBAgQIECAAAECBAgQIECAAAECBAgQIECAAAECBAgQIECAAAECBAgQIECAAAECBAgQIECAAAECBAgQIECAAAECBAgQIECAAAECBAgQIECAAAECBAgQIECAAAECBAgQIECAAAECBAgQIECAAAECBAgQIECAAAECBAgQIECAAAECBAgQIECAAAECBAgQIECAAAECBAgQIECAAAECBAgQIECAAAECBAgQIECAAAECBAgQIECAAAECBAjkEfg/UCFJH+e5evIAAAAASUVORK5CYII=;" vertex="1" parent="1">
          <mxGeometry x="3440" y="340" width="30" height="30" as="geometry" />
        </mxCell>
        <mxCell id="sXrkbcoMHqB5MU0Kjqhi-28" value="" style="shape=image;verticalLabelPosition=bottom;labelBackgroundColor=default;verticalAlign=top;aspect=fixed;imageAspect=0;image=data:image/png,iVBORw0KGgoAAAANSUhEUgAAAgAAAAIACAYAAAD0eNT6AAAAAXNSR0IArs4c6QAAIABJREFUeAHtnQmYHFd1tnu8b9iYQAgOYAMBEsyusBszECGr61bfUzPQmMQL2IACBDAxSZwEMGNWJ/+f8BuzRCGJsM2SdKZuzUhiQIAtMJaNQWAWbxhsY7wvkrxgaxtN/9zRjJA00zM93VXVVfe+eh49I01XV9/7nfec893qWioV/qAAChRagf61/fudEA8+QQ/r5wZGv1YZXVdJtCxMor8L4ujjKtafVUZ/WRkZVYl8Uxm5XBlZr2L5hYrlJmVk415/tykjzb3+2t/tud3ke6MbJvdl97lz36OTnxXrz9rPtmOwY7FjsmOzY7RjtWMutKgMDgVQAAVQAAV6qcAJjfpjQjPwvMAMhCqWd+5sqnJhaKKLlZGrQyN3KyMTezXrvZt3Ef8/MTX2nykj3woTuVAZ+ZhKonfYuU4ahUb9Mb3Uns9GARRAARRAgewUaFb6ZESepGL96tDotwWx/idlojgw8hMVy29K2NjTNhsPKaN/HMYyrIycG8TyVquV1azSrPRlFxj2jAIogAIogAIpKaBH9VEqlsVhos9QsV6ujFymjDxEk5/xdUO7JmKrMnKNMlEjjKMh+zVDbbh27NDQ0D4phYzdoAAKoAAKoED7Ctjvt20jCo2cGho5b+q78Q00+o4bfbuGYHo7a6rW268VrNkKzcBx/Sv6D2o/gmyJAiiAAiiAAvMp0Kz0LR3Vz7TNXiXymakT4uzKdLoZ8bMYWmxRifwgNPLpII5OCczAM+YLLa+jAAqgAAqgwC4Faqtqh4RJ9GdBoj+kjHxt6sx4mnwxmvxC47BBJfLV355EebY9r8DGdleg+QcKoAAKoIDfCixZs+TQye/t7XfMOy9z28Lq3tmjG9snvzqwX9vYSylXqyP9pp/ZowAKoIBHCixavmz/INbHh3H0ERXL95SRcRq+sw1/viMG1hDYeyacM3keAfcu8KgSMFUUQAEvFAiHw6erOHp3aPQqzsr3ttnPZwbs6w/amymFiX5XNYme5kVyMEkUQAEUcEmBeqO+r0qiRTsvHZP1rPBp+p0xoG+cvMojlsX2yJFLOcJcUAAFUMAZBeqN+mFBEr1h6pa49pa27az42Aad2mVgQ5jIl+y5A/a8EWcSh4mgAAqgQBkViJLo0bYgT95mlrvqtdvI2K5707PZfp1kLw1d3KgfUcbcYcwogAIoUDoFbMENjZw2dYke1+N338wwBN1puHXnpYb6TdWx6uGlSygGjAIogAJFVqA6Vj0wHJEaK32+1ij4Vzu7jgxwz4EiVxTGhgIoUGwFmpW+mhl4lTLRfyojmwpe+FlFd7eKdlG/jaGRz6sReSUPNSp2qWF0KIACBVFg8oE6Rs6afJY9TcXFxujfnBK5xT7pcGkSHVOQNGMYKIACKFAMBSYP8cdyokrk68rIDlb7HOp3lIHx0Ogxe+JqvVE/oBjZxyhQAAVQoAcKhI3wD+21+qGRux0t+P6tdjlq01bMp5g/t7ay9pQepB4fiQIogAL5K2Cf5W7vvW+f8c5teFnpY/xkx85nUOi6fcx0/hnJJ6IACqBAxgrsvGZf/kYZuZmiT+OHgVkYiOWmMNFn2JtaZZyO7B4FUAAFslfA3lPdngDFmfyzFHwOl7d1uNxDs/CAvQWxjMiTss9QPgEFUAAFUlagamqvUUZWc1Ifjd/DBp6WsdmqYlkRjMhzUk5PdocCKIAC6Spgv9+fvGGPkSso+jR+GEiVgctsbnFPgXRrFntDARToUgF7SZO9L7oyci1FP9Win9ZKkv048nVLYOQnKomW9a/oP6jLtOXtKIACKNC5AvVG/WAVR+9VRm6n8dP4YSBXBm4NjLwHI9B5/eKdKIACHShgb9xjVyE0/lwLPqt4R1bxaRqlqfsJnMWzBzooZLwFBVCgfQXsc9DtZUrKyB1pFjH2hZGAgW4Z0PcoIxiB9ssZW6IACrSjwKLly/afWvHT+FmFciSi0AzsNAL2KF07uc02KIACKDCrApN37TO6roz8khVatys03g9DOTJgH0CURMvqjfq+syY3v0QBFECBVgrUkihSRq6maOdYtAu9skSHkubCTycvH2yV6PweBVAABaYVCIb1nyoj3ylpsePwNCYCBmZnYG2QRM+fznN+ogAKoMAuBarx4BNVrJdz5z5Wupg/ZxnYESZyoR7Vj9+V+PwDBVDAXwUWN+pHTN2rfzOF39nCz6p49lWxr7psCo0+057c62/lY+Yo4LMCzUrf1N377qLx0/hhwEcGohuU0XWfyyBzRwHvFKgO6xcoI5dR9H0s+swZ7mcw8C0eOORdG2DCvilwQqP+GPuYUWVknCI4owj6ejiYefP1gGVguz0HqNqoP863ush8UcBtBZqVPpVEb1FGNtD4afwwAANzMHCvSvTJbhdEZocCnigQDodPV0a+NUfCswJkBQgDMLA3A19bmkTHeFImmSYKuKWAfUpYGEdDysgWmj8rPhiAgQ4YeNg+X4C7CbrVG5iN4wqESdSvYvlFBwm/9yqA/7MyhAHfGYjle5wk6HjTYHrlV8A+EnTqmv4dNH9WfDAAAykysN3WFntksfyVkhmggGMKBLE+nlU/BT/Fgs/K3/eV/2zzt0cWY/1qx8on00GBcipQHaseroz8uzIyQfHHAMAADOTAwA6VyGf0qH5UOasmo0YBBxQIk+jFrPop+DkUfI4GzLYa5nc3h2bgOAdKKVNAgfIoYM/KtWfnKiPbKP4YABiAgR4yMHluAM8VKE//YKQlViCIB49WRi7tYcKzGmTlBwMwsCcDsXyvmkRPK3FpZegoUGwF7IM7lJGNNH9WfDAAAwVk4AGVRMuKXUUZHQqUTIGdJ/rpiwqY8HuuAlgVoQcMwICJGmq1OrJkZZbhokDxFAjNwMuU0TfS/FnxwQAMlIaBRG6xlyYXr6IyIhQogQL2pBpl5GM8uY+iX5qiz+qf1f+eDIyrRH+4f23/fiUouQwRBYqhgH0kZ2iiiyn8NH8YgAEHGLg0aAR/UIzqyihQoMAKVGP9CmXkdgeSntXQnqsh9EAPnxm4zX6dWeDSy9BQoLcK2DNolZGtNH9WfTAAAw4yYO8ZcFZvqyyfjgIFU8A+YEOZ6D8dTHifVzzMnRU/DMzKgL7IPrisYGWY4aBA/gqEjfDJgYm+T/NnxQcDMOARA1fVVtaekn/F5RNRoCAKVJOoqoxs8CjpWRHNuiKi8ZEDXjJwnxqWEwpSjhkGCuSkQLPSN3Uv/x0UPi8LH0YIIwQDOxmwTzE9d2hoaJ+cqi8fgwK9U6DeqB8WxLKSxk/jhwEYgIGdDASxJEvWLDm0d5WZT0aBjBU4IR58gjKynqSn8MMADMDAngwERn5SjQefmHEZZvcokL8Cygw8WyVyC0m/Z9KjB3rAAAzsxsBtQRI9P/8KzSeiQEYKqFgWKyP37wY53//xHTAMwAAMzM7Ag/YE6YzKMbtFgfwUUEafroxso/mzyoEBGICBthnYHhr99vwqNZ+EAmkq0Kz0hXE0RMK3nfCshmZfDaELunjLQGjkPK4QSLMxsa/MFaiOVQ8ME/kSzZ/mDwMwAAPdMhA17N1SMy/cfAAKdKvACY36Y5SR75D03SY974chGICBKQZiWVdbVXtst/WZ96NAZgrYW1sqE91A0lK4YQAGYCB1Bq4L4sGjMyvg7BgFOlVg6ah+pjJyK0mfetJ7+/0nLMESDOzJQGDk14EZeEandZr3oUDqCtSGa8cqI3eQrHsmK3qgBwzAQAYM3KWH9XNTL+TsEAUWqoBKokXKyH0ZQM7Kl7O/YQAGYGB2BjYGI/KShdZrtkeB1BRQI/JKZeQBmj+rHBiAARjInYGHVKxfnVpBZ0co0K4CFjxl5CGSPvekZ0U0+4oIXdDFRwYeriXRknbrNtuhQNcKBGYg/O3jfDfT/Gn+MAADMNBzBraGsQx0XdjZAQrMp4Ay+o3c2rfnCe/jSoc5s8KHgdYMjIdGTp2vfvM6CnSsgEr0ycrIdhw/BgAGYAAGCsfAuEqit3Rc4HkjCrRSwIKljEyQ9IVLelZFrVdFaIM2vjEwERo5rVUd5/cosGAFwlher4yM0/xp/jAAAzBQeAbGgyT68wUXet6AAnsrEJia8J1/4RPet1UO82VlDwNzM7AtHJHa3vWc/6NA2wqoWBZztj/NnxUfDMBAKRnYWk2iatsFnw1RYFoBNSIvV7H8hsQvZeKzOpp7dYQ+6OMLAw8HsT5+uq7zEwXmVSBMohcrIw/S/Gn+MAADMFB6Bh6oxbUXzVv42QAFghF5jjKygaQvfdL7ssJhnqzmYWB+BjZVh/UL6HAo0FKBcDh8ujJyJ82f5g8DMAADbjEQGrm7Nlz745YNgBf8VaC2svYUZeQ2kt6tpCeexBMGYGAXA4ncEsSDR/vb6Zj5DAUGzMDvhUau3wXJ/IeTOOSGRjAAAzBQTgauU6vVkTMaAb/wT4F6o36AMnIJzZ9VAgzAAAx4w8B3qmPVA/3reMz4dwo0K33K6ItIem+SnhVbOVdsxI24ZcHAVyrNSt/vGgL/8kqB0MgnaP40fxiAARjwloFzvGp6THanAlMP98nCVbJPViswAAMwUA4GJoIkejN90SMF1LCcwGN9vXX8FOZyFGbiRJzyYmBbYPRrPWqB/k61Nlw7VhnZxCE/DAAMwAAMwMAUAw/oYf1cfzujBzPXo/oolcgtJD1JDwMwAAMwsBcDt1XjwSd60Ar9m2K9UT9MGblqr4DndYiJz+FwJgzAAAwUnoHoh0vWLDnUvw7p8IyHhob2CWJZSfPH8cMADMAADMzNQBRzeaBDhkAZOXvugJMQ6AMDMAADMLCTgcDI3zvUAv2dij27UxkZB2yKGwzAAAzAQJsM7AiMXupv53Rg5vahD8rIfW0GnO/nCv/9HMULlmEABnJjYIN9SJwDrdC/KfSv6D9ImeiHJEtuyYKBwkDBAAy4xsBV9Ub9YP86aMlnrGJZQfOn+cMADMAADHTDQJjIhSVvh34NX8XRu7sJOO+lYMAADMAADOxiIImW+dVFSzrb0Ay8TBnZuitwHJJz7ZAc84FpGICBvBnYVo31K0raFv0Yth7Vj1dGbqP549xhAAZgAAZSZuCOE+LBJ/jRTUs2y0XLl+2vjFyacsDzdpl8HisbGIABGCguA5f0r+3fr2Tt0f3hKiMfo/nj+GEABmAABrJkIEj0h9zvqCWaYWgGjuNmPyR9lknPvuELBmBgioHtakReXqIW6e5QFzfqRygjvyI5SU4YgAEYgIFcGIjlpupY9XB3O2tJZqaM/nIuAS/ud1J8X0hsYAAGYCBnBgIjF5SkTbo5zNDIqTR/HD8MwAAMwEAvGAiS6M/d7K4Fn5W9R7My8kAvgs5nUmxgAAZgAAaUkfuXJtExBW+Xbg3PXoahYllHApKAMAADMAADvWVAf7feqO/rVpct8GzCOBrqbcBJOPSHARiAARjYxcD7C9wy3RlaLa69SBnZBni7wOPkn5xP/oE92IMBGNiLge3VuPZSdzptAWdiL7tQRt+4l/A0QBogDMAADMBAbxmI5Rf1Rv2wArZON4YUGvk8zR/nDQMwAAMwUEgG4uh8N7ptwWZRNbXXKCMThQw6zru3zhv90R8GYKAYDOywd6YtWPss93CWrFlyKIf+cfy+mb9aMtA8Zey05lvWLCvl39O+/tbmwGidxlSMxkQccopDaOT6/hX9B5W76xZo9IGRz/lW/Jmvn4bn9K+/rTl8g2ne+tBtzR0TO5ou/Nm0ZVPz4lsuaZ516T/ShHJqQtSP3tYPe6VagVpoeYcSJlE/h/57CzPFJHv9wyRqfuX6/2lu27HNhZ7fcg5X3PG95omrTsIIYARcZ2Brbbh2bHk7bwFGXm/UD1ax/IIGlH0DQuPeaayTwaZtjL78ue2h25snj73Z9QbA/Dw3OaGRK4aGhvYpQCst5xCUkY/SmHrXmNA+H+1Hf7nSl96/a57XbriuKSODNEnPm6TzNSaO3l3O7tvjUS8d1c9URrY4DwgFwOsm8K6Lz2hOTEzsaow+/ePTV33O69hT2/Ix2D3VOZbf2OfW9Lidluzjm5U+ZeSSngaOxkxxzoGBy25b51PP32Oudz98TzM0EZzlwBm1tHdmIzR6rGQduLfDDWJ5K8D2Dli0z0d7e4nc5vHNezRF3/7znkv+GgOAAXCegSCWv+htVy3Jp9dW1R6rjGygCeXThNC5dzq/++L3+tbvZ8z3kz/8lPPFnxzrXY4VR3t9j1qtjixJG+7dMFWslxcnaIBLLLJj4IPrhmY0RN9+8YWrL8IAcATADwa4TfDcxiKMwxcqI+M0neyaDtoWR9tzLv+ob/1+xny/dN1X/Cj+NHnibGQ8NAPPm7sL+vpqs9Jnr5ukQRWnQRGLbGOBAWg2MQDZMkYOF07fyyrNSp+vbb7lvEMjpwFr4WDFtWe4csMAYACoef7VPE4I3MsGLG7Uj1BG7iIZ/EsGn2OOAcAA+My/x3O/vd6oH7ZXG/T3v0Gs/8ljGFhlZ7jKLjJXGAAMQJH5ZGwZLsgS/WF/O/5uM5cReZIy8giwZQibpw226ExhADAARWeU8WVWlx8JG+GTd2uFfv5TGfkKkGUGGUcXCmx+MAAYAGqfv7UvMHKBn11/atZhEr2YR/36mwC+Fz8MAAbA9xzwfP47gmH9p96aAGX0dz0HgBV6gVfoWbOJAcAAZM0Y+y/2Aisw+tteGoBaEkXAWWw4iU+28cEAYADIsWxzrAz6BmYg9MoE1Bv1fZWRq8sQHMZIgmbFAAYAA5AVW+y3VHXrp0NDQ/t4YwKCJHozgJYKUL6qyOCrCgwABoA6SB20DHhzc6B6o36AMvpGwAd83xnAAGAAfM8B5j/VB2K5yfZG548ChIk+g6DT/GFAmhgADAB5QC2cZiA0+u1OG4Ala5Ycyi1/AX4aeN9/YgAwAL7nAPPfox/YWwQf7KwJCIz+WwK+R8D5bj2D79bLwhgGAANQFlYZZz51OzDyHicNQG1V7ZDQyN2AlA9I6Fx8nTEAGADytPh5mnOM7nDyKICKo/flLCSra49X12VgDQOAASgDp4wxZ5MSR+926ihA/4r+g5SR2wEpZ5AwAIU2gRgADAA1kZo4CwNuHQUIjPz1LJMsdHFmvCRm1gxgADAAWTPG/stZx8JEv8uJowDVseqBrP7LCSHFI9u4YQAwAORYtjlWVn0DI79etHzZ/qU3AaHRbytrEBg3yZklAxgADECWfLHvctcve8fcUhsAe39jZeTngFhuEIlfNvHDAGAAyK1scssRXa8r9TMCwlhe70ggOF+BEwpTZwADgAGgPmIA5mIgMDUp7VGA0MgVc02O14DfZwYwABgAn/ln7m3V/ytLaQCqpvYaAtxWgFNfWaJ7OXTHAGAAyNVy5Gov4xTE+vjSmQBlZHUvReOzSayiM4ABwAAUnVHGV4Q6Go2UygCEw+HTlZEdwFMEeBhDUTnEAGAAisom4ypU3dxRTaKnlcYEhEY+DUCFAoivGQp4EiMGAANAnaROtsNAaOS8UhiAKIkerYw81M6k2Ab4fWYAA4AB8Jl/5r6g+v/g4kb9iMKbAB75u6CgsjIv4Mo8r8KEAcAA5MUan1P+uhwafWahDUC9Ud9XGfkVsJUfNmKYfQwxABgA8iz7PHNG41huKvSNgcIRqTkjtscrU2KYT1HCAGAAyLV8cs0VncNhCQp7FCA0eswVoZkHiZk1AxgADEDWjLF/t+pYEMvKQhqAIB48WhkZBzi3gCOe2cUTA4ABIL+yyy9Htd2xNImOKZwJUEbOdVRwTtTj65BMGMAAYAComRiAhTIQxtFHCmUA6o36AaGRuxc6EbYHfp8ZwABgAHzmn7l3XP/vXLR82f6FMQFhLCcSzI6DmcnqkngUPx4YAAwAeVr8PC1ijIIkel1hDEBgZE0RRWJMJFeRGcAAYACKzCdjK3T9XF0IA1CNB5/IyX+FBoUjDAU9hwEDgAGgyVI7O2Rgux7VR/XcBASJ/kCHE6AxFbQxEc98ihIGAANAruWTa47qfFZvDUCz0qdi+YWj4mJQMCiZMoABwABQOzEAXTDw80qz0tczE1AzA6/qYvCZFlfGRWIVnQEMAAag6IwyvoLX0RF5ec8MgIr1fwBIwQFhFV9Yo4kBwABQP6mfXTLwbz0xANWx6oHKyKYuB1/Y4sy8SMysGcAAYACyZoz9O1/HNtr78ORuApTRg8DlPFwYtAyPoGAAMADUUGpotwzYh/DlbgDCWIa7HTjvB36fGcAAYAB85p+5p1b/v5KrAaiOVQ9XRh4hgKkFkJV2hivtonKKAcAAFJVNxlWq2v6wHtWPys0EhEZOA5BSAYLBKKDBwABgAKij1NE0GAji6JTcDIBK5OtpDJp9AL/PDGAAMAA+88/c06v/odGrcjEAURI9WhnZSvDSCx5a+qklBgADQO77mfsZxH3L4kb9iMxNQGjk1AwGzyHqAh6iJs7ZFicMAAaAHMs2x3zSN4jlLzI3AMrIqE+iMlcSNCsGMAAYgKzYYr8+1q0oztQA1Bv1wzj730ewmHMWBRUDgAHIgiv26W29enjJmiWHZmYCwlhOBC5v4eJrmpS/psEAYACop9TTNBkIY3l9ZgZAGflKmoNlX8DvMwMYAAyAz/wz9/Trf5jIhZkYgP61/fspIxsJWvpBQ1M/NcUAYADIfT9zP8O4b6g36vumbgLCJOrPcNAcXk758DKxKn5hwQBgAMjT4udp2WJUjfUrUjcAKtH/t2xCMF6Sq8gMYAAwAEXmk7GVs34GcfTx9A2AkZ8DRDmBIG7FjBsGAANAbhYzN0sel5+magCqSfS0kgvCVwx8xVA4BjAAGADqKgYgCwaWJtExqZmAwMh7shgk+wR+nxnAAGAAfOafuWdX/4NY/jI1A2AfNECwsgsW2vqpLQYAA0Du+5n7Wcc9jGU4FQOwaPmy/ZWRB7IeMPsnEXxjAAOAAfCNeeabW53flMrlgEGsjydouQWtcN9TE/vsYo8BwACQX9nll+/aVuPaS7s+ChDG0Ud8F5L5k6RZMIABwABkwRX7pF5NMhBHH+zaAKhYvgdQAAUD6TOAAcAAkFfp5xWa7tL00q4MQHWsergyMo6guwTlED2XE6bGAAYAA0BtpbZmyMC2rp4OGA5LkOHgUiukjJEkKiMDGAAMQBm5ZcwlqrexLO74KIAyci7BLlGwWZ2XylRiADAA1Ffqa6YMJPrD3RiAyzMdHA2rVA0LFtItVhgADAA5lW5OoeeeegZGf7sjA1BbVTtEGdmKoHsKih7okRYDGAAMQFossR/qUgsGtvSv6D9owSZAxbK4xQ5ZtXLkAgZSYAADgAGgxtK4s2bA3stnwQYgSPSHsh4Y+wd+nxnAAGAAfOafuedW/9+/YAOgEvk6AcotQKyoU1hRl41XDAAGoGzMMt7y9YQglpULMwDNSp8ysoFgly/YxKw8McMAYADI1/Lka4ljdW+lWelr2wTUhmt/XOLJspr2cDVdRl4xABiAMnLLmMtnWqpJ9LS2DYAy+k0EuXxBJmblihkGAANAzpYrZ8sar9Dok9o3ALH+bFknyrhJqLIwgAHAAJSFVcZZ8roaR+e3bwCMrCfgJQ84XwMU/qsgDAAGgDpLnc2DgcBE32/LANQb9QOUkS15DIrPAH6fGcAAYAB85p+551r/tyxavmz/eU1AdVi/gMDkGpjCr1ThIRseMAAYAHIrm9xC15m6BiPynHkNgDL6dMSbKR6aoEnaDGAAMABpM8X+qFOtGAiNnDq/AYij81vtgN8DFwykxwAGAANAPqWXT2g5j5aJ/mQbBkDWIeQ8QnKCHV9bpMAABgADQK2l1ubFwLxPBhwaGtpHGXkorwHxOcDvMwMYAAyAz/wz99zr/6Y57wio4sGnEpTcg8JqOoXVdBm5xQBgAMrILWMub4+oxoNPbPk1QDgiNYJb3uASu3LFDgOAASBny5WzpY/XsJzQ0gAoI2eVfoKeriaJW/kKCQYAA0Deli9vyxyz0OgzWxqAwMgFZZ4cYyeZysQABgADUCZeGasD9TXW/9HSAKhEfkCQHQgyR0FKcV4FBgADQL2l3ubJQGjkitkNQLPSxxUAwJgnjL5/FgYAA+B7DjD/3HvOA7NeCSAj8iSCkXswSrFShYtsuMAAYADIrWxyC11b66pH9VEzjgJUTe01iNZaNLRBm7QZwABgANJmiv1Rp+ZjIIj18TMMgEqiZfO9kdeBCwbSYwADgAEgn9LLJ7RsV0t9+gwDEMT6nxCwXQHZDla6ZwADgAEgj7rPIzRcsIYfm2EAlIlihFywkHyHzxUHHTOAAcAAUHOpufkzoP9nhgEIjPwk/4EQfDT3lwEMAAaA/Pc3/3sY+/UzDACXALoN4tu/+VfNf1n//5r/9bMvNFdcfQF/C6DBt265uOn7nyvv/EHz/B99hr8F0OCT689rfmjdOc2Tvvqmjo9q9bCpMeb2j8bev4cBGDADv0fg3DMAoYma5175z81bHrjF9z7D/FEABdpUYGJionnNfdc2z153Dk21/aZaKq2qY9XDd5mAIImejwFwywC8bvTE5uW3X9FmyrMZCqAACsxU4Du3XtocHH1DqZobvaydXjbw7F0GgKcAtiNYebaRkcHmz+69emY28xsUQAEUWKACtpbIyOswAQ4dDagmUXWXAVCxvBPXVJ4GP1+s4huSBaY4m6MACqBAawVW/nI1BsAhAxDE8pe7DEBo5BPzNRVeL4dBOP3ry5rbd2xvncm8ggIogAILVGB8Yrz5jm++CxPgjgn46C4DoIy+iAZfjgY/X5y+fN1/LzC12RwFUAAF5ldg9JerMACOGIDAyAW7DEBooovnayy8Xg6DcMPGG+bPZLZAARRAgQUqcOdv7sIAOGIAlIm+scsAKCNX0+DL0eDni9ODWx9cYFqzOQqgAArMr4C9PNCeYDxfDeL14vcSe+O/3Q3AvQSt+EFrJ0YTzYn5M5ktUAAFUKADBU4eezO4P+80AAAgAElEQVQGwI2jAHdNGoD+tf37KSM72mkubFN8k9BBTvMWFEABFGhLgVPGTsMAuGEAxuuN+r4VPaqPorEXv7G3G6O2spiNUAAFUKADBTAA7vSKaqP+uEp1WL+g3ebCdsUPfgc5zVtQAAVQoC0FMADF7wHt9+mBZ1cCo1/b/htcmrybc2kri9kIBVAABTpQAAPgUN+I9asrYSwnYgDcCWoHOc1bUAAFUKAtBTAA7vQKZfRgxd4SEAPgTlDbymI2QgEUQIEOFMAAuNMrVBK9paKMnIUBcCeoHeQ0b0EBFECBthTAALjTK1Qcva8SxNHHMQDuBLWtLGYjFEABFOhAAQyAO70ijKOPVAIjn8MAuBPUDnKat6AACqBAWwpgANzpFSqOzq8oo7+MAXAnqG1lMRuhAAqgQAcKYADc6RXKyBftSYArMQDuBLWDnOYtKIACKNCWAhgAd3pFEEtiTwL8FgbAnaC2lcVshAIogAIdKIABcKdXBEbWVFQs6zAA7gS1g5zmLSiAAijQlgIYAHd6hTJyqT0CcBUGwJ2gtpXFbIQCKIACHSiAAXCnVygj6yuhkesxAO4EtYOc5i0ogAIo0JYCGAB3eoUyco29DPDXGAB3gtpWFrMRCqAACnSgAAbAnV6hjNxsLwO8BwPgTlA7yGneggIogAJtKYABcKdXKCN32XMANmIA3AlqW1nMRiiAAijQgQIYAHd6hTJynzUAD2IA3AlqBznNW1AABVCgLQUwAO70CmVkkzUAD2MA3AlqW1nMRiiAAijQgQIYAHd6hTLykDUAWzAA7gS1g5zmLSiAAijQlgIYAHd6hTLyiDUA2zEA7gS1rSxmIxRAARToQAEMgDu9QhnZZg3ABAbAnaB2kNO8BQVQAAXaUgAD4E6vUEZ2YACMUwFtK4nZCAVQAAU6UQAD4FS/mDQAfAXgkAnoJKl5DwqgAAq0owAGwCkDMPkVACcBYgDayX22QQEU8FwBDIBTBmDyJEAuA8QAeF7WmD4KoEA7CmAAnDIAk5cBciMgDEA7uc82KIACniuAAXDKAEzeCIhbAWMAPC9rTB8FUKAdBTAAThkAeytgHgbk0mWQ7SQx26AACqBAJwpgAJwyAHfxOGCHVv/WyPAHBVAABbJSAAPglAG4uRIaud6lFbDvc8kq8dkvCqAACmAAnDIA19gbAV3le9N0af6UKBRAARTISgEMgFMGYH1FxbLOpQbo+1yySnz2iwIogAIYAKcMwKX2CMC3fG+aLs2fEoUCKIACWSmAAXDHAARG1lSCWFa61AB9n0tWic9+UQAFUAAD4JABiCWxlwF+2fem6dL8KVEogAIokJUCGAB3DIAy8sWKSuQzLjVA3+eSVeKzXxRAARTAADhkABL5lD0H4GO+N02X5k+JQgEUQIGsFMAAuGQA9IcrYRL9nUsN0Pe5ZJX47BcFUAAFMADuGIDQ6DMrKomW+d40XZo/JQoFUAAFslIAA+CSAZDTKkESvcGlBuj7XLJKfPaLAiiAAhgAhwxALAOVwOjX+t40XZo/JQoFUAAFslIAA+COAVCxfnUlNAPPc6kB+j6XrBKf/aIACqAABsAdA1Abrh1bCRrBH/jeNF2aPyUKBVAABbJSAAPgkAFYVXtspd6o76uM7HCpCfo8l6wSn/2iAAqgAAbAGQOwfWhoaJ+K/aOMvsfnpunS3CcmJqhSKIACKJCJAqeMvbnpUr30eC53TDb/nQZAfuaxEE4BvWnL/ZkkPjtFARTwW4GJ5kRTRl7nVL30t+/pH+9uAHgioHHj0M41913rd5Vi9iiAApkocM/D99D8HekTk08CnHYAyuiL/HVCbjT+6fh94eoLM0l+dooCKOC3AqtvHMMAOGIAlIm+MN3/K0EcfXy6gfCz3IbgpK++qbl5+2a/KxWzRwEUSFUBe27Ruy9+LwbAFQOQ6A/vMgAqid5B4y934989fiuuviDV5GdnKIACfivw9ZvX0Pxdaf5GmqHRb9tlAAIzEO7eQPh3uc1AaKLmpbdd5nfFYvYogAKpKHD9xp83B0brGACHDEBg9NJdBoC7AZa74c9m2GrJQDP5xWjTnrnLHxRAARToRIF1t1/efN3KE2n+DjV/2y+qI/KsXQZArVZHztZE+F35jcEZl5zZvPz2K5pbxrd0kv+8BwVQwDMF7Pf91224vnnO5R+l8TvW+Kd7enWsevguA2D/oYw8NP0iP8vf+PeOoT2E966Lz2h+cN1Q8xNX/jN/C6DB125e41lrmTndS369tnn+jz7D3wJo8K/rz2ueve6c5snc7Md147Npj+Zv/xMY+cneTYP/u2cEiGlxYmobn+9/rAYwWRwmiYUXsVg/wwCEsQwTfC+CT8EtyGE9DEBzcuVP3aHuwEB+DASJ/PcMA6CMnEsQ8gsCWqM1BgADQB2gDvSAgY/OMAD2usAeDITVaEFWo8Q+/0KEAcAAkHf5553vmodGTpthAFSsX+27MMyfZMyTAQwABiBP3vgs6tskAyPyyhkGoBoPPhFAAAQG8mMAA4ABIN/yyze03qm1HtVHzTAAlWalTxl5EJEAEgbyYQADgAEg1/LJNXTepfMDttfPNACTlwJG30eoXUJxfgLnJ2TKAAYAA0C9pd7mzMDlszZ/+0v7iMCcB5NpgWUuJFeRGcAAYACKzCdjc69+hkY+39IAhEn0dwTdvaAT02LGFAOAASA3i5mbrsYlMPLXLQ0ATwUERlfBL+K8MAAYgCJyyZjc7QO1JFrS0gDUVtaeQvDdDT6xLVZsMQAYAHKyWDnpejzs1X4tDcDQ0NA+XAkAkK4nQVHmhwHAABSFRcbhRd3f2PIKgGlXoIz+LjB4AQMnYPb4KgcMAAaAWkutzZGBS6b7fMufKpFP5TggmlCPmxCx7l0BwgBgAMi/3uWfb9oHJvqXlo1/+gV7n2DfhGG+JGEvGMAAYAB6wR2f6Wm9S/TJ032+5c/QDDwPQDwFhKMRuR6RwgBgAKi11Nq8GKgN145t2finX1i0fNn+ysjmvAbF55AAvjKAAcAA+Mo+88697m/uX9u/33Sfn/OnSuQHBCj3AOW6+iS+vY8vBgADQB72Pg89icGVczb93V8MjXzaE1Fouhz27xkDGAAMAHUWA5AHA6GR83bv8XP+O4ijU/IYFJ8B/D4zgAHAAPjMP3PPr/4HSfTnczb93V8MzMAzCE5+wUFrP7XGAGAAyH0/cz/vuNu7/O7e4+f+d7PSp4zcm/cg+TySwScGMAAYAJ94Z669qe+hkbvnbvizvBoaPUbAehMwdPdDdwwABoBc9yPXexvnaGSWFj/3r5SRs3s7aMBAf7cZwABgAMhxt3O8CPENE/0Pc3f7WV6tmtprijB4xkCCuMoABgAD4CrbzKs4dTs0A8fN0uLn/lW9UT9YGdlKIIsTSGLhViwwABgActqtnC5gPDf3r+g/aO5u3+JVFcu6Ak6oZ9dtowXJmiYDGAAMQJo8sS/q0ywMrG3R3uf/dRBHH59lhzRgbp4DAykwgAHAAFBfadpZMhDG0dD8nb7FFoHRS7McHPsGfp8ZwABgAHzmn7lnX//tuXwt2vv8v9aj+lHKyHYClX2g0Ng/jTEAGADy3r+8zzHmW2uraofM3+nn2CI0ckWOA+bQcgqHlolXOYoKBgADQK6WI1fLGKfA6G/P0drbe0kZOaeMk2fMJFbRGcAAYACKzijjK3UdfX97XX6Orew1hEBQagg4qlLQoyoYAAwAtZXamhUDYRK9eI7W3t5L/Wv791NGHshqkOyXBPCVAQwABsBX9pl35nV/Y71R37e9Lj/PVsrIKAHLPGCs1Au6Us+KfQwABiArttiv9/X6f+dp6+2/HCb6XQDlPVAYlJQNCgYAA0Bdpa5mwkASLWu/w8+zpYoHn5rJIFMuqIyRZCoTAxgADECZeGWs5amvQTx49DxtfWEvKyPXAkB5ACBWxY8VBgADQJ4WP0/LFyP944V19za2Do38c/mEAC5iVlwGMAAYAPKzuPlZ4th8tI2WvrBNglgfX2JB+P6ar1sKxwAGAANATcUApM1AaAZetrDu3sbW9pICZeS+tAfL/kgAXxnAAGAAfGWfeWdV9/U9qV3+t7cvUEa+SOCyChz79Y0tDAAGwDfmmW/WdT76wt59O7X/K6PrBDDrALJ/XxjDAGAAfGGdeeZV1/Vgag1/7x3ZJwspIw8TzLyCyee4zBoGAAPgMt/MLff6/fCSNUsO3btvp/r/IJaEwOYe2MKdwAYD3TOAAcAAkEfd5xEaTmsYNVJt9rPtTCX6ZASfFpyfsNA5AxgADAD503n+oN2e2oWxnDhbz071d3pUP0oZ2Yz4e4qPHuixUAYwABiAhTLD9tSZFgxsro5VD0+12bfamUrkqy0GwaFqrreHgTYZwABgAKijNPR0GIhGWvXr1H+vjH5TOoMm+OjoLwMYAAwA+e9v/qcZ+yCWv0i90bfa4dTXAI+kOQH2RSL4xgAGAAPgG/PMN5M6/3C9UT+sVb/O5PfKRA2CmUkwOYTe5iH0svOHAcAAlJ1hxt/7HhAm8qVMmvxcO60lUUTwex98YlDeGGAAMADkb3nztzCxi7Waq1dn8lq9UT9AGdlQGBE8WTWitzsFAwOAASCf3cnnHsVyg+3FmTT5+XYaGvl8jybNYXIMT+kZwABgAKifGIBuGAiMfG6+Pp3Z62pEXtnN4Hkv8PvMAAYAA+Az/8y9+/pfjWsvzazBt7NjZeQ6Atl9INHQPw0xABgA8t6/vE8r5qGR6yvNSl87fTqzbVQs/5jWhNgPyeATAxgADIBPvDPXdOt7YPTfZtbY291x2Aj/UBkZJ7jpBhc93dcTA4ABIM/dz/OMYrz9hHjwCe326Uy3U0a+ltEkS3+iF7qQ4K0YwABgAFqxwe+pG3MxEMSyMtOmvpCdK6Prcw2W14AZBmYygAHAAJAXM/MCTebXJIxlYCE9OtNtp+4JcBeBmz9waIRG0wxgADAA0yzwk7qwAAbuWLR82f6ZNvWF7jyIo48vYAIc2uc6fu8ZwABgAKiZNP4OGDhnof058+3DRvhkTgYE5g5g9tYIYAAwAOQLNXOBDIwH8eDRmTf0Tj5AGVm9wMl4W/zRicTHAGAAqAPUgYUxEI100ptzeU9gBsKFTYbgo5e/DGAAMADkv7/530nsA6OX5tLMO/mQeqO+r4rlpk4mxntIBN8YwABgAHxjnvl2U+f1jUNDQ/t00ptze0+Y6DMIcjdB5r2+8IMBwAD4wjrz7L6u296aWyPv9IOWrFlyqDJyHwHvPuBo6LaGGAAMADnudo6nGN8HFzfqR3Tal3N9X2jkEylOnBMFuWTQSQYwABgA6iQGoE0G/jXXJt7Nh+lR/XhlZHObE3OyuDN3Ens+BjAAGID5GOF16sjk5fXx4FO76cm5v1fFsgJ4gRcGWjOAAcAAkB+t8wNtprWJ4twbeLcfGIzIc5SRCYI4HUR+wsKeDGAAMADkxJ45gR4z9QjNwHHd9uOevJ+nBM4MJoCjyTQDGAAMwDQL/KQuzM6A/m5PmncaH6piWTz7pAg2usAABgADQB2gDszFgL25Xhq9uGf7CBP50VwT5DUSwFcGMAAYAF/ZZ95t1f1rC3/jn/mcRRBHpxDstoLN1RCeXe6IAcAAUBupja0YsL1zvv5a+Nftc4uVkVtbTZLfkwC+MoABwAD4yj7znrfu/8r2zsI3+HYGGBh5DwGfN+AcAeAIQNO3P9YEURuoDTCwFwNJ9I52emsptulf0X+QMnIbQd4ryJ41POK/Z/w5AsARAHJiz5xAD2kGRn5dHaseWIrm3u4gVRy9l+ACOwz8jgEMAAaAfPhdPqDFlBaxvLPdvlqa7aaOAtxOkAEeBnYygAHAAJAL1MO9GLij3qgfXJrGvpCBhkafuddk+f6PrwG8ZQADgAGgHmIAdmcgMPJXC+mppdq2tqp2iDJyx+4T5t8kgK8MYAAwAL6yz7xnrfu32iPlpWrqCx2siuWdBH/W4Hu7EvaVBwwABsBX9pn3zB4QxPLWhfbT0m0/dV+AXwLATADQxC9NMAAYAHLer5xvHe/ohv61/fuVrqF3MmCV6JNbCwEQaOMHAxgADAC57keuzxfnIIne0EkvLeV77P2NlZGr5hOF10kOlxnAAGAAXOabubVXvwMjPyn9Pf8X6kRUrDWAtAcIOrmpEwYAA0Buu5nbC4lrNYmqC+2fTmyvTPSNhQjFtiSLSwxgADAALvHMXBZen0MTXexEM+9kErXh2rHKyHbAWTg4aFZ+zTAAGADyuPx53EUMx4MReU4nvdOZ9ygj/9aFgFw6x42ESssABgADQO3z2ADE0fnONPJOJ1Jt1B+njGwiETxOBE9NDAYAA0Dd87bubaytqj22077p1Pu4RbC3SVDa1XsahRsDgAFIgyP2UcL6GUfvdqqJdzMZe3Og0Mj1gFxCkD1dvafBKgYAA5AGR+yjdHXzWtvzuumZzr1XxVoBculA9noF3y2vGAAMQLcM8f7y1czA6KXONfA0JqSMfA2gywc0MessZhgADAC501nulFW3IJaVafRKJ/ehzMCfKCPbyhpcxu1XMncbbwwABqBbhnh/qWrO1sAMPMPJ5p3WpEIj5wF1qaDma4AOz4P4l/WfbPr+x2pAvpPvnjDwf9Lqk87u54RG/THKyL2eAEHx67B5usDH+y872/f+37QauBBL5oCJmYeBuxY36kc427jTnFgQR6fMIyZFw+PG6Qobb1x9UnN8YtxbE7B9x3jzxFUnkcvksvMMhLGcmGaPdH5fodGrXCn0zIPVQSsGfnT3Vd4agB/e9SPnC3+ruPN7j2pCIl91vmGnPcEgHjxaGXmIRPEoUTxcCZ259m+bE80JL03A33z7LAyAh8x7VtMflBF5Utr90Yv9qTh6r2ewUBA9LIirblztnQFY+cvVsO4h677V88DIX3nRrLOY5NDQ0D4qlnW+QcN8/TrqoZPB5ndvu8wbE7Du9subMjKIAcAAOM1AaOQK28Oy6I3e7NM+LlEZ2UpT9Ksp+hbv0ETN//rZF5qbt2921ghsHt/cvOCai5phEjld+H1jl/nOWpu3VkfkWd406iwnGsbRR4BsVsgopI6tok766puaK66+oHnNfdc2N27eWPrzAzZt2dS8bsP1k43/lLHT4NUxXqnLLevy2Vn2RK/2XR2rHqiMXANsLWGjsFJYYQAGYKAYDFxne5ZXTTrryVbj2kuVkR2YAEwADMAADMBAQRnYUY31K7Luh17uX8X6swUNOs67GM6bOBAHGICBnjFgb2XvZXPOY9J6VD9KGfklJgD3DwMwAAMwUDAGfr5kzZJD8+iF3n5GMKz/lCcGkvgFS/yerTjQgVyAgUIwsD0YkZd425jznLgycjbQFwJ6Gh+HW2EABrxnIDDy93n2QK8/y95cITD625gATAAMwAAMwECPGbi03qjv63VTznvy9v7KysjGHgfee+eL/hRfGIABjxnYZJ9bk3f/4/MqlYoyuu4xeJgPDr3CAAzAQE8Z0G+kGfdQAWXki5gAViAwAAMwAAN5MhAY+a8etj4+2iqwuFE/Qhm5Oc/A81kUGhiAARjwmQF9Y3WsejhduAAK2DsvKSPjJKTPCcnc4R8GYCAXBrbbO9MWoPUxhGkFVKI/DPy5wM93jj39zpEYk+cw0EsGgkR/YLrv8LMgCvSv7d9PGVnbSzD4bAoTDMAADDjMQCLf5JK/gjT9vYexxAz8vjJyKwnocAKy+uYIDAzAQC8YSOSWaqP+uL37Dv8vkAL2dozKyBZMACYABmAABmAgJQY229vQF6jVMZRWCoRGvz2loOO0e+G0+Uy4gwEYKBIDSfSWVv2G3xdQAWWi/8QE4P5hAAZgAAa6ZODfCtjiGNJcCvSv6D9IJfKDLgOPCy+SC2cs8AgDMJAvA1dWx6oHztVreK2gCoSN8MnKyL2YAFYAMAADMAADC2TgvqVJdExB2xvDakeBMIn+jJsEkfgLTHxWWfmustAbvYvGwHgtiZa002PYpuAKqFj+kQaACYABGIABGGiTgb8peFtjeG0r0Kz0BbEkbQa+aE6U8bA6ggEYgIHcGIgalWalr+3+wobFV6C2qnaIiuV7mABWADAAAzAAA7MykMgPlqxZcmjxOxojXLACJ8SDT1BGfjVr4HNzlyQe+sMADMBAARm4WY/qxy+4sfCG8ihQHZFnKSObCggfh/gwYTAAAzDQGwbuV2bg2eXpZIy0YwXCJOpXRrZiAliFwAAMwID3DGyzV4t13FB4Y/kUCI2cRuJ7n/istnqz2kJ3dC8KAxOhkVPL18EYcdcKhHH0EUwAJgAGYAAGvGXg7K4bCTsoqQLNSl+YyIUkv7fJX5RVCONgRQwDuTOgv8zlfiXt3WkNe9HyZfsrI9/CBGACYAAGYMAPBgKjv809/tPqoiXfz+JG/Qhl5Gckvx/JT5yJMwx4zcA1arU6suRti+GnqUAQDx6tErmFwuB1YeAwbO6HYeGNmpMrAzfLiDwpzd7BvhxRQI/qP1JG7iAhc01Imi5NFwZgIA8G7lo6qp/pSLtiGlkoYG8GoYzchwnABMAADMCAMwzca28Cl0XPYJ+OKRAk0fOVkY0kvzPJn8fqgs9gFQsDxWTgfpVEixxrU0wnSwVCM/AyZeQhTAAmAAZgAAZKy8DDakRemWWvYN+OKmBvD6mMbCb5S5v8rMiKuSIjLsQlDwa2qmE5wdH2xLTyUMACpIxswQRgAmAABmCgNAxsC8xAmEeP4DMcV0AZPaiMbCf5S5P8eawu+AxWsTBQTAbGldFvdLwtMb08FVBGn66MTGACMAEwAAMwUFgGdgRJ9OY8ewOf5YkCodEncSSgsInPaqyYqzHiQlzyYsCu/E/3pB0xzV4oECTRG5SRbawAMAIwAAMwUBgGtimj673oCXymZwqoWCuuDihM4ue1uuBzWMnCQDEZ2FJLosizNsR0e6lAmET9ysiDrAAwAjAAAzDQIwZi+U1g9Gt72Qv4bE8VqMW1FykjG0j+HiV/MVcjrBKJCwzkw8AmNSIv97T9MO0iKBDG4QuVkXsxAZgAGIABGMiNgQ1hEr24CD2AMXiugDIDf6KM3E7y55b8rLDyWWGhMzoXkYE7gxF5judth+kXSYHaytpTlNE3YgIwATAAAzCQGQO/so9tL1LtZywoMKlAEA8erYxcR/JnlvxFXI0wJlbJMJAPA1fLiDyJdoMChVVArVZHKiNrMQGYABiAARhIh4HQRBdHSfTowhZ+BoYC0wrUG/UDwkQuJPnTSX50REcY8JiBWFbYmjpdX/mJAsVXoFnpC+NoiOcHeFy48jksyuFndHaVgQlbQyvNSl/xCz4jRIFZFFBGv0kZ2coKBiMAAzAAA20zsDWIo1NmKan8CgXKpUDV1F6jjGwi+dtOfldXNMyL1ToMzM/ARnun1XJVeUaLAnMoUBuuHauM3IwJwATAAAzAQAsGYrnJ3ldljlLKSyhQTgWCRvAHKpEfkPwtkn/+lQGrJzSCAXcZuFKP6seXs7ozahRoQ4Ela5YcqkwUYwIwATAAAzAwzUDUqK2qHdJGCWUTFCi5AvYKgUSfoYxspwBMFwB+wgIMeMjA+G8frX4WZ/qXvKcx/IUrUDMDr1JG7vIw6TmM6+5hXGJLbNtl4F4Vy+KFV07egQKOKFCNB5+oYvkeJoDVHwzAgD8MRD9cmkTHOFLGmQYKdK5Adax6oDLy7/4kP4WeWMOArwzYu6TWG/WDO6+YvBMFHFQgNHKqMvKIr4WBedMUYcBpBraERr/NwdLNlFAgHQXCOHwh9wtwugi2+/0o2/FduksM3BqMyEvSqZLsBQUcVqC2qvZYZaJvsBrCCMAADDjAwFqu73e4YTG19BXoX9u/39TDhLhUkJWgSytB5uIPz9uDRH+g3qjvm36FZI8o4IECYRK9WMXyCwdWARR+fwo/sSbWN1dj/QoPSjRTRIFsFdCj+lEq1ssxARwOhgEYKDoD9ix/W7OyrYrsHQU8UyCM5fXKyIaiFwDGR5OCAS8ZuD80+iTPyjLTRYH8FAgb4ZMDo79NgfWywHJonUPrRWXg8trK2lPyq4R8Egr4qsDvniWwFSOAEYABGOghA9vtycqc6OdrM2LePVOgFtdepIz8vIfJX9TVCONipQwDWTMQy01qRF7eswLIB6OA7wrUG/XDVBydr4zswAiwEoQBGMiBgR2hkfPso819r7/MHwUKoUBoBl6mjFyTQ/Kzssp6ZcX+Yay4DFxdjWsvLUTRYxAogAK/U2DR8mX722drKyNbMAKsBGEABlJkYJsycq59cNnvKg7/QgEUKJwCteHasaGRK1JMflZkxV2RERtiky0DsayrjsizClfoGBAKoEALBZqVPpVEy5SRBzECrARhAAY6YOBhe0SRM/xb1Fh+jQJFV0CP6qOCWJIOkj/bVQWrNvSFgeIykMhX7T1Hil7fGB8KoEAbCtg7dCmj78EIsBKEARiYg4G7lNFvbKOksAkKoECZFIiS6NH28h1lhCcMsvos7uqT2PQiNttsbVjcqB9RpprGWFEABRaoQGgGnqeMXDrHKqAXBYjPpPHBQC8YSOSb9sThBZYRNkcBFCizAuGI1FQit2AEOCQMA/4xEBq5XsValbmGMXYUQIEuFLB385q6dwBXC/Ri9cVnsurPn4GNU2f3H9BF6eCtKIACrigQNsI/VLFeroyMsxr0bzVIzL2I+Y4wkQurjfrjXKlbzAMFUCBFBcI4fKEyspaG4EVDYPWd/+q7J5qHJrpYD+vnplgq2BUKoICrCgRmIFRG/xgjgBGAgfIyECbyo2oSVV2tU8wLBVAgKwXs3QSNrisT3UATKG8TIHZexu5meyfQoaGhfbIqD+wXBVDAAwXsQ4ZCo9+ujNxOM/GymfTksDWsdcTaraHRb+tf27+fB6WJKaIACuSlQL1RP2Dq+QK3UZw7Ks40Uk++c+9Bftw1dWb/wXnVAz4HBVDAQwV2M6WBvs0AAATBSURBVAK39qDQ0URpojAwxUBg5Ndhos+oN+o0fg9rMVNGgZ4p0L+i/6Aw0e+yRQgjwBEBGMiRAXsDr1jeWR2rHtizAsAHowAKoMDOcwTkVGXkGppAjk2AIwE+Hgn4WWjkVJtzVB4UQAEUKI4CzUrf5O2FY1mHEcAIwECqDKy3jZ+z+otT7hgJCqBACwWCWB+vTDSijOygEaTaCHxc9fo653Flojg0A8e1SDN+jQIogALFVUDFg09VRs5VRjZhBDACMNAWAw/a23IvHdXPLG5mMzIUQAEUaFMB+5zx0OgzVSw30QTaagK+rno9nre+UcXRe6tj1cPbTCs2QwEUQIHyKGC/w1SxLFYmaigj2zEDmAHPGdihEvmmveNmvVHftzyZzEhRAAVQoAsF9Kg+yt68hMsIMQEemoA77VdjS5PomC5SiLeiAAqgQLkVsJc0BUn0OmVkNY8jxgw4bAa2h0avCmMZ4DK+ctcsRo8CKJCBAifEg0+wdzZTRn7qcCPw+Htu/wxOaOT6MI6Gwkb45AxShl2iAAqggHsKVGP9Cns2tDKyATPgX+MseczvC4x8LjQDL3MvM5kRCqAACuSkgD05yp44GCZyoTLyUMkbA6t/d+9guNke4p86oe+AnNKDj0EBFEABPxTQo/pRQRydsrPQyhbMAEcGeszAZmVkNDT6pCVrlhzqRxYySxRAARTosQK1VbVD7K2HOTKACcjZBDwyeTKfkVO5Zr/HRYCPRwEUQIFJMxDL65XRFykj9+bcEDis7+5h/anY6nsCIxcoowcta2QcCqAACqBAARWYvNlQEi2yZ14rI+uVkQkMAUcJFs6AvjE0cp49/6R/bf9+BUSdIaEACqAACsylQBAPHh3E8pf2wSo8kwAjMIcRsFeb/K9KomVcsjdXRvEaCqAACpRQAXtFQTWuvVTF0QeV0d9VRrbN0RA4tO/2oX0b++8Eif5AMCIv4Va8JUxohowCKIACnSowee6AGTjO3pJ45z3Z5REMgbNHCWzDt18JnWtPHuUEvk6zhvehAAqggIMK9K/oPyiI9fG/fVDR+6eu6b4HQ1BOQxAauXvyEr1E/0NoBo6rjlUPdBBZpoQCKIACKJCVAnpU/5G9zlvF0fmBib7/26MF9tpvvh4olgY2JleqRD61M1aDT82KB/aLAiiAAijgqQL2jPDacO1Ye8e3yXu877z7G0cK8jMEDygjl02eoW9P2GN172kmMm0UQAEUKIgCarU60jajybPI7eVjO5/zjjHo3BjYRr9+6kZPZ9nv7VU8+NRKs9JXkJAzDBRAARRAARRorYAe1UftPK9Anx7E0ceV0f+jTPRDZeR+vkqQTTtPzLOayMdCI6dZrexTIVsryisogAIogAIoUHIF7Jno9uuEcFgCe6+CMI4+svOOc9E3ph6JfKcyMl5Co2DHfGdg5CeBkTV2TnZuk0dHhiWwc+Ys/JLDy/BRAAVQAAUyVqBZ6dOj+vHKDDxbxfrV9na0KoneouLofbaphkY+rYx8URkxU5cyXjp1udt1yugblZH7lJGNu/2d7VJH+7vdt7lv6r3XTe3r0p37nryZ0hftCZGTDT2O3qeMPn1yTJNjG3j2EjPw+xymz5gJdo8CKSjw/wED6VNF3lwi3AAAAABJRU5ErkJggg==;" vertex="1" parent="1">
          <mxGeometry x="2955" y="-100" width="40" height="40" as="geometry" />
        </mxCell>
        <mxCell id="sXrkbcoMHqB5MU0Kjqhi-29" value="" style="shape=image;verticalLabelPosition=bottom;labelBackgroundColor=default;verticalAlign=top;aspect=fixed;imageAspect=0;image=data:image/png,iVBORw0KGgoAAAANSUhEUgAAAgAAAAIACAYAAAD0eNT6AAAAAXNSR0IArs4c6QAAIABJREFUeAHtvQuYHVWd7t0kKKh44TbBdK3qhIlcIjhI1PPMfDOKiheGm3BkZvwGRUQuznibOY7OmfPNUPWvzg00KIMySJQ5eI8ewHH4BIEkCChiRiGhu1Z1N0mHhJDQIddOJ31d37c6F5pkd3r3vnTXqvXL8+RJZ3fV3rXe9Vv/9121q1Y1NPAHBVAg1wrMWXHbK5SOpje2RWepNHl/qOUvwlSuCXXypSCV+UrLrSpLvq+0/FSl8kCo5VdKywqVSbvSskZp2XLQ3z6lxRz017528Har973HiuH3TOWB4c8Y/qz4GyqL5wVavrj3WOLLwtb4fY2Z/JE91oZl0ZG5FpWDQwEUQAEUQIHJVOCk9nknNrXLW5VOLgpS+XSg4wWhTr6rtCxTqbQoLS8cZNQHG3ee//+CyuRp25ZQy3ds22wbwzS+0IaZ6Vl0wmRqz2ejAAqgAAqgQP0UMEumNulkpp0dKy3XqSz+stJyt9LJKqWlx2Fzr1XwsBqs3KuJ3BimybVhW3LujDSa0WCiKfXrGN4ZBVAABVAABWqkgD31bc0r1MnngkxuU1oeVVq6MflDvm4oNzz07j0LkiwJ0zgKdXxZ2CJvbjBLptaoy3gbFEABFEABFChfAfudvDWiMJOPBVq+ts/od2H0FRt9uYFg/3Z9NhgEOrnThq0wa/7T6SuiV5ffg2yJAiiAAiiAAmMpYJZMDVI5M8jkk0oni/edru7H7CfM7Peb/lj/9iudPBVquT3Q8VWqNTqDrxDGgpvfowAKoAAKHFBgVnv0uiBL/lxlMjfUsjTUsgOzz53ZjxUG9v9+e6DlQaXj5iCLzztBL3ztgY7mBxRAARRAAb8VsKZgv7e3V6jvO5Vf6ha5/YbCv4fePuiSJgPDXx1kcpu9noC7EPwe+7QeBVDAMwWCdYteZa/ID3V8Q6iT3ystQ8zwnZ3hVxs+BoNUfhdqWTh858Ga6GjPhgPNRQEUQIFiK2AXp7EL1thFcpSW3Ri+t4Y/VmCwtyTer1L5gr3uo9ijgtahAAqgQAEVmLEmOnrvaf3hK/TXYvgYfiUMBFo67e2cduEiy1QBhwpNQgEUQAH3FWhM5x2vtHxCabmHe+8x/EoMf4x9ulUqd6lUPh60RMe5P2JoAQqgAAo4rIC9iGv4XvxMfqa0cPGe2xfojXV6Pk+/H7AXjNo1CJpa577R4SHEoaMACqCAOwrMXDV3WpAmn1E6fkRpGRxj1pYn0+BYihlQBlQaP6yy5G/tcx3cGUkcKQqgAAo4oMDwlfs6vixgpk+IyHeI2HtmIJVrWHPAgcLCIaIACuRUgWXRkWGaXKC0/IiH5vCdvoNnenapVH7Q1Bafz7MLclpjOCwUQIF8KTBdJ6faB78oLVy9n+/ZLmcjyu+fDfaZEYGO3pKv0cbRoAAKoMAkK2BPlwZZfHWo5VcOzvQwwvKNEK20PGqfVXBiS3TMJA87Ph4FUAAFJk+BGVl02r4leLdg/Jzm94kB+4wJu8aAXaRq8kYgn4wCKIACE6jA7JbolXYd9n2r8jEjZPYMA1pWhKlcYy92ncChyEehAAqgwMQooHQ03T6VTWl5waeZHm3lzEa5DARaNiktCWsLTExN4lNQAAXqrEBTa3S2PdXJGvwYYblGyHbSq3SypDGVP67z8OTtUQAFUKDGCphoSqiTDwc6foxijvHDQDUMxI8EaXJpg4mm1HiU8nYogAIoUDsFhr/fz+RjgZaUol9N0Wdf+DmEgWfs0sM8lKh29Yp3QgEUqIEC9jY+W5yUlvUU7kMKNxe5caFj7RjIZKNdJ2PGmugNNRi6vAUKoAAKVKaAfSqavWhJadmG8WP8MDChDGwNU4nDlfOPrWz0shcKoAAKVKCAffTuvtX6tlL0J7To124myay8KFrutGtp8IjiCgoZu6AACpSvwPDjd/cu08uMHwMtioEWpR077XLD9mmZ5Y9otkQBFECBMRSwy5aGOvkSp/qZ7XPGJ/cMDJ8ROPmZBa8fY1jzaxRAARQYXYHhq/pTuUZlspHCn/vCX5SZLO2ozdmlzTa0c9fA6PWN36AACpRSYFl0pH04j9KyDuPH+GHAaQbsUzU/wSOJSxU6XkMBFHiZAmFbcq7SspKi73TRZxZdm1l0YXS0a3MEWXzeywY7/0EBFEABq0DYHs0OtdyL8WP8MFBcBoJMfqbakz+k6qEACqBAQ5A1N6pM7lBaBin8xS389C19O4KBPaGWhbPao9dRAlEABTxUYM6K215hV++zzyUfURgKc8qTNmF4MDAmA/ZCwc9xfYCHBkCT/VUgzOL3qlRaKJBjFkgCEd+lF56BIJXfqbbmd/pbEWk5CniggP3uzz5mFOPH+GEABg5mwF4f0KSTmR6UQpqIAv4oYE/3q1T+SWnZffCg5/8YAQzAwAgGegItX2xYFh3pT4WkpShQUAUa26KzlJYVIwZ44U9p0lYMDQaqZSB5SmXy9oKWRZqFAsVWIFi36FX2ISFKywDFsNpiyP4w5CUD/fb5AtOeuvE1xa6WtA4FCqSAvaBHacko2l4Wbc7wcOFirRl4xi4QVqASSVNQoHgKzFgTvSHI5DalZQjzx/xhAAZqy0CyxD4KvHiVkxahgOMKhGl8odKyvrYDngKKnjAAAyMYyGRjmMnHHC+XHD4KFEMBu5Lf8PKenPas9WlP3g+mYGB0Bu5pap37xmJUUVqBAg4qEGTxJUrLZmYoI2YooxcsijnawEBtGdiqMvkrB0snh4wC7iqw9wp/+RrGj/HDAAxMNgOBTu48sSU6xt2KypGjgCMKKN38Nq7wp+hPdtHn82HwIAZWN6byx46UUQ4TBRxTwJgj7IM7lJbegwYepzVre1oTPdETBipjoD9M44iHCznmLRxuvhWY3nJ9qLQsx/iZdcEADOSdgVDLr3imQL49haNzRIFQJx9WWl7M+6Dn+DAmGICBEQxsC3T8146UWQ4TBfKlwKz26HX24poRA4rTkpWdlkQ3dIOByWIgkzu4QDBf3sLR5FyB6To5VaXSgvkzo4IBGCgAA1nYIm/Oednl8FBg8hVQOrlIadlWgEHPrGuyZl18LuzljIFQyw77debkV1iOAAXyqIBZMnXf0/tYxz9nxYswxiwcBmrCwJB9umDDsujIPJZgjgkFJkWB6Vl0gsrkFxSZmhQZZn8EKBjINwPLZ66aO21Sii0figJ5UqCpNTpbaVmD+WP+MAADHjGwLmiT/5anWsyxoMCEKmCfqqW09Hg06JmZ5XtmRv/QPxPJwJ4gi6+e0KLLh6HAZCswq/3mo8I0+SbGz4wPBmDAdwbs7c72+SaTXZf5fBSouwJKR9OVlid8H/S0H+ODARg4wEAqj89oiU6qewHmA1BgshRQrdEZSsvaA9BzunEiTzfyWfAGA/lmYH1jW3TWZNVnPhcF6qZA2Jacy/39zHgIfzAAA6MzYNcLCLL4vLoVYt4YBSZaAaXjK5WWPgb+6AMfbdAGBmBgHwP9YZpcO9F1ms9DgdoqYB/hm8YRhY3CBgMwAAPjY2B40SBjjqhtUebdUGACFBi+0l8n32XQj2/Qoxd6wQAMvMRAsmTGmujoCSjZfAQK1EaBoCU6TmlZ/hLEDGi0gAEYgIFKGAh0/JhdLbU21Zl3QYE6KhC2RScHWtJKQGcfCiQMwAAMlGAgk/agNXlTHUs3b40C1SkQZM3vUFpeYACXGMD5vv2I28PoHxjIOwOZbAxTmVNdlWZvFKiDAkGanKO0bMf8MX8YgAEYqBsDOxt1/O46lHDeEgUqUyBM4wuVlt0M+roNemZneZ+dcXwwOnEM7FJp8v7KqjV7oUANFQi0XK609GP+mD8MwAAMTBgDvUEWX1LDUs5bocD4FFBZ8ndKyxCDfsIGPbOsiZtloTVa552BPpXFfzm+qs3WKFADBQKd/APGj/HDAAzAwKQyMBDo+KoalHTeAgXKUyDUyZcY9JM66PM+M+H4mD3DwMQxMBRq+Xx51ZutUKAKBVjaF+Mn/MEADOSPgSBLrq+itLMrChxeAaUlYeDnb+DTJ/QJDMCAZSDQ8YLDV3F+iwIVKKAymUuRocjAAAzAQN4ZiKWCEs8uKFBaAWb+eR/wHB+mBAMw8BIDYSb/WLqa8yoKjEOBIJN/YWC9NLDQAi1gAAacYCCTvx9HqWdTFHi5AipN/ocToE/c1bZc2YzWMAADrjAwFGTx1S+v6vwPBcpQwN5Wgvkz04EBGIABpxkYYLGgMgyPTV5SIMzij7LCn9OD3pUZCsfJbBoG6s9An31ey0sVnp9QYBQFlI4vZm1/zJ9ZHwzAQKEYsM8OOG+Uss/LKNDQ0KST9/BUv0INemZX9Z9doTEau8LALtXW/E68DgUOUSDImt+htOwk9RMAYAAGYKCwDGwLU5lziAHwgr8KNOlkZqBlE4O+sIPelRkKx8lsGgbqz0BX0BLN8tfxaPkBBYKW6LhQi8b8MX8YgAEY8IOBQEsarpx/7AEj4Af/FJjdEr0y0PIQg96PQU8/088wAAMHGEjjh2e133yUf85HixsajDki0MmdB2Co/2knTu2hMQzAAAzkiYFUfmC9AEv0TAEe7sNMgPAHAzAAA/YR757Zn9/NVVo+wcBn4MMADMAADNhF38I0vsJvV/Sk9UGanKO09DLwGfgwAAMwAAP7GOgL25JzPbFBP5sZtkezlZatDHoGPQzAAAzAwEEMbA9SOdNPdyx4q5ta575RaVl7UIdzQU6eLsjhWOARBmBgchlYM6MlOqngduhX82asiY5WWp7A/En8MAADMAADh2Ugi3/N7YEFyghKJ4sP2+GTmzhJ/OgPAzAAA7liIP63Almgv00JU7kG8yfxwwAMwAAMjIeBQMdX+eucBWj5vgf87BlPp7MtRQIGYAAGYGDvk2Gb31YAK/SvCY3pvOOVljUMZAYyDMAADMBAhQysnZ5FJ/jnoC632CyZqrTcX2GH811crr6Lo3DBMQzAwOQxEGh5sMEsmeqyJXp17ErLjQyYyRswaI/2MAADhWIgk7lemairjVVZ8iG7tGOh4GNGzlkZGIABGJhMBoZCnXzYVV/04rin6+RUpWU75s/sAwZgAAZgoJYMhFp22NVkvTBT1xo5qz16XahF17LDeS8KCAzAAAzAwAEGUmk5sSU6xjV/LPzxBjq580AncapsMk+V8dnwBwMwUGAGksWFN1SXGmi/m8H8SekwAAMwAAMTwkAW/6VLHlnYY21sjwKl5cUJ6XRSfYFTPYWTMQQDMFA2A1unt1wfFtZYnWiYiaaEWpYCbdnQYuCEOBiAARioBQNp/DDrA0xiUlA6+V+YP+YPAzAAAzAwGQwEWr44iRbo70eHqcxRWnono9P5TIoNDMAADMCA0tJnnznjrxNPQsunPXXja7jlj8FHAYYBGICBSWcgk3ZuDZzAIKB0snjSO70W3yHxHnwXCQMwAANFYODWCbRAfz8qyOJLMH9SPwzAAAzAQL4YiC/215knoOVB1tyotGzOV6czCOkPGIABGIAB6WpqnfvGCbBCPz9CabkHyCg0MAADMAADeWQgSOU//XTnOrdaZfJXeexwjolCBAMwAAMwsJ+BIJX/u8526NfbBy3RcSqTjfsF5l8GGwzAAAzAQE4Z2Dxz1dxpfrl0HVursuTfc9rRRbh6lTZwFTYMwAAM1JaBe+poif68daOO3620DBEASPswAAMwAAOuMGAfUuePU9ehpdNXRK9WWjpc6XCOk+IEAzAAAzAwzEAmG8OV84+tgzX68ZYqla8wmBhMMAADMAADjjLAAkGVxBWVyduVlgFHO53v02r7fRp6oicMwICLDAw2pc1/UokH+rvPsujIIJXfYf6kfhiAARiAAbcZSFbNWXHbK/w19HG2XKXyT253OAOW/oMBGIABGNjLQKiTL43TBv3cXLUnf6i07AYcigcMwAAMwEBBGNg1s7W5yU9XH0erlZb/KEiHu/h9FcfM96wwAAMwUAcGAi0/HocV+repSpP3Y/4kfhiAARiAgUIykMYf8M/Zy2jx7JbolaEWXchOr0OaRCcKJAzAAAw4x0ArFwSWCARhmvxPYHYOZk4VEu5gAAZgYDwMZPL3JSzQ35eCrLlRadlJACAAwAAMwAAMFJyB7TwsaETe4WE/DPiCD3hmSOOZIbEtvBScgSCT20ZYoL8/NmbyR0rLIAZACIABGIABGPCEgYEglTP9df59LVepPOBJh5PqC57q4RjzggEYKJeBQMtDXgeAME0uKFcstmNgwQAMwAAMFIoBb28LXBYdqbS0FqozmeFylgMGYAAGYKBsBpJVDWbJVO/OBISpXIP5k+ZhAAZgAAa8ZiCVj3sVAGasiY5WWp71utPLTogUBziBARiAgaIyEGjpnNV+81HehACVyheK2pm0i0IFAzAAAzAwHgZCLZ/1IgCcoBe+NtCyaTzisC2DCQZgAAZgoMAMvGC9sfAhQGlJCtyJXPzCVxswAAMwAAOVMPD/FDoATM+iE0ItOwgAJHkYgAEYgAEYeBkD28KV848tbAgIdLyADn9Zh1eSEtmH2QUMwAAMFJCBMJW4kAGgMZ13PLN/zJ8ACAMwAAMwMCoD2wt5FkBl8Tw6fdROJ80XMM3DO7zDAAyMl4EwjaNCnQUIWqLjmP0zEMY7ENgeZmAABjxkoFjXAigdN3vYiczqmdXDAAzAAAyMm4EgS64vxFmAWe3R65SWrQQAkjwMwAAMwAAMlMXAlhNbomOcDwFhJv9Ih5fV4eNOieiKrjAAAzBQTAaCNPmM0wHArm+stGwA0GICWk6/zulYZN6z+lZzQedi85Fnv2OuXr/EXPfcT/iLBjBwEAN2bNgxcn7n7ebdq79hzu5YxKTA768PVjcsi450NgSEaXJtOSbBNu4HhJlZs7l07R1mYddSc8/2VWbl7g1m52Cv4Q8KoEDlCuwc3GOe2r3B3L19lVnQ9ZC5ZO0dxo41aqb7NbOcPgx1fJmbAcAsmaq0tJXTSLZxE2Y7u5dNvzDLuzvMrsG+yqsce6IACpStgB1ry7o7TLTpfs4SFP8MwRNOBoBQJx/G2N009sP126xsnvnMhruGC9CAGSq7aLEhCqBA7RWwY3Bpd7v59Ia7jB2bhxu7/M7NehxmzX/qXAgItfwK4NwErlS/nda2wFy/6T6zsX9H7asY74gCKFC1Al0D3WbR5ofNm9tuIAgU68zA3U4FgDCVOaVMhNfcCwSnts0fLirbBnZXXaB4AxRAgforsHWgx3yla7k5pW0+QaAYQWCoqS053ZkQoLR8D7N3z+wP7rMr1//QrOvbWv+KxSegAArUXIHn+3eYz2+4hxBQjBBwqxMBQOloutLSe7CZ8H93AsE7Or5qHupuq3lB4g1RAAUmXoEHdmbm7R03EQTcDgK7Z66aOy33IUBlMhezd8fsD+4rex9yV3/3xFcpPhEFUKBuCrw4sMtcse77hACHQ0Dulwfet/DPCwebCv/PfyCw9xbf+uKvuK6/biWYN0aByVXA3rPz9RcfZR0BR0NAoGWT9djcngUItFyO2eff7A/uI3uhn72ViD8ogALFV+CRXavN6W0LOBvgYhBI44/kOADEjx1sLvw/34HgzPYbzYqedcWverQQBVDggAJP7n7OnNX+ZUKAayEgjR/OZQAIdPQWzD7fZn9w/7yt4ybT0dt1oCjwAwqggD8KtPd2GVsDDq4L/D/ndbw1OiN3IUBpuRVwcg7OiLQ7u22heXrP8/5UO1qKAihwiAJ6zyZzRjsLB7nkXYGWr+UqANjnFist210S0edjfVM2z/ymZ+0hxYAXUAAF/FPgv3rWs2jQiMmRA96wbdpTN74mNyEgyOKrHRCNU11aTKjF3LdT+1flaDEKoMCoCty7o3W4NlDHHTmLm8rHcxMAVBb/GnDcAGfeCw+OWgT4BQqggL8KxJvuZ5LkypmAvFwMOF0npyotQwSA/AeACzsXm76hAX8rHC1HARQYVYH+oUHzobXfJgS4EQKGgpZo1qSfBQh1fAPmn3/zt08IW9+3bdTBzy9QAAVQwD774/S2hYQAJ0JA3Dy5AWBZdKTSsoEAkP8A8O9bf0t1QwEUQIExFVi85XECgBMBQNY3mCVTJy0EhGl8Ieaff/M/r/N2M8Aiv2MWPjZAARQww7Xig2u+SQhwIQSk8QcmLQAonSwhAOQ7ADTpxNjbfPiDAiiAAuUqYFcHtXcMUd/zrUGok+9OSgA4QS98rdLSAyD5BuRvnvs/5Y55tkMBFECBAwpcvX4JASD/IajbrsMz4SEgTOMrMP98m7/tn1W7NxwY0PyAAiiAAuUqYFcK5SxA/mu8mowHBCkt9xMA8g3Hx9f/oNyxznYogAIocIgCl6/7HmcB8n8W4D8m9AzAtI7oD5SWfgJAvgMAy/0eUs94AQVQYBwK/HpXJwEg/wGgrzGdd/yEhYBQy2cx/3yb/ztX38J1/+ModGyKAihQWoF3rf46ISD/IeC6CQsASsujBIB8B4Cvbf5l6dHMqyiAAigwDgUWdS0nAOQ8AARaHpqQADCjJTpJaRkkAOQ3ANgLd9b2bRnHEGdTFEABFCitQGffFi4GzHkAUFoG7FfzdQ8BKpO/wfzza/62by5e+63SI5lXUQAFUKACBc7vvJ2zADkPAUEmn6x7ALCnGggA+Q4AN3QtrWCIswsKoAAKlFbAPkWUup/vuq+0/LyuAcBeacjV/7mHwDy6a3XpUcyrKIACKFCBAsu7OwgAOT8DoLT0hSvnH1u3EKB0fCUpMN8B4ORsrukZ7KtgiLMLCqAACpRWwNYUW1uo//mu/2EWf7SOAUB+CgD5BuCiTr7/L13CeBUFUKAaBS7oXEwAyPlZgEDLj+sSAGa133yU0rKTAJDvAPB3z/+0mjHOviiAAihQUoHPbbibAJDzAGA92np1zUNAkCV/jvnn2/xt//zr5kdKDl5eRAEUQIFqFPjq5l8SAPIfAEzYlpxb8wCgdPwNAkD+A8C9O1qrGePsiwIogAIlFfjZjhYCgAMBQGm5qeYBINDSSQDIfwB4iqf/lSxevIgCKFCdAk/ufo4A4EYAeKamASDQ0Vsw//ybv+2j1b0vVjfK2RsFUAAFSijQ0buZAOBGADAzsui0moWAQMsXCQBuBIAX+neWGLq8hAIogALVKbCxfwcBwJEAEGr5fM0CgErlAQKAGwGge7C3ulHO3iiAAihQQoGdg70EAHcCwL01CQAz1kRHKy09BAA3AsAADwEuUbp4CQVQoFoFbG3BB9zwAaWluya3A6o0eT+d7kynG84AVFvm2B8FUKCUApwBcMcHrGcHaXJO1WcBlJYbCQDudDzXAJQqXbyGAihQrQJcA+CODwx7diZzaxEAniQAuNPx3AVQbZljfxRAgVIKcBeAOz6wz7OfqCoABC3RcUrLIAHAnY5nHYBSpYvXUAAFqlWAdQDc8YF9nj04Y030hopDgMqSD2H+bnU6KwFWW+bYHwVQoJQCrATolhdY725qi8+vPACk8SICgFudzrMASpUuXkMBFKhWAZ4F4JYXWO8OtSysPADo5L8IAG51Ok8DrLbMsT8KoEApBXgaoFteMOzdqTxeUQCY1R69TmkZIAC41ekXdX6r1NjlNRRAARSoSoELOhezDoAjCwGN8O3+E/TC1447BPD4X7eMf3+Hn5zNNT2DfVUNdHZGARRAgZEK2Jpia8v+OsO/7vhD2Bq/b9wBQGXxPDrZnU4e2VeP7lo9cuzyMwqgAApUpcDy7g7M373Z/74+i2XcASDUsnSkqfCzO2Hghq6lVQ12dkYBFECBkQrMe+FBAoCzAUDuH18AMNEUpWU7pu+O6Y/sq4vXch3AyOLFzyiAAtUpcH7n7QQAdwPAtgYTTSk7BAQ6estIQ+Fnt4JAqMWs7dtS3YhnbxRAARQwxnT2bbG3kxEAHNYgbI9mlx8AsvhqTN9t4O09u/xBARRAgWoVWNS1HPN32Pz3efknyg4ASieLCQBuB4A/W30LDwautvKxPwqggHnX6q8TABwPAEEmt40jAMhKAoDbAcD232961lK+UAAFUKBiBX69qxPzd9z893n5k2UFgBlroqOVln4CgPsB4Ip1P6h44LMjCqAACly+7nsEgGIEgD7r7WOGgCBrfgfm77757+/DVbs3UMVQAAVQYNwKPL3neS7+K4b5D4e4ptbo7DEDQJgm1+43D/51Pwh86rmfjHvgswMKoAAKfHL9j5j9FygABDq+aswAoHT8bxi/+8a/vw+bdGJW9KyjmqEACqBA2Qr8tudZZv8FMv9hP0jjW8oIAPLEfvPg32IEgfM6bzcD3BNQdvFjQxTwWQFbKz645pvM/gsWAAIdP3b4AGCWTFVaejD+Yhj/yH68Y8sTPtc02o4CKFCmAou3PI75F8z893nBzsOuCNiYRqeMNA1+Lk4QmN220Kzv21ZmCWAzFEABHxVY17fVnN62kABQzABgmnQyc9SzAEEWX4LpF8f0D+7LCzsXm76hAR/rGm1GARQYQ4H+oUHzobXfxvwLav7WD8I0uWDUAKB08r8ONg3+X6xAMPeFB8YoA/waBVDARwWiTfdj/gU2f+vlgZYvHiYAyPcw/GIZ/sH9aR/qcd9O7WN9o80ogAKjKHDvjlau+i+4+Q97QZb8+6gBINTJ7w82DP5fvEDwpmweywSPUgh5GQV8U+DxnrVmVjaP2b8PAUDLE6UDgImmcAdA8cx+tABnLwq0K33xBwVQwF8F9J5N5oz2GzB/P8zf9vPOBmOOOCQE2KsDRzMLXi9mMHh7x02mo3ezv9WPlqOAxwp09HaZt3XchPn7Y/7Dfd3YHgWHBICwNX4fRl9Moz9cv57ZfiMrBXpsAjTdTwWe3P2cOav9y5i/Z+ZvvSBIk3MOCQBKJ586nFHwu+KGg1Pb5pul3e1+VkJajQKeKfDIrtXm9LYFmL+H5j8cADL55KEBIIu/jMkX1+TH6tuZWbNZtPlhM8iSwZ7ZAc31RYEhY8y3t/yyEVzzAAAgAElEQVTG2LE+Vj3g98X1giCV+YcGAC330OnF7fRy+/Yjz37HdPV3+1ITaScKeKHAiwO7zBXrvo/xezrrH1n/Ay0/PjQAZPL0yI342d8w8I6Or5oHd7Z5URhpJAoUXYEHdmbGXvBLTfe3po/se3u7/8sDgDFHKC27Rm7Ez8By5fofGrs2OH9QAAXcU2BD/3Zz3XM/wfiZ9b+MgVDLjpcFgJPa552I4WP4pRg4pW2++UrXcrN1oMe9CsgRo4CHCmwZ6DE3di0zdsGvUmOa16j14cr5xx4IAU2t0dlAARSHY+C0tgXm+k33mY39OzwsqTQZBfKvwOaBXcMX8tpFvg43lvkdtT7Q0VsOBACl44uBAijKYcDOKj674W6zrLvDDHDHQP5dgSMstAJ2DNpbeD+z4S6W8+VUf9nBr6ktPv9AAAhS+XQ5xZ9tCAkjGZjTscjEm+43y7s7zK7BvkIXWhqHAnlRwI41G8Dt0/vO7lhUdtEfOXb52fdannzqQAAItSwECN+BqK799t7iS9feYW7oWmp+uuNps2r3BtM92JuXmslxoICTCuwc7DUrd28w92xfNTy2Lll7B/fxM9OvPvRl8bwDAUBpHgNMAKouAIymnz1L8N41t5qLOr9l7BoD1z734+Erk+3VyfxFAxh4iQE7NuwYsWPFjhk7dkYbV7xen3rli66hlu+MDADLfGk47WTgwAAMwAAM+MxAoOXBkQGg1WcxaDvFAAZgAAZgwB8GklUjA8CL/jQcyOlrGIABGIABfxkItGwaDgBzVtz2CqVlCBj8hYG+p+9hAAZgwCsGBhuWRUc2BFlzIx3vVcdzYRFXEcMADMCA5wzMXDV3WkNTu7yVAEAAgAEYgAEYgAF/GBheDVClyfvpdH86nb6mr2EABmAABsIsfm+DyuK/BAZggAEYgAEYgAF/GAjS+L83hGlyLZ3uT6fT1/Q1DMAADMBAkMknG8JM/hEYgAEGYAAGYAAGPGIglS80BKnMp9M96nTPr3yFdViHARiAgWEGkgal5VbEYEDAAAzAAAzAgEcMpPEtDSpLvk+ne9TpnAHg/mcYgAEY8J6BUCfftWcA/oMAQACAARiAARiAAa8YuLvBPhWITveq071PvvAO7zAAAzAg9zcEOn4MIRgMMAADMAADMOAVA79sCHXyezrdq07nDADff8IADMAADKyw1wBkBAACAAzAAAzAAAx4xUCrDQDP0uledTrJn+QPAzAAAzCwxgaAFwgABAAYgAEYgAEY8IiBTDbaALCFTveo00m9zHxgAAZgAAa0bG4ItewgABAAYAAGYAAGYMArBrbaMwC76HSvOp3ky+wHBmAABmBgpw0AewgABAAYgAEYgAEY8IqBHhsA+ul0rzqd5E/yhwEYgAEY6LMBYIgAQACAARiAARiAAa8YGCQAkAKZCcAADMAADPjHwHAA4CsA/zqewU6fwwAMwIDfDAx/BcBFgH5DQBGg/2EABmDAPwaGLwLkNkD/Op7BTp/DAAzAgN8M7GQhIL8BoADQ/zAAAzDgJwPDCwGxFLCfnc+gp99hAAZgwF8GNtu7AHgYkL8AMPjpexiAARjwkYF9DwPiccA+dj5tpujBAAzAgM8MDD8OOGPxB68Wf/AZeNpOwYcBGICBvQy0NoQ6+T0BgAAAAzAAAzAAA14xsKIh0PFjdLpXnU76ZQYEAzAAAzDwy4ZAy4MEAAIADMAADMAADHjFwP32LoD/oNO96nSSP8kfBmAABmDg7gaVJd8nABAAYAAGYAAGYMAfBkKdfLdB6fgbdLo/nU5f09cwAAMwAANhFt/coLJ4HjAAAwzAAAzAAAz4xEAs9iLAL9LpPnU6bYV3GIABGPCegTT5Hw1hKtd4LwQXg3BBEAzAAAzAgF8MfMI+DfAvCACkYRiAARiAARjwh4EgTS5tCFvj99Hp/nQ6fU1fwwAMwAAMhFn83obGtugsYAAGGIABGIABGPCIgdbojIam1rlvpNM96nS/vuPiO036GwZgAAZKMDCtI/qDhoZl0ZFKyyAhgBAAAzAAAzAAA14wMNBglkxtsH+Uli463YtOJwmXSMKwD/swAANeMZDJxmHzHw4AqbR41XhMgCAAAzAAAzDgLQPJUwcCQKhlKQGABAwDMAADMAADHjCQygMHAoDS8j063YNOn4S0O6djkXnP6lvNBZ2LzUee/Y65ev0Sc91zP+EvGsDAQQzYsWHHyPmdt5t3r/6GObtjETP0SahZPnhhoJM7DwSAQMcLfGg0baxfyJmZNZtL195hFnYtNfdsX2VW7t5gdg72Gv6gAApUrsDOwT3mqd0bzN3bV5kFXQ+ZS9beYexYo5bVr5b5oW3cfCAAqCz5Wz8aDTS17Gc7u5dNvzDLuzvMrsG+yqsce6IACpStgB1ry7o7TLTpfs4ScIagojAYpsm1LwUAnVxUS2PgvYobNGZl88xnNtw1XIAGzFDZRYsNUQAFaq+AHYNLu9vNpzfcZezYpPYWt/bWsm+DLPnzAwGgqV3eWss3572KB+FpbQvM9ZvuMxv7d9S+ivGOKIACVSvQNdBtFm1+2Ly57QaCAGcGDs+AXQVw/5/GdN7xmHbxTLsWfXpq2/zhorJtYHfVBYo3QAEUqL8CWwd6zFe6lptT2uYf3gQwSW/1OfmZBa/f7//D/yotu2phGLxHcYLElet/aNb1ba1/xeITUAAFaq7A8/07zOc33OOtyeFFo3rR9peZv/2P0skqBBtVMK8G0Ts6vmoe6m6reUHiDVEABSZegQd2ZubtHTd5VcPwstG9LEjldyUCgNyNaKOL5os29j7krv7uia9SfCIKoEDdFHhxYJe5Yt33CQF87WGUTpaUCgA3+mJytPPQoGPvLb71xV9xXX/dSjBvjAKTq4C9Z+frLz7KOgK+h4AsnlcqAFyHMR5qjD5oYi/0s7cS8QcFUKD4Cjyya7U5vW0BZwM8DQKBjq86JACErfH7fDA72vjykHNm+41mRc+64lc9WogCKHBAgSd3P2fOav8yIcDDEBCkyTmHBIAmnczEHF9ujkXX420dN5mO3q4DRYEfUAAF/FGgvbfL2BpQ9DpH+17ua43tUXBIAGgw0RSlpQexXi5WUfWY3bbQPL3neX+qHS1FARQ4RAG9Z5M5o52Fg4pa50u0a2eDMUccGgAaGhrs7QEldiAhFuw00ZuyeeY3PWsPKQa8gAIo4J8C/9WznkWDClbjR/fx+Dclzd++GOrku6Pv6MfMuOjtD7WY+3Zq/6ocLUYBFBhVgXt3tBpbG4pe/7xvXyZ3jBoAVCr/5L1ABR8E8154cNQiwC9QAAX8VSDedD8BoOD1P9DJP4weALLkQwSA4qbgCzsXm76hAX8rHC1HARQYVYH+oUHzobXfJgQUOAQ0tcXnjxoAGtPoFAJAMQOAfULY+r5tow5+foECKIAC9tkfp7ctJAQUNATYu/1GDQANZslUHgpUzADw71t/S3VDARRAgTEVWLzlcQJAMQPATnu33+gBwD4UKJXHOQtQrBBwXuftZoBFfscsfGyAAihghmvFB9d8kxBQuBAQP3JY87e/VFpuJQAUJwA06cTY23z4gwIogALlKmBXB+WugOL4gPX0MItvHjMAhKlcQwAoTsf/zXP/p9wxz3YogAIocECBq9cv4SxAsc4CfGLMAKB089sIAMUJAKt2bzgwoPkBBVAABcpVwK4UylmA4nhBU7u8dcwAMKv95qOUlj5CgPsd//H1Pyh3rLMdCqAAChyiwOXrvsdZgGKcBei13j5mALAbKJ08RQBwPwCw3O8h9YwXUAAFxqHAr3d1EgAKEABCnfy+LPO3G4Vp8k0CgNsB4J2rb+G6/3EUOjZFARQorcC7Vn+dEOB+CLi17AAQ6PgqAoDbAeBrm39ZejTzKgqgAAqMQ4FFXcsJAK4HgFQ+XnYAUK3RGQQAdwOAvXBnbd+WcQxxNkUBFECB0gp09m3hYkDHA8CMLDqt7ABgVwtSWrYRAtwMARev/VbpkcyrKIACKFCBAud33s5ZAHdDwNYxVwA8OB0EWh4kALgZAG7oWlrBEGcXFEABFCitgH2KKH7gph8oLT8/2N/H/L/ScTMd7maHP7prdelRzKsogAIoUIECy7s7CACOngEI0zga0/AP3iDI4vMIAO4FgJOzuaZnsK+CIc4uKIACKFBaAVtTbG3BE9zzhLAtOfdgfx/z/yfoha9VWvrpcLc6/KJOvv8vXcJ4FQVQoBoFLuhcTABw7yxA37SnbnzNmIZfagOl498SANwKAH/3/E+rGePsiwIogAIlFfjchrsJAI4FgFDLr0p5e1mvqVS+QgBwKwD86+ZHSg5eXkQBFECBahT46uZfEgAcCwCBjheUZfalNlI6vpgA4FYAuHdHazVjnH1RAAVQoKQCP9vRQgBwLQBkyZ+X8vayXgtaouOUlkFCgDsh4Cme/leyePEiCqBAdQo8ufs5AoBbAWBgxproDWWZ/WgbBan8jgDgTgBY3ftidaOcvVEABVCghAIdvZsJAE4FgPg3o/l62a+HWhYSANwJAC/07ywxdHkJBVAABapTYGP/DgKAWwGguWyjH21Dew8hAcCdANA92FvdKGdvFEABFCihwM7BXgKAQwEgSOVdo/l62a/PWBMdrbT0EALcCAEDPAS4ROniJRRAgWoVsLUFH3DDB5SW7lntNx9VttEfbkOVyS/oeDc6njMA1ZY59kcBFCilAGcA3PAA69VBJj87nKeP63eBTv6BAOBG53MNQKnSxWsogALVKsA1AG54gPXqUMtnx2Xyh9tYtUZnEADc6HzuAqi2zLE/CqBAKQW4C8AND7BePV0npx7O08f9O6VlNSEg/wCwDkCp0sVrKIAC1SrAOgD5r//7PLpj3AY/1g4qk38lAOQfAFYCrLbMsT8KoEApBVgJMP/1f9ijU/nKWH4+7t8HOvkgASD/APAsgFKli9dQAAWqVYBnAeS//luPbtLJe8Zt8GPtYG8pCLXsIATkGwKeBlhtmWN/FECBUgrwNMB81/593rx9dkv0yrH8vKLfq1TuIgDkG4KLOr9VauzyGgqgAApUpcAFnYtZByD/CwH9qCJzL2cnlcrHCQD5DgAnZ3NNz2BfVQOdnVEABVBgpAK2ptjaQv3Pd/0PtFxejpdXtI19spDS0gsE+Ybg0V2rR45dfkYBFECBqhRY3t2B+ed/9t8brpx/bEXmXu5OrAqYb/O34eyGrqVVDXZ2RgEUQIGRCsx74UECQM4DQJDKf5br4xVvF6bJtZwByHcIuHgt1wGMLF78jAIoUJ0C53feTgDIeQBQOr6yYmMvd8eZq+ZOU1oGCAH5DQGhFrO2b0t1I569UQAFUMAY09m3xS4tSwDItwb907PohHJ9vKrtVBo/TADI94Cw9+zyBwVQAAWqVWBR13LMP9/mb+xX81WZ+nh2DlL5NAEg3wHgz1bfwoOBq6187I8CKGDetfrrBICcB4AwlWvG4+FVbXtS+7wTlZZ+QkC+Q8BvetZSvlAABVCgYgV+vasT88+5+ds78xrTecdXZerj3Vlp+TkBIN8B4Ip1P6h44LMjCqAACly+7nsEgPwHgHvG699Vbx9m8UcJAPkOALZ/Vu3eQBVDARRAgXEr8PSe57n4L//mb1QW/2XVhj7eN5j21I2vUVq6CQH5DgGfeu4n4x747IACKIACn1z/I2b/+Q8A3daLx+vfNdle6eSHBIB8B4AmnZgVPeuoZiiAAihQtgK/7XmW2X/+zd8EOrmzJmZeyZs0tcXnEwDyHQBs/5zXebsZ4J6AsosfG6KAzwrYWvHBNd9k9u9AAAhb4/dV4t212ccsmaq0rCME5D8E3LHlCZ9rGm1HARQoU4HFWx7H/B0wf+u9DWbJ1NqYeYXvEuh4AQEg/wFgdttCs75vW5klgM1QAAV8VGBd31ZzettCAoATASCWCm27drs1ptEpSssQISD/IeDCzsWmb2jAx7pGm1EABcZQoH9o0Hxo7bcxfyfMX4ZUe/KHtXPyKt4p0PFjBID8BwDbR3NfeGCMMsCvUQAFfFQg2nQ/5u+G+dt+WlaFZdd210DHVxEA3AgA9qEe9+3UPtY32owCKDCKAvfuaOWqf3fM34SZfKy2Ll7Fu53YEh2jtGwnBLgRAt6UzTMsEzxKJeRlFPBMgcd71ppZ2Txm/+4EgK3TV0SvrsKya7+r0vJ1AoAbAcD2k70o0K70xR8UQAF/FdB7Npkz2m/A/N0xfxPo+Ku1d/Aq3zFsj2ZzMaA7AcCGgLd33GQ6ejf7W/1oOQp4rEBHb5d5W8dNmL9D5m/rdtgib67Sruuzu9LxI5wFcCsEnNl+IysFemwCNN1PBZ7c/Zw5q/3LmL9j5p+ri/8OjhGBjv+aAOBWALD9dWrbfLO0u93PSkirUcAzBR7Ztdqc3rYA83fP/CfnwT8HG/1o/5/VfvNRSssLhAD3QsDMrNks2vywGWTJYM/sgOb6osCQMebbW35j7FinRrtXo1UmG2e3RK8czX9z8brSsQCXg3DtS8MfefY7pqu/25eaSDtRwAsFXhzYZa5Y932M38VZ/75jDrLk+lyY/OEOoql17huVll5CgLsh4B0dXzUP7mzzojDSSBQougIP7MyGL/ilJrtbk5WWPTNaopMO5725+V2o5TvA5jRswzOFK9f/0Ni1wfmDAijgngIb+reb6577CbN+h2f9L/lo8u3cGPxYB9LUGp390oG7b4Q+t+WUtvnmK13LzdaBHvcqIEeMAh4qsGWgx9zYtczYBb98rl1FantjW3TWWL6bq99zS2Cxgs9pbQvM9ZvuMxv7d3hYUmkyCuRfgc0Du4Yv5LWLfBXJ/HxvS6DloVyZezkHE6TJpb53XBHbb2cVn91wt1nW3WEGuGMg/67AERZaATsG7S28n9lwF8v5FuJU/6ETxzCNLyzHc/O1jYmmqFRaimiCtGkvpHM6Fpl40/1meXeH2TXYV+hCS+NQIC8K2LFmA7h9et/ZHYuY7RfU+Pf5TGuDiabky9zLPBqeEnhomitqeLD3Fl+69g5zQ9dS89MdT5tVuzeY7sHevNRMjgMFnFRg52CvWbl7g7ln+6rhsXXJ2ju4j7/Yhv+yQJerp/6V6fsHNpuz4rZXKC3PFtX0aNfYAceeJXjvmlvNRZ3fMnaNgWuf+/Hwlcn26mT+ogEMvMSAHRt2jNixYseMHTvUmLFrTIE1Wpf7hX8OuP0oP6hUvlDgDmKAepTG4djrYsxYZ6xPKAOhTj43iq268/IJeuFrlZYtFE+KJwzAAAzAAAyUxcCLJ7ZEx7jj9Ic50jCVmE4vq9MnNGHSJ/QJDMAADOSRgeSfD2Opbv3q5GcWvF5p2QpoeQSNY4JLGIABGMgRA9tmrIne4JbLj3G0SkuSI4GZafN9HgzAAAzAQO4YCDL5lzHs1L1f20TDWQBSNiEQBmAABmBgVAaKN/vfH1dUJnPp+FE7PndJlL6ir2AABmBg4hhw4pG/+w19vP82pvOOV1q2A9TEAYXWaA0DMAADTjCwpXDf/R8cEmzCAUYnYOSMBN+PwgAMwMAEMRCmyf882C8L9397b6PKZCMhgBAAAzAAAzAAA2ICLZvsmjmFM/xSDQq1fJ5OZ+DDAAzAAAzAgBiVJX9byisL+Zpd31hpWU3HM/hhAAZgAAY8Z2DNrPabjyqk2Y/WqP//IUGf8LzT+W5tgr5bgzMMBgZgIK8MOP3Ev9EMfszXzZKpSidP5bVTOC4KBgzAAAzAQD0ZCHXy+wazZOqYflnEDRp1/O56ist7M3hhAAZgAAbyykCQyruK6O1lt0lpuTuvncNxUThgAAZgAAbqxMCPyjbKom4YtkUnKy176iQw37PzPTsMwAAMwEDeGNg9I41mFNXXx9WuUMtCAgApGwZgAAZgwBMGknGZZJE3tgsgKC0bPOn4vCVRjofZEQzAAAxMHAPr7YJ4Rfb0cbct0PFVBADSPwzAAAzAQJEZCLRcPm6DLPwOJpqitDxR5I6nbRQ2GIABGPCYgVQebzDmiML7eSUNbEqb/0RpGWKAeDxAJu40HKc80RoGYGAiGRgKs+Y/rcQbvdlHafkRAYAAAAMwAAMwUCQGAp3c6Y2RV9rQma3NTUpLT5E6nrZQyGAABmDAawZ2BllzY6W+6NV+oU6+xGDxerBM5Gk5PovTwDAAA3VlwD4B1ysTr6qxy6IjlZYVhABCAAzAAAzAgOMMPOHtev+VBoHGTP5IaelzvOPrmirRhsIIAzAAA7lmoL+pXd5aqQ96vR8rBOYabMINp01hAAZg4PAMsOJfpSkmWLfoVSqTdhIuQQAGYAAGYMAxBrIZa6KjK/U/9mtoaAjS5BzWBmDgOzbwmRUdflaEPuhTdAaGmnTyHky8BgooLd/CAAgBMAADMAADjjBwaw2sj7ewCpz8zILXKy3rHen4oidb2sfsDQZgAAZGZ2DDjDXRG3DvGioQ6vgyAgDpHwZgAAZgIM8MBFl8SQ2tj7far4DScneeO55jozDBAAzAgL8MBFp+vN+v+LfGCjS1zn2j0tLFAPN3gNH39D0MwEAeGQi0bJq5au60GtsebzdSAaXji/PY+RwTRQkGYAAGvGVgKEzjC0d6FT/XSYEgk9sYaN4ONC4+Gv3iI7RBGxiYDAbS+JY62R1ve7AC01dErw60pIQAQgAMwAAMwMAkM9BqPelgn+L/dVSgqTU6W2npneSOJ21PRtrmM+EOBmAgHwzsaWyLzqqj1fHWoykQZvKPBADSPwzAAAzAwKQwkMnfj+ZPvF5vBUw0JdDy0KR0fD7SJ7MA+gEGYAAGJoOBTH7RYKIp9bY53v8wCgRZc6PS8iIhgBkADMAADMDABDGwZXpHszqMNfGriVIgSJNLJ6jTSdqTkbT5TLiDARjIEQN2ZdqJ8jc+pwwFVCZ3EAJI/zAAAzAAA/VkwN6GXoYlsclEKnBiS3SMSqWlnh3Pe1NYYAAGYMBrBlZOe+rG10ykt/FZZSrQmEanKC3bGKBeD1BOleboVCljkbFYIAa2Bi3RrDLtiM0mQwGlk4uUlqECQYehYWgwAAMwMLkMDPGUv8lw9Ao+U2XxPAIAMw8YgAEYgIFaMBCmEldgRewyKQqYaIrS8vNadDzvQQGBARiAAY8ZGL7ff8nUSfEyPrQyBYKW6DilZTUD1+OBO7mnDDlli/4w4DgDgZbO6Vl0QmUuxF6TqoBdo1lp6SEEEAJgAAZgAAbGycDuMJU5k2pifHh1CoRZ/NFxdjqp3fHUTn9T6GEABqpnIL6yOvdh71wooHT8b9XDwIBCQxiAARjwgoFM/jUX5sVBVK/ArPabj1KpPO4FuMzeOYMDAzAAAxUzEOj4sdkt0Surdx7eITcKzGiJTrIXdBACmMHAAAzAAAyMwsDqmavmTsuNcXEgtVOgqS05XWnZMkrHV5wYeT+KCQzAAAw4z8A21RqdUTvH4Z1yp0CQyruUlj0MVucHK4GN07wwAAO1YqAvzOL35s6wOKDaK6DS+CMsF0wAIATCAAzAgPWCMJOP1d5peMfcKmCXdmTwM/hhAAZgwHcGkn/OrVFxYHVSwJgjVCr/m8Hv++Cn/YwBGPCWgSz5foMxR9TJZXjbPCswZ8Vtrwi0POgt/Hx/WKvvD3kfWIIB9xhYbm8Rz7NHcWx1VuDkZxa8XulkFSGAWRAMwAAMeMJAKi3hyvnH1tleeHsXFJiRRjNUJhsZ/J4MfvdmKswu6TMYqB0Dz89sbW5ywZs4xglSwD70QWnZRgggBMAADMBAYRnYah8SN0G2wse4pEBjKn+stOxk8Bd28DOLqt0sCi3R0jUGdqlM/swlT+JYJ1gBuxiE0rKbEEAIgAEYgIHCMNDTqON3T7Cd8HEuKqDS+AOsFliYge/aLIXjZWYNA7VloC9Mkwtc9CKOeZIUCNLkUqWlnxkAQQAGYAAGnGVgQGXyV5NkI3ysywqEaXyF0jLI4Hd28DOTqu1MCj3R0yUGhoJMPumyB3Hsk6yAypK/JQAQAGAABmDAKQaGVCZ/M8n2wccXQYFQy+cZ/E4NfpdmKRwrs2oYqDEDoU6+VATvoQ05UUBpSQgBhAAYgAEYyDcDYRpHObENDqNICthUyeDP9+Cnf+gfGPCXgUDHC4rkObQlZwoEWr5IgfG3wND39D0M5JUBHuubM7ss5uEoLddxd0BeiwDHhUHBgGcMDIU6+Vwx3YZW5VKBQMd/zToBFFrPCi0Xq9X4YjX4qbqGDCgdX5lLk+Cgiq1AqOUvlJY+BnHVgxhjwVhgAAbGy0BvqJMPF9tlaF2uFWhqi89XWnoIAYQAGIABGJgwBvYoHV+ca3Pg4PxQIEjlXaGWHQz+CRv8450psD2zSxgoDgPdYVtyrh/uQiudUEBl8nal5UVCACEABmAABurGwNamtPlPnDAFDtIvBcJU5qhMNjL46zb4mcUVZxZHX9KX42Xg+aZ2eatfrkJrnVKgSSczlZZWQgAhAAZgAAZqxEAmT89sbW5yygw4WD8VCFfOPzbUspTBX6PBz0xpvDMltoeZwjAQaHloxproDX66Ca12UoHZLdErVSr/mxBACIABGICBChnI5A5bS500AQ7acwWMOcI+mEJpGaIAVFgAmMkVZibHGGAMjIOBoeGH+hhzhOcuQvNdVyBM4yuUlt5xwE/Rx/hhAAZ8ZaA3zOKPul73OX4UOKBAk07eo7RsJQQwC4IBGICBURnYEqTJOQcKJz+gQFEUCNuj2UrLGgb/qIPf1xkP7Wa2DwNaVje1JacXpd7TDhQ4RIEZLdFJKot/TQggBMAADMDAXgYCHT82rSP6g0MKJi+gQOEUWBYdGeh4AYMfA4ABGPCdgSCT27jSv3AuR4PGUiDQcrnSssv3AkD7MUEY8JKB3UrLJ8aqk/weBQqrQGNbdJbSspoC6GUB5Htfvvv3lYG19vkphS3sNAwFylWgMZ13vNJyHyGAEAADMOABA/9v0BIdV259ZDsUKL4CdtEgnT+d6sgAAAhfSURBVHxJaRn0oAD4Ouuh3cz4fWZgyF771GCiKcUv6LQQBSpQIEyTC1gvgFkgIRAGCsbA9iCLL6mgJLILCvilQNCavEnpZFXBCoDPMx/azszfWwYCLSn39/vlYbS2SgVObImOUVq+RQhgJggDMOAqA2GafHPaUze+pspyyO4o4KcCQZpcqrRsdrUAcNyYFwx4ycBWlclf+Vm1aTUK1FCB4dUDtfycQuplIfX21DG8u8l7oOXBIGturGEJ5K1QwHMF9t4l8DmlZQ+F0c3CSL/RbwVnoG/vI3y5yt9zt6L59VJAtUZnKC0rC15ImPVy0RwMuMVAa1O7vLVedY/3RQEU2KdAsG7RqwItX1NahggCzCphAAYmk4FAJ3dyoR/2hAITrIBK4w8oLc9P5uDnszEfGPCWgRfCNL5wgsseH4cCKLBfgabWuW9UWn5KEfa2CHOq3K1T5YXor1DLT2aumjttfx3iXxRAgUlUINTxZUpLF0GAIAADMFBHBp4PdfLhSSx1fDQKoEApBaZ1RH9gv4+r4+AvxOwFfTBIGBg3A0O2tvAQn1KVl9dQIEcK2ITOtQHjLnCEG06lw0AJBkItWrU1vzNHJY5DQQEUOJwCJz+z4PX77hQYYLZDGIABGKiAgX779L4Za6KjD1dr+B0KoEBOFWhqjc5WWlZUMPiZDZWYDaEjRuoDA0EqvwtTmZPTssZhoQAKlKvAnBW3vSLUyZeUll0+FC/aiEnDQMUMdIdaPt9glkwtt76wHQqggAMK2PW5uUiw4sLIGRHOiBSZgSGlkyUzW5ubHChlHCIKoEClCjTq+N1KJ6uYJREGYAAGlI5/G2r5vyqtJ+yHAijgmgLLoiNDndiHC23DBDABGPCSgefCVK5pMDy8x7XyzfGiQE0UsKt5BZncprRwtwCnuIt8ipu2vcT3bqXjZtbvr0kJ5U1QwH0FZmTRafY7QGaCXs4EMceXzLHQWgSZ/KxJJzPdr1i0AAVQoOYKhG3JuUrLkwQBggAMFIcBe1sfi/nUvFzyhihQQAXMkqlKx1cGWjoxgeKYAH3pZV+uDjP5GN/zF7BO0yQUqKcCs1uiV9qLhFhW2EvjKPSpcA/CUJdd+4NV/OpZIXlvFPBAAXux0L6FhLZ6UDgxPk++Dy8iy6GWHXb53lnt0es8KE00EQVQYKIUOEEvfC1BgLMBRTRO19u03/jDlfOPnah6wOegAAp4qMCIILDF9cLJ8RNoXGYA4/ewANNkFMiDAjPWRG8IsuR6peVFl4sox04IcJCBzUon/2yf+pmHWsAxoAAKeKqAvdDIXmk8/Nxwvj/mGgIYqCcDz4dpHGH8nhZbmo0CuVXARFPCNL4w0PFjDs6o6lm0eW9CQXUMZNJul+6e1X7zUbkd/xwYCqAAClgFwqz5T5WWu5WWQcIAp9hhoDIGQi1LbahuMOYIKgsKoAAKOKVA2BadHGj5mtKyCxOozATQzTvdeu2y3EGb/DenBjsHiwIogAKlFDipfd6JQSb/EmjZhKF5Z2jVnf725euDTDba7/ftA7pKjSFeQwEUQAGnFRheXVDHl6lUHlBahggDhAEYkBV2xc1g3aJXOT24OXgUQAEUKFeB6To51a5aprRsxgQIAp4xsM0+hjtI5cxyxwvboQAKoEDhFLBLDatUPq60/JKzAgSBAgcBe8Zrub1ldvqK6NWFG8g0CAVQAAWqUWB6R7Pat9zw6gIbAd+J+/K9/t52rrdnuoKWaFY1Y4N9UQAFUMAPBUw0RaXxB0KdfFdp6SYMcGbAJQb2LtGb3Bm2xu/jUbx+lCxaiQIoUAcFhlcaTOML7a1RSkuvS0bAsXoVXAbsxa32FP+JLdExdRgKvCUKoAAK+KtAYzrv+DBNrg20PKS0DGCwXhlsHr866bemH2Tx1UFLdJy/I5OWowAKoMAEKmALrp1tBZn8jDMDBIEJDIM2eD5ql+blnv0JHPB8FAqgAAqUUsA+mTDM4o+GWn5iv3+dQDPI46yUY6r9RYbbh1fn03I5D+IpNQJ5DQVQAAXyoIBZMtU+i2DfGgOthAHODlTIwDP2Xn27Fr9dwCoPaHMMKIACKIAC41BgRhadFmr5fKjlXu4oIAwcJgzsDFL5T3tqvzGNThkHYmyKAiiAAiiQdwXsTC5Ik3NUFs9TOv4tFxJ6HQjsd/lPKB03B6m8i1l+3kcvx4cCKIACNVTA3q4VtiXn2oew7Hs+AbcZ1v7787xck2ANf4V9OmWo48u4ar+GA4m3QgEUQAHXFbCBQKXJ+5WORWm5X2nZdphTxnkxNo6jdGjZqrTcZ8OdDXl2yWnX+eT4UQAFUAAFJkoBE00J26PZSsdX2gvClJYnlZY+QkHuvjroC3Xye6Xjf7PPlWhqS05vMOaIicKEz0EBFEABFPBAgTkrbntF2CJvHl6DQMvX7D3hSstOQsGEhQKr9YpAJ3faC/aG7/jgUboejDyaiAIogAI5VUDpaPrw9QQ6+dy+swWPsiZBVaFgj0qlxd5/P3waX8eX2eDF2vo5HQAcFgqgAAqgwAgFjDnCPuGwUcfvDjL5pF2bYO9iRcnvCQfD4WC7PXUfaPlxkMr8YY3S5JzG9ijgFP4IjvgRBVAABVCgWAqEK+cfG6RyZpgmFyidfEplMtee2g60PKh0skplslFpGXTw64XBvceerLJtsW2ybVNarrNttW22qzcWqzdpDQqgAAqgAArUUgGzZOqMlugka5pNOnlPqJMP25mySuUL9h52lca3DD82OZW79t7KGD+y73a3VGl5RmnZrLRsGfG3p0SgsK+N3Mbu80ygxb7HCqXll8Pvncpdez8rvmXvZ8sXAh1fFaTxf7fHNmzsLdFJnKavJQC8FwrUR4H/DwI7Yo6nlGDpAAAAAElFTkSuQmCC;" vertex="1" parent="1">
          <mxGeometry x="3278" y="-102" width="42" height="42" as="geometry" />
        </mxCell>
        <mxCell id="sXrkbcoMHqB5MU0Kjqhi-30" value="" style="shape=image;verticalLabelPosition=bottom;labelBackgroundColor=default;verticalAlign=top;aspect=fixed;imageAspect=0;image=data:image/png,iVBORw0KGgoAAAANSUhEUgAAAgAAAAIACAYAAAD0eNT6AAAAAXNSR0IArs4c6QAAIABJREFUeAHt3Xms7VdVB/DVYkFBMSEYTKki4FTBxJBoVUABwaEts8hUykypAwhCNGpMxBgBTQQsBVQEEUUEMRFF+AcTR2JQkzoBJkBrDJYEgiODlPq27aHvXe5999xz9j5nr9/6vOTlTffus/dn7X3W9/7uOb8X4QcBAgQIECBAgAABAgQIECBAgAABAgQIECBAgAABAgQIECBAgAABAgQIECBAgAABAgQIECBAgAABAgQIECBAgAABAgQIECBAgAABAgQIECBAgAABAgQIECBAgAABAgQIECBAgAABAgQIECBAgAABAgQIECBAgAABAgQIECBAgAABAgQIECBAgAABAgQIECBAgAABAgQIECBAgAABAgQIECBAgAABAgQIECBAgAABAgQIECBAgAABAgQIECBAgACBRAIXRMTlEfHiiPj9iHhXRPxDRPx9RLw7It4WES+JiKdGxFclWpepEiBAgAABAgcEvjQinh8RfxcRN57w5/sj4gURcfcDY/ojAQIECBAgMKnAnSPiqoj4+Amb/mEh4dMR8YaIuHDStZoWAQIECBAoL3CriHhWRPxHh8Z/MAx8KiJedOpbCLctrwyAAAECBAhMJHDHiHj7gMZ/MAj8U0R8/UTrNhUCBAgQIFBW4Gsi4rodNP9VGGhXGB5YVtvCCRAgQIDABAL3jIjrd9j8VyHgExHxkAnWbwoECBAgQKCcQHux37V7aP6rENBeZHjfcuoWTIAAAQIE9ihw65vfv79qxvv69cMRcf4eHTw0AQIECBAoJfDze/zK/2DYeGdEnFNK32IJECBAgMAeBL4hItr78w824n3++Ul7cPCQBAgQIECglMAfT9b8W/BoL0T8wlJVsFgCBAgQILBDgXtP2PxXVx6es0MHD0WAAAECBEoJvGniANDuRXBuqWpYLAECBAgQ2IHA7Tvd33/1FfuIX++/AwcPQYAAAQIESgk8YeKv/ldh4upSFbFYAgQIECCwA4FXJwgA/7gDBw9BgAABAgRKCbTmuvpKe9ZfPxMRdyhVFYslQIAAAQIDBdp/9fvJBAGgBZOLBjoYmgABAgQIlBL48iTNvwWAx5aqjMUSIECAAIGBAvdIFACuGOhgaAIECBAgUErgXokCgBsCldqaFkuAAAECIwW+KVEAeN5ICGMTIECAAIFKAgJApWpbKwECBAgQuFlAALAVCBAgQIBAQQEBoGDRLZkAAQIECAgA9gABAgQIECgoIAAULLolEyBAgAABAcAeIECAAAECBQUEgIJFt2QCBAgQIJApAPyIchEgQIAAAQJ9BNp/sDPr/wB4cF4CQJ+aG4UAAQIECPz//7B3sNHO+mcBwIYlQIAAAQKdBFwB6ARpGAIECBAgkElAAMhULXMlQIAAAQKdBASATpCGIUCAAAECmQQEgEzVMlcCBAgQINBJQADoBGkYAgQIECCQSUAAyFQtcyVAgAABAp0EvjnRfQCe22nNhiFAgAABAuUFBIDyWwAAAQIECFQUEAAqVt2aCRAgQKC8gABQfgsAIECAAIGKAgJAxapbMwECBAiUFxAAym8BAAQIECBQUUAAqFh1ayZAgACB8gICQPktAIAAAQIEKgoIABWrbs0ECBAgUF7gWxLdCOg55asFgAABAgQIdBIQADpBGoYAAQIECGQSEAAyVctcCRAgQIBAJwEBoBOkYQgQIECAQCYBASBTtcyVAAECBAh0EhAAOkEahgABAgQIZBIQADJVy1wJECBAgEAnAQGgE6RhCBAgQIBAJoFvTXQfgB/OBGuuBAgQIEBgZgEBYObqmBsBAgQIEBgkIAAMgjUsAQIECBCYWUAAmLk65kaAAAECBAYJCACDYA1LgAABAgRmFhAAZq6OuREgQIAAgUECAsAgWMMSIECAAIGZBQSAmatjbgQIECBAYJCAADAI1rAECBAgQGBmgXsnuhHQs2eGNDcCBAgQIJBJQADIVC1zJUCAAAECnQQEgE6QhiFAgAABApkEBIBM1TJXAgQIECDQSUAA6ARpGAIECBAgkElAAMhULXMlQIAAAQKdBASATpCGIUCAAAECmQQEgEzVMlcCBAgQINBJ4D7uA9BJ0jAECBAgQCCRQKYA8KxErqZKgAABAgSmFhAApi6PyREgQIAAgTECAsAYV6MSIECAAIGpBQSAqctjcgQIECBAYIyAADDG1agECBAgQGBqAQFg6vKYHAECBAgQGCMgAIxxNSoBAgQIEJhaQACYujwmR4AAAQIExgjcN9GNgH5oDIFRCRAgQIBAPQEBoF7NrZgAAQIECIQAYBMQIECAAIGCAgJAwaJbMgECBAgQEADsAQIECBAgUFBAAChYdEsmQIAAAQICgD1AgAABAgQKCggABYtuyQQIECBA4NvcB8AmIECAAAEC9QQyBYAfrFceKyZAgAABAmMEBIAxrkYlQIAAAQJTCwgAU5fH5AgQIECAwBgBAWCMq1EJECBAgMDUAgLA1OUxOQIECBAgMEZAABjjalQCBAgQIDC1gAAwdXlMjgABAgQIjBEQAMa4GpUAAQIECEwt8O2JbgTkPgBTbyWTI0CAAIFMApkCwA9kgjVXAgQIECAws4AAMHN1zI0AAQIECAwSEAAGwRqWAAECBAjMLCAAzFwdcyNAgAABAoMEBIBBsIYlQIAAAQIzCwgAM1fH3AgQIECAwCABAWAQrGEJECBAgMDMAvdLdB8AbwOceSeZGwECBAikEhAAUpXLZAkQIECAQB+BTAHg+/ss2SgECBAgQICAAGAPECBAgACBggICQMGiWzIBAgQIEBAA7AECBAgQIFBQQAAoWHRLJkCAAAECAoA9QIAAAQIECgoIAAWLbskECBAgQOD+iW4E5G2A9isBAgQIEOgkkCkAXNlpzYYhQIAAAQLlBQSA8lsAAAECBAhUFBAAKlbdmgkQIECgvIAAUH4LACBAgACBigICQMWqWzMBAgQIlBcQAMpvAQAECBAgUFFAAKhYdWsmQIAAgfICAkD5LQCAAAECBCoKPCDRjYDcB6DiDrVmAgQIEBgikCkAPHOIgEEJECBAgEBBAQGgYNEtmQABAgQICAD2AAECBAgQKCggABQsuiUTIECAAAEBwB4gQIAAAQIFBQSAgkW3ZAIECBAgIADYAwQIECBAoKDAdyS6D4C3ARbcoJZMgAABAmMEBIAxrkYlQIAAAQJTC2QKAFdMLWlyBAgQIEAgkYAAkKhYpkqAAAECBHoJCAC9JI1DgAABAgQSCQgAiYplqgQIECBAoJeAANBL0jgECBAgQCCRgACQqFimSoAAAQIEegkIAL0kjUOAAAECBBIJPDDRjYC8DTDRxjJVAgQIEJhbIFMAeMbclGZHgAABAgTyCAgAeWplpgQIECBAoJuAANCN0kAECBAgQCCPgACQp1ZmSoAAAQIEugkIAN0oDUSAAAECBPIICAB5amWmBAgQIECgm4AA0I3SQAQIECBAII/AgxLdB8DbAPPsKzMlQIAAgckFBIDJC2R6BAgQIEBghECmAPD0EQDGJECAAAECFQUEgIpVt2YCBAgQKC8gAJTfAgAIECBAoKKAAFCx6tZMgAABAuUFBIDyWwAAAQIECFQUEAAqVt2aCRAgQKC8gABQfgsAIECAAIGKAt+Z6EZA3gZYcYdaMwECBAgMERAAhrAalAABAgQIzC2QKQA8bW5KsyNAgAABAnkEBIA8tTJTAgQIECDQTUAA6EZpIAIECBAgkEdAAMhTKzMlQIAAAQLdBASAbpQGIkCAAAECeQQEgDy1MlMCBAgQINBN4LsS3QfAuwC6ld1ABAgQIFBdQACovgOsnwABAgRKCggAJctu0QQIECBQXSBTAHhq9WJZPwECBAgQ6CUgAPSSNA4BAgQIEEgkIAAkKpapEiBAgACBXgICQC9J4xAgQIAAgUQCAkCiYpkqAQIECBDoJSAA9JI0DgECBAgQSCTw3YluBORdAIk2lqkSIECAwNwCAsDc9TE7AgQIECAwRCBTAHjKEAGDEiBAgACBggICQMGiWzIBAgQIEBAA7AECBAgQIFBQQAAoWHRLJkCAAAECAoA9QIAAAQIECgoIAAWLbskECBAgQOB7Et0HwLsA7FcCBAgQINBJQADoBGkYAgQIECCQSUAAyFQtcyVAgAABAp0EMgWAJ3das2EIECBAgEB5AQGg/BYAQIAAAQIVBQSAilW3ZgIECBAoLyAAlN8CAAgQIECgooAAULHq1kyAAAEC5QUEgPJbAAABAgQIVBS4ONGNgLwLoOIOtWYCBAgQGCIgAAxhNSgBAgQIEJhbQACYuz5mR4AAAQIEhghkCgBPGiJgUAIECBAgUFBAAChYdEsmQIAAAQICgD1AgAABAgQKCggABYtuyQQIECBAQACwBwgQIECAQEGBSxLdB8CLAAtuUEsmQIAAgTECAsAYV6MSIECAAIGpBQSAqctjcgQIECBAYIxApgDwxDEERiVAgAABAvUEBIB6NbdiAgQIECAQAoBNQIAAAQIECgoIAAWLbskECBAgQEAAsAcIECBAgEBBAQGgYNEtmQABAgQIXJroRkDeBWC/EiBAgACBTgICQCdIwxAgQIAAgUwCAkCmapkrAQIECBDoJJApAFzeac2GIUCAAAEC5QUEgPJbAAABAgQIVBQQACpW3ZoJECBAoLyAAFB+CwAgQIAAgYoCAkDFqlszAQIECJQXeHCi+wB4EWD57QqAAAECBHoJCAC9JI1DgAABAgQSCQgAiYplqgQIECBAoJeAANBL0jgECBAgQCCRQKYA8IRErqZKgAABAgSmFhAApi6PyREgQIAAgTECAsAYV6MSIECAAIGpBQSAqctjcgQIECBAYIyAADDG1agECBAgQGBqgYckuhGQFwFOvZVMjgABAgQyCQgAmaplrgQIECBAoJOAANAJ0jAECBAgQCCTgACQqVrmSoAAAQIEOglkCgCXdVqzYQgQIECAQHkBAaD8FgBAgAABAhUFBICKVbdmAgQIECgvIACU3wIACBAgQKCiwEMT3QfAawAq7lBrJkCAAIEhAgLAEFaDEiBAgACBuQUEgLnrY3YECBAgQGCIgAAwhNWgBAgQIEBgboFMAeDxc1OaHQECBAgQyCMgAOSplZkSIECAAIFuAgJAN0oDESBAgACBPAICQJ5amSkBAgQIEOgmIAB0ozQQAQIECBDII/CwRDcC8iLAPPvKTAkQIEBgcgEBYPICmR4BAgQIEBghIACMUDUmAQIECBCYXEAAmLxApkeAAAECBEYIZAoAjxsBYEwCBAgQIFBRQACoWHVrJkCAAIHyAgJA+S0AgAABAgQqCggAFatuzQQIECBQXuDhie4D4DUA5bcrAAIECBDoJSAA9JI0DgECBAgQSCQgACQqlqkSIECAAIFeAgJAL0njECBAgACBRAICQKJimSoBAgQIEOglkCkAPLbXoo1DgAABAgSqCwgA1XeA9RMgQIBASQEBoGTZLZoAAQIEqgsIANV3gPUTIECAQEmBRyS6EZDXAJTcohZNgAABAiMEBIARqsYkQIAAAQKTCwgAkxfI9AgQIECAwAgBAWCEqjEJECBAgMDkAgLA5AUyPQIECBAgMEIgUwB4zAgAYxIgQIAAgYoCAkDFqlszAQIECJQXEADKbwEABAgQIFBR4JGJ7gPgWwAVd6g1EyBAgMAQAQFgCKtBCRAgQIDA3AICwNz1MTsCBAgQIDBEQAAYwmpQAgQIECAwt4AAMHd9zI4AAQIECAwRyBQAHj1EwKAECBAgQKCggABQsOiWTIAAAQIEBAB7gAABAgQIFBQQAAoW3ZIJECBAgMD3JroRkNcA2K8ECBAgQKCTgADQCdIwBAgQIEAgk4AAkKla5kqAAAECBDoJCACdIA1DgAABAgQyCQgAmaplrgQIECBAoJNApgDwfZ3WbBgCBAgQIFBeQAAovwUAECBAgEBFAQGgYtWtmQABAgTKCzwq0X0AfAug/HYFQIAAAQK9BASAXpLGIUCAAAECiQQEgETFMlUCBAgQINBLQADoJWkcAgQIECCQSEAASFQsUyVAgAABAr0EBIBeksYhQIAAAQKJBDIFgDZXPwgQIECAAIEOAgJAB0RDECBAgACBbAICQLaKmS8BAgQIEOgg0G6uc2OSn74F0KHghiBAgAABAk1AALAPCBAgQIBAQQEBoGDRLZkAAQIECAgA9gABAgQIECgoIAAULLolEyBAgACBTAGg/dfFfhAgQIAAAQIdBASADoiGIECAAAEC2QQEgGwVM18CBAgQINBB4NFJ7gHQ7lXgWwAdCm4IAgQIECDQBAQA+4AAAQIECBQUEAAKFt2SCRAgQICAAGAPECBAgACBggICQMGiWzIBAgQIEBAA7AECBAgQIFBQIFMAeGTB+lgyAQIECBAYIiAADGE1KAECBAgQmFtAAJi7PmZHgAABAgSGCDwm0Y2AfAtgyBYwKAECBAhUFBAAKlbdmgkQIECgvIAAUH4LACBAgACBigICQMWqWzMBAgQIlBcQAMpvAQAECBAgUFFAAKhYdWsmQIAAgfICmQLAI8pXCwABAgQIEOgkkCkAeBvg9kW/XUTcLyKeFhE/HREvvPnnj0XE5RFxr4g4b/uHMQIBAgQ2E/jaiHhGRLw+Iv48It4bER+LiM9ExEdPPVG9PyLeERG/GBEPj4g7bPYwPisiBIDlb4M7RcSzI+IvIuJ/17jvw8cj4g8j4ukRcfvl81ghAQL7FmhPUj8RER9c4wnqxgMf057U3hoR7SvEc/e9kGSPLwAkK9gJpnvXiHhVRHziwHk5eH7O9uf/jIirIuLOJ3hcH0qAAIG1BL4kIn41Ij65xZPU6U9g7WrBZacub56z1qP7oEwBwGsA1tuvtzl1teynIqJ9JX/62djm9/9z6lsDP3vq2wWfv94UfBQBAgSOFmgN+oqI+EjHJ6nTn+D+JCIuPPrh/cvNAgLAsrbCV0fENYPOVDtfLWB/47LIrIYAgV0KtBcivXngk9QqCPzXzVcDdrm2bI/12B3UYVWPbX91BeDsu+vBEfHvO6hn+5ZCe42OHwQIEDiRwAUR8Tc7eJI6vdm84EQzrPXBAsAy6v24NV/gd/q52Pb3P7MMOqsgQGAXAnc89arz9+y4+a+e5F7mdQGHllgAOJQl1V8+JSJu2NO5elEqKZMlQGAvAreNiL/c05PUKgS0VzN7ceCZ5RcAzvTI9qd9Nv/VuXpuNjTzJUBgtwKv2XPzXz1ZCQFn1l0AONMj059maP7tXH06Ih6QCc5cCRDYncClkzT/VQh4uSsBny2+APBZilS/maX5r87Uh9yQK9X+MVkCOxFodxL718kCQHvSEgJuKr8AsJNj0PVBZmv+qxDw2q6rNBgBAukFfnzC5r96wvpldw6M9urxlcfsv7bbPlf/MWvzb3un3ar7ouoFsn4CBG4SaO/3//DkDebq4t8OyHQFoHoAmLn5r8Jj+z86/CBAgEA8c/Lmv3rSekXhEOAKQI6DmqH5r64C3CMHqVkSIDBS4J1JAkB74qoaAgSAkSegz9hZmv8qULd7bvhBgEBhgfa/+7W3B62eFDL8+isFXxOQKQA8rOB5ytb82zlvL/p1v42Cm9WSCawEHp+s+a8CyiuLPXllCgDVXgOQsfmvztG9Vk8EfiVAoJ7Ai5MGgPYE1v574nOLlCxTUKt0BSBz829n6Moi58cyCRA4ROCPEgeA9gT2qiJXAlwBOGTz7vmvsjf/1fnZM6OHJ0BgXwL7+k9/2pNPr58VQoAAsK8TcvjjLqH5t/P3tsOX528JEKggcF3HRtyroW8yztJDQKYAsPRvASyl+bdz9u4KT3LWSIDA4QIfWUgAaE9mr17wawK8BuDw/bvrv11S829n5q93DejxCBCYR2D2OwCe9GrAUm8bLADs/8wsrfm3s/Wu/bOaAQEC+xL42wVdAViFhSVeCRAA9nVCbnrcJTb/dl7esl9Wj06AwD4F3rrAANCe2JZ2syABYH+nZKnNv52Tl+yP1SMTILBvgV9YaABYWggQAPZzUpbc/NsZaS8u9YMAgaIClyw4ALQnuKXcLEgA2P0BXXrzb+fjLrtn9YgECMwi8EUR8amFh4AlvCbgskQ1eugsm3uLeVRo/n+1hY9PJUBgIQJvT9Rc2lctm/zMHgJcAdjdYavQ/NsZes7uSD0SAQKzCly8YVPdpBHv83N+LfF9AlwB2M3pqdL8PxYRX7wbUo9CgMDMAu0/1HlvkRCQ9UqAADD+BFVp/i2Ev2A8p0cgQCCLQKZbzW57FSHjlQABYOxJqtT8r42I243lNDoBAtkE3lHkKkALENlCgAAw7jRVav5t7z94HKWRCRDIKnC3iPjvQiHgNYleEyAAjDlV1Zr/S8cwGpUAgSUIPCoibhACpiulANC/JNWa/59GxK37MxqRAIElCTyvUABol0TfEBG3mryAT0hUk4dMbtmmV635XxMRd0hQF1MkQGACgXapcNsX22X6/NdO/u0AVwD6HYpqzf89EXGnfnxGIkBg6QLnnPqK4WXFQsDMVwJcAehz4qo1//b23vP70BmFAIFKAi0E/FLBEPB5ExZZANi+KNWa//s0/+03jREIVBYQAuaovgCwXR0qNv87b0fmswkQIBAhBOx/FwgAm9dA89/czmcSIECgZAj47YiY5dsBmQLATDea0fw9eREgQKCDQMUrAbOEAAHg5BtY8z+5mc8gQIDAkQJCwJE0Q//h8kQvxpzhCoDmP3Q7GpwAgaoCLQRclagh9bgfwb6vBAgA6582zX99Kx9JgACBEwtUDAFv3ONrAgSA9bao5r+ek48iQIDAVgJCwFZ8J/pkAeB4Ls3/eCMfQYAAgW4CQkA3yrMOJACclafcvf3bTX68z//se8K/EiCwAwEhYDyyAHC0sa/8j7bxLwQIEBguIASMJRYADvfV/A938bcECBDYqYAQMI47UwC4dBzDGSNr/mdw+AMBAgT2K9BCwMuLvUVwF+8OeGIi010EgGrN/599z3+/T2wenQCB9QQqhoDfGfwWQQHglr1XsflfcMvy/Y4AAQJzCwgBfesjANzkWa35fyAivqLvVjIaAQIExgsIAf2MBYAo91Y/zb/f+TESAQJ7EBAC+qBXDwC+8u+zj4xCgACBnQpUDAFv6vyagMoBQPPf6XH1YAQIEOgrIARs51k1AFRr/h/0Pf/tDorPJkBgTgEhYPO6VAwAmv/m+8VnEiBAYDoBIWCzkmQKAJdstsQzPkvzP4PDHwgQILAMgaoh4LwtyvekRDcC2jYAaP5bbBSfSoAAgdkFWgi4OlFTu7HDXNsLAzcNAVUCgOY/+8k1PwIECHQQEALWR6wQADT/9feDjyRAgEB6gYoh4M0bXAlYegDQ/NMfZQsgQIDAyQWEgOPNlhwANP/j6+8jCBAgsFgBIeDspV1qAKjY/O969lL7VwIECNQTEAKOrvkSA4Dmf3S9/QsBAgTKCVQMAb+7xmsClhYANP9yR9uCCRAgcLxACwGv6PC2ux5v3dvVGMeFgCcn8rj4mBJr/scA+WcCBAhUFhACzqz+UgKA5n9mXf2JAAECBA4REAJuQVlCAKjW/K+NCC/4u2UP+x0BAgROJFAxBPxBRNzmgFL2AKD5HyioPxIgQIDA8QJCQETmAKD5H7/HfQQBAgQIHCFQPQRkDQCa/xEb2l8TIECAwPoCLQS8MtGr4Xu8g2D17YCMAUDzX39v+0gCBAgQOEagagh4ZqLg094GqPkfs5H9MwECBAicXODciHhNoobY40rA9YnW+8aIuCHRfLetzwdO7ce7nHwb+wwCBAgQ2ESg4pWAbRuVz4/obdDe6ne3TTawzyFAgACBzQWEgP4NrXeDXPJ4mv/mZ9dnEiBAYGuB9u2A1xa63LzkhpppbZr/1kfXAAQIENheQAhwJWCX4UHz3/7MGoEAAQLdBIQAIWAXIUDz73ZkDUSAAIF+AkKAEDAyBGj+/c6qkQgQINBdQAgQAkaEAM2/+1E1IAECBPoLCAFCQM8QoPn3P6NGJECAwDABIUAI6BECNP9hR9TABAgQGCcgBAgB24SA69zkZ9zhNDIBAgRGCwgBQsAmIaA1/7uP3pzGJ0CAAIGxAi0E/LqbBXW/De4mjTXD52j+Y8+j0QkQILBTgVsJAQLAGiFQ89/psfRgBAgQ2I2AEODbAWe7AqH57+YcehQCBAjsRUAIEAIOCwGa/16OowclQIDAbgWEACHg9BCg+e/2/Hk0AgQI7FVACBACWgjQ/Pd6DD04AQIE9iPQQsDr1nhh2OlfLfr9coKD5r+fc+dRCRAgMIWAELCchn6ScKb5T3H8TIIAAQL7FRACaoUAzX+/582jEyBAYCoBIaBGCND8pzp2JkOAAIE5BISAZYcAzX+Oc2YWBAgQmFJACFhmCPgX9/af8ryZFAECBKYSEAKWFQJa8//KqXaYyRAgQIDAtAItBPyGtwim//8DNP9pj5iJESBAYF4BISD3lQDNf96zZWYECBCYXkAIyBkCNP/pj5YJEiBAYH4BISBXCND85z9TZkiAAIE0AkJAjhCg+ac5UiZKgACBPAJCwNwhQPPPc5bMlAABAukEhIA5Q4Dmn+4omTABAgTyCQgBc4WAD0XEhfm2kRkTIECAQEYBIWCOEKD5Zzw95kyAAIHkAkLAfkOA5p/8AJk+AQIEMgu0EPB6dwzc+R0DNf/Mp8bcCRAgsBABIWC3VwI0/4UcHMsgQIDAEgSEgN2EAM1/CafFGggQILAwASFgbAjQ/Bd2YCyHAAECSxIQAsaEgH/zVr8lHRNrIUCAwDIFhIC+IaA1/69b5laxKgIECBBYmoAQ0CcEaP5LOxnWQ4AAgQICLQT8prcIbvwWQc2/wCGxRAIECCxVQAjY7EqA5r/UE2FdBAgQKCQgBJwsBGj+hQ6HpRIgQGDpAkLAeiFA81/6SbA+AgQIFBQQAs4eAjT/gofCkgkQIFBFQAg4PARo/lVOgHUSIECgsEDua3koAAAC2ElEQVQLAb/l3QGffXeA5l/4MFg6AQIEqgkIATddCdD8q+186yVAgACBqB4CNH+HgAABAgTKClQNAZp/2S1v4QQIECCwEqgWAjT/VeX9SoAAAQLlBaqEgNb871G+2gAIECBAgMBpAksPAZr/acX2WwIECBAgcLpACwFvWOBbBK/3lf/pZfZ7AgQIECDwuQJLCwGa/+fW2N8QIECAAIFDBZYSAjT/Q8vrLwkQIECAwNEC2UOA5n90bf0LAQIECBA4q0DWEKD5n7Ws/pEAAQIECBwvcF5EvCXRCwM1/+Nr6iMIECBAgMBaAllCgOa/Vjl9EAECBAgQWF9g9hCg+a9fSx9JgAABAgROJDBrCGjN/54nWokPJkCAAAECBE4kMFsI0PxPVD4fTIAAAQIENhdoIeD3JnhhoOa/eQ19JgECBAgQ2Ehg3yFA89+obD6JAAECBAhsL3DriHjjHq4EXHfqcS/cfvpGIECAAAECBDYVODciXrrDEHBNRFyw6WR9HgECBAgQINBX4BER8dHBQeB1EXG7vtM2GgECBAgQILCtwPkR0Zr0ZzoHgfdFxMXbTs7nEyBAgAABAmMFLrr5XQI3bBkE3hMRT4mI9loDPwgQIECAAIEkAl8WEc+PiD+LiE+uGQbaV/tXRcR9IuKcJOs0TQIECBAgQOAIgS+IiHZl4LKI+NGI+LmIeGFE/GREXBkRD4qI9i0EPwgQIECAAAECBAgQIECAAAECBAgQIECAAAECBAgQIECAAAECBAgQIECAAAECBAgQIECAAAECBAgQIECAAAECBAgQIECAAAECBAgQIECAAAECBAgQIECAAAECBAgQIECAAAECBAgQIECAAAECBAgQIECAAAECBAgQIECAAAECBAgQIECAAAECBAgQIECAAAECBAgQIECAAAECBAgQIECAAAECBAgQIECAAAECBAgQIECAAAECBAgQIECAAAECBAjkEfg/UCFJH+e5evIAAAAASUVORK5CYII=;" vertex="1" parent="1">
          <mxGeometry x="2790" y="340" width="30" height="30" as="geometry" />
        </mxCell>
        <mxCell id="sXrkbcoMHqB5MU0Kjqhi-31" value="&lt;font face=&quot;Quicksand&quot;&gt;Decision Making&lt;/font&gt;" style="rounded=1;whiteSpace=wrap;html=1;fillColor=#dae8fc;strokeColor=#6c8ebf;fontSize=15;fontStyle=1" vertex="1" parent="1">
          <mxGeometry x="2670" y="380" width="270" height="80" as="geometry" />
        </mxCell>
      </root>
    </mxGraphModel>
  </diagram>
</mxfile>
